<svg id="Layer_1" data-name="Layer 1" xmlns="http://www.w3.org/2000/svg" width="64" height="64" viewBox="0 0 64 64">
  <defs>
    <style>
      .cls-1 {
        fill-rule: evenodd;
      }
    </style>
  </defs>
  <title>Icons 300</title>
  <path class="cls-1" d="M32.0156,56.0162a24,24,0,1,1,24.0006-24A24.0005,24.0005,0,0,1,32.0156,56.0162Zm0-41a4,4,0,1,0,4,4A4,4,0,0,0,32.0156,15.0157Zm10.9378,10H21.078a1.0622,1.0622,0,0,0-.1318,2.1162l6.7118.839a.5.5,0,0,1,.4284.3981,17.8445,17.8445,0,0,1-.5693,9.1421l-2.42,8.5154a1.4981,1.4981,0,0,0,1.341,1.9891,1.412,1.412,0,0,0,1.2872-.8858l4.1762-9.8638a.125.125,0,0,1,.2276,0L36.3057,47.13a1.4116,1.4116,0,0,0,1.2869.8858,1.4983,1.4983,0,0,0,1.3413-1.9891l-2.42-8.5154a17.8456,17.8456,0,0,1-.5693-9.1421.5.5,0,0,1,.4284-.3981l6.7121-.839a1.0622,1.0622,0,0,0-.1319-2.1162Z"/>
</svg>
