<svg id="Layer_1" data-name="Layer 1" xmlns="http://www.w3.org/2000/svg" width="64" height="64" viewBox="0 0 64 64"><defs><style>.cls-1{fill-rule:evenodd}</style></defs><title>Icons 300</title><path class="cls-1" d="M32.016 56.016a24 24 0 1 1 24-24 24 24 0 0 1-24 24zm0-41a4 4 0 1 0 4 4 4 4 0 0 0-4-4zm10.937 10H21.078a1.062 1.062 0 0 0-.132 2.116l6.712.84a.5.5 0 0 1 .428.397 17.845 17.845 0 0 1-.569 9.143l-2.42 8.515a1.498 1.498 0 0 0 1.341 1.99 1.412 1.412 0 0 0 1.287-.887l4.177-9.864a.125.125 0 0 1 .227 0l4.177 9.864a1.412 1.412 0 0 0 1.287.886 1.498 1.498 0 0 0 1.34-1.99l-2.42-8.515a17.846 17.846 0 0 1-.568-9.142.5.5 0 0 1 .428-.398l6.712-.839a1.062 1.062 0 0 0-.132-2.116z"/></svg>