<svg id="Layer_1" data-name="Layer 1" xmlns="http://www.w3.org/2000/svg" width="64" height="64" viewBox="0 0 64 64">
  <defs>
    <style>
      .cls-1 {
        fill-rule: evenodd;
      }
    </style>
  </defs>
  <title>Icons 300</title>
  <path class="cls-1" d="M13.0159,12.0157h38a5,5,0,0,1,5,5v30a5,5,0,0,1-5,5h-38a5,5,0,0,1-5-5v-30A5,5,0,0,1,13.0159,12.0157ZM16.18,48.8239a2.0018,2.0018,0,0,0,2.6543-.9783L23.633,37.4533l3.9726,3.97a2.0005,2.0005,0,0,0,3.23-.576l4.5958-9.9531,3.9893,5.3169a2.001,2.001,0,0,0,3.498-.5679L48.92,17.6492a2,2,0,0,0-3.7954-1.2642L40.3308,30.7591l-3.71-4.9449a2.0008,2.0008,0,0,0-3.4164.3623L28.4059,36.5688l-3.9726-3.97a2.0006,2.0006,0,0,0-3.23.5761L15.2022,46.17A2,2,0,0,0,16.18,48.8239Z"/>
</svg>
