<svg id="Layer_1" data-name="Layer 1" xmlns="http://www.w3.org/2000/svg" width="64" height="64" viewBox="0 0 64 64"><defs><style>.cls-1{fill-rule:evenodd}</style></defs><title>Icons 300</title><path class="cls-1" d="M13.016 12.016h38a5 5 0 0 1 5 5v30a5 5 0 0 1-5 5h-38a5 5 0 0 1-5-5v-30a5 5 0 0 1 5-5zm3.164 36.808a2.002 2.002 0 0 0 2.654-.978l4.799-10.393 3.973 3.97a2 2 0 0 0 3.23-.576l4.595-9.953 3.99 5.317a2.001 2.001 0 0 0 3.498-.568L48.92 17.65a2 2 0 0 0-3.795-1.264L40.33 30.759l-3.71-4.945a2 2 0 0 0-3.417.362L28.406 36.57l-3.973-3.97a2 2 0 0 0-3.23.576l-6 12.995a2 2 0 0 0 .977 2.654z"/></svg>