<svg id="Layer_1" data-name="Layer 1" xmlns="http://www.w3.org/2000/svg" width="64" height="64" viewBox="0 0 64 64">
  <defs>
    <style>
      .cls-1 {
        fill-rule: evenodd;
      }
    </style>
  </defs>
  <title>Icons 200</title>
  <path class="cls-1" d="M36.9933,24.4871l5.07,2.5353c0.1308-1.1878.5424-2.0318,1.8738-2.0318,2.0465,0,2,1.8578,2,3.9688l8.9571,4.4784A2,2,0,0,1,56,35.2267v3.761a1,1,0,0,1-1.2216.9753L36.7561,35.867a87.63,87.63,0,0,1-2.1736,16.7145l5.8144,3.23a1.1726,1.1726,0,0,1-.6989,2.19h0a69.7276,69.7276,0,0,0-15.3958,0h0a1.1726,1.1726,0,0,1-.6989-2.19l5.8144-3.23A87.6213,87.6213,0,0,1,27.2439,35.867L9.2217,39.963A1,1,0,0,1,8,38.9877v-3.761a2,2,0,0,1,1.1057-1.7889L18,28.9906H17.9981c0-2.124-.0551-4,1.9393-4,1.3853,0,1.8047.8591,1.9356,2.0635l5.1338-2.567C27.1464,7.6518,29.6482,5.9905,32,5.9905S36.8538,7.6518,36.9933,24.4871Z"/>
</svg>
