<svg id="Layer_1" data-name="Layer 1" xmlns="http://www.w3.org/2000/svg" width="64" height="64" viewBox="0 0 64 64">
  <defs>
    <style>
      .cls-1 {
        fill-rule: evenodd;
      }
    </style>
  </defs>
  <title>Icons 100</title>
  <path class="cls-1" d="M56,16a4,4,0,0,0-4-4H12a4,4,0,0,0-4,4V42a4,4,0,0,0,4,4h4a2,2,0,1,0,0-4H13a1,1,0,0,1-1-1V17a1,1,0,0,1,1-1H51a1,1,0,0,1,1,1V41a1,1,0,0,1-1,1H48a2,2,0,1,0,0,4h4a4,4,0,0,0,4-4V16ZM44.0037,54.0155a2.0067,2.0067,0,0,0,1.4143-3.4244L33.4172,38.5552a1.996,1.996,0,0,0-2.8285,0L18.5881,50.5911a2.0067,2.0067,0,0,0,1.4141,3.4244H44.0037Z"/>
</svg>
