<svg id="Layer_1" data-name="Layer 1" xmlns="http://www.w3.org/2000/svg" width="64" height="64" viewBox="0 0 64 64"><defs><style>.cls-1{fill-rule:evenodd}</style></defs><title>Icons 100</title><path class="cls-1" d="M56 16a4 4 0 0 0-4-4H12a4 4 0 0 0-4 4v26a4 4 0 0 0 4 4h4a2 2 0 1 0 0-4h-3a1 1 0 0 1-1-1V17a1 1 0 0 1 1-1h38a1 1 0 0 1 1 1v24a1 1 0 0 1-1 1h-3a2 2 0 1 0 0 4h4a4 4 0 0 0 4-4V16zM44.004 54.016a2.007 2.007 0 0 0 1.414-3.425l-12-12.036a1.996 1.996 0 0 0-2.83 0l-12 12.036a2.007 2.007 0 0 0 1.414 3.424h24.002z"/></svg>