<svg id="Layer_1" data-name="Layer 1" xmlns="http://www.w3.org/2000/svg" width="64" height="64" viewBox="0 0 64 64"><defs><style>.cls-1{fill-rule:evenodd}</style></defs><title>Icons 200</title><path class="cls-1" d="M36.993 24.487l5.07 2.535c.131-1.187.543-2.031 1.874-2.031 2.047 0 2 1.857 2 3.968l8.957 4.479A2 2 0 0 1 56 35.227v3.76a1 1 0 0 1-1.222.976l-18.022-4.096a87.63 87.63 0 0 1-2.173 16.715l5.814 3.23a1.173 1.173 0 0 1-.699 2.19 69.728 69.728 0 0 0-15.396 0 1.173 1.173 0 0 1-.699-2.19l5.815-3.23a87.621 87.621 0 0 1-2.174-16.715L9.222 39.963A1 1 0 0 1 8 38.988v-3.761a2 2 0 0 1 1.106-1.79L18 28.992h-.002c0-2.124-.055-4 1.94-4 1.385 0 1.804.859 1.935 2.063l5.134-2.567C27.147 7.652 29.648 5.991 32 5.991s4.854 1.66 4.993 18.496z"/></svg>