<svg id="Layer_1" data-name="Layer 1" xmlns="http://www.w3.org/2000/svg" width="64" height="64" viewBox="0 0 64 64">
  <defs>
    <style>
      .cls-1 {
        fill-rule: evenodd;
      }
    </style>
  </defs>
  <title>Icons 300</title>
  <path class="cls-1" d="M22.8242,9.32a.81.81,0,0,1-.0891,1.1467L10.324,20.8517a.8217.8217,0,0,1-1.1521-.1083,8.92,8.92,0,0,1,.98-12.6148A9.0485,9.0485,0,0,1,22.8242,9.32Zm5.1915,3.0795v-.3838a2,2,0,0,1,2-2h4a2,2,0,0,1,2,2v.3838A20.9774,20.9774,0,0,1,48.4994,45.9983l3.4712,6.9334a.7491.7491,0,0,1-.671,1.084h-3.99a2.0006,2.0006,0,0,1-1.4142-.5851l-2.6776-2.6742a20.8774,20.8774,0,0,1-22.4038,0l-2.6776,2.6742a2,2,0,0,1-1.4141.5851h-3.99a.7491.7491,0,0,1-.671-1.084l3.4711-6.9334A20.9775,20.9775,0,0,1,28.0157,12.3995Zm-3.933,27.5042,9.559-4.4718a2.3852,2.3852,0,0,0,1.3825-2.4112c-.0188-.1749-1.4939-14.519-1.512-14.6954a1.5088,1.5088,0,0,0-3,0l-1.3544,13.168L22.52,37.49A1.4545,1.4545,0,0,0,24.0827,39.9037ZM41.2072,9.2908A9.0449,9.0449,0,0,1,53.8793,8.0987a8.93,8.93,0,0,1,.98,12.6227.8216.8216,0,0,1-1.1521.1084L41.2963,10.4383A.8109.8109,0,0,1,41.2072,9.2908Z"/>
</svg>
