<svg id="Layer_1" data-name="Layer 1" xmlns="http://www.w3.org/2000/svg" width="64" height="64" viewBox="0 0 64 64"><defs><style>.cls-1{fill-rule:evenodd}</style></defs><title>Icons 300</title><path class="cls-1" d="M22.824 9.32a.81.81 0 0 1-.089 1.147L10.324 20.852a.822.822 0 0 1-1.152-.109 8.92 8.92 0 0 1 .98-12.614A9.049 9.049 0 0 1 22.824 9.32zm5.192 3.08v-.384a2 2 0 0 1 2-2h4a2 2 0 0 1 2 2v.383A20.977 20.977 0 0 1 48.499 46l3.472 6.933a.75.75 0 0 1-.671 1.084h-3.99a2 2 0 0 1-1.415-.585l-2.677-2.675a20.877 20.877 0 0 1-22.404 0l-2.678 2.675a2 2 0 0 1-1.414.585h-3.99a.75.75 0 0 1-.67-1.084l3.47-6.934A20.977 20.977 0 0 1 28.016 12.4zm-3.933 27.504l9.559-4.472a2.385 2.385 0 0 0 1.382-2.411l-1.512-14.696a1.509 1.509 0 0 0-3 0l-1.354 13.168-6.638 5.997a1.454 1.454 0 0 0 1.563 2.414zM41.207 9.29A9.045 9.045 0 0 1 53.88 8.099a8.93 8.93 0 0 1 .98 12.622.822.822 0 0 1-1.152.109l-12.41-10.392a.81.81 0 0 1-.09-1.147z"/></svg>