<svg id="Layer_1" data-name="Layer 1" xmlns="http://www.w3.org/2000/svg" width="64" height="64" viewBox="0 0 64 64"><defs><style>.cls-1{fill-rule:evenodd}</style></defs><title>Icons 200</title><path class="cls-1" d="M32 52a25.564 25.564 0 0 1-4.69-.498 2.586 2.586 0 0 0-2.055.532 21.088 21.088 0 0 1-10.057 3.953 1.09 1.09 0 0 1-1.016-1.698 15.53 15.53 0 0 0 2.96-5.967 1.613 1.613 0 0 0-.602-1.57A21.16 21.16 0 0 1 8 30C8 17.865 18.745 8 32 8s24 9.865 24 22-10.745 22-24 22zm-.006-36a2.936 2.936 0 0 0-3 2.997l.554 13.755a2.454 2.454 0 0 0 4.891 0l.555-13.755a2.936 2.936 0 0 0-3-2.997zm0 22a3 3 0 1 0 3 3 3 3 0 0 0-3-3z"/></svg>