<svg id="Layer_1" data-name="Layer 1" xmlns="http://www.w3.org/2000/svg" width="64" height="64" viewBox="0 0 64 64">
  <defs>
    <style>
      .cls-1 {
        fill-rule: evenodd;
      }
    </style>
  </defs>
  <title>Icons 200</title>
  <path class="cls-1" d="M32,52a25.5637,25.5637,0,0,1-4.69-.4979,2.5855,2.5855,0,0,0-2.0546.5321,21.0881,21.0881,0,0,1-10.0574,3.9527,1.0907,1.0907,0,0,1-1.0159-1.6981,15.5308,15.5308,0,0,0,2.96-5.9666,1.6126,1.6126,0,0,0-.6024-1.5706A21.1592,21.1592,0,0,1,8,30C8,17.8647,18.7453,8,32,8s24,9.8647,24,22S45.2548,52,32,52ZM31.9936,16a2.9361,2.9361,0,0,0-3,2.9972L29.548,32.752a2.4543,2.4543,0,0,0,4.8912,0l0.5547-13.7547A2.9358,2.9358,0,0,0,31.9936,16Zm0,22a3,3,0,1,0,3,3A3,3,0,0,0,31.9941,38Z"/>
</svg>
