<svg id="Layer_1" data-name="Layer 1" xmlns="http://www.w3.org/2000/svg" width="64" height="64" viewBox="0 0 64 64">
  <defs>
    <style>
      .cls-1 {
        fill-rule: evenodd;
      }
    </style>
  </defs>
  <title>Icons 100</title>
  <path class="cls-1" d="M51.0523,43.0006a2.9982,2.9982,0,0,1-4.3447.9581L33.3465,34.3335l1.655,16.3829a3.0142,3.0142,0,1,1-6.0043,0l1.6553-16.3836-13.36,9.6248a3.0142,3.0142,0,1,1-3.0022-5.2L29.3046,32,14.29,25.2424a3.0143,3.0143,0,1,1,3.0022-5.2l13.36,9.625L28.9972,13.2835a3.0142,3.0142,0,1,1,6.0043,0l-1.655,16.3831,13.3611-9.6252a3.0142,3.0142,0,1,1,3.002,5.2L34.6925,32,49.71,38.7588A2.9985,2.9985,0,0,1,51.0523,43.0006Z"/>
</svg>
