<svg id="Layer_1" data-name="Layer 1" xmlns="http://www.w3.org/2000/svg" width="64" height="64" viewBox="0 0 64 64"><defs><style>.cls-1{fill-rule:evenodd}</style></defs><title>Icons 100</title><path class="cls-1" d="M51.052 43a2.998 2.998 0 0 1-4.344.959l-13.361-9.626L35 50.716a3.014 3.014 0 1 1-6.004 0l1.655-16.383-13.36 9.625a3.014 3.014 0 1 1-3.002-5.2L29.305 32 14.29 25.242a3.014 3.014 0 1 1 3.002-5.2l13.36 9.625-1.655-16.384a3.014 3.014 0 1 1 6.004 0l-1.654 16.384 13.36-9.626a3.014 3.014 0 1 1 3.003 5.2L34.693 32l15.017 6.759A2.998 2.998 0 0 1 51.052 43z"/></svg>