<svg id="Layer_1" data-name="Layer 1" xmlns="http://www.w3.org/2000/svg" width="64" height="64" viewBox="0 0 64 64"><defs><style>.cls-1{fill-rule:evenodd}</style></defs><title>Icons 200</title><path class="cls-1" d="M45.926 31.57a2.021 2.021 0 0 1 2.847 0 1.993 1.993 0 0 1 0 2.83L30.6 52.468a12.127 12.127 0 0 1-17.08 0 11.96 11.96 0 0 1 0-16.981l25.002-24.858a9.095 9.095 0 0 1 12.81 0 8.97 8.97 0 0 1 0 12.736l-19.99 19.863a6.063 6.063 0 0 1-8.54 0 5.98 5.98 0 0 1 0-8.49l13.287-13.2a2.021 2.021 0 0 1 2.847 0 1.993 1.993 0 0 1 0 2.83l-13.287 13.2a1.993 1.993 0 0 0 0 2.83 2.02 2.02 0 0 0 2.846 0l19.99-19.864a4.983 4.983 0 0 0 0-7.076 5.053 5.053 0 0 0-7.117 0l-25 24.859a7.973 7.973 0 0 0 0 11.322 8.085 8.085 0 0 0 11.387 0z"/></svg>