<svg id="Layer_1" data-name="Layer 1" xmlns="http://www.w3.org/2000/svg" width="64" height="64" viewBox="0 0 64 64">
  <defs>
    <style>
      .cls-1 {
        fill-rule: evenodd;
      }
    </style>
  </defs>
  <title>Icons 200</title>
  <path class="cls-1" d="M45.9263,31.57a2.021,2.021,0,0,1,2.8466,0,1.993,1.993,0,0,1,0,2.83L30.6,52.4683a12.1268,12.1268,0,0,1-17.08,0,11.9593,11.9593,0,0,1,0-16.9817L38.5224,10.6285a9.0953,9.0953,0,0,1,12.81,0,8.97,8.97,0,0,1,0,12.7362l-19.99,19.8636a6.0633,6.0633,0,0,1-8.54,0,5.98,5.98,0,0,1,0-8.4908L36.0891,21.5388a2.0212,2.0212,0,0,1,2.8465,0,1.9934,1.9934,0,0,1,0,2.83L25.6491,37.5677l0,0a1.9928,1.9928,0,0,0,0,2.83,2.0208,2.0208,0,0,0,2.8463,0h0l19.99-19.8635,0,0a4.9833,4.9833,0,0,0,0-7.0763,5.053,5.053,0,0,0-7.1171,0l0,0L16.3673,38.317l0,0a7.9733,7.9733,0,0,0,0,11.3216,8.0849,8.0849,0,0,0,11.3872,0l0,0Z"/>
</svg>
