<svg id="Layer_1" data-name="Layer 1" xmlns="http://www.w3.org/2000/svg" width="64" height="64" viewBox="0 0 64 64">
  <defs>
    <style>
      .cls-1 {
        fill-rule: evenodd;
      }
    </style>
  </defs>
  <title>Icons 400</title>
  <path class="cls-1" d="M35.6444,51.4l2.15,3.0614a.999.999,0,0,1-.8766,1.5547H27.0805a.9989.9989,0,0,1-.8765-1.5547l2.1506-3.0619C21.9163,48.6989,13,37.5042,13,27.0156c0-12.0314,8.503-21.001,19-21.001s19,8.97,19,21.001C51,37.5048,42.0828,48.7,35.6444,51.4ZM26.2292,11.0921a17.4473,17.4473,0,0,0-9.2413,14.9024,1.0283,1.0283,0,0,0,1.07,1.027h2.8334a1.0383,1.0383,0,0,0,1.0629-.9815c.1687-5.4408,1.8761-10.7036,4.959-14.3455C27.2265,11.3244,26.6756,10.8669,26.2292,11.0921Z"/>
</svg>
