<svg id="Layer_1" data-name="Layer 1" xmlns="http://www.w3.org/2000/svg" width="64" height="64" viewBox="0 0 64 64"><defs><style>.cls-1{fill-rule:evenodd}</style></defs><title>Icons 400</title><path class="cls-1" d="M35.644 51.4l2.15 3.061a.999.999 0 0 1-.876 1.555H27.08a.999.999 0 0 1-.877-1.555l2.15-3.062C21.917 48.7 13 37.504 13 27.016c0-12.032 8.503-21.001 19-21.001s19 8.97 19 21C51 37.506 42.083 48.7 35.644 51.4zM26.23 11.092a17.447 17.447 0 0 0-9.241 14.903 1.028 1.028 0 0 0 1.07 1.027h2.833a1.038 1.038 0 0 0 1.063-.982c.169-5.44 1.876-10.704 4.96-14.345.313-.37-.238-.828-.685-.603z"/></svg>