<svg id="Layer_1" data-name="Layer 1" xmlns="http://www.w3.org/2000/svg" width="64" height="64" viewBox="0 0 64 64">
  <defs>
    <style>
      .cls-1 {
        fill-rule: evenodd;
      }
    </style>
  </defs>
  <title>Icons 200</title>
  <path class="cls-1" d="M60,56H54a2,2,0,0,1,0-4h4V48a2,2,0,0,1,4,0v6A2,2,0,0,1,60,56Zm0-22H4a2,2,0,1,1,0-4H60A2,2,0,1,1,60,34Zm0-16a2,2,0,0,1-2-2V12H54a2,2,0,1,1,0-4h6a2,2,0,0,1,2,2v6A2,2,0,0,1,60,18ZM14,28H12a2,2,0,0,1-2-2V18a2,2,0,0,1,2-2h2a2,2,0,0,1,2,2v8A2,2,0,0,1,14,28ZM54,18v8a2,2,0,0,1-4,0V18A2,2,0,0,1,54,18Zm-8-2a2,2,0,0,1,2,2v8a2,2,0,0,1-2,2H44a2,2,0,0,1-2-2V18a2,2,0,0,1,2-2h2ZM36,16a2,2,0,0,1,2,2v8a2,2,0,0,1-2,2H35a2,2,0,0,1-2-2V18a2,2,0,0,1,2-2h1Zm-5,2v8a2,2,0,0,1-4,0V18A2,2,0,0,1,31,18Zm-9,0v8a2,2,0,0,1-4,0V18A2,2,0,0,1,22,18ZM12,10a2,2,0,0,1-2,2H6v4a2,2,0,0,1-4,0V10A2,2,0,0,1,4,8h6A2,2,0,0,1,12,10Zm0,44a2,2,0,0,1-2,2H4a2,2,0,0,1-2-2V48a2,2,0,1,1,4,0v4h4A2,2,0,0,1,12,54Zm0-18h2a2,2,0,0,1,2,2v8a2,2,0,0,1-2,2H12a2,2,0,0,1-2-2V38A2,2,0,0,1,12,36Zm6,10V38a2,2,0,0,1,4,0v8A2,2,0,0,1,18,46Zm9,0V38a2,2,0,0,1,4,0v8A2,2,0,0,1,27,46Zm8,2a2,2,0,0,1-2-2V38a2,2,0,0,1,2-2h1a2,2,0,0,1,2,2v8a2,2,0,0,1-2,2H35Zm9,0a2,2,0,0,1-2-2V38a2,2,0,0,1,2-2h2a2,2,0,0,1,2,2v8a2,2,0,0,1-2,2H44Zm6-10a2,2,0,0,1,4,0v8a2,2,0,0,1-4,0V38Z"/>
</svg>
