<svg id="Layer_1" data-name="Layer 1" xmlns="http://www.w3.org/2000/svg" width="64" height="64" viewBox="0 0 64 64"><defs><style>.cls-1{fill-rule:evenodd}</style></defs><title>Icons 200</title><path class="cls-1" d="M60 56h-6a2 2 0 0 1 0-4h4v-4a2 2 0 0 1 4 0v6a2 2 0 0 1-2 2zm0-22H4a2 2 0 1 1 0-4h56a2 2 0 1 1 0 4zm0-16a2 2 0 0 1-2-2v-4h-4a2 2 0 1 1 0-4h6a2 2 0 0 1 2 2v6a2 2 0 0 1-2 2zM14 28h-2a2 2 0 0 1-2-2v-8a2 2 0 0 1 2-2h2a2 2 0 0 1 2 2v8a2 2 0 0 1-2 2zm40-10v8a2 2 0 0 1-4 0v-8a2 2 0 0 1 4 0zm-8-2a2 2 0 0 1 2 2v8a2 2 0 0 1-2 2h-2a2 2 0 0 1-2-2v-8a2 2 0 0 1 2-2h2zm-10 0a2 2 0 0 1 2 2v8a2 2 0 0 1-2 2h-1a2 2 0 0 1-2-2v-8a2 2 0 0 1 2-2h1zm-5 2v8a2 2 0 0 1-4 0v-8a2 2 0 0 1 4 0zm-9 0v8a2 2 0 0 1-4 0v-8a2 2 0 0 1 4 0zm-10-8a2 2 0 0 1-2 2H6v4a2 2 0 0 1-4 0v-6a2 2 0 0 1 2-2h6a2 2 0 0 1 2 2zm0 44a2 2 0 0 1-2 2H4a2 2 0 0 1-2-2v-6a2 2 0 1 1 4 0v4h4a2 2 0 0 1 2 2zm0-18h2a2 2 0 0 1 2 2v8a2 2 0 0 1-2 2h-2a2 2 0 0 1-2-2v-8a2 2 0 0 1 2-2zm6 10v-8a2 2 0 0 1 4 0v8a2 2 0 0 1-4 0zm9 0v-8a2 2 0 0 1 4 0v8a2 2 0 0 1-4 0zm8 2a2 2 0 0 1-2-2v-8a2 2 0 0 1 2-2h1a2 2 0 0 1 2 2v8a2 2 0 0 1-2 2h-1zm9 0a2 2 0 0 1-2-2v-8a2 2 0 0 1 2-2h2a2 2 0 0 1 2 2v8a2 2 0 0 1-2 2h-2zm6-10a2 2 0 0 1 4 0v8a2 2 0 0 1-4 0v-8z"/></svg>