<svg id="Layer_1" data-name="Layer 1" xmlns="http://www.w3.org/2000/svg" width="64" height="64" viewBox="0 0 64 64"><defs><style>.cls-1{fill-rule:evenodd}</style></defs><title>Icons 200</title><path class="cls-1" d="M57 37a1 1 0 0 1-1-1v-8a1 1 0 0 1 1-1 3 3 0 0 1 3 3v4a3 3 0 0 1-3 3zm-7 7H10a4 4 0 0 1-4-4V24a4 4 0 0 1 4-4h40a4 4 0 0 1 4 4v16a4 4 0 0 1-4 4zM35.89 30.567a.998.998 0 0 0-.9-.567h-3.55l2.49-6.649a.999.999 0 0 0-1.716-.976l-7.985 10A1 1 0 0 0 25.01 34h3.55l-2.489 6.648a1 1 0 0 0 .442 1.221.986.986 0 0 0 .492.131.998.998 0 0 0 .78-.375l7.987-10a1.001 1.001 0 0 0 .119-1.058z"/></svg>