<svg id="Layer_1" data-name="Layer 1" xmlns="http://www.w3.org/2000/svg" width="64" height="64" viewBox="0 0 64 64">
  <defs>
    <style>
      .cls-1 {
        fill-rule: evenodd;
      }
    </style>
  </defs>
  <title>Icons 300</title>
  <path class="cls-1" d="M39.0145,46.0156c0-9.4739,6.0009-18.6319,6.0009-27A28.7851,28.7851,0,0,0,42.9321,8.6167a1,1,0,0,0-.9171-.6011H22.0121a1,1,0,0,0-.9171.6011,28.7851,28.7851,0,0,0-2.0833,10.3989c0,8.3707,6.0009,17.5242,6.0009,27a20.1762,20.1762,0,0,1-1.8842,8.5322,1.002,1.002,0,0,0,.884,1.4678H40.0147a1.0012,1.0012,0,0,0,.8839-1.4678A20.177,20.177,0,0,1,39.0145,46.0156Zm-15.4388-28a.5051.5051,0,0,1-.503-.5386,25.417,25.417,0,0,1,.9492-5.11.4923.4923,0,0,1,.4792-.3512H39.5262a.4922.4922,0,0,1,.4792.3513,25.4417,25.4417,0,0,1,.949,5.11.5052.5052,0,0,1-.5031.5387Z"/>
</svg>
