<svg id="Layer_1" data-name="Layer 1" xmlns="http://www.w3.org/2000/svg" width="64" height="64" viewBox="0 0 64 64"><defs><style>.cls-1{fill-rule:evenodd}</style></defs><title>Icons 300</title><path class="cls-1" d="M39.014 46.016c0-9.474 6.001-18.632 6.001-27a28.785 28.785 0 0 0-2.083-10.4 1 1 0 0 0-.917-.6H22.012a1 1 0 0 0-.917.6 28.785 28.785 0 0 0-2.083 10.4c0 8.37 6 17.524 6 27a20.176 20.176 0 0 1-1.884 8.532 1.002 1.002 0 0 0 .884 1.468h16.003a1.001 1.001 0 0 0 .884-1.468 20.177 20.177 0 0 1-1.885-8.532zm-15.438-28a.505.505 0 0 1-.503-.539 25.417 25.417 0 0 1 .949-5.11.492.492 0 0 1 .48-.351h15.024a.492.492 0 0 1 .48.351 25.442 25.442 0 0 1 .948 5.11.505.505 0 0 1-.503.539z"/></svg>