<svg id="Layer_1" data-name="Layer 1" xmlns="http://www.w3.org/2000/svg" width="64" height="64" viewBox="0 0 64 64"><defs><style>.cls-1{fill-rule:evenodd}</style></defs><title>Icons 300</title><path class="cls-1" d="M11.785 43.326a5.002 5.002 0 0 0 3.735-4.6l1.753-14.74a14.735 14.735 0 0 1 10.79-12.437 3.978 3.978 0 0 1 7.906 0 14.734 14.734 0 0 1 10.789 12.436l1.753 14.741a5.002 5.002 0 0 0 3.736 4.6 2.386 2.386 0 0 1-.648 4.69H12.433a2.386 2.386 0 0 1-.648-4.69zm20.23 12.69a6.019 6.019 0 0 1-6.006-5.474.5.5 0 0 1 .505-.526h11.003a.5.5 0 0 1 .505.526 6.019 6.019 0 0 1-6.006 5.474z"/></svg>