<svg id="Layer_1" data-name="Layer 1" xmlns="http://www.w3.org/2000/svg" width="64" height="64" viewBox="0 0 64 64">
  <defs>
    <style>
      .cls-1 {
        fill-rule: evenodd;
      }
    </style>
  </defs>
  <title>Icons 300</title>
  <path class="cls-1" d="M11.7848,43.3257A5.0022,5.0022,0,0,0,15.52,38.7262l1.7529-14.741A14.7345,14.7345,0,0,1,28.0627,11.5491a3.9779,3.9779,0,0,1,7.906,0A14.7344,14.7344,0,0,1,46.758,23.9852l1.753,14.741a5.0024,5.0024,0,0,0,3.7358,4.5995,2.3856,2.3856,0,0,1-.648,4.69H12.4326a2.3856,2.3856,0,0,1-.6478-4.69Zm20.2308,12.69a6.0185,6.0185,0,0,1-6.0067-5.4737.4992.4992,0,0,1,.5055-.5263H37.5168a.4992.4992,0,0,1,.5056.5263A6.0186,6.0186,0,0,1,32.0156,56.0157Z"/>
</svg>
