<svg id="Layer_1" data-name="Layer 1" xmlns="http://www.w3.org/2000/svg" width="64" height="64" viewBox="0 0 64 64">
  <defs>
    <style>
      .cls-1 {
        fill-rule: evenodd;
      }
    </style>
  </defs>
  <title>Icons 200</title>
  <path class="cls-1" d="M51,54a10.985,10.985,0,0,1-7.2716-19.2319L41.9111,31.739l-8.2469,12.37A1.9992,1.9992,0,0,1,32,45H23.809a11,11,0,1,1-6.4747-12.1069l3.3-4.95L18.268,24h-1.07a3,3,0,0,1-2.6832-1.6584l-0.4472-.8944A1,1,0,0,1,14.962,20H23.74a3,3,0,0,1,2.6834,1.6584L26.87,22.5528A1,1,0,0,1,25.976,24H22.9321l1.2,2H38.4679l-3.6-6H30.2063a3,3,0,0,1-2.6832-1.6583l-0.4472-.8945A1,1,0,0,1,27.97,16H36a1.9992,1.9992,0,0,1,1.7147.9712l9.4415,15.7355A10.9946,10.9946,0,1,1,51,54ZM13,36a7,7,0,1,0,6.7052,9H13a2,2,0,0,1-1.6641-3.1094l3.7209-5.5812A6.9767,6.9767,0,0,0,13,36Zm5.3828,2.5314L16.737,41h2.9683A6.988,6.988,0,0,0,18.3829,38.5314Zm4.5284-6.7921-2.2535,3.38A10.9792,10.9792,0,0,1,23.809,41h4.6589ZM26.5324,30l5.5565,9.2607L38.2633,30H26.5324ZM51,36a6.9687,6.9687,0,0,0-1.7324.2258l3.4471,5.7449a2,2,0,1,1-3.43,2.0586L45.84,38.2867A6.99,6.99,0,1,0,51,36Z"/>
</svg>
