<svg id="Layer_1" data-name="Layer 1" xmlns="http://www.w3.org/2000/svg" width="64" height="64" viewBox="0 0 64 64"><defs><style>.cls-1{fill-rule:evenodd}</style></defs><title>Icons 200</title><path class="cls-1" d="M51 54a10.985 10.985 0 0 1-7.272-19.232l-1.817-3.029-8.247 12.37A2 2 0 0 1 32 45h-8.191a11 11 0 1 1-6.475-12.107l3.3-4.95L18.268 24h-1.07a3 3 0 0 1-2.683-1.658l-.447-.895A1 1 0 0 1 14.962 20h8.778a3 3 0 0 1 2.683 1.658l.447.895A1 1 0 0 1 25.976 24h-3.044l1.2 2h14.336l-3.6-6h-4.662a3 3 0 0 1-2.683-1.658l-.447-.895A1 1 0 0 1 27.97 16H36a2 2 0 0 1 1.715.971l9.441 15.736A10.995 10.995 0 1 1 51 54zM13 36a7 7 0 1 0 6.705 9H13a2 2 0 0 1-1.664-3.11l3.72-5.58A6.977 6.977 0 0 0 13 36zm5.383 2.531L16.737 41h2.968a6.988 6.988 0 0 0-1.322-2.469zm4.528-6.792l-2.253 3.38A10.98 10.98 0 0 1 23.809 41h4.659zM26.532 30l5.557 9.26L38.263 30h-11.73zM51 36a6.969 6.969 0 0 0-1.732.226l3.447 5.745a2 2 0 1 1-3.43 2.058l-3.445-5.742A6.99 6.99 0 1 0 51 36z"/></svg>