<svg id="Layer_1" data-name="Layer 1" xmlns="http://www.w3.org/2000/svg" width="64" height="64" viewBox="0 0 64 64"><defs><style>.cls-1{fill-rule:evenodd}</style></defs><title>Icons 300</title><path class="cls-1" d="M46.016 54.016c-5.523 0-10-4.03-10-9v-2.222a10.664 10.664 0 0 0-8 0v2.222c0 4.97-4.477 9-10 9s-10-4.03-10-9v-10a8.874 8.874 0 0 1 5-7.786v-4.214c0-3.57 3.055-6.508 7-6.94v-2.06c0-2.21 2.238-4 5-4s5 1.79 5 4v2.195a10.328 10.328 0 0 1 4 0v-2.195c0-2.21 2.238-4 5-4s5 1.79 5 4v2.06c3.945.431 7 3.37 7 6.94v4.214a8.874 8.874 0 0 1 5 7.786v10c0 4.97-4.477 9-10 9zm-28-14c-3.314 0-6 2.238-6 5s2.686 5 6 5 6-2.239 6-5-2.686-5-6-5zm18-14.605a1.044 1.044 0 0 0-.813-.927 11.07 11.07 0 0 0-6.374 0 1.044 1.044 0 0 0-.813.927v4.115c0 .357.477.591.918.457a11.114 11.114 0 0 1 6.163 0c.441.134.919-.1.919-.457zm10 14.605c-3.314 0-6 2.238-6 5s2.686 5 6 5 6-2.239 6-5-2.687-5-6-5z"/></svg>