<svg id="Layer_1" data-name="Layer 1" xmlns="http://www.w3.org/2000/svg" width="64" height="64" viewBox="0 0 64 64">
  <defs>
    <style>
      .cls-1 {
        fill-rule: evenodd;
      }
    </style>
  </defs>
  <title>Icons 300</title>
  <path class="cls-1" d="M46.0157,54.0156c-5.5229,0-10-4.0294-10-9V42.7942a10.6642,10.6642,0,0,0-8,0v2.2214c0,4.9706-4.4771,9-10,9s-10-4.0294-10-9v-10a8.8741,8.8741,0,0,1,5-7.7861V23.0157c0-3.5691,3.0548-6.5082,7-6.94v-2.06c0-2.2092,2.2385-4,5-4s5,1.7908,5,4v2.1955a10.3279,10.3279,0,0,1,4,0V14.0156c0-2.2092,2.2386-4,5-4s5,1.7908,5,4v2.06c3.9453.4315,7,3.3706,7,6.94V27.23a8.874,8.874,0,0,1,5,7.7861v10C56.0157,49.9862,51.5386,54.0156,46.0157,54.0156Zm-28-14c-3.3139,0-6,2.2386-6,5s2.6861,5,6,5,6-2.2386,6-5S21.3295,40.0156,18.0158,40.0156Zm18-14.6045a1.0442,1.0442,0,0,0-.8132-.9269,11.07,11.07,0,0,0-6.3735,0,1.0442,1.0442,0,0,0-.8133.9269v4.1145c0,.3571.4773.5918.9182.4571a11.1145,11.1145,0,0,1,6.1636,0c.4409.1347.9182-.1.9182-.4571Zm10,14.6045c-3.3136,0-6,2.2386-6,5s2.6864,5,6,5,6-2.2386,6-5S49.3294,40.0156,46.0157,40.0156Z"/>
</svg>
