<svg id="Layer_1" data-name="Layer 1" xmlns="http://www.w3.org/2000/svg" width="64" height="64" viewBox="0 0 64 64"><defs><style>.cls-1{fill-rule:evenodd}</style></defs><title>Icons 200</title><path class="cls-1" d="M32 58c-11.886 0-18-7.797-18-26S20.114 6 32 6s18 7.797 18 26-6.114 26-18 26zm10.401-36.417l-9.006-9a2.001 2.001 0 0 0-3.416 1.414V27.17l-5.59-5.587a2 2 0 0 0-2.83 2.829L29.156 32l-7.597 7.588a2 2 0 1 0 2.83 2.829l5.59-5.586v13.173a2.001 2.001 0 0 0 3.416 1.414l9.006-9.001a1.999 1.999 0 0 0 0-2.829L34.844 32l7.557-7.588a1.999 1.999 0 0 0 0-2.829zm-8.42-2.758l4.176 4.173-4.175 4.172v-8.345zm0 26.35V36.83l4.176 4.172z"/></svg>