<svg id="Layer_1" data-name="Layer 1" xmlns="http://www.w3.org/2000/svg" width="64" height="64" viewBox="0 0 64 64">
  <defs>
    <style>
      .cls-1 {
        fill-rule: evenodd;
      }
    </style>
  </defs>
  <title>Icons 200</title>
  <path class="cls-1" d="M32,58c-11.8865,0-18-7.7974-18-26S20.1136,6,32,6s18,7.7973,18,26S43.8865,58,32,58ZM42.4015,21.5833l-9.0066-9.0011a2.0012,2.0012,0,0,0-3.4159,1.4143v13.173l-5.59-5.5862a2,2,0,0,0-2.83,2.8284L29.1564,32l-7.5976,7.5884a2,2,0,1,0,2.83,2.8284l5.59-5.5862v13.173a2.0012,2.0012,0,0,0,3.4159,1.4143l9.0066-9.0011a1.999,1.999,0,0,0,0-2.8284L34.8439,32l7.5576-7.5882A1.999,1.999,0,0,0,42.4015,21.5833Zm-8.42-2.7579,4.1758,4.1721-4.1758,4.172V18.8254Zm0,26.3491V36.83l4.1758,4.1719Z"/>
</svg>
