<svg id="Layer_1" data-name="Layer 1" xmlns="http://www.w3.org/2000/svg" width="64" height="64" viewBox="0 0 64 64">
  <defs>
    <style>
      .cls-1 {
        fill-rule: evenodd;
      }
    </style>
  </defs>
  <title>Icons 200</title>
  <path class="cls-1" d="M56,56a9.7246,9.7246,0,0,1-4.8944-1.2109,6.5056,6.5056,0,0,0-6.2111,0,10.4973,10.4973,0,0,1-9.789,0A5.7974,5.7974,0,0,0,32,54a5.7976,5.7976,0,0,0-3.1056.7891A9.7243,9.7243,0,0,1,24,56a9.7239,9.7239,0,0,1-4.8946-1.2109A5.7974,5.7974,0,0,0,16,54a5.7976,5.7976,0,0,0-3.1056.7891A9.7237,9.7237,0,0,1,8,56a2,2,0,1,1,0-4,5.7974,5.7974,0,0,0,3.1054-.7891A9.7244,9.7244,0,0,1,16,50a9.7238,9.7238,0,0,1,4.8944,1.2108A5.7976,5.7976,0,0,0,24,52a5.7974,5.7974,0,0,0,3.1054-.7891A9.7241,9.7241,0,0,1,32,50a9.7238,9.7238,0,0,1,4.8944,1.2108,6.5054,6.5054,0,0,0,6.211,0,10.4979,10.4979,0,0,1,9.7889,0A5.7974,5.7974,0,0,0,56,52,2,2,0,1,1,56,56ZM43.1056,48.2109a6.5054,6.5054,0,0,1-6.211,0A9.7237,9.7237,0,0,0,32,47a9.7239,9.7239,0,0,0-4.8946,1.2109A5.7974,5.7974,0,0,1,24,49a5.7976,5.7976,0,0,1-3.1056-.7891A9.7237,9.7237,0,0,0,16,47a26.8047,26.8047,0,0,1-4-13.1849,2.01,2.01,0,0,1,1.5658-1.9658l2.6844-.6007,2.2591-15.8143A4,4,0,0,1,22.4694,12H24.5l0.281-2.2481A2,2,0,0,1,26.7657,8H37.2345A2,2,0,0,1,39.219,9.7519L39.5,12h2.0308a4,4,0,0,1,3.96,3.4343L47.75,31.2486l2.6839,0.6007A2.0107,2.0107,0,0,1,52,33.8151,26.8057,26.8057,0,0,1,48,47,9.7235,9.7235,0,0,0,43.1056,48.2109ZM41.654,16.8587A1,1,0,0,0,40.664,16l-17.3273,0a1,1,0,0,0-.99.8585L20.4244,30.3145,29.8307,28.21a9.9326,9.9326,0,0,1,4.3383-.0005l9.4066,2.1053Z"/>
</svg>
