<svg id="Layer_1" data-name="Layer 1" xmlns="http://www.w3.org/2000/svg" width="64" height="64" viewBox="0 0 64 64"><defs><style>.cls-1{fill-rule:evenodd}</style></defs><title>Icons 200</title><path class="cls-1" d="M56 56a9.725 9.725 0 0 1-4.894-1.21 6.506 6.506 0 0 0-6.211 0 10.497 10.497 0 0 1-9.79 0A5.797 5.797 0 0 0 32 54a5.798 5.798 0 0 0-3.106.79A9.724 9.724 0 0 1 24 56a9.724 9.724 0 0 1-4.895-1.21A5.797 5.797 0 0 0 16 54a5.798 5.798 0 0 0-3.106.79A9.724 9.724 0 0 1 8 56a2 2 0 1 1 0-4 5.797 5.797 0 0 0 3.105-.79A9.724 9.724 0 0 1 16 50a9.724 9.724 0 0 1 4.894 1.21A5.798 5.798 0 0 0 24 52a5.797 5.797 0 0 0 3.105-.79A9.724 9.724 0 0 1 32 50a9.724 9.724 0 0 1 4.894 1.21 6.505 6.505 0 0 0 6.211 0 10.498 10.498 0 0 1 9.79 0A5.797 5.797 0 0 0 56 52a2 2 0 1 1 0 4zm-12.894-7.79a6.505 6.505 0 0 1-6.211 0A9.724 9.724 0 0 0 32 47a9.724 9.724 0 0 0-4.895 1.21A5.797 5.797 0 0 1 24 49a5.798 5.798 0 0 1-3.106-.79A9.724 9.724 0 0 0 16 47a26.805 26.805 0 0 1-4-13.185 2.01 2.01 0 0 1 1.566-1.966l2.684-.6 2.26-15.815A4 4 0 0 1 22.47 12h2.03l.281-2.248A2 2 0 0 1 26.766 8h10.468a2 2 0 0 1 1.985 1.752L39.5 12h2.03a4 4 0 0 1 3.96 3.434l2.26 15.815 2.684.6A2.01 2.01 0 0 1 52 33.815 26.806 26.806 0 0 1 48 47a9.723 9.723 0 0 0-4.894 1.21zM41.654 16.86a1 1 0 0 0-.99-.859H23.337a1 1 0 0 0-.99.859l-1.923 13.455 9.407-2.104a9.933 9.933 0 0 1 4.338 0l9.407 2.105z"/></svg>