<svg id="Layer_1" data-name="Layer 1" xmlns="http://www.w3.org/2000/svg" width="64" height="64" viewBox="0 0 64 64">
  <defs>
    <style>
      .cls-1 {
        fill-rule: evenodd;
      }
    </style>
  </defs>
  <title>Icons 200</title>
  <path class="cls-1" d="M38.179,51H15.4961a1.5007,1.5007,0,0,1-1.5014-1.5V48.0817a1.75,1.75,0,0,1,.9682-1.5654,5.4853,5.4853,0,0,0,3.0356-4.9069V22.39a5.4853,5.4853,0,0,0-3.0356-4.9068,1.75,1.75,0,0,1-.9682-1.5652V14.5A1.5008,1.5008,0,0,1,15.4961,13H37.2238a10.7027,10.7027,0,0,1,10.744,9.3662,10.4233,10.4233,0,0,1-2.5023,7.98,11.464,11.464,0,0,1,4.5416,9.8863A11.732,11.732,0,0,1,38.179,51ZM35.0152,21H28.0084v6h7.0068A3,3,0,1,0,35.0152,21Zm1.0009,14H28.0084v8h8.0077A4,4,0,1,0,36.0161,35Z"/>
</svg>
