<svg id="Layer_1" data-name="Layer 1" xmlns="http://www.w3.org/2000/svg" width="64" height="64" viewBox="0 0 64 64"><defs><style>.cls-1{fill-rule:evenodd}</style></defs><title>Icons 200</title><path class="cls-1" d="M38.179 51H15.496a1.5 1.5 0 0 1-1.501-1.5v-1.418a1.75 1.75 0 0 1 .968-1.566 5.485 5.485 0 0 0 3.035-4.907V22.39a5.485 5.485 0 0 0-3.035-4.907 1.75 1.75 0 0 1-.968-1.565V14.5a1.5 1.5 0 0 1 1.501-1.5h21.728a10.703 10.703 0 0 1 10.744 9.366 10.423 10.423 0 0 1-2.503 7.98 11.464 11.464 0 0 1 4.542 9.886A11.732 11.732 0 0 1 38.18 51zm-3.164-30h-7.007v6h7.007a3 3 0 1 0 0-6zm1.001 14h-8.008v8h8.008a4 4 0 1 0 0-8z"/></svg>