<svg id="Layer_1" data-name="Layer 1" xmlns="http://www.w3.org/2000/svg" width="64" height="64" viewBox="0 0 64 64">
  <defs>
    <style>
      .cls-1 {
        fill-rule: evenodd;
      }
    </style>
  </defs>
  <title>Icons 400</title>
  <path class="cls-1" d="M50,54.0157H20.4853a6,6,0,0,1-4.2427-1.7573l-3.071-3.0711A4,4,0,0,1,12,46.3589V10.0157a2,2,0,0,1,2-2H44a2,2,0,0,1,2,2v36a2,2,0,0,1-2,2H18.8321a.5.5,0,0,0-.3535.8536l.5606.5606a2,2,0,0,0,1.4142.5858H47.5a.5.5,0,0,0,.5-.5v-35a.5.5,0,0,1,.5-.5H50a2,2,0,0,1,2,2v36A2,2,0,0,1,50,54.0157Z"/>
</svg>
