<svg id="Layer_1" data-name="Layer 1" xmlns="http://www.w3.org/2000/svg" width="64" height="64" viewBox="0 0 64 64"><defs><style>.cls-1{fill-rule:evenodd}</style></defs><title>Icons 100</title><path class="cls-1" d="M29.14 50.833a25.048 25.048 0 0 0-11.79-2.845 27.517 27.517 0 0 0-6.885.942A1.12 1.12 0 0 1 9 47.859V15.243a1.125 1.125 0 0 1 .732-1.055 26.962 26.962 0 0 1 7.618-1.198 24.418 24.418 0 0 1 13.098 3.626 1.24 1.24 0 0 1 .552 1.04v32.107a1.243 1.243 0 0 1-1.86 1.07zM55 15.243v32.616a1.12 1.12 0 0 1-1.465 1.07 27.518 27.518 0 0 0-6.885-.941 25.048 25.048 0 0 0-11.79 2.845 1.243 1.243 0 0 1-1.86-1.07V17.656a1.241 1.241 0 0 1 .552-1.04A24.417 24.417 0 0 1 46.65 12.99a26.965 26.965 0 0 1 7.618 1.198A1.125 1.125 0 0 1 55 15.243z"/></svg>