<svg id="Layer_1" data-name="Layer 1" xmlns="http://www.w3.org/2000/svg" width="64" height="64" viewBox="0 0 64 64"><defs><style>.cls-1{fill-rule:evenodd}</style></defs><title>Icons 200</title><path class="cls-1" d="M37.005 22.01a1.027 1.027 0 0 1-.82-1.622l6.99-9.974a.996.996 0 0 1 1.638 0l6.988 9.974a1.027 1.027 0 0 1-.819 1.623H46v5.676c0 2.67-3.04 7.182-4.93 9.07l-5.313 5.314A5.963 5.963 0 0 0 34 46.313V52a2 2 0 0 1-4 0v-5.687a5.962 5.962 0 0 0-1.757-4.242l-5.314-5.314c-1.888-1.888-4.929-6.4-4.929-9.07V22.01h-4.995a1.027 1.027 0 0 1-.82-1.623l6.99-9.974a.996.996 0 0 1 1.638 0l6.989 9.974a1.027 1.027 0 0 1-.82 1.623H22v5.676a5.958 5.958 0 0 0 1.757 4.242l7.314 7.314A10.123 10.123 0 0 1 32 40.33a10.1 10.1 0 0 1 .929-1.088l7.314-7.314A5.96 5.96 0 0 0 42 27.686v-5.675h-4.995z"/></svg>