<svg id="Layer_1" data-name="Layer 1" xmlns="http://www.w3.org/2000/svg" width="64" height="64" viewBox="0 0 64 64">
  <defs>
    <style>
      .cls-1 {
        fill-rule: evenodd;
      }
    </style>
  </defs>
  <title>Icons 200</title>
  <path class="cls-1" d="M37.0206,22.0266a1.0274,1.0274,0,0,1-.8192-1.6225L43.19,10.43a.9956.9956,0,0,1,1.6381,0l6.9888,9.9743a1.0273,1.0273,0,0,1-.819,1.6225H46.0157v5.6757c0,2.6709-3.04,7.1825-4.9292,9.07l-5.314,5.314a5.963,5.963,0,0,0-1.7568,4.2428v5.6864a2,2,0,0,1-4,0V46.3293a5.9626,5.9626,0,0,0-1.7568-4.2428l-5.314-5.314c-1.8887-1.8877-4.9292-6.3993-4.9292-9.07V22.0266H13.0206a1.0274,1.0274,0,0,1-.8192-1.6225L19.19,10.43a.9955.9955,0,0,1,1.638,0l6.9889,9.9743a1.0274,1.0274,0,0,1-.8191,1.6225H22.0157v5.6757a5.9582,5.9582,0,0,0,1.7574,4.2421l7.3139,7.314a10.1332,10.1332,0,0,1,.9287,1.0877,10.11,10.11,0,0,1,.9287-1.0877l7.314-7.314a5.959,5.959,0,0,0,1.7573-4.2421V22.0266Z"/>
</svg>
