<svg id="Layer_1" data-name="Layer 1" xmlns="http://www.w3.org/2000/svg" width="64" height="64" viewBox="0 0 64 64">
  <defs>
    <style>
      .cls-1 {
        fill-rule: evenodd;
      }
    </style>
  </defs>
  <title>Icons 200</title>
  <path class="cls-1" d="M37.005,22.0108a1.0274,1.0274,0,0,1-.8192-1.6224l6.9888-9.9743a0.9956,0.9956,0,0,1,1.6381,0l6.9888,9.9743a1.0272,1.0272,0,0,1-.819,1.6224H46v5.6757c0,2.6709-3.04,7.1826-4.9292,9.07l-5.314,5.314A5.9628,5.9628,0,0,0,34,46.3135V52a2,2,0,0,1-4,0V46.3135a5.9624,5.9624,0,0,0-1.7568-4.2427l-5.314-5.314C21.0406,34.8691,18,30.3574,18,27.6865V22.0108H13.005a1.0274,1.0274,0,0,1-.8192-1.6224l6.9889-9.9743a0.9955,0.9955,0,0,1,1.638,0l6.9889,9.9743a1.0273,1.0273,0,0,1-.8191,1.6224H22v5.6757a5.9585,5.9585,0,0,0,1.7574,4.2422l7.3139,7.314A10.1225,10.1225,0,0,1,32,40.33a10.1,10.1,0,0,1,.9287-1.0876l7.314-7.314A5.9592,5.9592,0,0,0,42,27.6865V22.0108H37.005Z"/>
</svg>
