<svg id="Layer_1" data-name="Layer 1" xmlns="http://www.w3.org/2000/svg" width="64" height="64" viewBox="0 0 64 64"><defs><style>.cls-1{fill-rule:evenodd}</style></defs><title>Icons 300</title><path class="cls-1" d="M58.016 48.016a4 4 0 0 1-4 4h-44a4 4 0 0 1-4-4v-14a9.005 9.005 0 0 1 2-6 8.823 8.823 0 0 1-2-6c0-5.963 7.044-10 16-10h20c8.956 0 16 4.037 16 10a8.823 8.823 0 0 1-2 6 9.005 9.005 0 0 1 2 6zm-24-14c0-4.144-3-4.616-3-6s3-1.857 3-6c0-5.416-8.994-6-12-6s-12 .584-12 6c0 4.143 3 4.616 3 6s-3 1.856-3 6v13a1 1 0 0 0 1 1h22a1 1 0 0 0 1-1z"/></svg>