<svg id="Layer_1" data-name="Layer 1" xmlns="http://www.w3.org/2000/svg" width="64" height="64" viewBox="0 0 64 64">
  <defs>
    <style>
      .cls-1 {
        fill-rule: evenodd;
      }
    </style>
  </defs>
  <title>Icons 300</title>
  <path class="cls-1" d="M58.0156,48.0156a4,4,0,0,1-4,4h-44a4,4,0,0,1-4-4v-14a9.0046,9.0046,0,0,1,2-6,8.823,8.823,0,0,1-2-6c0-5.9629,7.0442-10,16-10h20c8.9559,0,16,4.0372,16,10a8.823,8.823,0,0,1-2,6,9.0046,9.0046,0,0,1,2,6Zm-24-14c0-4.1432-3-4.616-3-6s3-1.8569,3-6c0-5.4156-8.9932-6-12-6s-12,.5845-12,6c0,4.143,3,4.6159,3,6s-3,1.8568-3,6v13a1,1,0,0,0,1,1h22a1,1,0,0,0,1-1Z"/>
</svg>
