<svg id="Layer_1" data-name="Layer 1" xmlns="http://www.w3.org/2000/svg" width="64" height="64" viewBox="0 0 64 64">
  <defs>
    <style>
      .cls-1 {
        fill-rule: evenodd;
      }
    </style>
  </defs>
  <title>Icons 400</title>
  <path class="cls-1" d="M52,52.0156H12a4,4,0,0,1-4-4V33.553a1.5283,1.5283,0,0,1,2.3847-1.2709A9.9149,9.9149,0,0,0,16,34.0156H28V36.1c0,.8632,1.5971,1.9159,4,1.9159s4-1.0527,4-1.9159V34.0156H48a9.9149,9.9149,0,0,0,5.6153-1.7335A1.5283,1.5283,0,0,1,56,33.553V48.0156A4,4,0,0,1,52,52.0156Zm-4-20H36v-2a1,1,0,0,0-1-1H29a1,1,0,0,0-1,1v2H16a8,8,0,0,1-8-8v-4a4,4,0,0,1,4-4h9v-3a5,5,0,0,1,5-5H38a5,5,0,0,1,5,5v3h9a4,4,0,0,1,4,4v4A8,8,0,0,1,48,32.0156Zm-9-19a1,1,0,0,0-1-1H26a1,1,0,0,0-1,1v3H39Z"/>
</svg>
