<svg id="Layer_1" data-name="Layer 1" xmlns="http://www.w3.org/2000/svg" width="64" height="64" viewBox="0 0 64 64"><defs><style>.cls-1{fill-rule:evenodd}</style></defs><title>Icons 400</title><path class="cls-1" d="M52 52.016H12a4 4 0 0 1-4-4V33.553a1.528 1.528 0 0 1 2.385-1.27A9.915 9.915 0 0 0 16 34.015h12V36.1c0 .863 1.597 1.916 4 1.916s4-1.053 4-1.916v-2.084h12a9.915 9.915 0 0 0 5.615-1.734A1.528 1.528 0 0 1 56 33.553v14.463a4 4 0 0 1-4 4zm-4-20H36v-2a1 1 0 0 0-1-1h-6a1 1 0 0 0-1 1v2H16a8 8 0 0 1-8-8v-4a4 4 0 0 1 4-4h9v-3a5 5 0 0 1 5-5h12a5 5 0 0 1 5 5v3h9a4 4 0 0 1 4 4v4a8 8 0 0 1-8 8zm-9-19a1 1 0 0 0-1-1H26a1 1 0 0 0-1 1v3h14z"/></svg>