<svg id="Layer_1" data-name="Layer 1" xmlns="http://www.w3.org/2000/svg" width="64" height="64" viewBox="0 0 64 64">
  <defs>
    <style>
      .cls-1 {
        fill-rule: evenodd;
      }
    </style>
  </defs>
  <title>Icons 200</title>
  <path class="cls-1" d="M52,34a2,2,0,1,1,2-2A2,2,0,0,1,52,34ZM18,16a2,2,0,1,1-2,2A2,2,0,0,1,18,16ZM16,46a2,2,0,1,1,2,2A2,2,0,0,1,16,46Zm30,2a2,2,0,1,1,2-2A2,2,0,0,1,46,48Zm2-30a2,2,0,1,1-2-2A2,2,0,0,1,48,18ZM30,12a2,2,0,1,1,2,2A2,2,0,0,1,30,12Zm2,8A12,12,0,1,1,20,32,12,12,0,0,1,32,20Zm0,20a8,8,0,1,0-8-8A8.0005,8.0005,0,0,0,32,40ZM30,52a2,2,0,1,1,2,2A2,2,0,0,1,30,52ZM14,32a2,2,0,1,1-2-2A2,2,0,0,1,14,32Z"/>
</svg>
