<svg id="Layer_1" data-name="Layer 1" xmlns="http://www.w3.org/2000/svg" width="64" height="64" viewBox="0 0 64 64">
  <defs>
    <style>
      .cls-1 {
        fill-rule: evenodd;
      }
    </style>
  </defs>
  <title>Icons 200</title>
  <path class="cls-1" d="M57,34H53a2,2,0,1,1,0-4h4A2,2,0,1,1,57,34ZM13,32a2,2,0,0,1-2,2H7a2,2,0,1,1,0-4h4A2,2,0,0,1,13,32ZM51.2213,51.2212a2,2,0,0,1-2.8283,0l-2.8287-2.8284a2,2,0,0,1,2.8285-2.8284l2.8285,2.8284A2,2,0,0,1,51.2213,51.2212ZM48.42,12.7518A2,2,0,0,1,51.2482,15.58L48.42,18.4087A2,2,0,0,1,45.5914,15.58ZM30,57V53a2,2,0,0,1,4,0v4A2,2,0,0,1,30,57ZM18.4358,45.5643a2,2,0,0,1,0,2.8284l-2.8285,2.86a2,2,0,0,1-2.8285-2.8284l2.8285-2.86A2,2,0,0,1,18.4358,45.5643ZM12.7519,12.7519a2,2,0,0,1,2.8285,0L18.4087,15.58A2,2,0,1,1,15.58,18.4088L12.7519,15.58A2,2,0,0,1,12.7519,12.7519ZM30,11V7a2,2,0,0,1,4,0v4A2,2,0,1,1,30,11ZM48,32A16,16,0,1,1,32,16,16,16,0,0,1,48,32Zm-16-12A12,12,0,1,0,44.0007,32,12,12,0,0,0,32,19.9995Z"/>
</svg>
