<svg id="Layer_1" data-name="Layer 1" xmlns="http://www.w3.org/2000/svg" width="64" height="64" viewBox="0 0 64 64">
  <defs>
    <style>
      .cls-1 {
        fill-rule: evenodd;
      }
    </style>
  </defs>
  <title>Icons 100</title>
  <path class="cls-1" d="M8,38.0179V25.51a8.7264,8.7264,0,0,1,2.6955-6.3071L19.88,10.42A8.7277,8.7277,0,0,1,25.9117,8H38.6472A8.7278,8.7278,0,0,1,44.83,10.5683l8.6253,8.6584A8.7274,8.7274,0,0,1,56,25.3859V38.1413a8.7267,8.7267,0,0,1-2.4195,6.031L44.85,53.3037A8.7272,8.7272,0,0,1,38.5418,56H26.0162a8.7275,8.7275,0,0,1-6.16-2.5449L10.5679,44.2A8.7267,8.7267,0,0,1,8,38.0179Zm13.5849,1.5552a2.0015,2.0015,0,0,0,2.8305,2.8307l7.5733-7.5732,7.584,7.5841a2.0015,2.0015,0,0,0,2.8305-2.8305L34.82,32l7.613-7.6131a2.0015,2.0015,0,0,0-2.8305-2.83l-7.613,7.613L24.387,21.5674a2.0015,2.0015,0,0,0-2.8306,2.8306L29.1586,32Z"/>
</svg>
