<svg id="Layer_1" data-name="Layer 1" xmlns="http://www.w3.org/2000/svg" width="64" height="64" viewBox="0 0 64 64"><defs><style>.cls-1{fill-rule:evenodd}</style></defs><title>Icons 100</title><path class="cls-1" d="M8 38.018V25.51a8.726 8.726 0 0 1 2.696-6.307l9.184-8.783A8.728 8.728 0 0 1 25.912 8h12.735a8.728 8.728 0 0 1 6.183 2.568l8.625 8.659A8.727 8.727 0 0 1 56 25.386V38.14a8.727 8.727 0 0 1-2.42 6.031l-8.73 9.132A8.727 8.727 0 0 1 38.542 56H26.016a8.727 8.727 0 0 1-6.16-2.545L10.568 44.2A8.727 8.727 0 0 1 8 38.018zm13.585 1.555a2.002 2.002 0 0 0 2.83 2.83l7.574-7.572 7.584 7.584a2.002 2.002 0 0 0 2.83-2.83L34.82 32l7.613-7.613a2.002 2.002 0 0 0-2.83-2.83l-7.614 7.613-7.602-7.603a2.002 2.002 0 0 0-2.83 2.831L29.158 32z"/></svg>