<svg id="Layer_1" data-name="Layer 1" xmlns="http://www.w3.org/2000/svg" width="64" height="64" viewBox="0 0 64 64"><defs><style>.cls-1{fill-rule:evenodd}</style></defs><title>Icons 200</title><path class="cls-1" d="M52 30h-1v16a4 4 0 0 1-4 4H17a4 4 0 0 1-4-4V30h-1a2 2 0 0 1-2-2v-6a2 2 0 0 1 2-2h1C13 8.01 17.984 8 32 8s19 .01 19 12h1a2 2 0 0 1 2 2v6a2 2 0 0 1-2 2zM17 42.5a1.5 1.5 0 0 0 1.5 1.5h5a1.5 1.5 0 0 0 1.5-1.5v-1a1.5 1.5 0 0 0-1.5-1.5h-5a1.5 1.5 0 0 0-1.5 1.5v1zM38 11H26a2 2 0 1 0 0 4h12a2 2 0 1 0 0-4zm9 10a3 3 0 0 0-3-3H20a3 3 0 0 0-3 3v12a1 1 0 0 0 1 1h28a1 1 0 0 0 1-1V21zm0 20.5a1.5 1.5 0 0 0-1.5-1.5h-5a1.5 1.5 0 0 0-1.5 1.5v1a1.5 1.5 0 0 0 1.5 1.5h5a1.5 1.5 0 0 0 1.5-1.5v-1zM18 52h3a1.199 1.199 0 0 1 1 1v1a2.002 2.002 0 0 1-2 2h-4a2.002 2.002 0 0 1-2-2v-1.5a.91.91 0 0 1 1-1c.672 0 1.742.5 3 .5zm28 0c1.258 0 2.328-.5 3-.5a.91.91 0 0 1 1 1V54a2.002 2.002 0 0 1-2 2h-4a2.002 2.002 0 0 1-2-2v-1a1.198 1.198 0 0 1 1-1h3z"/></svg>