<svg id="Layer_1" data-name="Layer 1" xmlns="http://www.w3.org/2000/svg" width="64" height="64" viewBox="0 0 64 64">
  <defs>
    <style>
      .cls-1 {
        fill-rule: evenodd;
      }
    </style>
  </defs>
  <title>Icons 400</title>
  <path class="cls-1" d="M52.6119,34.0157H49.7825c-1.0314,8.8469-5.7024,12-12.7808,12H27.0024c-8.0575,0-12.9993-4.08-12.9993-16v-14a2,2,0,0,1,2-2H60a2,2,0,0,1,2,2v6.2666C62,31.024,58.431,34.0157,52.6119,34.0157Zm5.3873-15.5a.5.5,0,0,0-.5-.5H50.5009a.5.5,0,0,0-.5.5v11a.5.5,0,0,0,.5.5h2.1116c2.5249,0,5.3867,0,5.3867-7.7332Zm2.0013,30.4823c.0111,1.6568-5.5538,3.0175-8,3.0175H11.9992c-2.4459,0-8.0109-1.3607-8-3.0175a1.0021,1.0021,0,0,1,1.0061-.9825H58.9943A1.0024,1.0024,0,0,1,60.0005,48.9982Z"/>
</svg>
