<svg id="Layer_1" data-name="Layer 1" xmlns="http://www.w3.org/2000/svg" width="64" height="64" viewBox="0 0 64 64"><defs><style>.cls-1{fill-rule:evenodd}</style></defs><title>Icons 400</title><path class="cls-1" d="M52.612 34.016h-2.83c-1.03 8.847-5.702 12-12.78 12h-10c-8.057 0-12.999-4.08-12.999-16v-14a2 2 0 0 1 2-2H60a2 2 0 0 1 2 2v6.266c0 8.742-3.569 11.734-9.388 11.734zm5.387-15.5a.5.5 0 0 0-.5-.5h-6.998a.5.5 0 0 0-.5.5v11a.5.5 0 0 0 .5.5h2.112c2.524 0 5.386 0 5.386-7.733zM60 48.998c.012 1.657-5.553 3.018-8 3.018H12c-2.447 0-8.012-1.361-8-3.018a1.002 1.002 0 0 1 1.005-.982h53.99a1.002 1.002 0 0 1 1.006.982z"/></svg>