<svg id="Layer_1" data-name="Layer 1" xmlns="http://www.w3.org/2000/svg" width="64" height="64" viewBox="0 0 64 64">
  <defs>
    <style>
      .cls-1 {
        fill-rule: evenodd;
      }
    </style>
  </defs>
  <title>Icons 100</title>
  <path class="cls-1" d="M13,15a5,5,0,0,1,5-5H46a5,5,0,0,1,5,5V49a5,5,0,0,1-5,5H18a5,5,0,0,1-5-5V15ZM41,49a1,1,0,0,0,1,1h4a1,1,0,0,0,1-1V40a1,1,0,0,0-1-1H42a1,1,0,0,0-1,1v9Zm0-14a1,1,0,0,0,1,1h4a1,1,0,0,0,1-1V33a1,1,0,0,0-1-1H42a1,1,0,0,0-1,1v2Zm0-7a1,1,0,0,0,1,1h4a1,1,0,0,0,1-1V26a1,1,0,0,0-1-1H42a1,1,0,0,0-1,1v2ZM33,49a1,1,0,0,0,1,1h4a1,1,0,0,0,1-1V47a1,1,0,0,0-1-1H34a1,1,0,0,0-1,1v2Zm0-7a1,1,0,0,0,1,1h4a1,1,0,0,0,1-1V40a1,1,0,0,0-1-1H34a1,1,0,0,0-1,1v2Zm0-7a1,1,0,0,0,1,1h4a1,1,0,0,0,1-1V33a1,1,0,0,0-1-1H34a1,1,0,0,0-1,1v2Zm0-7a1,1,0,0,0,1,1h4a1,1,0,0,0,1-1V26a1,1,0,0,0-1-1H34a1,1,0,0,0-1,1v2ZM25,49a1,1,0,0,0,1,1h4a1,1,0,0,0,1-1V47a1,1,0,0,0-1-1H26a1,1,0,0,0-1,1v2Zm0-7a1,1,0,0,0,1,1h4a1,1,0,0,0,1-1V40a1,1,0,0,0-1-1H26a1,1,0,0,0-1,1v2Zm0-7a1,1,0,0,0,1,1h4a1,1,0,0,0,1-1V33a1,1,0,0,0-1-1H26a1,1,0,0,0-1,1v2Zm0-7a1,1,0,0,0,1,1h4a1,1,0,0,0,1-1V26a1,1,0,0,0-1-1H26a1,1,0,0,0-1,1v2ZM17,49a1,1,0,0,0,1,1h4a1,1,0,0,0,1-1V47a1,1,0,0,0-1-1H18a1,1,0,0,0-1,1v2Zm0-7a1,1,0,0,0,1,1h4a1,1,0,0,0,1-1V40a1,1,0,0,0-1-1H18a1,1,0,0,0-1,1v2Zm0-7a1,1,0,0,0,1,1h4a1,1,0,0,0,1-1V33a1,1,0,0,0-1-1H18a1,1,0,0,0-1,1v2Zm0-7a1,1,0,0,0,1,1h4a1,1,0,0,0,1-1V26a1,1,0,0,0-1-1H18a1,1,0,0,0-1,1v2Zm0-7a1,1,0,0,0,1,1H46a1,1,0,0,0,1-1V15a1,1,0,0,0-1-1H18a1,1,0,0,0-1,1v6Z"/>
</svg>
