<svg id="Layer_1" data-name="Layer 1" xmlns="http://www.w3.org/2000/svg" width="64" height="64" viewBox="0 0 64 64">
  <defs>
    <style>
      .cls-1 {
        fill-rule: evenodd;
      }
    </style>
  </defs>
  <title>Icons 100</title>
  <path class="cls-1" d="M24,10v6a2,2,0,1,1-4,0V10A2,2,0,1,1,24,10Zm30,6V50a4,4,0,0,1-4,4H14a4,4,0,0,1-4-4V16a4,4,0,0,1,4-4h3a1,1,0,0,1,1,1v2.8282a4.1159,4.1159,0,0,0,3.6072,4.153A4.0007,4.0007,0,0,0,26,16V13a1,1,0,0,1,1-1H37a1,1,0,0,1,1,1v2.8282a4.1161,4.1161,0,0,0,3.607,4.153A4.0007,4.0007,0,0,0,46,16V13a1,1,0,0,1,1-1h3A4,4,0,0,1,54,16ZM49,28H15a1,1,0,0,0-1,1V49a1,1,0,0,0,1,1H49a1,1,0,0,0,1-1V29A1,1,0,0,0,49,28ZM42,8a2,2,0,0,1,2,2v6a2,2,0,1,1-4,0V10A2,2,0,0,1,42,8Z"/>
</svg>
