<svg id="Layer_1" data-name="Layer 1" xmlns="http://www.w3.org/2000/svg" width="64" height="64" viewBox="0 0 64 64"><defs><style>.cls-1{fill-rule:evenodd}</style></defs><title>Icons 300</title><path class="cls-1" d="M60.413 53.413a1.997 1.997 0 0 1-2.827 0L17.607 13.41a2 2 0 0 1 2.827-2.828l39.979 40.004a2 2 0 0 1 0 2.828zM49.785 29.738a10.992 10.992 0 0 0-14.586-8.03 1.015 1.015 0 0 1-1.08-.22l-5.345-5.34a.66.66 0 0 1 .467-1.127H52.02a4 4 0 0 1 4 4v22.76a.66.66 0 0 1-1.127.467l-5.34-5.337a1.015 1.015 0 0 1-.22-1.08 11.014 11.014 0 0 0 .452-6.093zM10.012 19.019a2.001 2.001 0 0 1-1.973-2.335 2.074 2.074 0 0 1 2.08-1.664h5.378a2 2 0 0 1 1.414.585l2.289 2.288a.66.66 0 0 1-.467 1.126zm0 2H21.5a2 2 0 0 1 1.414.586l5.555 5.55a1.014 1.014 0 0 1 .22 1.077A10.99 10.99 0 0 0 42.81 42.34a1.016 1.016 0 0 1 1.076.22l5.333 5.329a.66.66 0 0 1-.467 1.126H12.012a4 4 0 0 1-4-4V23.02a2 2 0 0 1 2-2z"/></svg>