<svg id="Layer_1" data-name="Layer 1" xmlns="http://www.w3.org/2000/svg" width="64" height="64" viewBox="0 0 64 64">
  <defs>
    <style>
      .cls-1 {
        fill-rule: evenodd;
      }
    </style>
  </defs>
  <title>Icons 200</title>
  <path class="cls-1" d="M18,19H10a2,2,0,0,1,0-4h8A2,2,0,1,1,18,19ZM8,45V23a2,2,0,0,1,2-2H20a2,2,0,0,0,2-2v2h0V17a2,2,0,0,1,2-2H52a4,4,0,0,1,4,4V45a4,4,0,0,1-4,4H12A4,4,0,0,1,8,45Zm41-8a0.9987,0.9987,0,0,0,.8-0.4l3-3.9993A1,1,0,0,0,52,31H49.95a10.9748,10.9748,0,0,0-17.8884-7.5132,1.01,1.01,0,0,0-.0793,1.4953,0.9892,0.9892,0,0,0,1.3284.07A8.905,8.905,0,0,1,39,23a8.999,8.999,0,0,1,8.9414,8H46a1,1,0,0,0-.8,1.6l3,3.9993A0.9986,0.9986,0,0,0,49,37ZM25.1055,32.4473A1,1,0,0,0,26,33h2.05a10.9746,10.9746,0,0,0,17.8882,7.5133,1.01,1.01,0,0,0,.08-1.4954,0.9894,0.9894,0,0,0-1.3284-.07A8.9052,8.9052,0,0,1,39,41a8.9988,8.9988,0,0,1-8.9413-8H32a1,1,0,0,0,.8-1.6l-3-3.9993a0.9989,0.9989,0,0,0-1.5995,0L25.2,31.4A1.0007,1.0007,0,0,0,25.1055,32.4473Z"/>
</svg>
