<svg id="Layer_1" data-name="Layer 1" xmlns="http://www.w3.org/2000/svg" width="64" height="64" viewBox="0 0 64 64">
  <defs>
    <style>
      .cls-1 {
        fill-rule: evenodd;
      }
    </style>
  </defs>
  <title>Icons 300</title>
  <path class="cls-1" d="M60.4128,53.4135a1.997,1.997,0,0,1-2.8266,0L17.6071,13.4093a2,2,0,0,1,2.8268-2.8288L60.4128,50.5846A2,2,0,0,1,60.4128,53.4135ZM49.7851,29.7368a10.9916,10.9916,0,0,0-14.5865-8.0306,1.0149,1.0149,0,0,1-1.0794-.2185l-5.3449-5.3411A.66.66,0,0,1,29.241,15.02H52.02A4,4,0,0,1,56.02,19.0193V41.7806a.66.66,0,0,1-1.1268.4667L49.5523,36.91a1.015,1.015,0,0,1-.219-1.0791A11.0139,11.0139,0,0,0,49.7851,29.7368ZM10.0121,19.0193a2.0011,2.0011,0,0,1-1.973-2.3353,2.0744,2.0744,0,0,1,2.08-1.664h5.378a2,2,0,0,1,1.414.5854L19.2,17.8928a.66.66,0,0,1-.4667,1.1265Zm0,2H21.5a2.0008,2.0008,0,0,1,1.4141.5854l5.555,5.551a1.0143,1.0143,0,0,1,.22,1.0763A10.9908,10.9908,0,0,0,42.8081,42.34a1.016,1.016,0,0,1,1.0768.22l5.3326,5.3287a.66.66,0,0,1-.4667,1.1266H12.0124a4,4,0,0,1-4.0009-3.9994V23.0188A2,2,0,0,1,10.0121,21.0191Z"/>
</svg>
