<svg id="Layer_1" data-name="Layer 1" xmlns="http://www.w3.org/2000/svg" width="64" height="64" viewBox="0 0 64 64">
  <defs>
    <style>
      .cls-1 {
        fill-rule: evenodd;
      }
    </style>
  </defs>
  <title>Icons 200</title>
  <path class="cls-1" d="M54.1057,33.9473A2,2,0,0,0,53,35.7361V43c0,5.0185-7.0664,6-21,6s-21-.9814-21-6v-7.264a2,2,0,0,0-1.1056-1.7888l-1.3417-.6709A1,1,0,0,1,8,32.382V30a1,1,0,0,1,1-1h3.2247l3.2782-9.8352a5.9832,5.9832,0,0,1,4.16-3.9046C21.839,14.6851,24.92,14,32,14s10.1605,0.6851,12.3364,1.26a5.981,5.981,0,0,1,4.16,3.9053L51.7751,29H55a1,1,0,0,1,1,1v2.382a1,1,0,0,1-.5528.8944ZM15,38.1411v1.6956a2.1961,2.1961,0,0,0,2.2359,2.1489h3.5284A2.1961,2.1961,0,0,0,23,39.8367a2.132,2.132,0,0,0-1.2359-1.9227l-3.5279-1.6952a2.2916,2.2916,0,0,0-1-.2285A2.1975,2.1975,0,0,0,15,38.1411ZM47.12,27.6837l-2.4181-7.253a1.9939,1.9939,0,0,0-1.3852-1.3028C41.7213,18.7065,39.0041,18,32,18s-9.7216.7066-11.3144,1.1275a1.9968,1.9968,0,0,0-1.3886,1.3042L16.88,27.6838A1,1,0,0,0,17.8286,29H46.171A1,1,0,0,0,47.12,27.6837ZM49,38.1411A2.1974,2.1974,0,0,0,46.7638,35.99a2.2912,2.2912,0,0,0-1,.2285l-3.528,1.6952A2.132,2.132,0,0,0,41,39.8367a2.196,2.196,0,0,0,2.2357,2.1489h3.5284A2.196,2.196,0,0,0,49,39.8367V38.1411ZM19.2429,50.03A0.9734,0.9734,0,0,1,20,51v1a2.0023,2.0023,0,0,1-2,2H14a2.0023,2.0023,0,0,1-2-2V50a0.91,0.91,0,0,1,1-1C13.473,49,16.43,49.7843,19.2429,50.03ZM51,49a0.91,0.91,0,0,1,1,1v2a2.0024,2.0024,0,0,1-2,2H46a2.0023,2.0023,0,0,1-2-2V51a0.9733,0.9733,0,0,1,.7572-0.97C47.57,49.7843,50.5273,49,51,49Z"/>
</svg>
