<svg id="Layer_1" data-name="Layer 1" xmlns="http://www.w3.org/2000/svg" width="64" height="64" viewBox="0 0 64 64"><defs><style>.cls-1{fill-rule:evenodd}</style></defs><title>Icons 200</title><path class="cls-1" d="M54.106 33.947A2 2 0 0 0 53 35.737V43c0 5.019-7.066 6-21 6s-21-.981-21-6v-7.264a2 2 0 0 0-1.106-1.789l-1.341-.67A1 1 0 0 1 8 32.381V30a1 1 0 0 1 1-1h3.225l3.278-9.835a5.983 5.983 0 0 1 4.16-3.905C21.839 14.685 24.92 14 32 14s10.16.685 12.336 1.26a5.981 5.981 0 0 1 4.16 3.905L51.776 29H55a1 1 0 0 1 1 1v2.382a1 1 0 0 1-.553.894zM15 38.141v1.696a2.196 2.196 0 0 0 2.236 2.149h3.528A2.196 2.196 0 0 0 23 39.836a2.132 2.132 0 0 0-1.236-1.922l-3.528-1.695a2.292 2.292 0 0 0-1-.229A2.197 2.197 0 0 0 15 38.141zm32.12-10.457l-2.418-7.253a1.994 1.994 0 0 0-1.385-1.303C41.72 18.706 39.004 18 32 18s-9.722.707-11.314 1.127a1.997 1.997 0 0 0-1.389 1.305l-2.417 7.252A1 1 0 0 0 17.829 29H46.17a1 1 0 0 0 .949-1.316zM49 38.14a2.197 2.197 0 0 0-2.236-2.151 2.291 2.291 0 0 0-1 .229l-3.528 1.695A2.132 2.132 0 0 0 41 39.837a2.196 2.196 0 0 0 2.236 2.149h3.528A2.196 2.196 0 0 0 49 39.836v-1.695zM19.243 50.03A.973.973 0 0 1 20 51v1a2.002 2.002 0 0 1-2 2h-4a2.002 2.002 0 0 1-2-2v-2a.91.91 0 0 1 1-1c.473 0 3.43.784 6.243 1.03zM51 49a.91.91 0 0 1 1 1v2a2.002 2.002 0 0 1-2 2h-4a2.002 2.002 0 0 1-2-2v-1a.973.973 0 0 1 .757-.97C47.57 49.784 50.527 49 51 49z"/></svg>