<svg id="Layer_1" data-name="Layer 1" xmlns="http://www.w3.org/2000/svg" width="64" height="64" viewBox="0 0 64 64">
  <defs>
    <style>
      .cls-1 {
        fill-rule: evenodd;
      }
    </style>
  </defs>
  <title>Icons 400</title>
  <path class="cls-1" d="M52,56.0156H12a2,2,0,0,1-2-2v-6a2,2,0,0,1,2-2H52a2,2,0,0,1,2,2v6A2,2,0,0,1,52,56.0156Zm-17-6H29a1,1,0,0,0,0,2h6a1,1,0,1,0,0-2Zm17-6H12a2,2,0,0,1-2-2v-2.49a4,4,0,0,1,.4884-1.9154l5.0232-9.209A4.0006,4.0006,0,0,0,16,26.486v-4.47a4,4,0,0,1,4-4H34v-4H29.5a1.5,1.5,0,0,1-1.5-1.5v-3a1.5,1.5,0,0,1,1.5-1.5h13a1.5,1.5,0,0,1,1.5,1.5v3a1.5,1.5,0,0,1-1.5,1.5H38v4h6a4,4,0,0,1,4,4v4.47a4,4,0,0,0,.4884,1.9154l5.0232,9.209A4.0013,4.0013,0,0,1,54,39.5257v2.49A2,2,0,0,1,52,44.0156Zm-8-21a1,1,0,0,0-1-1H29a1,1,0,0,0-1,1v2a1,1,0,0,0,1,1H43a1,1,0,0,0,1-1Z"/>
</svg>
