<svg id="Layer_1" data-name="Layer 1" xmlns="http://www.w3.org/2000/svg" width="64" height="64" viewBox="0 0 64 64">
  <defs>
    <style>
      .cls-1 {
        fill-rule: evenodd;
      }
    </style>
  </defs>
  <title>Icons 300</title>
  <path class="cls-1" d="M56.0157,47.0157h-48a2,2,0,0,1-2-2v-26a2,2,0,0,1,2-2h48a2,2,0,0,1,2,2v26A2,2,0,0,1,56.0157,47.0157Zm-2-20a6,6,0,0,1-6-6h-32a6,6,0,0,1-6,6v11a5.9964,5.9964,0,0,1,5.91,5h32.18a5.9965,5.9965,0,0,1,5.91-5Zm-8,8a3,3,0,1,1,3-3A3,3,0,0,1,46.0157,35.0157Zm-14,5c-3.6562,0-6-3.125-6-8s2.3438-8,6-8,6,3.125,6,8S35.6721,40.0156,32.0157,40.0156Zm-14-5a3,3,0,1,1,3-3A3,3,0,0,1,18.0158,35.0157Z"/>
</svg>
