<svg id="Layer_1" data-name="Layer 1" xmlns="http://www.w3.org/2000/svg" width="64" height="64" viewBox="0 0 64 64"><defs><style>.cls-1{fill-rule:evenodd}</style></defs><title>Icons 400</title><path class="cls-1" d="M52 56.016H12a2 2 0 0 1-2-2v-6a2 2 0 0 1 2-2h40a2 2 0 0 1 2 2v6a2 2 0 0 1-2 2zm-17-6h-6a1 1 0 0 0 0 2h6a1 1 0 1 0 0-2zm17-6H12a2 2 0 0 1-2-2v-2.49a4 4 0 0 1 .488-1.916l5.024-9.209A4 4 0 0 0 16 26.486v-4.47a4 4 0 0 1 4-4h14v-4h-4.5a1.5 1.5 0 0 1-1.5-1.5v-3a1.5 1.5 0 0 1 1.5-1.5h13a1.5 1.5 0 0 1 1.5 1.5v3a1.5 1.5 0 0 1-1.5 1.5H38v4h6a4 4 0 0 1 4 4v4.47a4 4 0 0 0 .488 1.915l5.024 9.21A4.001 4.001 0 0 1 54 39.525v2.49a2 2 0 0 1-2 2zm-8-21a1 1 0 0 0-1-1H29a1 1 0 0 0-1 1v2a1 1 0 0 0 1 1h14a1 1 0 0 0 1-1z"/></svg>