<svg id="Layer_1" data-name="Layer 1" xmlns="http://www.w3.org/2000/svg" width="64" height="64" viewBox="0 0 64 64"><defs><style>.cls-1{fill-rule:evenodd}</style></defs><title>Icons 300</title><path class="cls-1" d="M56.016 47.016h-48a2 2 0 0 1-2-2v-26a2 2 0 0 1 2-2h48a2 2 0 0 1 2 2v26a2 2 0 0 1-2 2zm-2-20a6 6 0 0 1-6-6h-32a6 6 0 0 1-6 6v11a5.996 5.996 0 0 1 5.91 5h32.18a5.997 5.997 0 0 1 5.91-5zm-8 8a3 3 0 1 1 3-3 3 3 0 0 1-3 3zm-14 5c-3.656 0-6-3.125-6-8s2.344-8 6-8 6 3.125 6 8-2.344 8-6 8zm-14-5a3 3 0 1 1 3-3 3 3 0 0 1-3 3z"/></svg>