<svg id="Layer_1" data-name="Layer 1" xmlns="http://www.w3.org/2000/svg" width="64" height="64" viewBox="0 0 64 64">
  <defs>
    <style>
      .cls-1 {
        fill-rule: evenodd;
      }
    </style>
  </defs>
  <title>Icons 300</title>
  <path class="cls-1" d="M32.0156,8.0159a24,24,0,1,1-24,24A24,24,0,0,1,32.0156,8.0159Zm0,32.9991a8.9992,8.9992,0,1,0-8.9992-8.9992A8.9993,8.9993,0,0,0,32.0156,41.015Zm0-15.9988a6.9995,6.9995,0,1,1-6.9993,7A6.9995,6.9995,0,0,1,32.0156,25.0162Zm0,9.9993a3,3,0,1,0-3-3A3,3,0,0,0,32.0156,35.0155Z"/>
</svg>
