<svg id="Layer_1" data-name="Layer 1" xmlns="http://www.w3.org/2000/svg" width="64" height="64" viewBox="0 0 64 64">
  <defs>
    <style>
      .cls-1 {
        fill-rule: evenodd;
      }
    </style>
  </defs>
  <title>Icons 100</title>
  <path class="cls-1" d="M32,52a25.5557,25.5557,0,0,1-4.69-.498,2.5856,2.5856,0,0,0-2.0545.5322A21.0889,21.0889,0,0,1,15.1975,55.987a1.0907,1.0907,0,0,1-1.0157-1.6981,15.53,15.53,0,0,0,2.9595-5.9667,1.6128,1.6128,0,0,0-.6024-1.5707A21.159,21.159,0,0,1,8,30C8,17.8648,18.7453,8,32,8s24,9.8648,24,22S45.2548,52,32,52Z"/>
</svg>
