<svg id="Layer_1" data-name="Layer 1" xmlns="http://www.w3.org/2000/svg" width="64" height="64" viewBox="0 0 64 64">
  <defs>
    <style>
      .cls-1 {
        fill-rule: evenodd;
      }
    </style>
  </defs>
  <title>Icons 400</title>
  <path class="cls-1" d="M40.04,27.7956,51.4921,48.0475a4,4,0,0,1-3.4841,5.9682H15.9921a4,4,0,0,1-3.4841-5.9682L23.96,27.7956a7.9958,7.9958,0,0,0,1.0361-3.9366V12.0157H24a2,2,0,1,1,0-4H40a2,2,0,1,1,0,4h-.9966V23.859A7.9967,7.9967,0,0,0,40.04,27.7956ZM35,12.0157H29V23.8591a12.0012,12.0012,0,0,1-1.5532,5.9047L25.4652,33.27a.5.5,0,0,0,.4353.746H38.1a.5.5,0,0,0,.4353-.746l-1.9817-3.5059A12,12,0,0,1,35,23.8591Z"/>
</svg>
