<svg id="Layer_1" data-name="Layer 1" xmlns="http://www.w3.org/2000/svg" width="64" height="64" viewBox="0 0 64 64"><defs><style>.cls-1{fill-rule:evenodd}</style></defs><title>Icons 400</title><path class="cls-1" d="M40.04 27.796l11.452 20.252a4 4 0 0 1-3.484 5.968H15.992a4 4 0 0 1-3.484-5.968L23.96 27.796a7.996 7.996 0 0 0 1.036-3.937V12.016H24a2 2 0 1 1 0-4h16a2 2 0 1 1 0 4h-.997v11.843a7.997 7.997 0 0 0 1.037 3.937zM35 12.016h-6v11.843a12.001 12.001 0 0 1-1.553 5.905l-1.982 3.506a.5.5 0 0 0 .435.746h12.2a.5.5 0 0 0 .435-.746l-1.981-3.506A12 12 0 0 1 35 23.86z"/></svg>