<svg id="Layer_1" data-name="Layer 1" xmlns="http://www.w3.org/2000/svg" width="64" height="64" viewBox="0 0 64 64"><defs><style>.cls-1{fill-rule:evenodd}</style></defs><title>Icons 400</title><path class="cls-1" d="M-389.984 26.383V12.016a2 2 0 0 0-2-2 2 2 0 0 0-2 2v14.367a5.983 5.983 0 0 0-4 5.633 5.982 5.982 0 0 0 4 5.632v14.368a2 2 0 0 0 2 2 2 2 0 0 0 2-2V37.648a5.982 5.982 0 0 0 4-5.632 5.982 5.982 0 0 0-4-5.633zm-16-10v-4.367a2 2 0 0 0-2-2 2 2 0 0 0-2 2v4.367a5.983 5.983 0 0 0-4 5.633 5.983 5.983 0 0 0 4 5.632v24.368a2 2 0 0 0 2 2 2 2 0 0 0 2-2V27.648a5.982 5.982 0 0 0 4-5.632 5.982 5.982 0 0 0-4-5.633zm-16 20V12.016a2 2 0 0 0-2-2 2 2 0 0 0-2 2v24.367a5.982 5.982 0 0 0-4 5.633 5.983 5.983 0 0 0 4 5.632v4.368a2 2 0 0 0 2 2 2 2 0 0 0 2-2v-4.368a5.982 5.982 0 0 0 4-5.632 5.982 5.982 0 0 0-4-5.633zm119-26.367h-32a6 6 0 0 0-6 6v32a6 6 0 0 0 6 6h32a6 6 0 0 0 6-6v-32a6 6 0 0 0-6-6zm-13.838 17.266l6.816-11.698a1.182 1.182 0 0 1 2.035 0l6.816 11.698a1.166 1.166 0 0 1-1.018 1.747h-13.631a1.166 1.166 0 0 1-1.018-1.747zm-19.162-10.266a2 2 0 0 1 2-2h10a2 2 0 0 1 2 2v10a2 2 0 0 1-2 2h-10a2 2 0 0 1-2-2zm16.02 23.04l-4.496 3.228 1.726 5.231a1.145 1.145 0 0 1-1.765 1.272l-4.484-3.244-4.485 3.244a1.145 1.145 0 0 1-1.764-1.272l1.726-5.232-4.497-3.226a1.136 1.136 0 0 1 .671-2.057l5.554.01 1.705-5.238a1.15 1.15 0 0 1 2.18 0l1.705 5.239 5.553-.011a1.136 1.136 0 0 1 .672 2.057zm10.98 9.96a8 8 0 0 1-8-8 8 8 0 0 1 8-8 8 8 0 0 1 8 8 8 8 0 0 1-8 8zM-222.4 46.6a2 2 0 0 0-1.414-.585h-16.343a2 2 0 0 0-1.414.585l-4.829 4.829a2 2 0 0 0-.585 1.414v2.172a1 1 0 0 0 1 1h28a1 1 0 0 0 1-1v-2.172a2 2 0 0 0-.586-1.414zm-5.566-16.585h-8.07a1.047 1.047 0 0 0-1 1.048 40.953 40.953 0 0 1-2.886 11.806.8.8 0 0 0 .663 1.146h14.487a.8.8 0 0 0 .689-1.146 39.822 39.822 0 0 1-2.884-11.805 1.047 1.047 0 0 0-.999-1.05zm-12.02-2h16a1 1 0 0 0 1-1v-.5a1 1 0 0 0-.552-.895l-2.283-1.141a.495.495 0 0 1-.122-.806 8.962 8.962 0 0 0 2.958-6.658 9 9 0 0 0-9-9 9 9 0 0 0-9 9 8.962 8.962 0 0 0 2.958 6.658.495.495 0 0 1-.123.806l-2.282 1.141a1 1 0 0 0-.553.895v.5a1 1 0 0 0 1 1zM-134.397 46.6a2 2 0 0 0-1.415-.585h-16.343a2 2 0 0 0-1.414.585l-4.828 4.829a2 2 0 0 0-.586 1.414v2.172a1 1 0 0 0 1 1h28a1 1 0 0 0 1-1v-2.172a2 2 0 0 0-.586-1.414zm4.414-36.585h-4.22a1 1 0 0 0-.97.757l-.62 2.485a1 1 0 0 1-.97.758h-2.439a1 1 0 0 1-.97-.758l-.621-2.485a1 1 0 0 0-.97-.757h-4.438a1 1 0 0 0-.97.757l-.622 2.485a1 1 0 0 1-.97.758h-2.438a1 1 0 0 1-.97-.758l-.621-2.485a1 1 0 0 0-.97-.757h-4.22a1 1 0 0 0-1 1v6.171a2 2 0 0 0 .586 1.414l4.827 4.829a2 2 0 0 0 1.414.586h16.343a2 2 0 0 0 1.415-.586l4.828-4.828a2 2 0 0 0 .586-1.415v-6.171a1 1 0 0 0-1-1zm-6 34a1 1 0 0 0 1-1v-16a1 1 0 0 0-1-1h-16a1 1 0 0 0-1 1v16a1 1 0 0 0 1 1zM-55.046 8.19a15.667 15.667 0 0 1 3.258.764.948.948 0 0 0 1.061-.254 10.964 10.964 0 0 1 1.811-1.598.365.365 0 0 0-.108-.64 9.555 9.555 0 0 0-2.762-.448 7.264 7.264 0 0 0-3.83.963c-.472.325-.619 1.04.57 1.213zM-70 30.751l1.152-.574a2.003 2.003 0 0 0 .896-.894c.194-.387.438-.999.438-.999a.498.498 0 0 1 .446-.276h10.317a.37.37 0 0 1 .348.48c-2.103 6.662-8.078 7.454-9.535 14.607a.752.752 0 0 0 .726.915h18.068a1.254 1.254 0 0 0 1.224-1.004c1.208-5.785 3.955-9.823 3.955-16.99A16.957 16.957 0 0 0-46 15.2a.477.477 0 0 1-.094-.47c.669-1.961 1.429-4.685 1.044-6.038a1.118 1.118 0 0 0-1.253-.663c-1.234.311-2.628 1.862-3.724 3.35a.49.49 0 0 1-.622.144 13.81 13.81 0 0 0-6.297-1.508c-3.436 0-5.022 4.369-7.582 5.998-2.891 1.84-6.997 4.428-8.485 5.378a5.05 5.05 0 0 0-2.359 2.934l-.57 2.278a1.25 1.25 0 0 0 .463 1.303s2.773 2.2 3.38 2.655a2.008 2.008 0 0 0 2.1.189zm26.914-19.991a21.53 21.53 0 0 1-.848 3.454.984.984 0 0 0 .157.872 18.64 18.64 0 0 1 3.81 10.927c0 7.207-2.641 11.8-4.005 17.069a.748.748 0 0 0 .732.92h2.271a1.232 1.232 0 0 0 1.188-.87c1.31-4.411 3.814-9.236 3.814-17.119a21.688 21.688 0 0 0-6.502-15.49.368.368 0 0 0-.617.237zm-2.243 35.842a2 2 0 0 0-1.415-.586h-18.341a2 2 0 0 0-1.414.586l-4.828 4.828a2 2 0 0 0-.586 1.414v2.172a1 1 0 0 0 1 1h29.997a1 1 0 0 0 1-1v-2.172a2 2 0 0 0-.586-1.414zm69.116-2.586h16.485a1.008 1.008 0 0 0 .959-.731c1.37-4.52 4.8-9.997 4.8-16.27 0-4.712-3.117-9.307-7.766-11.556a.502.502 0 0 0-.697.35 29.47 29.47 0 0 1-2.135 5.635c-1.24 2.673-2.411 5.2-2.411 8.589a.998.998 0 0 1-1.997 0c0-3.828 1.32-6.675 2.596-9.426 1.24-2.674 2.41-5.202 2.41-8.591a4 4 0 0 0-8.001 0 3.897 3.897 0 0 0 .25 1.374.995.995 0 0 1-.606 1.316c-5.67 1.811-9.645 6.987-9.645 12.31 0 6.272 3.43 11.75 4.8 16.269a1.008 1.008 0 0 0 .958.732zm17.813 2.585a2 2 0 0 0-1.414-.585H23.844a2 2 0 0 0-1.414.585L17.6 51.43a2 2 0 0 0-.585 1.414v2.172a1 1 0 0 0 1 1h28a1 1 0 0 0 1-1v-2.172a2 2 0 0 0-.586-1.414zm77.368-30.297a1.107 1.107 0 0 0 2.058 0l2.702-6.776a4.04 4.04 0 0 0-.89-4.348 4.01 4.01 0 0 0-5.683 0 4.04 4.04 0 0 0-.89 4.348zm13.627 30.293a2.001 2.001 0 0 0-1.414-.586h-22.35a2.001 2.001 0 0 0-1.415.586l-4.83 4.83A2 2 0 0 0 102 52.84v2.172a1 1 0 0 0 1 1h34.011a1 1 0 0 0 1-1V52.84a2 2 0 0 0-.586-1.415zm-2.08-32.581a11.487 11.487 0 0 0-10.072 5.961.49.49 0 0 1-.857 0 11.495 11.495 0 0 0-21.572 5.539c0 9.522 10 11.364 10 17.5a1 1 0 0 0 1 1h22a1 1 0 0 0 1-1c0-6.136 10-7.978 10-17.5a11.5 11.5 0 0 0-11.5-11.5zm-15.21 21.98a.937.937 0 0 1-1.101-.6c-1.384-4.197-2.684-5.953-3.873-7.289a1.227 1.227 0 0 1 .146-1.786 1.405 1.405 0 0 1 1.964.194 18.924 18.924 0 0 1 3.56 8.471.873.873 0 0 1-.697 1.01zm14.394-7.889c-1.19 1.336-2.49 3.091-3.873 7.288a.937.937 0 0 1-1.101.6.873.873 0 0 1-.696-1.008 18.924 18.924 0 0 1 3.56-8.472 1.405 1.405 0 0 1 1.963-.194 1.227 1.227 0 0 1 .147 1.786zm98.316-10.09a4 4 0 0 0-4 4 3.94 3.94 0 0 0 .43 1.786.51.51 0 0 1-.1.616l-6.558 5.902a.5.5 0 0 1-.834-.342l-.694-11.812a.503.503 0 0 1 .319-.489 3.982 3.982 0 1 0-4.104-.573.51.51 0 0 1 .168.572l-4.16 11.091a.5.5 0 0 1-.936 0l-4.158-11.09a.51.51 0 0 1 .167-.573 4.013 4.013 0 1 0-4.104.573.503.503 0 0 1 .32.49l-.695 11.811a.5.5 0 0 1-.834.342l-6.558-5.902a.51.51 0 0 1-.1-.616 3.94 3.94 0 0 0 .43-1.787 4 4 0 1 0-4.06 3.983.502.502 0 0 1 .465.296l7.206 16.813a1.5 1.5 0 0 0 1.378.91h22.022a1.5 1.5 0 0 0 1.379-.91l7.205-16.813a.503.503 0 0 1 .466-.296 3.992 3.992 0 0 0-.06-7.983zm-7.42 28.582a2.002 2.002 0 0 0-1.414-.586h-22.35a2.002 2.002 0 0 0-1.415.586l-4.83 4.83a2 2 0 0 0-.587 1.414v2.172a1 1 0 0 0 1 1h34.011a1 1 0 0 0 1-1v-2.172a2 2 0 0 0-.586-1.414z"/></svg>