<svg id="Layer_1" data-name="Layer 1" xmlns="http://www.w3.org/2000/svg" width="64" height="64" viewBox="0 0 64 64"><defs><style>.cls-1{fill-rule:evenodd}</style></defs><title>Icons 100</title><path class="cls-1" d="M32 56a24 24 0 1 1 24-24 24 24 0 0 1-24 24zm0-44a20 20 0 1 0 20.001 20A20.001 20.001 0 0 0 32 12zm2.82 20l7.584 7.584a2.002 2.002 0 1 1-2.83 2.83l-7.584-7.583-7.574 7.573a2.002 2.002 0 0 1-2.83-2.83L29.158 32l-7.602-7.602a2.001 2.001 0 0 1 2.83-2.83l7.602 7.602 7.613-7.613a2.002 2.002 0 0 1 2.83 2.83z"/></svg>