<svg id="Layer_1" data-name="Layer 1" xmlns="http://www.w3.org/2000/svg" width="64" height="64" viewBox="0 0 64 64">
  <defs>
    <style>
      .cls-1 {
        fill-rule: evenodd;
      }
    </style>
  </defs>
  <title>Icons 100</title>
  <path class="cls-1" d="M32,56A24,24,0,1,1,56,32,24,24,0,0,1,32,56Zm0-44.0009A20.0009,20.0009,0,1,0,52.0011,32,20.001,20.001,0,0,0,32,11.9992ZM34.82,32l7.5841,7.5841a2.0016,2.0016,0,1,1-2.8307,2.8306l-7.5839-7.5841L24.416,42.4037a2.0015,2.0015,0,0,1-2.8306-2.8305L29.1585,32l-7.602-7.6022a2.0014,2.0014,0,0,1,2.83-2.83l7.6022,7.602,7.6129-7.613a2.0015,2.0015,0,0,1,2.83,2.83Z"/>
</svg>
