<svg id="Layer_1" data-name="Layer 1" xmlns="http://www.w3.org/2000/svg" width="64" height="64" viewBox="0 0 64 64">
  <defs>
    <style>
      .cls-1 {
        fill-rule: evenodd;
      }
    </style>
  </defs>
  <title>Icons 300</title>
  <path class="cls-1" d="M32.0157,56.0157a24,24,0,1,1,24-24A24,24,0,0,1,32.0157,56.0157Zm13.4-35.4186a2.0012,2.0012,0,0,0-3.049.2777l-12.844,18.39L23.648,30.8538a2.0011,2.0011,0,0,0-3.0489-.2777,2.0853,2.0853,0,0,0-.1712,2.67l6.6244,9.485a3.014,3.014,0,0,0,4.9406,0L45.5867,23.2666A2.0854,2.0854,0,0,0,45.4155,20.5971Z"/>
</svg>
