<svg id="Layer_1" data-name="Layer 1" xmlns="http://www.w3.org/2000/svg" width="64" height="64" viewBox="0 0 64 64"><defs><style>.cls-1{fill-rule:evenodd}</style></defs><title>Icons 200</title><path class="cls-1" d="M52 22H19.828a1 1 0 0 1-.707-.293l-2.535-2.536A4 4 0 0 0 13.757 18H11a1 1 0 0 1-1-1 5 5 0 0 1 5-5h34a5 5 0 0 1 5 5v3a2 2 0 0 1-2 2zm-26.2-4.2l-2.198-2.2a2.049 2.049 0 0 0-1.449-.6h-3.452a.703.703 0 0 0-.497 1.2l2.197 2.2a2.049 2.049 0 0 0 1.449.6h3.452a.703.703 0 0 0 .497-1.2zm12 0l-2.198-2.2a2.049 2.049 0 0 0-1.449-.6h-3.452a.703.703 0 0 0-.497 1.2l2.197 2.2a2.049 2.049 0 0 0 1.449.6h3.452a.703.703 0 0 0 .497-1.2zm12 0l-2.198-2.2a2.049 2.049 0 0 0-1.449-.6h-3.452a.703.703 0 0 0-.497 1.2l2.197 2.2a2.05 2.05 0 0 0 1.45.6h3.451a.703.703 0 0 0 .497-1.2zM54 47a5 5 0 0 1-5 5H15a5 5 0 0 1-5-5V21a1 1 0 0 1 1-1h3.172a1 1 0 0 1 .707.293l2.535 2.536A4 4 0 0 0 20.243 24H52a2 2 0 0 1 2 2v21zM25.302 27H21.85a2.048 2.048 0 0 0-1.449.6l-2.197 2.2a.703.703 0 0 0 .497 1.2h3.452a2.049 2.049 0 0 0 1.449-.6l2.197-2.2a.703.703 0 0 0-.497-1.2zm12 0H33.85a2.048 2.048 0 0 0-1.449.6l-2.197 2.2a.703.703 0 0 0 .497 1.2h3.452a2.049 2.049 0 0 0 1.449-.6l2.197-2.2a.703.703 0 0 0-.497-1.2zm12 0H45.85a2.049 2.049 0 0 0-1.449.6l-2.197 2.2a.703.703 0 0 0 .497 1.2h3.452a2.049 2.049 0 0 0 1.449-.6l2.197-2.2a.703.703 0 0 0-.497-1.2z"/></svg>