<svg id="Layer_1" data-name="Layer 1" xmlns="http://www.w3.org/2000/svg" width="64" height="64" viewBox="0 0 64 64">
  <defs>
    <style>
      .cls-1 {
        fill-rule: evenodd;
      }
    </style>
  </defs>
  <title>Icons 300</title>
  <path class="cls-1" d="M49.0157,52.0157h-34a5,5,0,0,1-5-5v-26a1,1,0,0,1,1-1h3.1717a1,1,0,0,1,.7072.2929L17.43,22.8441a4,4,0,0,0,2.8283,1.1716H52.0158a2,2,0,0,1,2,2v21A5,5,0,0,1,49.0157,52.0157ZM42.463,37.1212l-16-8a1,1,0,0,0-1.4473.8945v16a1,1,0,0,0,1.4473.8945l16-8a1,1,0,0,0,0-1.7889Zm9.5528-15.1056H19.844a1,1,0,0,1-.7071-.2929l-2.5354-2.5355a4,4,0,0,0-2.8286-1.1716H11.0157a1,1,0,0,1-1-1,5,5,0,0,1,5-5h34a5,5,0,0,1,5,5v3A2,2,0,0,1,52.0158,22.0156Zm-26.201-4.2-2.1974-2.2a2.0487,2.0487,0,0,0-1.4487-.6h-3.452a.703.703,0,0,0-.4969,1.2l2.1973,2.2a2.0489,2.0489,0,0,0,1.449.6h3.452A.703.703,0,0,0,25.8148,17.8157Zm12,0-2.1974-2.2a2.0487,2.0487,0,0,0-1.4487-.6h-3.452a.703.703,0,0,0-.4969,1.2l2.1973,2.2a2.0489,2.0489,0,0,0,1.449.6H37.318A.703.703,0,0,0,37.8148,17.8157Zm12,0-2.1973-2.2a2.0487,2.0487,0,0,0-1.4487-.6h-3.452a.703.703,0,0,0-.4969,1.2l2.1973,2.2a2.0488,2.0488,0,0,0,1.449.6H49.318A.703.703,0,0,0,49.8147,17.8157Z"/>
</svg>
