<svg id="Layer_1" data-name="Layer 1" xmlns="http://www.w3.org/2000/svg" width="64" height="64" viewBox="0 0 64 64"><defs><style>.cls-1{fill-rule:evenodd}</style></defs><title>Icons 300</title><path class="cls-1" d="M49.016 52.016h-34a5 5 0 0 1-5-5v-26a1 1 0 0 1 1-1h3.171a1 1 0 0 1 .708.293l2.535 2.535a4 4 0 0 0 2.828 1.172h31.758a2 2 0 0 1 2 2v21a5 5 0 0 1-5 5zM42.463 37.12l-16-8a1 1 0 0 0-1.447.895v16a1 1 0 0 0 1.447.894l16-8a1 1 0 0 0 0-1.789zm9.553-15.105H19.844a1 1 0 0 1-.707-.293l-2.535-2.536a4 4 0 0 0-2.83-1.171h-2.756a1 1 0 0 1-1-1 5 5 0 0 1 5-5h34a5 5 0 0 1 5 5v3a2 2 0 0 1-2 2zm-26.201-4.2l-2.198-2.2a2.049 2.049 0 0 0-1.448-.6h-3.452a.703.703 0 0 0-.497 1.2l2.197 2.2a2.049 2.049 0 0 0 1.45.6h3.451a.703.703 0 0 0 .497-1.2zm12 0l-2.198-2.2a2.049 2.049 0 0 0-1.448-.6h-3.452a.703.703 0 0 0-.497 1.2l2.197 2.2a2.049 2.049 0 0 0 1.45.6h3.451a.703.703 0 0 0 .497-1.2zm12 0l-2.197-2.2a2.049 2.049 0 0 0-1.45-.6h-3.451a.703.703 0 0 0-.497 1.2l2.197 2.2a2.049 2.049 0 0 0 1.45.6h3.451a.703.703 0 0 0 .497-1.2z"/></svg>