<svg id="Layer_1" data-name="Layer 1" xmlns="http://www.w3.org/2000/svg" width="64" height="64" viewBox="0 0 64 64">
  <defs>
    <style>
      .cls-1 {
        fill-rule: evenodd;
      }
    </style>
  </defs>
  <title>Icons 200</title>
  <path class="cls-1" d="M52,22H19.8284a1,1,0,0,1-.7072-0.2929l-2.5355-2.5356A4,4,0,0,0,13.7573,18H11a1,1,0,0,1-1-1,5,5,0,0,1,5-5H49a5,5,0,0,1,5,5v3A2,2,0,0,1,52,22ZM25.7991,17.8l-2.1973-2.2A2.0488,2.0488,0,0,0,22.153,15H18.7011a0.7031,0.7031,0,0,0-.497,1.2l2.1974,2.2A2.0489,2.0489,0,0,0,21.85,19h3.4519A0.703,0.703,0,0,0,25.7991,17.8Zm12,0-2.1973-2.2A2.0488,2.0488,0,0,0,34.153,15H30.7011a0.7031,0.7031,0,0,0-.497,1.2l2.1974,2.2A2.0489,2.0489,0,0,0,33.85,19h3.4519A0.703,0.703,0,0,0,37.7991,17.8Zm12,0-2.1973-2.2A2.0488,2.0488,0,0,0,46.153,15H42.701a0.703,0.703,0,0,0-.4969,1.2l2.1973,2.2a2.0493,2.0493,0,0,0,1.449.6h3.4519A0.703,0.703,0,0,0,49.7991,17.8ZM54,47a5,5,0,0,1-5,5H15a5,5,0,0,1-5-5V21a1,1,0,0,1,1-1h3.1716a1,1,0,0,1,.7072.2929l2.5356,2.5356A4,4,0,0,0,20.2428,24H52a2,2,0,0,1,2,2V47ZM25.3023,27H21.85a2.0482,2.0482,0,0,0-1.4489.6L18.2041,29.8a0.7031,0.7031,0,0,0,.497,1.2H22.153a2.0488,2.0488,0,0,0,1.4488-.6l2.1973-2.2A0.703,0.703,0,0,0,25.3023,27Zm12,0H33.85a2.0482,2.0482,0,0,0-1.4489.6L30.2041,29.8a0.7031,0.7031,0,0,0,.497,1.2H34.153a2.0488,2.0488,0,0,0,1.4488-.6l2.1973-2.2A0.703,0.703,0,0,0,37.3023,27Zm12,0H45.85a2.0486,2.0486,0,0,0-1.449.6L42.2041,29.8A0.703,0.703,0,0,0,42.701,31h3.452a2.0488,2.0488,0,0,0,1.4488-.6l2.1973-2.2A0.703,0.703,0,0,0,49.3023,27Z"/>
</svg>
