<svg id="Layer_1" data-name="Layer 1" xmlns="http://www.w3.org/2000/svg" width="64" height="64" viewBox="0 0 64 64">
  <defs>
    <style>
      .cls-1 {
        fill-rule: evenodd;
      }
    </style>
  </defs>
  <title>Icons 300</title>
  <path class="cls-1" d="M32.0156,8.0148A24.001,24.001,0,1,1,8.0147,32.0157,24.001,24.001,0,0,1,32.0156,8.0148ZM21.6009,39.5889a2.0016,2.0016,0,0,0,2.8308,2.83l7.573-7.5731L39.5889,42.43a2.0015,2.0015,0,0,0,2.83-2.8306l-7.5842-7.5842,7.6131-7.613a2.0015,2.0015,0,0,0-2.83-2.83l-7.6131,7.613-7.602-7.602a2.0016,2.0016,0,1,0-2.8307,2.8306l7.6021,7.602Z"/>
</svg>
