<svg id="Layer_1" data-name="Layer 1" xmlns="http://www.w3.org/2000/svg" width="64" height="64" viewBox="0 0 64 64"><defs><style>.cls-1{fill-rule:evenodd}</style></defs><title>Icons 300</title><path class="cls-1" d="M32.016 8.015a24.001 24.001 0 1 1-24.001 24 24.001 24.001 0 0 1 24-24zM21.6 39.589a2.002 2.002 0 0 0 2.83 2.83l7.574-7.573 7.584 7.584a2.002 2.002 0 0 0 2.83-2.83l-7.584-7.585 7.613-7.613a2.002 2.002 0 0 0-2.83-2.83l-7.613 7.613-7.602-7.602a2.002 2.002 0 1 0-2.831 2.83l7.602 7.603z"/></svg>