<svg id="Layer_1" data-name="Layer 1" xmlns="http://www.w3.org/2000/svg" width="64" height="64" viewBox="0 0 64 64"><defs><style>.cls-1{fill-rule:evenodd}</style></defs><title>Icons 100</title><path class="cls-1" d="M46 50H17a10.995 10.995 0 0 1-3.988-21.243A9.983 9.983 0 0 1 25.1 19.225a13.991 13.991 0 0 1 24.833 7.448A11.994 11.994 0 0 1 46 50zm1.41-19.991a1.992 1.992 0 0 1-1.342-1.704l-.102-1.081A10.106 10.106 0 0 0 36.136 18c-4.668-.054-7.12 2.677-8.707 4.683a1.993 1.993 0 0 1-1.993.696 9.816 9.816 0 0 0-2.634-.377 6.005 6.005 0 0 0-5.792 5.871l-.03 1.304a1.987 1.987 0 0 1-1.255 1.807c-2.593 1.015-5.887 2.66-5.719 7.357A6.97 6.97 0 0 0 17 46h28.906A8.058 8.058 0 0 0 54 38.073c.038-5.378-4.133-7.227-6.59-8.064z"/></svg>