<svg id="Layer_1" data-name="Layer 1" xmlns="http://www.w3.org/2000/svg" width="64" height="64" viewBox="0 0 64 64">
  <defs>
    <style>
      .cls-1 {
        fill-rule: evenodd;
      }
    </style>
  </defs>
  <title>Icons 100</title>
  <path class="cls-1" d="M46,50H17a10.9949,10.9949,0,0,1-3.9877-21.2432A9.9832,9.9832,0,0,1,25.1,19.2248,13.9913,13.9913,0,0,1,49.933,26.6729,11.9941,11.9941,0,0,1,46,50Zm1.41-19.9915a1.9925,1.9925,0,0,1-1.3418-1.7031l-0.1019-1.0818a10.1062,10.1062,0,0,0-9.83-9.2228c-4.6679-.0543-7.12,2.6776-8.7069,4.6832a1.9932,1.9932,0,0,1-1.9932.6961,9.8162,9.8162,0,0,0-2.6345-.377,6.0048,6.0048,0,0,0-5.7914,5.8712L16.9792,30.178a1.987,1.987,0,0,1-1.2545,1.8067C13.1318,33,9.8379,34.6441,10.0062,39.3422A6.97,6.97,0,0,0,17,46H45.9055A8.0584,8.0584,0,0,0,54,38.0726C54.0376,32.6951,49.8671,30.8459,47.41,30.0085Z"/>
</svg>
