<svg id="Layer_1" data-name="Layer 1" xmlns="http://www.w3.org/2000/svg" width="64" height="64" viewBox="0 0 64 64"><defs><style>.cls-1{fill-rule:evenodd}</style></defs><title>Icons 300</title><path class="cls-1" d="M53.797 13.626l-18.95 24.63a4 4 0 0 0-.83 2.44v9.8a.995.995 0 0 0 .818.982c3.275.594 8.273 1.523 8.376 1.543a.986.986 0 0 1 .778.995v1a1 1 0 0 1-1 1H21.042a1 1 0 0 1-1-1v-1a.986.986 0 0 1 .778-.995c.102-.02 5.101-.949 8.376-1.543a.995.995 0 0 0 .817-.983v-9.8a4 4 0 0 0-.83-2.439l-18.95-24.63a1 1 0 0 1 .793-1.61h41.979a1 1 0 0 1 .792 1.61zm-18.784 15.39a3 3 0 1 0-3-3 3 3 0 0 0 3 3zm11.395-13H17.623a.25.25 0 0 0-.198.402l2.543 3.305a.75.75 0 0 0 .594.292H43.47a.75.75 0 0 0 .594-.292l2.543-3.305a.25.25 0 0 0-.198-.402z"/></svg>