<svg id="Layer_1" data-name="Layer 1" xmlns="http://www.w3.org/2000/svg" width="64" height="64" viewBox="0 0 64 64">
  <defs>
    <style>
      .cls-1 {
        fill-rule: evenodd;
      }
    </style>
  </defs>
  <title>Icons 300</title>
  <path class="cls-1" d="M53.7974,13.6255,34.8479,38.2561a4,4,0,0,0-.83,2.4391v9.8a.9947.9947,0,0,0,.8168.9829c3.2748.594,8.2736,1.5226,8.3762,1.5431a.9863.9863,0,0,1,.778.9946v1a1,1,0,0,1-1,1H21.0419a1,1,0,0,1-1-1v-1a.9863.9863,0,0,1,.778-.9946c.1026-.02,5.1014-.9491,8.3762-1.5431a.9947.9947,0,0,0,.8168-.9829v-9.8a4,4,0,0,0-.83-2.4391L10.2338,13.6255a1,1,0,0,1,.7926-1.61H53.0048A1,1,0,0,1,53.7974,13.6255Zm-18.7845,15.39a3,3,0,1,0-3-3A3,3,0,0,0,35.0129,29.0156Zm11.3949-13H17.6234a.25.25,0,0,0-.1981.4024l2.5425,3.3049a.75.75,0,0,0,.5944.2926H43.469a.75.75,0,0,0,.5944-.2926l2.5425-3.3049A.25.25,0,0,0,46.4078,16.0156Z"/>
</svg>
