<svg id="Layer_1" data-name="Layer 1" xmlns="http://www.w3.org/2000/svg" width="64" height="64" viewBox="0 0 64 64"><defs><style>.cls-1{fill-rule:evenodd}</style></defs><title>Icons 300</title><path class="cls-1" d="M49.013 18.018h-.907l-.667 8h.595a1 1 0 0 1 .997 1.082l-1.335 16a1 1 0 0 1-.996.917h-.761l-.847 10.166a2 2 0 0 1-1.994 1.833H20.935a2 2 0 0 1-1.993-1.833l-.848-10.166h-.74a1 1 0 0 1-.996-.917l-1.334-16a1 1 0 0 1 .997-1.083h.573l-.667-8h-.9a1 1 0 0 1-.97-1.243l1-4a1 1 0 0 1 .97-.757h1.22l.81-3.242a1 1 0 0 1 .97-.758h25.986a1 1 0 0 1 .97.758l.81 3.242h1.22a1 1 0 0 1 .97.757l1 4a1 1 0 0 1-.97 1.244zm-25.78 33.998h17.578a.5.5 0 0 0 .498-.458l.629-7.542H22.107l.629 7.542a.5.5 0 0 0 .498.458zm-3.25-33.457l.623 7.458h22.833l.622-7.458a.5.5 0 0 0-.498-.541H20.482a.5.5 0 0 0-.499.541z"/></svg>