<svg id="Layer_1" data-name="Layer 1" xmlns="http://www.w3.org/2000/svg" width="64" height="64" viewBox="0 0 64 64">
  <defs>
    <style>
      .cls-1 {
        fill-rule: evenodd;
      }
    </style>
  </defs>
  <title>Icons 300</title>
  <path class="cls-1" d="M49.0132,18.0177h-.9069l-.6668,8h.5948A.9994.9994,0,0,1,49.0308,27.1L47.6963,43.1a.9991.9991,0,0,1-.9965.9169h-.7609l-.8473,10.1657a2,2,0,0,1-1.9934,1.8338H20.935a2,2,0,0,1-1.9934-1.8338l-.8473-10.1657h-.74a.9993.9993,0,0,1-.9966-.9169L15.0241,27.1a.9993.9993,0,0,1,.9965-1.0829h.5732l-.6668-8h-.9a1.0008,1.0008,0,0,1-.97-1.2427l.9994-4a1,1,0,0,1,.97-.7574h1.22l.81-3.2424a1,1,0,0,1,.97-.7573H45.0132a.9992.9992,0,0,1,.9692.7573l.81,3.2424h1.2208a.9994.9994,0,0,1,.9693.7574l1,4A1,1,0,0,1,49.0132,18.0177ZM23.2339,52.016H40.8106a.5.5,0,0,0,.4984-.4583l.629-7.5413H22.1067l.6289,7.5412A.5.5,0,0,0,23.2339,52.016Zm-3.25-33.4569.622,7.4582H43.4392l.622-7.4581a.5.5,0,0,0-.4984-.5415H20.4817A.5.5,0,0,0,19.9834,18.5591Z"/>
</svg>
