<svg id="Layer_1" data-name="Layer 1" xmlns="http://www.w3.org/2000/svg" width="64" height="64" viewBox="0 0 64 64">
  <defs>
    <style>
      .cls-1 {
        fill-rule: evenodd;
      }
    </style>
  </defs>
  <title>Icons 300</title>
  <path class="cls-1" d="M32.0158,8.0158a24,24,0,0,1,24,24c0,6.6167-5.9791,11-13,11h-5c-1.7682,0-4,.3231-4,3,0,2.6266,2,4.28,2,7,0,1.6164-1.2727,3-4,3a24,24,0,1,1,0-48Zm13.5,27a4.5,4.5,0,1,0-4.5-4.5A4.5,4.5,0,0,0,45.5155,35.0157Zm-7-11a4.5,4.5,0,1,0-4.5-4.5A4.5,4.5,0,0,0,38.5159,24.0157Zm-13,0a4.5,4.5,0,1,0-4.5-4.5A4.5,4.5,0,0,0,25.5159,24.0157Zm-11.5,6.5a4.5,4.5,0,1,0,4.5-4.5A4.5,4.5,0,0,0,14.0156,30.5156Z"/>
</svg>
