<svg id="Layer_1" data-name="Layer 1" xmlns="http://www.w3.org/2000/svg" width="64" height="64" viewBox="0 0 64 64"><defs><style>.cls-1{fill-rule:evenodd}</style></defs><title>Icons 300</title><path class="cls-1" d="M32.016 8.016a24 24 0 0 1 24 24c0 6.617-5.98 11-13 11h-5c-1.768 0-4 .323-4 3 0 2.626 2 4.28 2 7 0 1.616-1.273 3-4 3a24 24 0 1 1 0-48zm13.5 27a4.5 4.5 0 1 0-4.5-4.5 4.5 4.5 0 0 0 4.5 4.5zm-7-11a4.5 4.5 0 1 0-4.5-4.5 4.5 4.5 0 0 0 4.5 4.5zm-13 0a4.5 4.5 0 1 0-4.5-4.5 4.5 4.5 0 0 0 4.5 4.5zm-11.5 6.5a4.5 4.5 0 1 0 4.5-4.5 4.5 4.5 0 0 0-4.5 4.5z"/></svg>