<svg id="Layer_1" data-name="Layer 1" xmlns="http://www.w3.org/2000/svg" width="64" height="64" viewBox="0 0 64 64">
  <defs>
    <style>
      .cls-1 {
        fill-rule: evenodd;
      }
    </style>
  </defs>
  <title>Icons 300</title>
  <path class="cls-1" d="M51.0158,51.0156h-38a4,4,0,0,1-4-4v-30a4,4,0,0,1,4-4h38a4,4,0,0,1,4,4v30A4,4,0,0,1,51.0158,51.0156Zm-28-33a1,1,0,0,0-1-1h-8a1,1,0,0,0-1,1v28a1,1,0,0,0,1,1h8a1,1,0,0,0,1-1Zm14,0a1,1,0,0,0-1-1h-8a1,1,0,0,0-1,1v28a1,1,0,0,0,1,1h8a1,1,0,0,0,1-1Zm14,0a1,1,0,0,0-1-1h-8a1,1,0,0,0-1,1v28a1,1,0,0,0,1,1h8a1,1,0,0,0,1-1Z"/>
</svg>
