<svg id="Layer_1" data-name="Layer 1" xmlns="http://www.w3.org/2000/svg" width="64" height="64" viewBox="0 0 64 64"><defs><style>.cls-1{fill-rule:evenodd}</style></defs><title>Icons 100</title><path class="cls-1" d="M8 15a5 5 0 0 1 5-5h38a5 5 0 0 1 5 5v25a5 5 0 0 1-5 5H13a5 5 0 0 1-5-5V15zm4 22a1 1 0 0 0 1 1h38a1 1 0 0 0 1-1V15a1 1 0 0 0-1-1H13a1 1 0 0 0-1 1v22zm11 17a1 1 0 0 1-1-1 1.071 1.071 0 0 1 1-1c1.228-.209 2.49-2.063 3-4a1.12 1.12 0 0 1 1-1h10a1.12 1.12 0 0 1 1 1c.51 1.937 1.772 3.791 3 4a1.071 1.071 0 0 1 1 1 1 1 0 0 1-1 1H23z"/></svg>