<svg id="Layer_1" data-name="Layer 1" xmlns="http://www.w3.org/2000/svg" width="64" height="64" viewBox="0 0 64 64"><defs><style>.cls-1{fill-rule:evenodd}</style></defs><title>Icons 100</title><path class="cls-1" d="M50.474 15.018a10.858 10.858 0 0 0 5.375-1.07.244.244 0 0 1 .326.322c-2.382 5.024-6.644 5.658-11.269 8.05a22.552 22.552 0 0 0 6.141-.156.244.244 0 0 1 .228.4c-5.29 5.818-8.766 2.33-14.801 6.682A35.4 35.4 0 0 0 27 39a1.922 1.922 0 0 1-1.688 1A1.322 1.322 0 0 1 24 38.5c0-2.11 3.851-10.29 13.453-19.845C48.173 7.987 55.887 6.275 57.733 6.01a.24.24 0 0 1 .25.34c-.672 1.438-3.27 6.49-7.51 8.67zM12 17.994a6.008 6.008 0 0 1 6-6.002h15a2 2 0 0 1 0 4.001H18a2.002 2.002 0 0 0-2 2V46a2.002 2.002 0 0 0 2 2h28a2.003 2.003 0 0 0 2-2V31a2 2 0 0 1 4 0v15a6.008 6.008 0 0 1-6 6.002H18A6.008 6.008 0 0 1 12 46V17.994z"/></svg>