<svg id="Layer_1" data-name="Layer 1" xmlns="http://www.w3.org/2000/svg" width="64" height="64" viewBox="0 0 64 64">
  <defs>
    <style>
      .cls-1 {
        fill-rule: evenodd;
      }
    </style>
  </defs>
  <title>Icons 100</title>
  <path class="cls-1" d="M8,15a5,5,0,0,1,5-5H51a5,5,0,0,1,5,5V40a5,5,0,0,1-5,5H13a5,5,0,0,1-5-5V15Zm4,22a1,1,0,0,0,1,1H51a1,1,0,0,0,1-1V15a1,1,0,0,0-1-1H13a1,1,0,0,0-1,1V37ZM23,54a1,1,0,0,1-1-1,1.071,1.071,0,0,1,1-1c1.2282-.2086,2.4906-2.0632,3-4a1.12,1.12,0,0,1,1-1H37a1.12,1.12,0,0,1,1,1c0.5092,1.9368,1.7717,3.7914,3,4a1.0714,1.0714,0,0,1,1,1,1,1,0,0,1-1,1H23Z"/>
</svg>
