<svg id="Layer_1" data-name="Layer 1" xmlns="http://www.w3.org/2000/svg" width="64" height="64" viewBox="0 0 64 64"><defs><style>.cls-1{fill-rule:evenodd}</style></defs><title>Icons 100</title><path class="cls-1" d="M52.46 16.762a.752.752 0 0 1-1.061 0l-4.191-4.176a.746.746 0 0 1 0-1.057l2.895-2.888a2.255 2.255 0 0 1 3.182 0l2.069 2.062a2.238 2.238 0 0 1 0 3.172zM29.747 38.47L24.7 39.984a.562.562 0 0 1-.7-.7l1.515-5.054a6.004 6.004 0 0 1 1.504-2.519l17.503-17.516a.75.75 0 0 1 1.06 0l4.187 4.19a.75.75 0 0 1 0 1.062L32.268 36.962a6.001 6.001 0 0 1-2.52 1.507zM52 29v17a6.008 6.008 0 0 1-6 6.002H18A6.008 6.008 0 0 1 12 46V17.994a6.008 6.008 0 0 1 6-6.002h17a2 2 0 0 1 0 4.001H18a2.002 2.002 0 0 0-2 2V46a2.002 2.002 0 0 0 2 2h28a2.003 2.003 0 0 0 2-2V29a2 2 0 1 1 4 0z"/></svg>