<svg id="Layer_1" data-name="Layer 1" xmlns="http://www.w3.org/2000/svg" width="64" height="64" viewBox="0 0 64 64">
  <defs>
    <style>
      .cls-1 {
        fill-rule: evenodd;
      }
    </style>
  </defs>
  <title>Icons 100</title>
  <path class="cls-1" d="M50.4735,15.0184a10.858,10.858,0,0,0,5.375-1.07,0.2443,0.2443,0,0,1,.3266.3217c-2.3823,5.0242-6.6442,5.6582-11.269,8.05a22.5521,22.5521,0,0,0,6.141-.1564,0.2441,0.2441,0,0,1,.2279.401c-5.29,5.8172-8.7662,2.3287-14.801,6.6815A35.3993,35.3993,0,0,0,27,39a1.9217,1.9217,0,0,1-1.6875,1A1.3217,1.3217,0,0,1,24,38.5c0-2.1094,3.8511-10.29,13.4527-19.8449,10.72-10.6682,18.4344-12.38,20.28-12.646a0.2392,0.2392,0,0,1,.2505.3408C57.3112,7.7875,54.7135,12.8389,50.4735,15.0184ZM12,17.9938a6.0076,6.0076,0,0,1,6-6.002H33a2.0007,2.0007,0,0,1,0,4.0014H18a2.0023,2.0023,0,0,0-2,2.0006V46a2.0022,2.0022,0,0,0,2,2.0006H46A2.0027,2.0027,0,0,0,48,46V30.9995a2,2,0,0,1,4,0V46a6.0078,6.0078,0,0,1-6,6.0021H18A6.0077,6.0077,0,0,1,12,46V17.9938Z"/>
</svg>
