<svg id="Layer_1" data-name="Layer 1" xmlns="http://www.w3.org/2000/svg" width="64" height="64" viewBox="0 0 64 64">
  <defs>
    <style>
      .cls-1 {
        fill-rule: evenodd;
      }
    </style>
  </defs>
  <title>Icons 100</title>
  <path class="cls-1" d="M52.4594,16.7625a0.7517,0.7517,0,0,1-1.0607,0L47.208,12.5861a0.7456,0.7456,0,0,1,0-1.0572l2.8947-2.8881a2.2552,2.2552,0,0,1,3.1821,0l2.0692,2.062a2.2376,2.2376,0,0,1,0,3.1717ZM29.7478,38.4688L24.7015,39.984a0.5623,0.5623,0,0,1-.7-0.7l1.5148-5.054A6.0041,6.0041,0,0,1,27.02,31.711L44.5229,14.1946a0.75,0.75,0,0,1,1.06,0l4.1875,4.1911a0.7508,0.7508,0,0,1,0,1.061L32.2681,36.9624A6.0013,6.0013,0,0,1,29.7478,38.4688ZM52,29V46a6.0077,6.0077,0,0,1-6,6.0021H18A6.0077,6.0077,0,0,1,12,46V17.9938a6.0076,6.0076,0,0,1,6-6.002H35a2.0007,2.0007,0,0,1,0,4.0014H18a2.0023,2.0023,0,0,0-2,2.0006V46a2.0022,2.0022,0,0,0,2,2.0006H46A2.0027,2.0027,0,0,0,48,46V29A2,2,0,1,1,52,29Z"/>
</svg>
