<svg id="Layer_1" data-name="Layer 1" xmlns="http://www.w3.org/2000/svg" width="64" height="64" viewBox="0 0 64 64">
  <defs>
    <style>
      .cls-1 {
        fill-rule: evenodd;
      }
    </style>
  </defs>
  <title>Icons 400</title>
  <path class="cls-1" d="M32,36.0152c-14.9117,0-27-2.2385-27-5,0-1.607,4.11-3.033,10.472-3.9478C16.9546,15.9113,19.48,8.0156,23,8.0156c3.9236,0,5.6566,2,9,2s5.0764-2,9-2c3.52,0,6.0454,7.8957,7.528,19.0519C54.89,27.9823,59,29.4083,59,31.0153,59,33.7767,46.9117,36.0152,32,36.0152ZM44.396,24.8915a.49.49,0,0,0-.5356-.4343c-2.9774.2679-7.2624.5582-11.86.5582s-8.883-.29-11.86-.5582a.49.49,0,0,0-.5356.4343q-.2,1.6809-.3732,3.4993a.5.5,0,0,0,.3934.5435A64.6212,64.6212,0,0,0,32,30.0153a64.6212,64.6212,0,0,0,12.3758-1.081.5.5,0,0,0,.3934-.5435Q44.5966,26.573,44.396,24.8915ZM10.9564,39.018a53.6566,53.6566,0,0,1,10.0466-.9964c7.2314,0,8.0483,1.5995,10.9969,1.5995s3.7656-1.5995,10.997-1.5995a53.6555,53.6555,0,0,1,10.0466.9964,1.19,1.19,0,0,1,.95,1.1771v1.6091a1.711,1.711,0,0,1-.6888,1.31c-.9724.7938-1.1542,3.0138-1.8641,5.3038-1.11,3.579-3.032,5.5978-8.4441,5.5978-6.2941,0-7.2024-1.9151-8.4932-5.5978C33.6219,45.9018,34.06,42.82,32,42.82s-1.6219,3.0819-2.5037,5.5979c-1.2908,3.6827-2.199,5.5978-8.4932,5.5978-5.412,0-7.3342-2.0188-8.444-5.5978-.71-2.29-.8918-4.51-1.8641-5.3038a1.71,1.71,0,0,1-.6888-1.31V40.1951A1.19,1.19,0,0,1,10.9564,39.018ZM41.3457,50.9513c.4669.0352,1,.0525,1.62.0525a13.8475,13.8475,0,0,0,1.5192-.0757.3934.3934,0,0,0,.3289-.3084l2.1944-8.8689a.4186.4186,0,0,0-.3181-.52,20.1225,20.1225,0,0,0-3.0568-.2218.4009.4009,0,0,0-.3854.3106l-2.2536,9.1083A.4146.4146,0,0,0,41.3457,50.9513ZM19.33,50.9167a13.6967,13.6967,0,0,0,1.6426.0871c.5663,0,1.0583-.015,1.4958-.0442a.3917.3917,0,0,0,.3448-.3093l2.1924-8.8613a.4154.4154,0,0,0-.2905-.5148A17.1176,17.1176,0,0,0,21.64,41.01a.4.4,0,0,0-.3859.3108l-2.2455,9.0756A.4132.4132,0,0,0,19.33,50.9167Z"/>
</svg>
