<svg id="Layer_1" data-name="Layer 1" xmlns="http://www.w3.org/2000/svg" width="64" height="64" viewBox="0 0 64 64"><defs><style>.cls-1{fill-rule:evenodd}</style></defs><title>Icons 400</title><path class="cls-1" d="M32 36.015c-14.912 0-27-2.238-27-5 0-1.607 4.11-3.033 10.472-3.948C16.955 15.911 19.48 8.016 23 8.016c3.924 0 5.657 2 9 2s5.076-2 9-2c3.52 0 6.045 7.895 7.528 19.051C54.89 27.982 59 29.409 59 31.015c0 2.762-12.088 5-27 5zm12.396-11.123a.49.49 0 0 0-.536-.435c-2.977.268-7.262.558-11.86.558s-8.883-.29-11.86-.558a.49.49 0 0 0-.535.434q-.2 1.681-.373 3.5a.5.5 0 0 0 .393.543A64.621 64.621 0 0 0 32 30.015a64.621 64.621 0 0 0 12.376-1.08.5.5 0 0 0 .393-.544q-.172-1.818-.373-3.5zm-33.44 14.126a53.657 53.657 0 0 1 10.047-.996c7.231 0 8.048 1.6 10.997 1.6s3.766-1.6 10.997-1.6a53.656 53.656 0 0 1 10.046.996 1.19 1.19 0 0 1 .95 1.177v1.61a1.711 1.711 0 0 1-.688 1.31c-.973.793-1.155 3.013-1.864 5.303-1.11 3.579-3.032 5.598-8.445 5.598-6.294 0-7.202-1.915-8.493-5.598-.881-2.516-.443-5.598-2.503-5.598s-1.622 3.082-2.504 5.598c-1.29 3.683-2.199 5.598-8.493 5.598-5.412 0-7.334-2.02-8.444-5.598-.71-2.29-.892-4.51-1.864-5.304a1.71 1.71 0 0 1-.689-1.31v-1.609a1.19 1.19 0 0 1 .95-1.177zm30.39 11.933c.467.036 1 .053 1.62.053a13.848 13.848 0 0 0 1.519-.076.393.393 0 0 0 .329-.308l2.194-8.87a.419.419 0 0 0-.318-.52 20.122 20.122 0 0 0-3.057-.221.4.4 0 0 0-.385.31l-2.254 9.109a.415.415 0 0 0 .352.523zm-22.016-.034a13.697 13.697 0 0 0 1.643.087c.566 0 1.058-.015 1.495-.044a.392.392 0 0 0 .345-.31l2.193-8.861a.415.415 0 0 0-.29-.515 17.118 17.118 0 0 0-3.076-.264.4.4 0 0 0-.386.31l-2.245 9.076a.413.413 0 0 0 .321.52z"/></svg>