<svg id="Layer_1" data-name="Layer 1" xmlns="http://www.w3.org/2000/svg" width="64" height="64" viewBox="0 0 64 64">
  <defs>
    <style>
      .cls-1 {
        fill-rule: evenodd;
      }
    </style>
  </defs>
  <title>Icons 200</title>
  <path class="cls-1" d="M41.0157,56.0156h-26a3,3,0,0,1-3-3v-34a3,3,0,0,1,3-3h7v29a5,5,0,0,0,5,5h17v3A3,3,0,0,1,41.0157,56.0156Zm2-34a1,1,0,0,1-1-1V10.43a1,1,0,0,1,1.7072-.7071L54.3085,20.3086a1,1,0,0,1-.707,1.707Zm13,5v18a3,3,0,0,1-3,3h-26a3,3,0,0,1-3-3v-34a3,3,0,0,1,3-3h10a3,3,0,0,1,3,3v10a3,3,0,0,0,3,3h10A3,3,0,0,1,56.0157,27.0157Z"/>
</svg>
