<svg id="Layer_1" data-name="Layer 1" xmlns="http://www.w3.org/2000/svg" width="64" height="64" viewBox="0 0 64 64"><defs><style>.cls-1{fill-rule:evenodd}</style></defs><title>Icons 100</title><path class="cls-1" d="M56 45v4a1 1 0 0 1-1 1h-1.434a1 1 0 0 1-.857-.485l-2.418-4.03a1 1 0 0 0-.857-.485H14.566a1 1 0 0 0-.857.485l-2.417 4.03a1 1 0 0 1-.858.485H9a1 1 0 0 1-1-1v-4a6 6 0 0 1-6-6V27a2 2 0 0 1 2-2h4a2 2 0 0 1 2 2v7.5a.5.5 0 0 0 .5.5h43a.5.5 0 0 0 .5-.5V27a2 2 0 0 1 2-2h4a2 2 0 0 1 2 2v12a6 6 0 0 1-6 6zm-6-28a2 2 0 0 1 2 2v12a2 2 0 0 1-2 2H35a2 2 0 0 1-2-2V19a2 2 0 0 1 2-2h15zm-21 0a2 2 0 0 1 2 2v12a2 2 0 0 1-2 2H14a2 2 0 0 1-2-2V19a2 2 0 0 1 2-2h15z"/></svg>