<svg id="Layer_1" data-name="Layer 1" xmlns="http://www.w3.org/2000/svg" width="64" height="64" viewBox="0 0 64 64">
  <defs>
    <style>
      .cls-1 {
        fill-rule: evenodd;
      }
    </style>
  </defs>
  <title>Icons 100</title>
  <path class="cls-1" d="M56,45v4a1,1,0,0,1-1,1H53.5662a1,1,0,0,1-.8575-0.4855l-2.4174-4.029A1,1,0,0,0,49.4338,45H14.5664a1,1,0,0,0-.8576.4854l-2.4173,4.029A1,1,0,0,1,10.4339,50H9a1,1,0,0,1-1-1V45a6,6,0,0,1-6-6V27a2,2,0,0,1,2-2H8a2,2,0,0,1,2,2v7.5a0.5,0.5,0,0,0,.5.5h43a0.5,0.5,0,0,0,.5-0.5V27a2,2,0,0,1,2-2h4a2,2,0,0,1,2,2V39A6,6,0,0,1,56,45ZM50,17a2,2,0,0,1,2,2V31a2,2,0,0,1-2,2H35a2,2,0,0,1-2-2V19a2,2,0,0,1,2-2H50ZM29,17a2,2,0,0,1,2,2V31a2,2,0,0,1-2,2H14a2,2,0,0,1-2-2V19a2,2,0,0,1,2-2H29Z"/>
</svg>
