<svg id="Layer_1" data-name="Layer 1" xmlns="http://www.w3.org/2000/svg" width="64" height="64" viewBox="0 0 64 64">
  <defs>
    <style>
      .cls-1 {
        fill-rule: evenodd;
      }
    </style>
  </defs>
  <title>Icons 100</title>
  <path class="cls-1" d="M36.9879,30.0139c-0.654,0-3.0017-2.4-3.0017-3.0017,0-1.4746,1.5987-4.2,3.6019-6.2036C40.6786,17.7181,55.064,6,56.399,6A2.068,2.068,0,0,1,58,7.6009C58,8.936,46.282,23.3215,43.1915,26.4118,41.1883,28.4151,38.4626,30.0139,36.9879,30.0139ZM27.3548,40c-2.74,0-5.3589-1.6707-5.3589-2.3594s0.8076-.1831,2.0416-1.45c1.035-1.0625.6461-3.5469,2.8091-5.7671a4.6806,4.6806,0,0,1,6.7419,0,4.9859,4.9859,0,0,1,0,6.9206A8.56,8.56,0,0,1,27.3548,40ZM35,11.9918a2.0007,2.0007,0,0,1,0,4.0014H18a2.0023,2.0023,0,0,0-2,2.0006V46a2.0023,2.0023,0,0,0,2,2.0006H46A2.0027,2.0027,0,0,0,48,46V29a2,2,0,1,1,4,0V46a6.0077,6.0077,0,0,1-6,6.0021H18A6.0077,6.0077,0,0,1,12,46V17.9938a6.0076,6.0076,0,0,1,6-6.002H35Z"/>
</svg>
