<svg id="Layer_1" data-name="Layer 1" xmlns="http://www.w3.org/2000/svg" width="64" height="64" viewBox="0 0 64 64"><defs><style>.cls-1{fill-rule:evenodd}</style></defs><title>Icons 100</title><path class="cls-1" d="M36.988 30.014c-.654 0-3.002-2.4-3.002-3.002 0-1.474 1.599-4.2 3.602-6.203C40.678 17.719 55.064 6 56.4 6A2.068 2.068 0 0 1 58 7.6c0 1.336-11.718 15.722-14.809 18.812-2.003 2.003-4.728 3.602-6.203 3.602zM27.355 40c-2.74 0-5.36-1.67-5.36-2.36s.808-.183 2.042-1.45c1.035-1.062.647-3.546 2.81-5.767a4.68 4.68 0 0 1 6.741 0 4.986 4.986 0 0 1 0 6.921A8.56 8.56 0 0 1 27.355 40zM35 11.992a2 2 0 0 1 0 4.001H18a2.002 2.002 0 0 0-2 2V46a2.002 2.002 0 0 0 2 2h28a2.003 2.003 0 0 0 2-2V29a2 2 0 1 1 4 0v17a6.008 6.008 0 0 1-6 6.002H18A6.008 6.008 0 0 1 12 46V17.994a6.008 6.008 0 0 1 6-6.002h17z"/></svg>