<svg id="Layer_1" data-name="Layer 1" xmlns="http://www.w3.org/2000/svg" width="64" height="64" viewBox="0 0 64 64">
  <defs>
    <style>
      .cls-1 {
        fill-rule: evenodd;
      }
    </style>
  </defs>
  <title>Icons 300</title>
  <path class="cls-1" d="M52.0158,49.0157h-40a4,4,0,0,1-4-4v-26a4,4,0,0,1,4-4h40a4,4,0,0,1,4,4v26A4,4,0,0,1,52.0158,49.0157Zm-38-9a1,1,0,0,0,1,1h4a1,1,0,0,0,1-1v-2a1,1,0,0,0-1-1h-4a1,1,0,0,0-1,1Zm8-14a1,1,0,0,0-1-1h-8a1,1,0,0,0-1,1v6a1,1,0,0,0,1,1h8a1,1,0,0,0,1-1Zm8,12a1,1,0,0,0-1-1h-4a1,1,0,0,0-1,1v2a1,1,0,0,0,1,1h4a1,1,0,0,0,1-1Zm10,0a1,1,0,0,0-1-1h-4a1,1,0,0,0-1,1v2a1,1,0,0,0,1,1h4a1,1,0,0,0,1-1Zm10,0a1,1,0,0,0-1-1h-4a1,1,0,0,0-1,1v2a1,1,0,0,0,1,1h4a1,1,0,0,0,1-1Z"/>
</svg>
