<svg id="Layer_1" data-name="Layer 1" xmlns="http://www.w3.org/2000/svg" width="64" height="64" viewBox="0 0 64 64">
  <defs>
    <style>
      .cls-1 {
        fill-rule: evenodd;
      }
    </style>
  </defs>
  <title>Icons 200</title>
  <path class="cls-1" d="M54.5,49H49v5.5A1.5,1.5,0,0,1,47.5,56h-3A1.5,1.5,0,0,1,43,54.5V49H19.5A4.5,4.5,0,0,1,15,44.5V21H9.5A1.5,1.5,0,0,1,8,19.5v-3A1.5,1.5,0,0,1,9.5,15H15V9.5A1.5,1.5,0,0,1,16.5,8h3A1.5,1.5,0,0,1,21,9.5v33a0.5,0.5,0,0,0,.5.5h33A1.5,1.5,0,0,1,56,44.5v3A1.5,1.5,0,0,1,54.5,49Zm-10-34A4.5,4.5,0,0,1,49,19.5v21a0.5,0.5,0,0,1-.5.5h-5a0.5,0.5,0,0,1-.5-0.5v-19a0.5,0.5,0,0,0-.5-0.5h-19a0.5,0.5,0,0,1-.5-0.5v-5a0.5,0.5,0,0,1,.5-0.5h21Z"/>
</svg>
