<svg id="Layer_1" data-name="Layer 1" xmlns="http://www.w3.org/2000/svg" width="64" height="64" viewBox="0 0 64 64"><defs><style>.cls-1{fill-rule:evenodd}</style></defs><title>Icons 200</title><path class="cls-1" d="M54.5 49H49v5.5a1.5 1.5 0 0 1-1.5 1.5h-3a1.5 1.5 0 0 1-1.5-1.5V49H19.5a4.5 4.5 0 0 1-4.5-4.5V21H9.5A1.5 1.5 0 0 1 8 19.5v-3A1.5 1.5 0 0 1 9.5 15H15V9.5A1.5 1.5 0 0 1 16.5 8h3A1.5 1.5 0 0 1 21 9.5v33a.5.5 0 0 0 .5.5h33a1.5 1.5 0 0 1 1.5 1.5v3a1.5 1.5 0 0 1-1.5 1.5zm-10-34a4.5 4.5 0 0 1 4.5 4.5v21a.5.5 0 0 1-.5.5h-5a.5.5 0 0 1-.5-.5v-19a.5.5 0 0 0-.5-.5h-19a.5.5 0 0 1-.5-.5v-5a.5.5 0 0 1 .5-.5h21z"/></svg>