<svg id="Layer_1" data-name="Layer 1" xmlns="http://www.w3.org/2000/svg" width="64" height="64" viewBox="0 0 64 64"><defs><style>.cls-1{fill-rule:evenodd}</style></defs><title>Icons 200</title><path class="cls-1" d="M36.511 29.06l-2.693-4.373a2 2 0 0 1 0-2.098l8.7-14.128a1 1 0 0 1 1.287-.377c1.716.825 5.162 3.301 1.68 8.956-1.024 1.664-3.93 6.471-7.264 12.01a1 1 0 0 1-1.71.01zm15.24 15.247c2.281 3.968 1.328 8.81-2.13 10.816s-8.108.413-10.39-3.556c-.888-1.547-3.824-6.47-7.233-12.158-3.41 5.688-6.345 10.611-7.234 12.158-2.281 3.969-6.933 5.56-10.39 3.556s-4.41-6.848-2.13-10.816a8.202 8.202 0 0 1 7.752-4.314 4.903 4.903 0 0 0 4.278-1.905l3.51-5.7c-4.127-6.863-8.047-13.356-9.273-15.348-3.484-5.659-.032-8.134 1.684-8.957a.997.997 0 0 1 1.283.378l18.243 29.627A4.903 4.903 0 0 0 44 39.993a8.202 8.202 0 0 1 7.752 4.314zm-31.352.1c-1.606-.997-3.766-.205-4.825 1.77s-.617 4.382.989 5.38 3.765.205 4.825-1.77.616-4.382-.99-5.38zM48.386 46.2c-1.064-1.966-3.234-2.755-4.846-1.762s-2.058 3.393-.994 5.36 3.234 2.754 4.847 1.76 2.057-3.392.993-5.358z"/></svg>