<svg id="Layer_1" data-name="Layer 1" xmlns="http://www.w3.org/2000/svg" width="64" height="64" viewBox="0 0 64 64">
  <defs>
    <style>
      .cls-1 {
        fill-rule: evenodd;
      }
    </style>
  </defs>
  <title>Icons 200</title>
  <path class="cls-1" d="M36.5113,29.06l-2.6932-4.3732a2.0009,2.0009,0,0,1,0-2.0977l8.7-14.1278a0.9994,0.9994,0,0,1,1.2869-.3769c1.7164,0.825,5.1619,3.3006,1.6806,8.9558-1.0246,1.6637-3.93,6.4709-7.265,12.01A1.0006,1.0006,0,0,1,36.5113,29.06Zm15.24,15.2466c2.2809,3.9686,1.3278,8.8113-2.1294,10.816s-8.1087.4129-10.39-3.5556c-0.8889-1.5468-3.8249-6.47-7.2342-12.1583C28.5884,45.097,25.6526,50.02,24.7637,51.567c-2.2812,3.9685-6.9328,5.56-10.39,3.5556s-4.41-6.8474-2.1293-10.816a8.2018,8.2018,0,0,1,7.7518-4.3137,4.9031,4.9031,0,0,0,4.2778-1.9047l3.51-5.6995c-4.1265-6.8636-8.0472-13.3572-9.2731-15.3485-3.4837-5.6588-.0316-8.134,1.6837-8.9574a0.9967,0.9967,0,0,1,1.2834.3785L39.7215,38.0882a4.903,4.903,0,0,0,4.2777,1.9047A8.2018,8.2018,0,0,1,51.7511,44.3066Zm-31.3526.1011c-1.6054-.9974-3.7657-0.2054-4.8249,1.7687s-0.6167,4.3827.9889,5.38,3.7655,0.2054,4.8248-1.7686S22.004,45.4049,20.3985,44.4077ZM48.386,46.1989c-1.064-1.9662-3.2338-2.7551-4.8464-1.7615s-2.0573,3.3926-.9932,5.3588,3.2338,2.755,4.8464,1.7617S49.45,48.1654,48.386,46.1989Z"/>
</svg>
