<svg id="Layer_1" data-name="Layer 1" xmlns="http://www.w3.org/2000/svg" width="64" height="64" viewBox="0 0 64 64">
  <defs>
    <style>
      .cls-1 {
        fill-rule: evenodd;
      }
    </style>
  </defs>
  <title>Icons 300</title>
  <path class="cls-1" d="M46.0157,56.0156h-28a2,2,0,0,1-2-2V25.98a4,4,0,0,1,1.3968-3.037L29.3172,12.7392a2,2,0,0,0,.6985-1.5185V7.0156a1,1,0,0,1,1-1h2a1,1,0,0,1,1,1v4.2051a2,2,0,0,0,.6983,1.5185L46.6189,22.9433a4,4,0,0,1,1.3968,3.037V54.0156A2,2,0,0,1,46.0157,56.0156Zm-2-29.5753a.986.986,0,0,0-.3441-.7548c-1.6548-1.4184-8.8041-7.5467-11.0073-9.4361a.9958.9958,0,0,0-1.2971,0c-2.2028,1.8891-9.3527,8.0178-11.0074,9.4363a.9853.9853,0,0,0-.3441.7548v1.0753a.5.5,0,0,0,.5.5h23a.5.5,0,0,0,.5-.5Z"/>
</svg>
