<svg id="Layer_1" data-name="Layer 1" xmlns="http://www.w3.org/2000/svg" width="64" height="64" viewBox="0 0 64 64"><defs><style>.cls-1{fill-rule:evenodd}</style></defs><title>Icons 300</title><path class="cls-1" d="M46.016 56.016h-28a2 2 0 0 1-2-2V25.98a4 4 0 0 1 1.397-3.037l11.904-10.204a2 2 0 0 0 .699-1.518V7.016a1 1 0 0 1 1-1h2a1 1 0 0 1 1 1v4.205a2 2 0 0 0 .698 1.518l11.905 10.204a4 4 0 0 1 1.397 3.037v28.036a2 2 0 0 1-2 2zm-2-29.576a.986.986 0 0 0-.344-.755 104785 104785 0 0 1-11.008-9.436.996.996 0 0 0-1.297 0L20.36 25.686a.985.985 0 0 0-.344.755v1.075a.5.5 0 0 0 .5.5h23a.5.5 0 0 0 .5-.5z"/></svg>