<svg id="Layer_1" data-name="Layer 1" xmlns="http://www.w3.org/2000/svg" width="64" height="64" viewBox="0 0 64 64">
  <title>Icons 300</title>
  <path d="M32.0158,56.0156a24,24,0,1,1,24-24A24,24,0,0,1,32.0158,56.0156Zm-13-12a2,2,0,0,0,2,2h22a2,2,0,0,0,2-2v-2a2,2,0,0,0-2-2h-22a2,2,0,0,0-2,2Zm13-32a20,20,0,0,0-20,20v.02a2.0215,2.0215,0,0,0,2.0426,1.98H27.6473L25.0562,18.85a1.55,1.55,0,0,1,.9871-1.7521,1.4919,1.4919,0,0,1,1.8133.78l7.6046,16.138H49.973a2.0217,2.0217,0,0,0,2.0427-1.98v-.02A20,20,0,0,0,32.0158,12.0156Z"/>
</svg>
