<svg id="Layer_1" data-name="Layer 1" xmlns="http://www.w3.org/2000/svg" width="64" height="64" viewBox="0 0 64 64">
  <defs>
    <style>
      .cls-1 {
        fill-rule: evenodd;
      }
    </style>
  </defs>
  <title>Icons 400</title>
  <path class="cls-1" d="M32,54.0156c-11.0457,0-20-4.0294-20-9V43.4888a1.4545,1.4545,0,0,1,2.365-1.1413C17.8022,45.13,24.4448,47.0156,32,47.0156S46.1978,45.13,49.635,42.3475A1.4545,1.4545,0,0,1,52,43.4888v1.5268C52,49.9862,43.0457,54.0156,32,54.0156Zm0-11c-11.0457,0-20-4.0294-20-9V32.4888a1.4545,1.4545,0,0,1,2.365-1.1413C17.8022,34.13,24.4448,36.0156,32,36.0156S46.1978,34.13,49.635,31.3475A1.4545,1.4545,0,0,1,52,32.4888v1.5268C52,38.9862,43.0457,43.0156,32,43.0156Zm0-11c-11.0457,0-20-4.0294-20-9v-4c0-4.9706,8.9543-9,20-9s20,4.0294,20,9v4C52,27.9862,43.0457,32.0156,32,32.0156Z"/>
</svg>
