<svg id="Layer_1" data-name="Layer 1" xmlns="http://www.w3.org/2000/svg" width="64" height="64" viewBox="0 0 64 64"><defs><style>.cls-1{fill-rule:evenodd}</style></defs><title>Icons 400</title><path class="cls-1" d="M32 54.016c-11.046 0-20-4.03-20-9v-1.527a1.454 1.454 0 0 1 2.365-1.141c3.437 2.782 10.08 4.668 17.635 4.668s14.198-1.886 17.635-4.669A1.454 1.454 0 0 1 52 43.49v1.527c0 4.97-8.954 9-20 9zm0-11c-11.046 0-20-4.03-20-9v-1.527a1.454 1.454 0 0 1 2.365-1.141c3.437 2.782 10.08 4.668 17.635 4.668s14.198-1.886 17.635-4.668A1.454 1.454 0 0 1 52 32.487v1.528c0 4.97-8.954 9-20 9zm0-11c-11.046 0-20-4.03-20-9v-4c0-4.971 8.954-9 20-9s20 4.029 20 9v4c0 4.97-8.954 9-20 9z"/></svg>