<svg id="Layer_1" data-name="Layer 1" xmlns="http://www.w3.org/2000/svg" width="64" height="64" viewBox="0 0 64 64">
  <defs>
    <style>
      .cls-1 {
        fill-rule: evenodd;
      }
    </style>
  </defs>
  <title>Icons 300</title>
  <path class="cls-1" d="M32.0156,52.0157a25.5557,25.5557,0,0,1-4.69-.498,2.5865,2.5865,0,0,0-2.0546.5322,21.0885,21.0885,0,0,1-10.0575,3.9527,1.0906,1.0906,0,0,1-1.0156-1.6981,15.5328,15.5328,0,0,0,2.9595-5.9666,1.6129,1.6129,0,0,0-.6023-1.5706A21.1588,21.1588,0,0,1,8.0156,30.0157c0-12.1352,10.7452-22,24-22s24,9.8647,24,22S45.27,52.0157,32.0156,52.0157Zm-.006-8a3,3,0,1,0-3-3A3,3,0,0,0,32.01,44.0156Zm.006-27.9992a7.6833,7.6833,0,0,0-8,8.0051,1.9594,1.9594,0,0,0,2,2.0014c.9709,0,1.6685-.6454,2-2.0014.344-1.4071,1.2129-3.0018,4-3.0018a3.18,3.18,0,0,1,3.5,3.0018c0,3.5547-5.5,4.0406-5.5,9.0058a1.9562,1.9562,0,0,0,2,2.0013A2.37,2.37,0,0,0,34.4948,33.03c.926-3.9386,5.5208-4.13,5.5208-9.0086A7.6747,7.6747,0,0,0,32.0156,16.0164Z"/>
</svg>
