<svg id="Layer_1" data-name="Layer 1" xmlns="http://www.w3.org/2000/svg" width="64" height="64" viewBox="0 0 64 64"><defs><style>.cls-1{fill-rule:evenodd}</style></defs><title>Icons 300</title><path class="cls-1" d="M32.016 52.016a25.556 25.556 0 0 1-4.69-.498 2.587 2.587 0 0 0-2.055.532 21.088 21.088 0 0 1-10.058 3.953 1.09 1.09 0 0 1-1.015-1.698 15.533 15.533 0 0 0 2.96-5.967 1.613 1.613 0 0 0-.603-1.57 21.159 21.159 0 0 1-8.54-16.752c0-12.135 10.746-22 24-22s24 9.864 24 22-10.745 22-24 22zm-.006-8a3 3 0 1 0-3-3 3 3 0 0 0 3 3zm.006-28a7.683 7.683 0 0 0-8 8.006 1.96 1.96 0 0 0 2 2.001c.97 0 1.668-.645 2-2.001.344-1.407 1.213-3.002 4-3.002a3.18 3.18 0 0 1 3.5 3.002c0 3.554-5.5 4.04-5.5 9.005a1.956 1.956 0 0 0 2 2.002 2.37 2.37 0 0 0 2.479-1.999c.926-3.939 5.52-4.13 5.52-9.009a7.675 7.675 0 0 0-8-8.005z"/></svg>