<svg id="Layer_1" data-name="Layer 1" xmlns="http://www.w3.org/2000/svg" width="64" height="64" viewBox="0 0 64 64"><defs><style>.cls-1{fill-rule:evenodd}</style></defs><title>Icons 400</title><path class="cls-1" d="M44 56.015h-2a2 2 0 0 1-2-2v-16.99a1.958 1.958 0 0 0-.674-1.495C38.186 34.556 36 31.917 36 26.007c0-11.97 4.947-18.057 9.053-18.004a.987.987 0 0 1 .947 1v45.012a2 2 0 0 1-2 2zM24 36.23v17.787a2 2 0 0 1-2 2h-2a2 2 0 0 1-2-2V36.229c0-4.695-4-3.824-4-10.214 0-5.283.782-15.302.963-17.546a.494.494 0 0 1 .498-.454h1.05a.5.5 0 0 1 .5.489l.34 14.504a1.032 1.032 0 0 0 2.063.016l.567-14.528a.5.5 0 0 1 .5-.48h1.039a.5.5 0 0 1 .5.48l.567 14.528a1.032 1.032 0 0 0 2.062-.016l.34-14.504a.5.5 0 0 1 .5-.489h1.05a.494.494 0 0 1 .498.454c.18 2.244.963 12.263.963 17.546 0 6.39-4 5.512-4 10.214z"/></svg>