<svg id="Layer_1" data-name="Layer 1" xmlns="http://www.w3.org/2000/svg" width="64" height="64" viewBox="0 0 64 64">
  <defs>
    <style>
      .cls-1 {
        fill-rule: evenodd;
      }
    </style>
  </defs>
  <title>Icons 400</title>
  <path class="cls-1" d="M44,56.0154H42a2,2,0,0,1-2-2v-16.99a1.9583,1.9583,0,0,0-.6743-1.4957C38.1856,34.5556,36,31.9172,36,26.0075,36,14.0363,40.9472,7.95,45.0528,8.0034a.9871.9871,0,0,1,.9472,1V54.0153A2,2,0,0,1,44,56.0154ZM24,36.2294V54.0156a2,2,0,0,1-2,2H20a2,2,0,0,1-2-2V36.2294c0-4.6954-4-3.8248-4-10.214,0-5.2831.7823-15.3022.9631-17.5465a.4942.4942,0,0,1,.4979-.4536h1.0506a.5.5,0,0,1,.5.4884s.3269,13.944.34,14.5042a1.0317,1.0317,0,0,0,2.0623.0162c.0215-.5537.5675-14.5282.5675-14.5282a.5.5,0,0,1,.5-.4806h1.0382a.5.5,0,0,1,.5.4806s.546,13.9745.5675,14.5282a1.0317,1.0317,0,0,0,2.0623-.0162c.0131-.56.34-14.5042.34-14.5042a.5.5,0,0,1,.5-.4884H26.539a.4942.4942,0,0,1,.4979.4536C27.2177,10.7132,28,20.7323,28,26.0154,28,32.4055,24,31.5274,24,36.2294Z"/>
</svg>
