<svg id="Layer_1" data-name="Layer 1" xmlns="http://www.w3.org/2000/svg" width="64" height="64" viewBox="0 0 64 64">
  <title>Icons 400</title>
  <path d="M34.0078,44.0156h-4a1,1,0,0,0-1,1v9a2,2,0,0,0,2,2h2a2,2,0,0,0,2-2v-9A1,1,0,0,0,34.0078,44.0156Zm17.4-23.4142-3.559-3.5607a3.495,3.495,0,0,0-2.4729-1.0251H18.0143a1.9993,1.9993,0,0,0-1.9986,2v8a1.9993,1.9993,0,0,0,1.9986,2H45.3755a3.4954,3.4954,0,0,0,2.4729-1.0251l3.559-3.5607A2.0011,2.0011,0,0,0,51.4074,20.6014Zm-21.4-6.5858h4a1,1,0,0,0,1-1v-3a2,2,0,0,0-2-2h-2a2,2,0,0,0-2,2v3A1,1,0,0,0,30.0074,14.0156Zm15.9934,16H18.64a3.4958,3.4958,0,0,0-2.4729,1.0251l-3.559,3.5607a2.0013,2.0013,0,0,0,0,2.8284l3.559,3.5607A3.4958,3.4958,0,0,0,18.64,42.0156H46.0008a1.9994,1.9994,0,0,0,1.9987-2v-8A1.9994,1.9994,0,0,0,46.0008,30.0156Z"/>
</svg>
