<svg id="Layer_1" data-name="Layer 1" xmlns="http://www.w3.org/2000/svg" width="64" height="64" viewBox="0 0 64 64">
  <title>Icons 400</title>
  <path d="M33.9992,30.0156H29.9987a1,1,0,0,0-1,1v23a2,2,0,0,0,2,2h2a2,2,0,0,0,2-2v-23A1,1,0,0,0,33.9992,30.0156Zm-4.0005-16h4.0005a1,1,0,0,0,1-1v-3a2,2,0,0,0-2-2h-2a2,2,0,0,0-2,2v3A1,1,0,0,0,29.9987,14.0156Zm15.9935,2H18.631a3.4954,3.4954,0,0,0-2.4729,1.0251l-3.559,3.5607a2.0011,2.0011,0,0,0,0,2.8284l3.559,3.5607a3.4958,3.4958,0,0,0,2.4729,1.0251H45.9922a1.9994,1.9994,0,0,0,1.9987-2v-8A1.9994,1.9994,0,0,0,45.9922,16.0156Z"/>
</svg>
