<svg id="Layer_1" data-name="Layer 1" xmlns="http://www.w3.org/2000/svg" width="64" height="64" viewBox="0 0 64 64">
  <title>Icons 400</title>
  <path d="M33.9905,30.0156h-4a1,1,0,0,0-1,1v23a2,2,0,0,0,2,2h2a2,2,0,0,0,2-2v-23A1,1,0,0,0,33.9905,30.0156Zm-4-16h4a1,1,0,0,0,1-1v-3a2,2,0,0,0-2-2h-2a2,2,0,0,0-2,2v3A1,1,0,0,0,29.99,14.0156Zm21.4,6.5858-3.559-3.5607a3.4954,3.4954,0,0,0-2.4729-1.0251H17.9971a1.9993,1.9993,0,0,0-1.9986,2v8a1.9993,1.9993,0,0,0,1.9986,2H45.3583a3.4958,3.4958,0,0,0,2.4729-1.0251L51.39,23.43A2.0013,2.0013,0,0,0,51.39,20.6014Z"/>
</svg>
