<svg data-name="Layer 1" xmlns="http://www.w3.org/2000/svg" width="64" height="64" viewBox="0 0 64 64"><title>Icons 400</title><path d="M34.008 44.016h-4a1 1 0 0 0-1 1v9a2 2 0 0 0 2 2h2a2 2 0 0 0 2-2v-9a1 1 0 0 0-1-1zm17.4-23.415l-3.56-3.56a3.495 3.495 0 0 0-2.472-1.025H18.014a2 2 0 0 0-1.998 2v8a2 2 0 0 0 1.998 2h27.362a3.495 3.495 0 0 0 2.472-1.025l3.56-3.561a2.001 2.001 0 0 0 0-2.829zm-21.4-6.585h4a1 1 0 0 0 1-1v-3a2 2 0 0 0-2-2h-2a2 2 0 0 0-2 2v3a1 1 0 0 0 1 1zm15.993 16H18.64a3.496 3.496 0 0 0-2.473 1.025l-3.559 3.56a2.001 2.001 0 0 0 0 2.829l3.56 3.56a3.496 3.496 0 0 0 2.472 1.026H46a2 2 0 0 0 2-2v-8a2 2 0 0 0-2-2z"/></svg>