<svg id="Layer_1" data-name="Layer 1" xmlns="http://www.w3.org/2000/svg" width="64" height="64" viewBox="0 0 64 64">
  <defs>
    <style>
      .cls-1 {
        fill-rule: evenodd;
      }
    </style>
  </defs>
  <title>Icons 300</title>
  <path class="cls-1" d="M57.1088,34.1235,34.1142,57.118a3,3,0,0,1-4.2419,0L6.8775,34.1235a2.9994,2.9994,0,0,1,0-4.2418L29.8723,6.8868a2.9992,2.9992,0,0,1,4.2419,0L57.109,29.8817A3,3,0,0,1,57.1088,34.1235Zm-11.5374-6.92-9.9482-6.9887a1.0244,1.0244,0,0,0-1.6182.819v4.9825H30.0157a8,8,0,0,0-8,8v8a2,2,0,0,0,4,0v-8a4,4,0,0,1,4-4H34.005v4.9952a1.0244,1.0244,0,0,0,1.6182.819l9.9482-6.9887A.9971.9971,0,0,0,45.5714,27.203Z"/>
</svg>
