<svg id="Layer_1" data-name="Layer 1" xmlns="http://www.w3.org/2000/svg" width="64" height="64" viewBox="0 0 64 64"><defs><style>.cls-1{fill-rule:evenodd}</style></defs><title>Icons 300</title><path class="cls-1" d="M57.109 34.123L34.114 57.118a3 3 0 0 1-4.242 0L6.878 34.123a3 3 0 0 1 0-4.241L29.872 6.887a3 3 0 0 1 4.242 0L57.11 29.882a3 3 0 0 1 0 4.241zm-11.538-6.92l-9.948-6.988a1.024 1.024 0 0 0-1.618.819v4.982h-3.99a8 8 0 0 0-8 8v8a2 2 0 0 0 4 0v-8a4 4 0 0 1 4-4h3.99v4.995a1.024 1.024 0 0 0 1.618.82l9.948-6.99a.997.997 0 0 0 0-1.638z"/></svg>