<svg id="Layer_1" data-name="Layer 1" xmlns="http://www.w3.org/2000/svg" width="64" height="64" viewBox="0 0 64 64">
  <defs>
    <style>
      .cls-1 {
        fill-rule: evenodd;
      }
    </style>
  </defs>
  <title>Icons 300</title>
  <path class="cls-1" d="M61.9986,14.3655c-.6719,1.4376-3.2695,6.489-7.5094,8.6686a10.86,10.86,0,0,0,5.3749-1.07.2444.2444,0,0,1,.3267.3217c-2.3824,5.0242-6.6442,5.6582-11.2691,8.05a22.5476,22.5476,0,0,0,6.141-.1564.2441.2441,0,0,1,.2278.401C50,36.3976,46.5244,32.909,40.49,37.262a35.3942,35.3942,0,0,0-9.4739,9.7537,1.9219,1.9219,0,0,1-1.6875,1,1.3218,1.3218,0,0,1-1.3126-1.5c0-2.1093,3.8512-10.29,13.4527-19.8448,10.72-10.6682,18.4345-12.38,20.28-12.646A.2391.2391,0,0,1,61.9986,14.3655Zm-25.983,7.65h-26a2,2,0,0,1,0-4h26a2,2,0,0,1,0,4Zm-26,8h18a2,2,0,1,1,0,4h-18a2,2,0,0,1,0-4Zm0,12h10a2,2,0,1,1,0,4h-10a2,2,0,1,1,0-4Z"/>
</svg>
