<svg id="Layer_1" data-name="Layer 1" xmlns="http://www.w3.org/2000/svg" width="64" height="64" viewBox="0 0 64 64"><defs><style>.cls-1{fill-rule:evenodd}</style></defs><title>Icons 300</title><path class="cls-1" d="M59.37 21.89l-2.894 2.888a.752.752 0 0 1-1.061 0l-4.191-4.176a.746.746 0 0 1 0-1.058l2.895-2.888a2.255 2.255 0 0 1 3.182 0l2.069 2.062a2.238 2.238 0 0 1 0 3.172zm-5.583 5.572L36.284 44.978a6.003 6.003 0 0 1-2.52 1.506L28.717 48a.562.562 0 0 1-.7-.7l1.515-5.054a6.003 6.003 0 0 1 1.504-2.52L48.538 22.21a.75.75 0 0 1 1.06 0l4.188 4.191a.75.75 0 0 1 0 1.061zm-17.771-5.446h-26a2 2 0 0 1 0-4h26a2 2 0 0 1 0 4zm-26 8h18a2 2 0 1 1 0 4h-18a2 2 0 0 1 0-4zm0 12h10a2 2 0 1 1 0 4h-10a2 2 0 1 1 0-4z"/></svg>