<svg id="Layer_1" data-name="Layer 1" xmlns="http://www.w3.org/2000/svg" width="64" height="64" viewBox="0 0 64 64"><defs><style>.cls-1{fill-rule:evenodd}</style></defs><title>Icons 300</title><path class="cls-1" d="M61.999 14.366c-.672 1.437-3.27 6.489-7.51 8.668a10.86 10.86 0 0 0 5.375-1.07.244.244 0 0 1 .327.322c-2.383 5.024-6.644 5.658-11.27 8.05a22.548 22.548 0 0 0 6.142-.157.244.244 0 0 1 .228.401C50 36.398 46.524 32.91 40.49 37.262a35.394 35.394 0 0 0-9.474 9.754 1.922 1.922 0 0 1-1.687 1 1.322 1.322 0 0 1-1.313-1.5c0-2.11 3.851-10.29 13.453-19.845 10.72-10.668 18.434-12.38 20.28-12.646a.24.24 0 0 1 .25.34zm-25.983 7.65h-26a2 2 0 0 1 0-4h26a2 2 0 0 1 0 4zm-26 8h18a2 2 0 1 1 0 4h-18a2 2 0 0 1 0-4zm0 12h10a2 2 0 1 1 0 4h-10a2 2 0 1 1 0-4z"/></svg>