<svg id="Layer_1" data-name="Layer 1" xmlns="http://www.w3.org/2000/svg" width="64" height="64" viewBox="0 0 64 64">
  <defs>
    <style>
      .cls-1 {
        fill-rule: evenodd;
      }
    </style>
  </defs>
  <title>Icons 300</title>
  <path class="cls-1" d="M59.37,21.89l-2.8945,2.8881a.7518.7518,0,0,1-1.0608,0l-4.1907-4.1765a.7458.7458,0,0,1,0-1.0573l2.8947-2.8881a2.2554,2.2554,0,0,1,3.1821,0l2.0692,2.062A2.2377,2.2377,0,0,1,59.37,21.89Zm-5.5833,5.5723L36.2838,44.978a6.0033,6.0033,0,0,1-2.52,1.5065L28.7171,48a.5624.5624,0,0,1-.7-.7l1.5149-5.0541a6.0025,6.0025,0,0,1,1.5037-2.5191L48.5384,22.21a.7494.7494,0,0,1,1.06,0l4.1876,4.191A.7509.7509,0,0,1,53.7863,27.4624ZM36.0156,22.0157h-26a2,2,0,0,1,0-4h26a2,2,0,0,1,0,4Zm-26,8h18a2,2,0,1,1,0,4h-18a2,2,0,0,1,0-4Zm0,12h10a2,2,0,1,1,0,4h-10a2,2,0,1,1,0-4Z"/>
</svg>
