<svg id="Layer_1" data-name="Layer 1" xmlns="http://www.w3.org/2000/svg" width="64" height="64" viewBox="0 0 64 64"><defs><style>.cls-1{fill-rule:evenodd}</style></defs><title>Icons 300</title><path class="cls-1" d="M49.003 16.04h-1.745l-3.181 38.143a2 2 0 0 1-1.994 1.833H21.92a2 2 0 0 1-1.993-1.833l-3.181-38.142h-1.731a1 1 0 0 1-.97-1.242l.5-1.999a1 1 0 0 1 .97-.757H35.26l.759-9.1a1 1 0 0 1 1.08-.914l1.993.166a1 1 0 0 1 .914 1.079l-.731 8.77h9.227a1 1 0 0 1 .97.756l.5 2a1 1 0 0 1-.97 1.24zm-28.219.542l.584 6.995a.5.5 0 0 0 .499.459H34.26l.667-7.995H21.283a.5.5 0 0 0-.499.541zm18.158-.541l-.667 7.995h3.836a.5.5 0 0 0 .498-.458l.584-6.996a.5.5 0 0 0-.499-.541z"/></svg>