<svg id="Layer_1" data-name="Layer 1" xmlns="http://www.w3.org/2000/svg" width="64" height="64" viewBox="0 0 64 64">
  <defs>
    <style>
      .cls-1 {
        fill-rule: evenodd;
      }
    </style>
  </defs>
  <title>Icons 300</title>
  <path class="cls-1" d="M49.0032,16.0409H47.2577L44.0765,54.1831a2,2,0,0,1-1.9933,1.8328H21.92a2,2,0,0,1-1.9934-1.8328L16.7459,16.0409H15.0146a1,1,0,0,1-.9693-1.2418l.5-1.9989a.9993.9993,0,0,1,.9694-.7569H35.2609l.759-9.1012a1,1,0,0,1,1.08-.9129l1.9936.1658a1,1,0,0,1,.9137,1.079l-.7314,8.7693h9.2276a1,1,0,0,1,.97.7569l.5,1.9989A1,1,0,0,1,49.0032,16.0409Zm-28.2188.5415.5838,6.9951a.5.5,0,0,0,.4984.4584H34.2608l.6668-7.995H21.2827A.5.5,0,0,0,20.7844,16.5824Zm18.1578-.5415-.6667,7.995h3.8352a.5.5,0,0,0,.4982-.4584l.5839-6.9951a.5.5,0,0,0-.4984-.5415Z"/>
</svg>
