<svg id="Layer_1" data-name="Layer 1" xmlns="http://www.w3.org/2000/svg" width="64" height="64" viewBox="0 0 64 64"><defs><style>.cls-1{fill-rule:evenodd}</style></defs><title>Icons 400</title><path class="cls-1" d="M58.958 29.039H44.983a1.027 1.027 0 0 1-.818-1.622l6.987-9.969a.996.996 0 0 1 1.638 0l6.988 9.97a1.027 1.027 0 0 1-.82 1.62zM35.994 50.016H8.008a3.999 3.999 0 0 1-3.998-4v-28a3.999 3.999 0 0 1 3.998-4h27.986a3.999 3.999 0 0 1 3.997 4v28a3.999 3.999 0 0 1-3.997 4zm-13.999-31.99a2.998 2.998 0 1 0 3 2.998 2.999 2.999 0 0 0-3-2.999zM25 26.016h-5.996a3.999 3.999 0 0 0-3.998 4v6a1 1 0 0 0 1 1 1 1 0 0 0 .999-1v-5a1 1 0 0 1 1-1 1 1 0 0 1 1 1v14a1 1 0 0 0 .999 1 1 1 0 0 0 1-1v-7a1 1 0 0 1 .999-1 1 1 0 0 1 .999 1v7a1 1 0 0 0 1 1 1 1 0 0 0 .999-1v-14a1 1 0 0 1 1-1 1 1 0 0 1 .999 1v5a1 1 0 0 0 1 1 1 1 0 0 0 .999-1v-6a3.999 3.999 0 0 0-3.999-4zm20.004 9.008h13.975a1.024 1.024 0 0 1 .819 1.617l-6.988 9.943a.997.997 0 0 1-1.638 0l-6.987-9.943a1.024 1.024 0 0 1 .819-1.617z"/></svg>