<svg id="Layer_1" data-name="Layer 1" xmlns="http://www.w3.org/2000/svg" width="64" height="64" viewBox="0 0 64 64">
  <defs>
    <style>
      .cls-1 {
        fill-rule: evenodd;
      }
    </style>
  </defs>
  <title>Icons 400</title>
  <path class="cls-1" d="M58.9584,29.0386H44.9833a1.0267,1.0267,0,0,1-.8188-1.6215l6.9874-9.9687a.9957.9957,0,0,1,1.6379,0l6.9877,9.9687A1.0268,1.0268,0,0,1,58.9584,29.0386ZM35.9939,50.0157H8.0081a3.9989,3.9989,0,0,1-3.9976-4v-28a3.9988,3.9988,0,0,1,3.9976-4H35.9939a3.9988,3.9988,0,0,1,3.9976,4v28A3.9988,3.9988,0,0,1,35.9939,50.0157Zm-13.9985-31.99a2.9984,2.9984,0,1,0,2.9994,2.9983A2.9989,2.9989,0,0,0,21.9954,18.0254Zm3.0038,7.99H19.0028a3.9988,3.9988,0,0,0-3.9976,4v6a1,1,0,0,0,.9993,1h0a1,1,0,0,0,.9994-1v-5a1,1,0,0,1,.9994-1h0a1,1,0,0,1,1,1v14a1,1,0,0,0,.9994,1h0a1,1,0,0,0,.9994-1v-7a1,1,0,0,1,.9994-1h0a1,1,0,0,1,.9994,1v7a1,1,0,0,0,.9994,1h0a1,1,0,0,0,.9994-1v-14a1,1,0,0,1,.9994-1h0a1,1,0,0,1,.9994,1v5a1,1,0,0,0,1,1h0a1,1,0,0,0,.9993-1v-6A3.9988,3.9988,0,0,0,24.9992,26.0157ZM45.003,35.0238H58.9779a1.0239,1.0239,0,0,1,.819,1.6172l-6.9876,9.9428a.9973.9973,0,0,1-1.6379,0L44.1838,36.641A1.0238,1.0238,0,0,1,45.003,35.0238Z"/>
</svg>
