<svg id="Layer_1" data-name="Layer 1" xmlns="http://www.w3.org/2000/svg" width="64" height="64" viewBox="0 0 64 64"><defs><style>.cls-1{fill-rule:evenodd}</style></defs><title>Icons 300</title><path class="cls-1" d="M32.016 8.016a24 24 0 1 1-24 24 24 24 0 0 1 24-24zm-7 16c-2.673 0-4 3.114-4 6 0 1.314.17 2 .75 2s1.518-2 3.25-2 2.67 2 3.25 2 .75-.686.75-2c0-2.886-1.327-6-4-6zm14 0c-2.673 0-4 3.114-4 6 0 1.314.17 2 .75 2s1.518-2 3.25-2 2.67 2 3.25 2 .75-.686.75-2c0-2.886-1.328-6-4-6zm-7 22c7.5 0 12-5.959 12-7.25a.7.7 0 0 0-.75-.75c-1.388 0-4.123 4-11.25 4s-9.863-4-11.25-4a.7.7 0 0 0-.75.75c0 1.291 4.499 7.25 12 7.25z"/></svg>