<svg id="Layer_1" data-name="Layer 1" xmlns="http://www.w3.org/2000/svg" width="64" height="64" viewBox="0 0 64 64">
  <defs>
    <style>
      .cls-1 {
        fill-rule: evenodd;
      }
    </style>
  </defs>
  <title>Icons 300</title>
  <path class="cls-1" d="M32.0156,8.0157a24,24,0,1,1-24,24A24,24,0,0,1,32.0156,8.0157Zm-7,16c-2.6728,0-4,3.1144-4,6,0,1.3138.1706,2,.75,2s1.5182-2,3.25-2,2.6707,2,3.25,2,.75-.6862.75-2C29.0156,27.13,27.6885,24.0157,25.0156,24.0157Zm14,0c-2.6728,0-4,3.1144-4,6,0,1.3138.1706,2,.75,2s1.5182-2,3.25-2,2.6707,2,3.25,2,.75-.6862.75-2C43.0156,27.13,41.6885,24.0157,39.0156,24.0157Zm-7,22c7.501,0,12-5.9583,12-7.25a.7.7,0,0,0-.75-.75c-1.3872,0-4.1225,4-11.25,4s-9.8628-4-11.25-4a.7.7,0,0,0-.75.75C20.0156,40.0574,24.5146,46.0157,32.0156,46.0157Z"/>
</svg>
