<svg id="Layer_1" data-name="Layer 1" xmlns="http://www.w3.org/2000/svg" width="64" height="64" viewBox="0 0 64 64">
  <defs>
    <style>
      .cls-1 {
        fill-rule: evenodd;
      }
    </style>
  </defs>
  <title>Icons 200</title>
  <path class="cls-1" d="M19.88,10.42A8.7281,8.7281,0,0,1,25.9118,8H38.6473A8.7275,8.7275,0,0,1,44.83,10.5683l8.6253,8.6584A8.7271,8.7271,0,0,1,56,25.3859V38.1413A8.7269,8.7269,0,0,1,53.58,44.1724L44.85,53.3037A8.7283,8.7283,0,0,1,38.5417,56H26.0162a8.728,8.728,0,0,1-6.16-2.5449L10.5679,44.2A8.7269,8.7269,0,0,1,8,38.0179V25.51a8.7268,8.7268,0,0,1,2.6955-6.3073ZM31.994,46a3,3,0,1,0-3-3A3,3,0,0,0,31.994,46ZM29.548,34.7519a2.4543,2.4543,0,0,0,4.8913,0l0.5545-13.7546a3,3,0,0,0-6,0Z"/>
</svg>
