<svg id="Layer_1" data-name="Layer 1" xmlns="http://www.w3.org/2000/svg" width="64" height="64" viewBox="0 0 64 64"><defs><style>.cls-1{fill-rule:evenodd}</style></defs><title>Icons 200</title><path class="cls-1" d="M19.88 10.42A8.728 8.728 0 0 1 25.912 8h12.735a8.727 8.727 0 0 1 6.183 2.568l8.625 8.659A8.727 8.727 0 0 1 56 25.386V38.14a8.727 8.727 0 0 1-2.42 6.031l-8.73 9.132A8.728 8.728 0 0 1 38.542 56H26.016a8.728 8.728 0 0 1-6.16-2.545L10.568 44.2A8.727 8.727 0 0 1 8 38.018V25.51a8.727 8.727 0 0 1 2.696-6.307zM31.994 46a3 3 0 1 0-3-3 3 3 0 0 0 3 3zm-2.446-11.248a2.454 2.454 0 0 0 4.891 0l.555-13.755a3 3 0 0 0-6 0z"/></svg>