<svg id="Layer_1" data-name="Layer 1" xmlns="http://www.w3.org/2000/svg" width="64" height="64" viewBox="0 0 64 64">
  <defs>
    <style>
      .cls-1 {
        fill-rule: evenodd;
      }
    </style>
  </defs>
  <title>Icons 400</title>
  <path class="cls-1" d="M55.998,50.0038a2,2,0,0,1-2.0019-1.9983V42.8634l-8.624,8.579a1.99,1.99,0,0,1-2.8046-2.823L51.21,40.0226H45.9775a1.9984,1.9984,0,1,1,0-3.9968h10.02A2,2,0,0,1,58,38.0241v9.9814A2,2,0,0,1,55.998,50.0038ZM52,24.0237H48.9a1,1,0,0,0-.7072.2929L22.8286,49.685a7.9994,7.9994,0,0,1-5.657,2.3436H12a6.001,6.001,0,0,1,0-12.0021h3.1a.9992.9992,0,0,0,.707-.293L41.1716,14.3651a7.9992,7.9992,0,0,1,5.6568-2.3436H52a6.0011,6.0011,0,0,1,0,12.0022Zm-33,0a4,4,0,1,1,8,0v.8579a2.0007,2.0007,0,0,1-.5858,1.4144l-5.7071,5.7081A1,1,0,0,1,19,31.2968Zm4-6.0011a4.0007,4.0007,0,1,1,4-4.0007A4,4,0,0,1,23,18.0226Z"/>
</svg>
