<svg id="Layer_1" data-name="Layer 1" xmlns="http://www.w3.org/2000/svg" width="64" height="64" viewBox="0 0 64 64">
  <defs>
    <style>
      .cls-1 {
        fill-rule: evenodd;
      }
    </style>
  </defs>
  <title>Icons 400</title>
  <path class="cls-1" d="M52,24.0237H48.9a1,1,0,0,0-.7072.2929L22.8285,49.685a7.9994,7.9994,0,0,1-5.657,2.3436H12a6.001,6.001,0,0,1,0-12.0021h3.1a1,1,0,0,0,.7071-.293l25.364-25.3684a7.9994,7.9994,0,0,1,5.6569-2.3436H52a6.0011,6.0011,0,0,1,0,12.0022Zm-31.2929,7.98A1,1,0,0,1,19,31.2968V24.0237a4,4,0,1,1,8,0v.8579a2.0007,2.0007,0,0,1-.5858,1.4144ZM23,18.0226a4.0007,4.0007,0,1,1,4-4.0007A4,4,0,0,1,23,18.0226Zm21.002,20.005a2,2,0,0,1,2.0019,1.9983v5.142l8.624-8.5789a1.99,1.99,0,0,1,2.8046,2.823L48.79,48.0088h5.2322a1.9984,1.9984,0,1,1,0,3.9968H44.002A2,2,0,0,1,42,50.0073V40.0259A2,2,0,0,1,44.002,38.0276Z"/>
</svg>
