<svg id="Layer_1" data-name="Layer 1" xmlns="http://www.w3.org/2000/svg" width="64" height="64" viewBox="0 0 64 64"><defs><style>.cls-1{fill-rule:evenodd}</style></defs><title>Icons 400</title><path class="cls-1" d="M52 24.024h-3.1a1 1 0 0 0-.707.293L22.829 49.685a8 8 0 0 1-5.658 2.344H12a6.001 6.001 0 0 1 0-12.002h3.1a1 1 0 0 0 .707-.293l25.364-25.369a8 8 0 0 1 5.657-2.343H52a6.001 6.001 0 0 1 0 12.002zm-31.293 7.98A1 1 0 0 1 19 31.297v-7.273a4 4 0 1 1 8 0v.858a2 2 0 0 1-.586 1.414zM23 18.023a4 4 0 1 1 4-4.001 4 4 0 0 1-4 4zm21.002 20.005a2 2 0 0 1 2.002 1.998v5.142l8.624-8.579a1.99 1.99 0 0 1 2.804 2.823l-8.642 8.597h5.232a1.998 1.998 0 1 1 0 3.997h-10.02A2 2 0 0 1 42 50.007v-9.981a2 2 0 0 1 2.002-1.998z"/></svg>