<svg id="Layer_1" data-name="Layer 1" xmlns="http://www.w3.org/2000/svg" width="64" height="64" viewBox="0 0 64 64"><defs><style>.cls-1{fill-rule:evenodd}</style></defs><title>Icons 400</title><path class="cls-1" d="M55.998 50.004a2 2 0 0 1-2.002-1.998v-5.143l-8.624 8.58a1.99 1.99 0 0 1-2.805-2.824l8.643-8.596h-5.233a1.998 1.998 0 1 1 0-3.997h10.02A2 2 0 0 1 58 38.024v9.981a2 2 0 0 1-2.002 1.999zM52 24.024h-3.1a1 1 0 0 0-.707.293L22.829 49.685a8 8 0 0 1-5.657 2.344H12a6.001 6.001 0 0 1 0-12.002h3.1a1 1 0 0 0 .707-.293l25.365-25.369a8 8 0 0 1 5.656-2.344H52a6.001 6.001 0 0 1 0 12.003zm-33 0a4 4 0 1 1 8 0v.858a2 2 0 0 1-.586 1.414l-5.707 5.708A1 1 0 0 1 19 31.297zm4-6.001a4 4 0 1 1 4-4.001 4 4 0 0 1-4 4z"/></svg>