<svg id="Layer_1" data-name="Layer 1" xmlns="http://www.w3.org/2000/svg" width="64" height="64" viewBox="0 0 64 64">
  <defs>
    <style>
      .cls-1 {
        fill-rule: evenodd;
      }
    </style>
  </defs>
  <title>Icons 400</title>
  <path class="cls-1" d="M12,54.0156H32a2,2,0,1,0,0-4H12a2,2,0,1,0,0,4Zm0-8h6a2,2,0,1,0,0-4H12a2,2,0,1,0,0,4Zm-2-10a2,2,0,0,0,2,2H24a2,2,0,1,0,0-4H12A2,2,0,0,0,10,36.0157Zm36-26H18a2,2,0,0,0,0,4H46a2,2,0,0,0,0-4ZM24.1859,19.6273l6.9887,9.9743a.9958.9958,0,0,0,1.6382,0l6.9887-9.9743a1.0274,1.0274,0,0,0-.8191-1.6225H25.0047A1.0273,1.0273,0,0,0,24.1859,19.6273ZM52,34.0157H32a2,2,0,1,0,0,4H52a2,2,0,1,0,0-4Zm0,8H46a2,2,0,1,0,0,4h6a2,2,0,1,0,0-4Zm2,10a2,2,0,0,0-2-2H40a2,2,0,1,0,0,4H52A2,2,0,0,0,54,52.0157Zm-14-8a2,2,0,0,0-2-2H26a2,2,0,1,0,0,4H38A2,2,0,0,0,40,44.0157Z"/>
</svg>
