<svg id="Layer_1" data-name="Layer 1" xmlns="http://www.w3.org/2000/svg" width="64" height="64" viewBox="0 0 64 64"><defs><style>.cls-1{fill-rule:evenodd}</style></defs><title>Icons 300</title><path class="cls-1" d="M33.183 26.66l4.19 4.188a2.272 2.272 0 0 1 0 3.218L21.56 49.852c-3.62 3.62-6.878 1.942-8.6 3.664a1.969 1.969 0 0 1-2.51.065 1.97 1.97 0 0 1 .065-2.51c1.723-1.722.045-4.98 3.664-8.6L29.965 26.66a2.272 2.272 0 0 1 3.218 0zm19.31-7.683l-7.425 7.418.962.962a3.317 3.317 0 1 1-4.692 4.689l-9.386-9.378a3.317 3.317 0 0 1 4.693-4.689l.993.992 7.424-7.418a5.251 5.251 0 1 1 7.43 7.424z"/></svg>