<svg id="Layer_1" data-name="Layer 1" xmlns="http://www.w3.org/2000/svg" width="64" height="64" viewBox="0 0 64 64">
  <defs>
    <style>
      .cls-1 {
        fill-rule: evenodd;
      }
    </style>
  </defs>
  <title>Icons 300</title>
  <path class="cls-1" d="M33.1833,26.6594l4.189,4.189a2.2722,2.2722,0,0,1,.001,3.218L21.56,49.8518c-3.6195,3.62-6.8782,1.9419-8.6007,3.6642a1.969,1.969,0,0,1-2.5092.0651,1.9692,1.9692,0,0,1,.0652-2.5093c1.7223-1.7223.0446-4.9809,3.6642-8.6L29.9652,26.6585A2.2722,2.2722,0,0,1,33.1833,26.6594Zm19.3088-7.6827-7.4244,7.4182.9627.962a3.3169,3.3169,0,1,1-4.6927,4.6888l-9.3854-9.3775a3.3169,3.3169,0,0,1,4.6928-4.6889l.9929.992,7.4243-7.4181a5.2514,5.2514,0,1,1,7.43,7.4235Z"/>
</svg>
