<svg id="Layer_1" data-name="Layer 1" xmlns="http://www.w3.org/2000/svg" width="64" height="64" viewBox="0 0 64 64">
  <defs>
    <style>
      .cls-1 {
        fill-rule: evenodd;
      }
    </style>
  </defs>
  <title>Icons 400</title>
  <path class="cls-1" d="M54,54.0154l-44,0a2.0006,2.0006,0,0,1-2-2V30.01a2,2,0,0,1,2-2h1L12.91,8.9155a1,1,0,0,1,.9951-.9h3.19a1,1,0,0,1,.995.9L19.92,27.21l10.5254-7.0141A1,1,0,0,1,32,21.0281v6.1288l10.4453-6.9606A1,1,0,0,1,44,21.0282v6.1287l10.4454-6.9607A1,1,0,0,1,56,21.0281V52.0159A2,2,0,0,1,54,54.0154ZM28,35.0156a1,1,0,0,0-1-1H21a1,1,0,0,0-1,1v4a1,1,0,0,0,1,1h6a1,1,0,0,0,1-1Zm0,10a1,1,0,0,0-1-1H21a1,1,0,0,0-1,1v4a1,1,0,0,0,1,1h6a1,1,0,0,0,1-1Zm12-10a1,1,0,0,0-1-1H33a1,1,0,0,0-1,1v4a1,1,0,0,0,1,1h6a1,1,0,0,0,1-1Zm0,10a1,1,0,0,0-1-1H33a1,1,0,0,0-1,1v4a1,1,0,0,0,1,1h6a1,1,0,0,0,1-1Zm12-10a1,1,0,0,0-1-1H45a1,1,0,0,0-1,1v4a1,1,0,0,0,1,1h6a1,1,0,0,0,1-1Zm0,10a1,1,0,0,0-1-1H45a1,1,0,0,0-1,1v4a1,1,0,0,0,1,1h6a1,1,0,0,0,1-1Z"/>
</svg>
