<svg id="Layer_1" data-name="Layer 1" xmlns="http://www.w3.org/2000/svg" width="64" height="64" viewBox="0 0 64 64"><defs><style>.cls-1{fill-rule:evenodd}</style></defs><title>Icons 400</title><path class="cls-1" d="M54 54.015H10a2 2 0 0 1-2-2V30.01a2 2 0 0 1 2-2h1l1.91-19.095a1 1 0 0 1 .995-.9h3.19a1 1 0 0 1 .995.9l1.83 18.295 10.525-7.014a1 1 0 0 1 1.555.832v6.129l10.445-6.96a1 1 0 0 1 1.555.831v6.129l10.445-6.96a1 1 0 0 1 1.555.831v30.988a2 2 0 0 1-2 2zm-26-19a1 1 0 0 0-1-1h-6a1 1 0 0 0-1 1v4a1 1 0 0 0 1 1h6a1 1 0 0 0 1-1zm0 10a1 1 0 0 0-1-1h-6a1 1 0 0 0-1 1v4a1 1 0 0 0 1 1h6a1 1 0 0 0 1-1zm12-10a1 1 0 0 0-1-1h-6a1 1 0 0 0-1 1v4a1 1 0 0 0 1 1h6a1 1 0 0 0 1-1zm0 10a1 1 0 0 0-1-1h-6a1 1 0 0 0-1 1v4a1 1 0 0 0 1 1h6a1 1 0 0 0 1-1zm12-10a1 1 0 0 0-1-1h-6a1 1 0 0 0-1 1v4a1 1 0 0 0 1 1h6a1 1 0 0 0 1-1zm0 10a1 1 0 0 0-1-1h-6a1 1 0 0 0-1 1v4a1 1 0 0 0 1 1h6a1 1 0 0 0 1-1z"/></svg>