<svg id="Layer_1" data-name="Layer 1" xmlns="http://www.w3.org/2000/svg" width="64" height="64" viewBox="0 0 64 64">
  <defs>
    <style>
      .cls-1 {
        fill-rule: evenodd;
      }
    </style>
  </defs>
  <title>Icons 300</title>
  <path class="cls-1" d="M55.0158,34.0157c-5.8092,0-6.879,2.2984-9.6324,3.6279-5.0039,2.4158-8.3678,5.527-8.3678,11.3721,0,3.097-.028,5-1,5-1.7749,0-2.6828-1.8429-3.5065-3.2535a5.1332,5.1332,0,0,1-1.7434.2534c-2.278,0-14.75-4.4979-14.75-7,0-1.4689,1-2.2589,1-4l0-.0269a4.7391,4.7391,0,0,0-1.9733-3.7064,9.6444,9.6444,0,0,1-3.4783-4.6195,3.6325,3.6325,0,0,1-1.5484.3528c-1.9194,0-4-2.3385-4-6,0-3.6515.7179-5,1.5-5,1.0137,0,1.25.5,1.25.5s.6936-2.5094,2.1057-2.5094a1.9594,1.9594,0,0,1,1.7256,1.0821,12.0548,12.0548,0,0,1,9.4187-4.0727c14.5042,0,15.47,9,20,9,1.6777,0,3-2.3806,3-3,0-1.9216-9-5.535-9-14,0-1.3225,1.0625-2,2.5-2,1.25,0,3.9185,1.6277,5.5,4,2.4167,3.6251,2.0495,8,5,10,1.1046.7489,3.92.6942,6,2s3.3649,3.4738,4,4a2.9179,2.9179,0,0,1,1,2C60.0156,28.9791,57.841,34.0157,55.0158,34.0157Zm-24,8a19.079,19.079,0,0,1-7.7325-1.7968,7.67,7.67,0,0,0-.2677,1.7968c0,1.6728,1.2953,2.3146,6,4a17.7089,17.7089,0,0,1,3.0486,1.3634,53.16,53.16,0,0,1,.6074-5.4354C32.1306,41.9818,31.5857,42.0157,31.0158,42.0157Z"/>
</svg>
