<svg id="Layer_1" data-name="Layer 1" xmlns="http://www.w3.org/2000/svg" width="64" height="64" viewBox="0 0 64 64"><defs><style>.cls-1{fill-rule:evenodd}</style></defs><title>Icons 300</title><path class="cls-1" d="M55.016 34.016c-5.81 0-6.88 2.298-9.633 3.628-5.004 2.415-8.367 5.527-8.367 11.372 0 3.097-.028 5-1 5-1.775 0-2.683-1.843-3.507-3.254a5.133 5.133 0 0 1-1.743.254c-2.278 0-14.75-4.498-14.75-7 0-1.47 1-2.26 1-4v-.027a4.74 4.74 0 0 0-1.974-3.707 9.644 9.644 0 0 1-3.478-4.62 3.632 3.632 0 0 1-1.548.354c-1.92 0-4-2.339-4-6 0-3.652.718-5 1.5-5 1.013 0 1.25.5 1.25.5s.693-2.51 2.105-2.51a1.96 1.96 0 0 1 1.726 1.082 12.055 12.055 0 0 1 9.419-4.072c14.504 0 15.47 9 20 9 1.677 0 3-2.381 3-3 0-1.922-9-5.535-9-14 0-1.323 1.062-2 2.5-2 1.25 0 3.918 1.627 5.5 4 2.416 3.625 2.05 8 5 10 1.104.748 3.92.694 6 2s3.365 3.473 4 4a2.918 2.918 0 0 1 1 2c0 .963-2.175 6-5 6zm-24 8a19.079 19.079 0 0 1-7.733-1.797 7.67 7.67 0 0 0-.267 1.797c0 1.673 1.295 2.314 6 4a17.709 17.709 0 0 1 3.048 1.363 53.16 53.16 0 0 1 .608-5.435 23.29 23.29 0 0 1-1.656.072z"/></svg>