<svg id="Layer_1" data-name="Layer 1" xmlns="http://www.w3.org/2000/svg" width="64" height="64" viewBox="0 0 64 64"><defs><style>.cls-1{fill-rule:evenodd}</style></defs><title>Icons 300</title><path class="cls-1" d="M38.272 54.645a15.56 15.56 0 0 0 4.724-7 .516.516 0 0 0-.49-.667 27.937 27.937 0 0 0-6.801.973.517.517 0 0 1-.663-.68 19.952 19.952 0 0 0 .974-7.276c0-5.3-3.22-9.404-4.352-10.813a.494.494 0 0 0-.859.15c-1.51 4.819-7.79 11.732-7.79 18.658 0 4.164 2.766 5.972 2.97 6.937.167.796-.238 1.236-.998.996-5.065-1.594-12.971-8.877-12.971-17.926 0-16.44 16-19.721 16-27.983a7.511 7.511 0 0 0-.952-3.002.762.762 0 0 1 .93-.97c5.142 1.386 17.021 8.567 17.021 22.96a24.616 24.616 0 0 1-2 8.995s3.363-.584 7.92-1.004a1.052 1.052 0 0 1 1.078 1.172c0 6.94-5.423 14.942-13.138 17.824-.7.261-1.167-.837-.603-1.344z"/></svg>