<svg id="Layer_1" data-name="Layer 1" xmlns="http://www.w3.org/2000/svg" width="64" height="64" viewBox="0 0 64 64">
  <defs>
    <style>
      .cls-1 {
        fill-rule: evenodd;
      }
    </style>
  </defs>
  <title>Icons 300</title>
  <path class="cls-1" d="M38.2718,54.6452a15.5607,15.5607,0,0,0,4.7238-7,.5156.5156,0,0,0-.4887-.6673,27.9366,27.9366,0,0,0-6.8023.9735.5169.5169,0,0,1-.663-.68,19.9521,19.9521,0,0,0,.9741-7.2761c0-5.3009-3.219-9.4045-4.3516-10.813a.4945.4945,0,0,0-.8591.1494c-1.5094,4.8193-7.7893,11.7318-7.7893,18.6586,0,4.1636,2.7651,5.9712,2.9687,6.9369.1679.7953-.237,1.2354-.9976.9958-5.0643-1.5939-12.9712-8.8771-12.9712-17.9264,0-16.44,16-19.7207,16-27.9826a7.5115,7.5115,0,0,0-.9518-3.0018.7617.7617,0,0,1,.93-.9694c5.1426,1.3851,17.0217,8.5662,17.0217,22.9594a24.6164,24.6164,0,0,1-2,8.9944s3.3624-.584,7.92-1.0034a1.0517,1.0517,0,0,1,1.0772,1.1721c0,6.94-5.4226,14.9413-13.1373,17.8239C38.1757,56.25,37.7082,55.1524,38.2718,54.6452Z"/>
</svg>
