<svg id="Layer_1" data-name="Layer 1" xmlns="http://www.w3.org/2000/svg" width="64" height="64" viewBox="0 0 64 64"><defs><style>.cls-1{fill-rule:evenodd}</style></defs><title>Icons 400</title><path class="cls-1" d="M50 54.016H14a4 4 0 0 1-4-4v-24a4 4 0 0 1 4-4h36a4 4 0 0 1 4 4v24a4 4 0 0 1-4 4zm-6-18a1 1 0 0 0-1-1h-8v-8a1 1 0 0 0-1-1h-4a1 1 0 0 0-1 1v8h-8a1 1 0 0 0-1 1v4a1 1 0 0 0 1 1h8v8a1 1 0 0 0 1 1h4a1 1 0 0 0 1-1v-8h8a1 1 0 0 0 1-1zm-.764-16h-2.354a1.25 1.25 0 0 1-1.16-.786l-1.96-4.9a.5.5 0 0 0-.465-.314H26.703a.5.5 0 0 0-.464.314l-1.96 4.9a1.25 1.25 0 0 1-1.161.786h-2.354a.75.75 0 0 1-.697-1.029l2.584-6.457a4 4 0 0 1 3.713-2.514h11.272a4 4 0 0 1 3.714 2.514l2.583 6.457a.75.75 0 0 1-.697 1.029z"/></svg>