<svg id="Layer_1" data-name="Layer 1" xmlns="http://www.w3.org/2000/svg" width="64" height="64" viewBox="0 0 64 64">
  <defs>
    <style>
      .cls-1 {
        fill-rule: evenodd;
      }
    </style>
  </defs>
  <title>Icons 400</title>
  <path class="cls-1" d="M48,54.0157H16a6,6,0,0,1-6-6v-32a6,6,0,0,1,6-6H48a6,6,0,0,1,6,6v32A6,6,0,0,1,48,54.0157Zm0-25a1,1,0,0,0-1-1H36v-11a1,1,0,0,0-1-1H29a1,1,0,0,0-1,1v11H17a1,1,0,0,0-1,1v6a1,1,0,0,0,1,1H28v11a1,1,0,0,0,1,1h6a1,1,0,0,0,1-1v-11H47a1,1,0,0,0,1-1Z"/>
</svg>
