<svg id="Layer_1" data-name="Layer 1" xmlns="http://www.w3.org/2000/svg" width="64" height="64" viewBox="0 0 64 64">
  <defs>
    <style>
      .cls-1 {
        fill-rule: evenodd;
      }
    </style>
  </defs>
  <title>Icons 400</title>
  <path class="cls-1" d="M50,54.0157H14a4,4,0,0,1-4-4v-24a4,4,0,0,1,4-4H50a4,4,0,0,1,4,4v24A4,4,0,0,1,50,54.0157Zm-6-18a1,1,0,0,0-1-1H35v-8a1,1,0,0,0-1-1H30a1,1,0,0,0-1,1v8H21a1,1,0,0,0-1,1v4a1,1,0,0,0,1,1h8v8a1,1,0,0,0,1,1h4a1,1,0,0,0,1-1v-8h8a1,1,0,0,0,1-1Zm-.7642-16h-2.354a1.25,1.25,0,0,1-1.1607-.7858l-1.96-4.9a.5.5,0,0,0-.4642-.3143H26.7027a.5.5,0,0,0-.4642.3143l-1.96,4.9a1.25,1.25,0,0,1-1.1607.7858h-2.354a.75.75,0,0,1-.6965-1.0285L22.6505,12.53a4,4,0,0,1,3.7139-2.5144H37.6356A4,4,0,0,1,41.35,12.53l2.5829,6.4571A.75.75,0,0,1,43.2359,20.0157Z"/>
</svg>
