<svg id="Layer_1" data-name="Layer 1" xmlns="http://www.w3.org/2000/svg" width="64" height="64" viewBox="0 0 64 64">
  <defs>
    <style>
      .cls-1 {
        fill-rule: evenodd;
      }
    </style>
  </defs>
  <title>Icons 300</title>
  <path class="cls-1" d="M62.0159,32.0156c0-6.3095-12.141-15.1809-26.113-17.9447-1.5981-.316-2.3137.6614-1.6335,2.1546a13.2622,13.2622,0,0,1,.75,1.79c-9.1653,0-16.7159,5.7923-19.6971,8.4688a2.0677,2.0677,0,0,1-2.6956.0059,16.3839,16.3839,0,0,0-9.4794-4.4841.9928.9928,0,0,0-1.1458,1.12c.5575,4.5441,4.0223,8.8889,4.0223,8.8889S2.5594,36.36,2.0019,40.9046a.9928.9928,0,0,0,1.1458,1.12,16.3582,16.3582,0,0,0,9.4794-4.5131,2.0624,2.0624,0,0,1,2.6956.006c2.9812,2.6855,10.5073,8.4977,23.693,8.4977S62.0159,36.2508,62.0159,32.0156Zm-14.9979-6a3,3,0,1,0,3,3A3,3,0,0,0,47.018,26.0156Z"/>
</svg>
