<svg id="Layer_1" data-name="Layer 1" xmlns="http://www.w3.org/2000/svg" width="64" height="64" viewBox="0 0 64 64"><defs><style>.cls-1{fill-rule:evenodd}</style></defs><title>Icons 300</title><path class="cls-1" d="M62.016 32.016c0-6.31-12.141-15.181-26.113-17.945-1.598-.316-2.314.661-1.634 2.154a13.262 13.262 0 0 1 .75 1.79c-9.165 0-16.715 5.793-19.697 8.47a2.068 2.068 0 0 1-2.695.005 16.384 16.384 0 0 0-9.48-4.484.993.993 0 0 0-1.145 1.12c.557 4.544 4.022 8.889 4.022 8.889s-3.465 4.345-4.022 8.89a.993.993 0 0 0 1.146 1.12 16.358 16.358 0 0 0 9.48-4.513 2.062 2.062 0 0 1 2.695.005c2.98 2.686 10.507 8.498 23.693 8.498s23-9.764 23-14zm-14.998-6a3 3 0 1 0 3 3 3 3 0 0 0-3-3z"/></svg>