<svg id="Layer_1" data-name="Layer 1" xmlns="http://www.w3.org/2000/svg" width="64" height="64" viewBox="0 0 64 64"><defs><style>.cls-1{fill-rule:evenodd}</style></defs><title>Icons 200</title><path class="cls-1" d="M52 38.563c-10.667 1.726-21.333-2.518-32-.793a1.621 1.621 0 0 1-2-1.627 2.538 2.538 0 0 1 2-2.42V13.485a1.621 1.621 0 0 1-2-1.628 2.538 2.538 0 0 1 2-2.42c10.667-1.726 21.333 2.519 32 .793a1.621 1.621 0 0 1 2 1.627v24.286a2.538 2.538 0 0 1-2 2.42zM12 54V10a2 2 0 0 1 4 0v44a2 2 0 0 1-4 0z"/></svg>