<svg id="Layer_1" data-name="Layer 1" xmlns="http://www.w3.org/2000/svg" width="64" height="64" viewBox="0 0 64 64"><defs><style>.cls-1{fill-rule:evenodd}</style></defs><title>Icons 200</title><path class="cls-1" d="M18 11.857a2.538 2.538 0 0 1 2-2.42c10.17-1.645 20.34 2.136 30.509.996a1.356 1.356 0 0 1 1.302 2.098 330.644 330.644 0 0 1-6.575 12.021.511.511 0 0 0 0 .503c2.191 3.936 4.383 7.726 6.575 11.267a1.707 1.707 0 0 1-1.302 2.445C40.339 39.907 30.17 36.125 20 37.77a1.621 1.621 0 0 1-2-1.627 2.538 2.538 0 0 1 2-2.42V13.485a1.621 1.621 0 0 1-2-1.628zM16 10v44a2 2 0 0 1-4 0V10a2 2 0 0 1 4 0z"/></svg>