<svg id="Layer_1" data-name="Layer 1" xmlns="http://www.w3.org/2000/svg" width="64" height="64" viewBox="0 0 64 64"><defs><style>.cls-1{fill-rule:evenodd}</style></defs><title>Icons 200</title><path class="cls-1" d="M12 54V10a2 2 0 0 1 4 0v44a2 2 0 0 1-4 0zm42-30a2.6 2.6 0 0 1-1.298 2.17c-10.667 6.04-21.333 5.85-32 11.367a2.356 2.356 0 0 1-.702.233 1.878 1.878 0 0 1-1.14-.153 1.583 1.583 0 0 1-.86-1.474 3.005 3.005 0 0 1 1.51-2.52q.245-.136.49-.268V13.853q-.245-.053-.49-.102A1.841 1.841 0 0 1 18 11.858a2.577 2.577 0 0 1 .86-1.853A2.254 2.254 0 0 1 20 9.437a1.776 1.776 0 0 1 .702.024c10.667 2.578 21.333 10.864 32 12.918A1.573 1.573 0 0 1 54 24z"/></svg>