<svg id="Layer_1" data-name="Layer 1" xmlns="http://www.w3.org/2000/svg" width="64" height="64" viewBox="0 0 64 64">
  <defs>
    <style>
      .cls-1 {
        fill-rule: evenodd;
      }
    </style>
  </defs>
  <title>Icons 200</title>
  <path class="cls-1" d="M18,11.8571a2.5375,2.5375,0,0,1,2-2.42c10.17-1.6452,20.3392,2.136,30.509.9963a1.3556,1.3556,0,0,1,1.3023,2.0974c-2.192,4.2218-4.384,8.1945-6.5758,12.0216a0.5111,0.5111,0,0,0,0,.5022c2.1918,3.936,4.3838,7.7263,6.5758,11.2676a1.7071,1.7071,0,0,1-1.3023,2.4446C40.3393,39.9062,30.17,36.125,20,37.77a1.6211,1.6211,0,0,1-2-1.6274,2.5376,2.5376,0,0,1,2-2.42V13.4845A1.6211,1.6211,0,0,1,18,11.8571ZM16,10V54a2,2,0,0,1-4,0V10A2,2,0,0,1,16,10Z"/>
</svg>
