<svg id="Layer_1" data-name="Layer 1" xmlns="http://www.w3.org/2000/svg" width="64" height="64" viewBox="0 0 64 64">
  <defs>
    <style>
      .cls-1 {
        fill-rule: evenodd;
      }
    </style>
  </defs>
  <title>Icons 200</title>
  <path class="cls-1" d="M52,38.5631c-10.6667,1.7257-21.3334-2.5185-32-.7929a1.6211,1.6211,0,0,1-2-1.6274,2.5376,2.5376,0,0,1,2-2.42V13.4845a1.6211,1.6211,0,0,1-2-1.6274,2.5375,2.5375,0,0,1,2-2.42c10.6667-1.7257,21.3334,2.5185,32,.7929a1.6211,1.6211,0,0,1,2,1.6273V36.1428A2.5377,2.5377,0,0,1,52,38.5631ZM12,54V10a2,2,0,0,1,4,0V54A2,2,0,0,1,12,54Z"/>
</svg>
