<svg id="Layer_1" data-name="Layer 1" xmlns="http://www.w3.org/2000/svg" width="64" height="64" viewBox="0 0 64 64">
  <defs>
    <style>
      .cls-1 {
        fill-rule: evenodd;
      }
    </style>
  </defs>
  <title>Icons 200</title>
  <path class="cls-1" d="M12,54V10a2,2,0,0,1,4,0V54A2,2,0,0,1,12,54ZM54,24a2.5993,2.5993,0,0,1-1.2978,2.1694c-10.6668,6.041-21.3335,5.85-32,11.3672A2.356,2.356,0,0,1,20,37.77a1.8779,1.8779,0,0,1-1.1393-.1531A1.5825,1.5825,0,0,1,18,36.1428a3.0049,3.0049,0,0,1,1.5109-2.5193q0.2445-.1365.4891-0.2689V13.853q-0.2447-.0534-0.4891-0.1023A1.8415,1.8415,0,0,1,18,11.8575v0a2.5769,2.5769,0,0,1,.8607-1.8524A2.254,2.254,0,0,1,20,9.4369a1.7758,1.7758,0,0,1,.7021.0238c10.6665,2.5782,21.3332,10.8643,32,12.9185A1.5727,1.5727,0,0,1,54,24Z"/>
</svg>
