<svg id="Layer_1" data-name="Layer 1" xmlns="http://www.w3.org/2000/svg" width="64" height="64" viewBox="0 0 64 64">
  <defs>
    <style>
      .cls-1 {
        fill-rule: evenodd;
      }
    </style>
  </defs>
  <title>Icons 200</title>
  <path class="cls-1" d="M52.69,36.0947A2.0035,2.0035,0,0,1,53.9877,37.97V54.0015a2.0014,2.0014,0,1,1-4.0027,0V53H41.512l-2.0286,2.3215a2.0029,2.0029,0,0,1-3.0129-2.64L50.48,36.651A1.998,1.998,0,0,1,52.69,36.0947Zm-2.705,7.2089L45.0074,49H49.985V43.3036ZM47.7957,28.1763a1.9989,1.9989,0,0,1-.3211,2.1449l-21.9836,25a1.9988,1.9988,0,0,1-3.3755-2.0127L28.1194,37H17.995a2,2,0,0,1-1.5-3.3213l21.9845-25a1.9988,1.9988,0,0,1,3.3756,2.0127L35.85,27H45.9746A1.9971,1.9971,0,0,1,47.7957,28.1763Z"/>
</svg>
