<svg id="Layer_1" data-name="Layer 1" xmlns="http://www.w3.org/2000/svg" width="64" height="64" viewBox="0 0 64 64">
  <defs>
    <style>
      .cls-1 {
        fill-rule: evenodd;
      }
    </style>
  </defs>
  <title>Icons 200</title>
  <path class="cls-1" d="M16.19,35.8242a2.002,2.002,0,0,1,.32-2.1455l4.6906-5.3335a0.9988,0.9988,0,0,1,1.4565-.0467L36.154,41.7966a1,1,0,0,1,.0439,1.368L25.5073,55.3213a1.9987,1.9987,0,0,1-2.97.035,2.08,2.08,0,0,1-.3728-2.1367L28.1359,37H18.0109A1.9987,1.9987,0,0,1,16.19,35.8242ZM53.4192,53.405a2,2,0,0,1-2.8291,0L10.5816,13.3929A2,2,0,0,1,13.41,10.5637L53.4192,50.5758A2.0008,2.0008,0,0,1,53.4192,53.405Zm-5.606-25.2287a1.9987,1.9987,0,0,1-.3212,2.1449l-4.6768,5.3182a0.9988,0.9988,0,0,1-1.4566.0468L27.8625,22.188a1,1,0,0,1-.0439-1.3679L38.4961,8.6787a2,2,0,0,1,2.972-.0343,2.0724,2.0724,0,0,1,.3733,2.13L35.8672,27H45.9921A1.9973,1.9973,0,0,1,47.8132,28.1763Z"/>
</svg>
