<svg id="Layer_1" data-name="Layer 1" xmlns="http://www.w3.org/2000/svg" width="64" height="64" viewBox="0 0 64 64"><defs><style>.cls-1{fill-rule:evenodd}</style></defs><title>Icons 200</title><path class="cls-1" d="M52.69 36.095a2.003 2.003 0 0 1 1.298 1.875v16.032a2.001 2.001 0 1 1-4.003 0V53h-8.473l-2.029 2.321a2.003 2.003 0 0 1-3.012-2.64l14.009-16.03a1.998 1.998 0 0 1 2.21-.556zm-2.705 7.209L45.007 49h4.978v-5.696zm-2.19-15.128a1.999 1.999 0 0 1-.32 2.145l-21.984 25a1.999 1.999 0 0 1-3.376-2.012L28.12 37H17.995a2 2 0 0 1-1.5-3.321l21.985-25a1.999 1.999 0 0 1 3.375 2.012L35.85 27h10.125a1.997 1.997 0 0 1 1.82 1.176z"/></svg>