<svg id="Layer_1" data-name="Layer 1" xmlns="http://www.w3.org/2000/svg" width="64" height="64" viewBox="0 0 64 64"><defs><style>.cls-1{fill-rule:evenodd}</style></defs><title>Icons 200</title><path class="cls-1" d="M16.19 35.824a2.002 2.002 0 0 1 .32-2.145l4.69-5.334a.999.999 0 0 1 1.457-.047l13.497 13.499a1 1 0 0 1 .044 1.368L25.508 55.32a1.999 1.999 0 0 1-2.97.035 2.08 2.08 0 0 1-.373-2.136L28.134 37H18.012a1.999 1.999 0 0 1-1.821-1.176zm37.23 17.581a2 2 0 0 1-2.83 0L10.582 13.393a2 2 0 0 1 2.828-2.83l40.01 40.013a2 2 0 0 1 0 2.829zm-5.607-25.229a1.999 1.999 0 0 1-.321 2.145l-4.677 5.318a.999.999 0 0 1-1.456.047L27.862 22.188a1 1 0 0 1-.043-1.368L38.496 8.68a2 2 0 0 1 2.972-.035 2.072 2.072 0 0 1 .373 2.13L35.867 27h10.125a1.997 1.997 0 0 1 1.821 1.176z"/></svg>