<svg id="Layer_1" data-name="Layer 1" xmlns="http://www.w3.org/2000/svg" width="64" height="64" viewBox="0 0 64 64">
  <defs>
    <style>
      .cls-1 {
        fill-rule: evenodd;
      }
    </style>
  </defs>
  <title>Icons 400</title>
  <path class="cls-1" d="M54,29.0156a7,7,0,0,1-7,7H19a9,9,0,0,1-.952-17.9487,10.9873,10.9873,0,0,1,20.4177-4.6348,7.961,7.961,0,0,1,10.421,8.8734A6.98,6.98,0,0,1,54,29.0156Zm-34,19H44a2,2,0,1,1,0,4H20a2,2,0,1,1,0-4Zm-2-6a2,2,0,0,1,2-2H44a2,2,0,1,1,0,4H20A2,2,0,0,1,18,42.0156Z"/>
</svg>
