<svg id="Layer_1" data-name="Layer 1" xmlns="http://www.w3.org/2000/svg" width="64" height="64" viewBox="0 0 64 64"><defs><style>.cls-1{fill-rule:evenodd}</style></defs><title>Icons 200</title><path class="cls-1" d="M55.99 28.153L54.368 49.23A3.002 3.002 0 0 1 51.372 52H12.628a3.002 3.002 0 0 1-2.995-2.77L8.009 28.153A2.001 2.001 0 0 1 10.006 26h43.988a2.001 2.001 0 0 1 1.997 2.153zM54 20v3a1 1 0 0 1-1 1H11a1 1 0 0 1-1-1v-9a2 2 0 0 1 2-2h11.343a4 4 0 0 1 2.829 1.172l3.656 3.656A4 4 0 0 0 32.657 18H52a2 2 0 0 1 2 2z"/></svg>