<svg id="Layer_1" data-name="Layer 1" xmlns="http://www.w3.org/2000/svg" width="64" height="64" viewBox="0 0 64 64">
  <defs>
    <style>
      .cls-1 {
        fill-rule: evenodd;
      }
    </style>
  </defs>
  <title>Icons 200</title>
  <path class="cls-1" d="M55.9908,28.1533L54.3673,49.23A3.0023,3.0023,0,0,1,51.3722,52H12.6279a3.0024,3.0024,0,0,1-2.9951-2.77L8.0094,28.1533A2.0012,2.0012,0,0,1,10.0062,26H53.9939A2.0013,2.0013,0,0,1,55.9908,28.1533ZM54,20v3a1,1,0,0,1-1,1H11a1,1,0,0,1-1-1V14a2,2,0,0,1,2-2h11.343a4,4,0,0,1,2.8286,1.1717l3.6567,3.6568A4,4,0,0,0,32.657,18H52A2,2,0,0,1,54,20Z"/>
</svg>
