<svg id="Layer_1" data-name="Layer 1" xmlns="http://www.w3.org/2000/svg" width="64" height="64" viewBox="0 0 64 64">
  <defs>
    <style>
      .cls-1 {
        fill-rule: evenodd;
      }
    </style>
  </defs>
  <title>Icons 300</title>
  <path class="cls-1" d="M56.0157,34.0156h-6v6a2,2,0,1,1-4,0v-6h-6a2,2,0,1,1,0-4h6v-6a2,2,0,1,1,4,0v6h6a2,2,0,1,1,0,4ZM34.1612,43.5769c4.5292,1.6808,6.5885,2.8388,6.8522,7.3688a1.0109,1.0109,0,0,1-1.0031,1.07H7.0206a1.0111,1.0111,0,0,1-1.0033-1.07c.2637-4.53,2.3232-5.688,6.8523-7.3688,4.3494-1.6141,5.8386-3.21,6.0935-7.1636A9.48,9.48,0,0,1,16.97,34.6981a9.5491,9.5491,0,0,1-1.9049-4.7138,1.1762,1.1762,0,0,1-.1441.0191c-1.0845,0-1.9052-2.2814-1.9052-3.8861s.5572-2.0923,1.0888-2.0923c.1139,0,.2087.0134.31.0221a13.5653,13.5653,0,0,1-.3991-3.094c0-5.6888,2.3034-8.9375,9.5-8.9375,3.4282,0,3.6592.8475,4.3182,2.0313a2.0636,2.0636,0,0,1,1.2955-.4062c1.83,0,3.8864,2.21,3.8864,7.3124a13.5709,13.5709,0,0,1-.3991,3.094c.1015-.0087.1963-.0221.31-.0221.5315,0,1.0889.4879,1.0889,2.0923s-.821,3.8861-1.9055,3.8861a1.1834,1.1834,0,0,1-.1439-.0191,9.5472,9.5472,0,0,1-1.9049,4.7138,9.4831,9.4831,0,0,1-1.9937,1.7155C28.3227,40.367,29.8119,41.9628,34.1612,43.5769Z"/>
</svg>
