<svg id="Layer_1" data-name="Layer 1" xmlns="http://www.w3.org/2000/svg" width="64" height="64" viewBox="0 0 64 64">
  <defs>
    <style>
      .cls-1 {
        fill-rule: evenodd;
      }
    </style>
  </defs>
  <title>Icons 300</title>
  <path class="cls-1" d="M57.6506,25.1643,47.1594,40.1749a1.9968,1.9968,0,0,1-3.2088.089l-5.4955-7.0052a2,2,0,1,1,3.143-2.473L45.4293,35.67l8.9466-12.8009a2,2,0,1,1,3.2747,2.2956ZM34.1611,43.5769c4.5293,1.6808,6.5887,2.8388,6.8523,7.3688a1.0109,1.0109,0,0,1-1.0031,1.07H7.0205a1.0111,1.0111,0,0,1-1.0032-1.07c.2638-4.53,2.3231-5.688,6.8523-7.3688,4.3493-1.6141,5.8387-3.21,6.0934-7.1636A9.48,9.48,0,0,1,16.97,34.6981a9.5482,9.5482,0,0,1-1.9048-4.7138,1.1834,1.1834,0,0,1-.1439.0191c-1.0845,0-1.9055-2.2814-1.9055-3.8861s.5572-2.0923,1.0888-2.0923c.114,0,.2087.0134.31.0221a13.5653,13.5653,0,0,1-.3991-3.094c0-5.6888,2.3034-8.9375,9.5-8.9375,3.4281,0,3.659.8475,4.3181,2.0313a2.0638,2.0638,0,0,1,1.2954-.4062c1.83,0,3.8864,2.21,3.8864,7.3124a13.5772,13.5772,0,0,1-.3989,3.094c.1014-.0087.1961-.0221.31-.0221.5316,0,1.0888.4879,1.0888,2.0923s-.821,3.8861-1.9055,3.8861a1.179,1.179,0,0,1-.1438-.0191,9.5491,9.5491,0,0,1-1.9049,4.7138,9.48,9.48,0,0,1-1.9937,1.7155C28.3226,40.367,29.812,41.9628,34.1611,43.5769Z"/>
</svg>
