<svg id="Layer_1" data-name="Layer 1" xmlns="http://www.w3.org/2000/svg" width="64" height="64" viewBox="0 0 64 64"><defs><style>.cls-1{fill-rule:evenodd}</style></defs><title>Icons 300</title><path class="cls-1" d="M56.016 34.016h-6v6a2 2 0 1 1-4 0v-6h-6a2 2 0 1 1 0-4h6v-6a2 2 0 1 1 4 0v6h6a2 2 0 1 1 0 4zm-21.855 9.56c4.53 1.682 6.589 2.84 6.852 7.37a1.01 1.01 0 0 1-1.003 1.07H7.02a1.011 1.011 0 0 1-1.003-1.07c.264-4.53 2.324-5.688 6.853-7.37 4.349-1.613 5.838-3.21 6.093-7.163a9.48 9.48 0 0 1-1.993-1.715 9.55 9.55 0 0 1-1.905-4.714 1.176 1.176 0 0 1-.144.02c-1.085 0-1.905-2.282-1.905-3.887s.557-2.092 1.089-2.092c.113 0 .208.013.31.022a13.565 13.565 0 0 1-.4-3.094c0-5.689 2.304-8.937 9.5-8.937 3.429 0 3.66.847 4.319 2.03a2.064 2.064 0 0 1 1.295-.405c1.83 0 3.887 2.21 3.887 7.312a13.57 13.57 0 0 1-.4 3.094c.102-.009.197-.022.31-.022.532 0 1.09.488 1.09 2.092s-.822 3.886-1.906 3.886a1.183 1.183 0 0 1-.144-.019 9.547 9.547 0 0 1-1.905 4.714 9.483 9.483 0 0 1-1.994 1.716c.256 3.953 1.745 5.549 6.094 7.163z"/></svg>