<svg id="Layer_1" data-name="Layer 1" xmlns="http://www.w3.org/2000/svg" width="64" height="64" viewBox="0 0 64 64"><defs><style>.cls-1{fill-rule:evenodd}</style></defs><title>Icons 300</title><path class="cls-1" d="M63.011 52.016l-25.016-.004a.995.995 0 0 1-.996-.94 9.39 9.39 0 0 0-1.706-5.506 1.251 1.251 0 0 1 .517-1.96l.079-.03c4.34-1.611 5.834-3.198 6.092-7.14a9.384 9.384 0 0 1-2.011-1.738 9.473 9.473 0 0 1-1.907-4.68 1.411 1.411 0 0 1-.147.01c-1.085 0-1.907-2.29-1.907-3.9s.558-2.1 1.09-2.1c.111 0 .215.005.314.013a13.561 13.561 0 0 1-.397-3.088c0-3.904 1.095-6.606 4.44-7.087 1.85-1.284 4.649-1.85 8.223-1.85 2.286 0 .382 1.564 2.53 2.02 1.33.283 3.807 1.226 3.807 6.917a13.567 13.567 0 0 1-.398 3.088c.1-.008.203-.014.314-.014.533 0 1.09.49 1.09 2.1s-.822 3.9-1.907 3.9a1.411 1.411 0 0 1-.147-.009 9.476 9.476 0 0 1-1.907 4.68 9.358 9.358 0 0 1-1.988 1.723c.255 3.953 1.747 5.542 6.093 7.156 4.526 1.68 6.584 2.838 6.847 7.369a1.01 1.01 0 0 1-1.002 1.07zM9.734 16.077c1.144-2.992 4.943-4.063 8.646-4.063 2.37 0 3.116.434 3.459 1.626a3.18 3.18 0 0 1 3.458 2.437c.892.313 1.73 1.404 1.73 4.876a13.541 13.541 0 0 1-.398 3.088 3.78 3.78 0 0 1 .304-.013c.532 0 1.09.49 1.09 2.1s-.822 3.9-1.908 3.9c-.049 0-.093-.005-.137-.009a9.47 9.47 0 0 1-1.91 4.68 9.367 9.367 0 0 1-1.998 1.729c.257 3.948 1.75 5.536 6.098 7.149 4.53 1.68 6.59 2.838 6.854 7.369a1.011 1.011 0 0 1-1.004 1.07H1.021a1.011 1.011 0 0 1-1.003-1.07c.264-4.53 2.324-5.688 6.854-7.37 4.345-1.611 5.84-3.2 6.097-7.143a9.38 9.38 0 0 1-2.006-1.734 9.472 9.472 0 0 1-1.91-4.68c-.044.004-.088.009-.137.009-1.085 0-1.907-2.29-1.907-3.9s.557-2.1 1.09-2.1c.107 0 .207.005.303.013a13.541 13.541 0 0 1-.397-3.088c0-2.724.557-4.62 1.73-4.876z"/></svg>