<svg id="Layer_1" data-name="Layer 1" xmlns="http://www.w3.org/2000/svg" width="64" height="64" viewBox="0 0 64 64">
  <defs>
    <style>
      .cls-1 {
        fill-rule: evenodd;
      }
    </style>
  </defs>
  <title>Icons 300</title>
  <path class="cls-1" d="M63.0112,52.0157l-25.0159-.0034a.9948.9948,0,0,1-.9967-.94,9.3913,9.3913,0,0,0-1.7054-5.5065,1.2508,1.2508,0,0,1,.5172-1.96l.0786-.0292c4.34-1.6118,5.8339-3.1989,6.0916-7.1406A9.3881,9.3881,0,0,1,39.97,34.6981a9.4771,9.4771,0,0,1-1.907-4.68,1.4094,1.4094,0,0,1-.1465.0094c-1.0857,0-1.9078-2.29-1.9078-3.9s.558-2.1,1.09-2.1c.1114,0,.2147.0055.3141.0139a13.5666,13.5666,0,0,1-.3972-3.0886c0-3.9034,1.0953-6.6059,4.4395-7.0867,1.8507-1.2841,4.6492-1.8507,8.2234-1.8507,2.2867,0,.3818,1.5642,2.53,2.0209,1.33.2827,3.8068,1.2254,3.8068,6.9165a13.5673,13.5673,0,0,1-.397,3.0886c.0991-.0084.2027-.0139.3141-.0139.5322,0,1.09.49,1.09,2.1s-.8218,3.9-1.9075,3.9a1.41,1.41,0,0,1-.1467-.0094,9.4731,9.4731,0,0,1-1.9071,4.68,9.3493,9.3493,0,0,1-1.9881,1.723c.2547,3.9529,1.7467,5.5418,6.0926,7.1557,4.5261,1.6809,6.5841,2.8386,6.8478,7.369A1.01,1.01,0,0,1,63.0112,52.0157ZM10.014,36.0193c-1.2349,0-5.0009-3.0664-5.0009-10.4022,0-8.5946,4.935-13.6027,10.8356-13.6027,2.8239,0,4.1529.1305,5.667,1.5013,4.3221,0,8.5026,3.2055,8.5026,12.1014,0,7.2786-3.7274,10.4022-5.0011,10.4022-.4434,0-.78-.3881-1.2768-.8936a10.0579,10.0579,0,0,1-1.668,1.3382c.2633,3.9213,1.7612,5.5049,6.0952,7.1129,4.53,1.6809,6.59,2.8386,6.8538,7.3689a1.011,1.011,0,0,1-1.0033,1.07H1.021a1.0113,1.0113,0,0,1-1.0033-1.07c.2641-4.53,2.3238-5.688,6.8539-7.3689,4.332-1.6073,5.8306-3.19,6.0947-7.1074a10.0515,10.0515,0,0,1-1.684-1.3525C10.7809,35.6267,10.4463,36.0193,10.014,36.0193Z"/>
</svg>
