<svg id="Layer_1" data-name="Layer 1" xmlns="http://www.w3.org/2000/svg" width="64" height="64" viewBox="0 0 64 64"><defs><style>.cls-1{fill-rule:evenodd}</style></defs><title>Icons 300</title><path class="cls-1" d="M63.011 52.016l-25.016-.004a.995.995 0 0 1-.996-.94 9.39 9.39 0 0 0-1.706-5.506 1.25 1.25 0 0 1 .517-1.96l.079-.03c4.325-1.606 5.823-3.188 6.089-7.1a10.035 10.035 0 0 1-1.696-1.36c-.501.51-.836.903-1.268.903-1.235 0-5.001-3.066-5.001-10.402 0-8.595 4.935-13.603 10.836-13.603 2.824 0 4.153.13 5.667 1.501 4.322 0 8.502 3.206 8.502 12.102 0 7.278-3.727 10.402-5 10.402-.444 0-.78-.388-1.278-.894a10.058 10.058 0 0 1-1.664 1.336c.263 3.923 1.76 5.507 6.09 7.116 4.526 1.68 6.584 2.838 6.848 7.369a1.01 1.01 0 0 1-1.003 1.07zM13.008 35.467a8.948 8.948 0 0 1-2.992.549c-2.327 0-5-3.186-5-10 0-8.968 2.524-12 6-12a7.12 7.12 0 0 1 2.5.5c.956-1.522 3.728-2.5 6.5-2.5 5.792 0 10 4.896 10 13 0 3.38-1 5.368-1 7 0 1.22.168 2.25 1 2.25 1.325 0 2-1.354 2 .25 0 1.79-2.197 2.5-5 2.5a12.849 12.849 0 0 1-4.976-1.208c.142 4.407 1.56 6.074 6.128 7.769 4.53 1.68 6.59 2.838 6.853 7.369a1.011 1.011 0 0 1-1.003 1.07H1.021a1.011 1.011 0 0 1-1.003-1.07c.264-4.53 2.324-5.688 6.854-7.37 4.684-1.737 6.056-3.445 6.136-8.109z"/></svg>