<svg id="Layer_1" data-name="Layer 1" xmlns="http://www.w3.org/2000/svg" width="64" height="64" viewBox="0 0 64 64"><defs><style>.cls-1{fill-rule:evenodd}</style></defs><title>Icons 300</title><path class="cls-1" d="M63.011 52.016l-25.016-.004a.995.995 0 0 1-.996-.94 9.391 9.391 0 0 0-1.706-5.506 1.25 1.25 0 0 1 .517-1.96l.079-.03c4.34-1.611 5.834-3.198 6.092-7.14a9.388 9.388 0 0 1-2.011-1.738 9.477 9.477 0 0 1-1.907-4.68 1.41 1.41 0 0 1-.146.01c-1.086 0-1.908-2.29-1.908-3.9s.558-2.1 1.09-2.1c.111 0 .214.005.314.013a13.567 13.567 0 0 1-.397-3.088c0-3.904 1.095-6.606 4.44-7.087 1.85-1.284 4.648-1.85 8.223-1.85 2.286 0 .381 1.564 2.53 2.02 1.33.283 3.806 1.226 3.806 6.917a13.567 13.567 0 0 1-.397 3.088c.1-.008.203-.014.314-.014.533 0 1.09.49 1.09 2.1s-.821 3.9-1.907 3.9a1.41 1.41 0 0 1-.147-.009 9.473 9.473 0 0 1-1.907 4.68 9.35 9.35 0 0 1-1.988 1.723c.255 3.953 1.747 5.542 6.093 7.156 4.526 1.68 6.584 2.838 6.847 7.369a1.01 1.01 0 0 1-1.002 1.07zM10.014 36.019c-1.235 0-5-3.066-5-10.402 0-8.595 4.934-13.603 10.835-13.603 2.824 0 4.153.13 5.667 1.502 4.322 0 8.502 3.205 8.502 12.101 0 7.279-3.727 10.402-5 10.402-.444 0-.78-.388-1.278-.893a10.058 10.058 0 0 1-1.668 1.338c.264 3.921 1.762 5.505 6.096 7.113 4.53 1.68 6.59 2.838 6.853 7.369a1.011 1.011 0 0 1-1.003 1.07H1.021a1.011 1.011 0 0 1-1.003-1.07c.264-4.53 2.324-5.688 6.854-7.37 4.332-1.606 5.83-3.19 6.094-7.107a10.052 10.052 0 0 1-1.684-1.352c-.501.51-.836.902-1.268.902z"/></svg>