<svg id="Layer_1" data-name="Layer 1" xmlns="http://www.w3.org/2000/svg" width="64" height="64" viewBox="0 0 64 64">
  <defs>
    <style>
      .cls-1 {
        fill-rule: evenodd;
      }
    </style>
  </defs>
  <title>Icons 300</title>
  <path class="cls-1" d="M63.0113,52.0157l-25.0159-.0034a.9951.9951,0,0,1-.9969-.94,9.3906,9.3906,0,0,0-1.7054-5.5065,1.2509,1.2509,0,0,1,.5173-1.96l.0786-.0292c4.3252-1.6063,5.8233-3.1881,6.0888-7.1a10.035,10.035,0,0,1-1.6954-1.36c-.5016.51-.8361.9024-1.2683.9024-1.2349,0-5.0011-3.0664-5.0011-10.4022,0-8.5946,4.9352-13.6027,10.8356-13.6027,2.8239,0,4.1529.1305,5.667,1.5013,4.3223,0,8.5026,3.2056,8.5026,12.1014,0,7.2786-3.7274,10.4022-5.0011,10.4022-.4433,0-.78-.3881-1.2767-.8936a10.0583,10.0583,0,0,1-1.6643,1.3359c.2625,3.923,1.759,5.5068,6.09,7.1152,4.5261,1.6809,6.5841,2.8386,6.8477,7.369A1.01,1.01,0,0,1,63.0113,52.0157ZM13.0082,35.4671a8.9478,8.9478,0,0,1-2.9926.5486c-2.3264,0-5-3.1859-5-10,0-8.9679,2.5244-12,6-12a7.12,7.12,0,0,1,2.5.5c.956-1.5221,3.728-2.5,6.5-2.5,5.7919,0,10,4.8963,10,13,0,3.3806-1,5.3684-1,7,0,1.2208.1684,2.25,1,2.25,1.3258,0,2-1.3537,2,.25,0,1.79-2.1967,2.5-5,2.5a12.8489,12.8489,0,0,1-4.9756-1.208c.1417,4.4069,1.5594,6.0742,6.1275,7.7691,4.53,1.6809,6.59,2.8386,6.8538,7.3689a1.011,1.011,0,0,1-1.0033,1.07H1.0211a1.0112,1.0112,0,0,1-1.0033-1.07c.2638-4.53,2.3238-5.688,6.8538-7.3689C11.5561,41.8388,12.9283,40.1312,13.0082,35.4671Z"/>
</svg>
