<svg id="Layer_1" data-name="Layer 1" xmlns="http://www.w3.org/2000/svg" width="64" height="64" viewBox="0 0 64 64">
  <defs>
    <style>
      .cls-1 {
        fill-rule: evenodd;
      }
    </style>
  </defs>
  <title>Icons 300</title>
  <path class="cls-1" d="M63.0112,52.0157l-25.0159-.0034a.9951.9951,0,0,1-.9968-.94,9.39,9.39,0,0,0-1.7054-5.5065,1.251,1.251,0,0,1,.5172-1.96l.0786-.0292c4.34-1.6118,5.8341-3.1988,6.0919-7.1406A9.3841,9.3841,0,0,1,39.97,34.6981a9.4733,9.4733,0,0,1-1.907-4.68,1.4114,1.4114,0,0,1-.1466.0094c-1.0858,0-1.9077-2.29-1.9077-3.9s.5578-2.1,1.09-2.1c.1114,0,.215.0055.3142.0139a13.561,13.561,0,0,1-.3972-3.0886c0-3.9034,1.0952-6.6059,4.4394-7.0867,1.8507-1.2841,4.6494-1.8507,8.2234-1.8507,2.2869,0,.382,1.5642,2.53,2.0209,1.33.2827,3.807,1.2254,3.807,6.9165a13.5666,13.5666,0,0,1-.3972,3.0886c.0993-.0084.2027-.0139.3141-.0139.5322,0,1.09.49,1.09,2.1s-.8221,3.9-1.9078,3.9a1.4114,1.4114,0,0,1-.1466-.0094,9.4762,9.4762,0,0,1-1.9069,4.68,9.3577,9.3577,0,0,1-1.9884,1.723c.2549,3.9529,1.7468,5.5418,6.0929,7.1557,4.5259,1.6809,6.5841,2.8386,6.8476,7.369A1.01,1.01,0,0,1,63.0112,52.0157ZM9.7344,16.0773c1.1437-2.9918,4.9426-4.063,8.6458-4.063,2.3707,0,3.1153.4335,3.4583,1.6252a3.1794,3.1794,0,0,1,3.4585,2.4378c.8921.3126,1.7293,1.4034,1.7293,4.8754a13.5414,13.5414,0,0,1-.3975,3.0878c.0963-.0077.1965-.0127.3038-.0127.5322,0,1.09.49,1.09,2.1s-.8219,3.9-1.9077,3.9c-.0485,0-.0926-.0046-.1372-.0088a9.4691,9.4691,0,0,1-1.9091,4.68A9.3675,9.3675,0,0,1,22.07,36.4278c.2565,3.948,1.75,5.536,6.0979,7.149,4.53,1.6809,6.59,2.8386,6.8538,7.3689a1.0112,1.0112,0,0,1-1.0033,1.07H1.021a1.0113,1.0113,0,0,1-1.0033-1.07c.264-4.53,2.3238-5.688,6.854-7.3689,4.3454-1.6122,5.84-3.2,6.0973-7.1438a9.3805,9.3805,0,0,1-2.0063-1.734,9.4717,9.4717,0,0,1-1.9093-4.68c-.0444.0042-.0885.0088-.1372.0088-1.0857,0-1.9076-2.29-1.9076-3.9s.5578-2.1,1.09-2.1c.1071,0,.2074.005.3037.0127a13.5414,13.5414,0,0,1-.3975-3.0878C8.005,18.2293,8.5624,16.3321,9.7344,16.0773Z"/>
</svg>
