<svg id="Layer_1" data-name="Layer 1" xmlns="http://www.w3.org/2000/svg" width="64" height="64" viewBox="0 0 64 64"><defs><style>.cls-1{fill-rule:evenodd}</style></defs><title>Icons 300</title><path class="cls-1" d="M39.016 54.016c-2.914 0-4.751-1-7-1s-4.086 1-7 1c-4.948 0-15-8.52-15-24 0-9.09 5.776-15 13-15 3.95 0 5.742 2 9 2s5.05-2 9-2c7.224 0 13 5.91 13 15 0 15.48-10.052 24-15 24zm-5-40a1.677 1.677 0 0 1-1.5 1c-1.137 0-1.5-.583-1.5-2 0-3.022 2.453-7 5-7 1.448 0 3 .882 3 2 0 1.997-3.102 2.02-5 6z"/></svg>