<svg id="Layer_1" data-name="Layer 1" xmlns="http://www.w3.org/2000/svg" width="64" height="64" viewBox="0 0 64 64">
  <defs>
    <style>
      .cls-1 {
        fill-rule: evenodd;
      }
    </style>
  </defs>
  <title>Icons 300</title>
  <path class="cls-1" d="M39.0158,54.0156c-2.9139,0-4.7509-1-7-1s-4.0861,1-7,1c-4.9483,0-15-8.52-15-24,0-9.09,5.7762-15,13-15,3.9506,0,5.7425,2,9,2s5.0495-2,9-2c7.2237,0,13,5.91,13,15C54.0158,45.4957,43.9642,54.0156,39.0158,54.0156Zm-5-40a1.6775,1.6775,0,0,1-1.5,1c-1.1371,0-1.5-.5821-1.5-2,0-3.0217,2.4535-7,5-7,1.4478,0,3,.8827,3,2C39.0158,10.0127,35.9141,10.0366,34.0157,14.0157Z"/>
</svg>
