<svg id="Layer_1" data-name="Layer 1" xmlns="http://www.w3.org/2000/svg" width="64" height="64" viewBox="0 0 64 64">
  <defs>
    <style>
      .cls-1 {
        fill-rule: evenodd;
      }
    </style>
  </defs>
  <title>Icons 200</title>
  <path class="cls-1" d="M57,48H53v4a2,2,0,0,1-4,0V46a2,2,0,0,1,2-2h6A2,2,0,1,1,57,48Zm0-28H51a2,2,0,0,1-2-2V12a2,2,0,0,1,4,0v4h4A2,2,0,1,1,57,20ZM11,12a2,2,0,0,1,4,0v6a2,2,0,0,1-2,2H7a2,2,0,1,1,0-4h4V12ZM7,44h6a2,2,0,0,1,2,2v6a2,2,0,0,1-4,0V48H7A2,2,0,1,1,7,44Zm11.5-2A1.5,1.5,0,0,1,17,40.5v-17A1.5,1.5,0,0,1,18.5,22h27A1.5,1.5,0,0,1,47,23.5v17A1.5,1.5,0,0,1,45.5,42h-27Z"/>
</svg>
