<svg id="Layer_1" data-name="Layer 1" xmlns="http://www.w3.org/2000/svg" width="64" height="64" viewBox="0 0 64 64"><defs><style>.cls-1{fill-rule:evenodd}</style></defs><title>Icons 200</title><path class="cls-1" d="M57 48h-4v4a2 2 0 0 1-4 0v-6a2 2 0 0 1 2-2h6a2 2 0 1 1 0 4zm0-28h-6a2 2 0 0 1-2-2v-6a2 2 0 0 1 4 0v4h4a2 2 0 1 1 0 4zm-46-8a2 2 0 0 1 4 0v6a2 2 0 0 1-2 2H7a2 2 0 1 1 0-4h4v-4zM7 44h6a2 2 0 0 1 2 2v6a2 2 0 0 1-4 0v-4H7a2 2 0 1 1 0-4zm11.5-2a1.5 1.5 0 0 1-1.5-1.5v-17a1.5 1.5 0 0 1 1.5-1.5h27a1.5 1.5 0 0 1 1.5 1.5v17a1.5 1.5 0 0 1-1.5 1.5h-27z"/></svg>