<svg id="Layer_1" data-name="Layer 1" xmlns="http://www.w3.org/2000/svg" width="64" height="64" viewBox="0 0 64 64"><defs><style>.cls-1{fill-rule:evenodd}</style></defs><title>Icons 200</title><path class="cls-1" d="M58 52h-6a2 2 0 0 1 0-4h4v-4a2 2 0 0 1 4 0v6a2 2 0 0 1-2 2zm0-30a2 2 0 0 1-2-2v-4h-4a2 2 0 0 1 0-4h6a2 2 0 0 1 2 2v6a2 2 0 0 1-2 2zm-44-8a2 2 0 0 1-2 2H8v4a2 2 0 0 1-4 0v-6a2 2 0 0 1 2-2h6a2 2 0 0 1 2 2zm-3 29.5v-23a1.5 1.5 0 0 1 1.5-1.5h39a1.5 1.5 0 0 1 1.5 1.5v23a1.5 1.5 0 0 1-1.5 1.5h-39a1.5 1.5 0 0 1-1.5-1.5zM6 42a2 2 0 0 1 2 2v4h4a2 2 0 1 1 0 4H6a2 2 0 0 1-2-2v-6a2 2 0 0 1 2-2z"/></svg>