<svg id="Layer_1" data-name="Layer 1" xmlns="http://www.w3.org/2000/svg" width="64" height="64" viewBox="0 0 64 64">
  <defs>
    <style>
      .cls-1 {
        fill-rule: evenodd;
      }
    </style>
  </defs>
  <title>Icons 100</title>
  <path class="cls-1" d="M57.2741,34.2075l-3.9884,1.14a1.0012,1.0012,0,0,0-.7021.7734,20.7208,20.7208,0,0,1-.7012,2.5984,1,1,0,0,0,.2216,1.0221l2.8876,2.9844a1.001,1.001,0,0,1,.1476,1.1965l-1.245,2.1564a1.0007,1.0007,0,0,1-1.11.4705l-4.05-1.014a1.0007,1.0007,0,0,0-.9945.3171,21.1932,21.1932,0,0,1-1.8863,1.8917,1.0005,1.0005,0,0,0-.3173.994l1.0131,4.0467a1.0011,1.0011,0,0,1-.47,1.11l-2.1564,1.2449a1.0007,1.0007,0,0,1-1.1966-.1475L39.726,52.09a0.9994,0.9994,0,0,0-1.0219-.2222,20.7768,20.7768,0,0,1-2.5809.7022,1.0019,1.0019,0,0,0-.7723.7018L34.2075,57.274a1.0013,1.0013,0,0,1-.9626.726h-2.49a1.0012,1.0012,0,0,1-.9626-0.726l-1.1431-4.0013a1.0017,1.0017,0,0,0-.7736-0.7024,20.7645,20.7645,0,0,1-2.5871-.6963,0.9993,0.9993,0,0,0-1.0211.222l-2.9929,2.8957a1.0005,1.0005,0,0,1-1.1965.1475l-2.1564-1.2449a1.0009,1.0009,0,0,1-.47-1.11l1.0146-4.0524a1.0007,1.0007,0,0,0-.3182-0.9955,21.1556,21.1556,0,0,1-1.8944-1.8838,1,1,0,0,0-.993-0.3163l-4.0444,1.0125a1.0011,1.0011,0,0,1-1.11-.4705L8.8609,43.9218a1.001,1.001,0,0,1,.1474-1.1965l2.8937-2.99a1,1,0,0,0,.2216-1.0229,20.7911,20.7911,0,0,1-.7068-2.5924,1.0012,1.0012,0,0,0-.7016-0.7723l-3.9892-1.14A1.0008,1.0008,0,0,1,6,33.2449v-2.49a1.0008,1.0008,0,0,1,.7258-0.9626l3.9883-1.1395a1.0012,1.0012,0,0,0,.7021-0.7735,20.777,20.777,0,0,1,.7012-2.5984,1,1,0,0,0-.2216-1.022L9.0083,21.2748a1.001,1.001,0,0,1-.1474-1.1965l1.2448-2.1565a1.0011,1.0011,0,0,1,1.11-.47l4.0506,1.0141a1.0009,1.0009,0,0,0,.9945-0.3173,21.2176,21.2176,0,0,1,1.8861-1.8917,1,1,0,0,0,.3173-0.9939l-1.0131-4.0467a1.0007,1.0007,0,0,1,.47-1.11l2.1564-1.245a1.001,1.001,0,0,1,1.1965.1474L24.274,11.91a1,1,0,0,0,1.0221.222,20.8182,20.8182,0,0,1,2.5807-.7022,1.0016,1.0016,0,0,0,.7723-0.7018L29.7925,6.726A1.0013,1.0013,0,0,1,30.7551,6h2.49a1.0014,1.0014,0,0,1,.9626.726l1.1432,4.0014a1.0014,1.0014,0,0,0,.7735.7024,20.749,20.749,0,0,1,2.5872.6964,0.9994,0.9994,0,0,0,1.021-.2221l2.9928-2.8956a1.0009,1.0009,0,0,1,1.1966-.1476l2.1564,1.245a1.0008,1.0008,0,0,1,.47,1.11l-1.0146,4.0524a1.0012,1.0012,0,0,0,.3182.9954,21.1547,21.1547,0,0,1,1.8943,1.8838,1,1,0,0,0,.9931.3163l4.0445-1.0124a1.0007,1.0007,0,0,1,1.11.47l1.2448,2.1565a1.0007,1.0007,0,0,1-.1474,1.1965l-2.8935,2.99a1,1,0,0,0-.2217,1.0228,20.775,20.775,0,0,1,.7067,2.5925,1.0014,1.0014,0,0,0,.7017.7722l3.9893,1.14a1.0011,1.0011,0,0,1,.726.9626v2.49A1.0011,1.0011,0,0,1,57.2741,34.2075ZM22.6321,19.7743a0.5062,0.5062,0,0,0-.7533-0.1445,15.9533,15.9533,0,0,0,0,24.74,0.5063,0.5063,0,0,0,.7533-0.1444L28.3916,34.25a4.5,4.5,0,0,0,0-4.5ZM32,16a15.9593,15.9593,0,0,0-5.6664,1.0333,0.503,0.503,0,0,0-.2492.7211L31.8557,27.75A4.5,4.5,0,0,0,35.7528,30H47.278a0.5063,0.5063,0,0,0,.5012-0.58A15.9936,15.9936,0,0,0,32,16ZM47.278,34H35.7528a4.5,4.5,0,0,0-3.8971,2.25l-5.7712,9.996a0.503,0.503,0,0,0,.2492.7211A15.9979,15.9979,0,0,0,47.7792,34.58,0.5063,0.5063,0,0,0,47.278,34Z"/>
</svg>
