<svg id="Layer_1" data-name="Layer 1" xmlns="http://www.w3.org/2000/svg" width="64" height="64" viewBox="0 0 64 64"><defs><style>.cls-1{fill-rule:evenodd}</style></defs><title>Icons 100</title><path class="cls-1" d="M57.274 34.208l-3.988 1.14a1.001 1.001 0 0 0-.702.773 20.72 20.72 0 0 1-.702 2.598 1 1 0 0 0 .222 1.022l2.888 2.985a1.001 1.001 0 0 1 .147 1.196l-1.245 2.157a1 1 0 0 1-1.11.47l-4.05-1.014a1 1 0 0 0-.994.317 21.193 21.193 0 0 1-1.887 1.892 1 1 0 0 0-.317.994l1.013 4.047a1.001 1.001 0 0 1-.47 1.11l-2.156 1.245a1 1 0 0 1-1.197-.148l-3-2.902a1 1 0 0 0-1.022-.222 20.777 20.777 0 0 1-2.58.702 1.002 1.002 0 0 0-.773.702l-1.143 4.002a1.001 1.001 0 0 1-.963.726h-2.49a1.001 1.001 0 0 1-.963-.726l-1.143-4.001a1.002 1.002 0 0 0-.773-.703 20.765 20.765 0 0 1-2.587-.696 1 1 0 0 0-1.022.222l-2.992 2.896a1 1 0 0 1-1.197.147l-2.156-1.245a1 1 0 0 1-.47-1.11l1.014-4.052a1 1 0 0 0-.318-.996 21.156 21.156 0 0 1-1.894-1.883 1 1 0 0 0-.993-.317l-4.045 1.013a1.001 1.001 0 0 1-1.11-.47l-1.245-2.157a1.001 1.001 0 0 1 .147-1.197l2.894-2.99a1 1 0 0 0 .222-1.023 20.791 20.791 0 0 1-.707-2.592 1.001 1.001 0 0 0-.702-.772l-3.989-1.14A1 1 0 0 1 6 33.245v-2.49a1 1 0 0 1 .726-.963l3.988-1.14a1.001 1.001 0 0 0 .702-.773 20.777 20.777 0 0 1 .701-2.598 1 1 0 0 0-.221-1.022l-2.888-2.984a1.001 1.001 0 0 1-.147-1.197l1.245-2.156a1.001 1.001 0 0 1 1.11-.47l4.05 1.014a1 1 0 0 0 .995-.317 21.218 21.218 0 0 1 1.886-1.892 1 1 0 0 0 .317-.994l-1.013-4.047a1 1 0 0 1 .47-1.11l2.156-1.245a1.001 1.001 0 0 1 1.197.148l3 2.901a1 1 0 0 0 1.022.222 20.818 20.818 0 0 1 2.58-.702 1.002 1.002 0 0 0 .773-.702l1.143-4.002A1.001 1.001 0 0 1 30.756 6h2.49a1.001 1.001 0 0 1 .963.726l1.143 4.001a1.001 1.001 0 0 0 .773.703 20.749 20.749 0 0 1 2.588.696 1 1 0 0 0 1.02-.222l2.993-2.895a1 1 0 0 1 1.197-.148l2.156 1.245a1 1 0 0 1 .47 1.11l-1.014 4.052a1.001 1.001 0 0 0 .318.996 21.155 21.155 0 0 1 1.894 1.884 1 1 0 0 0 .993.316l4.045-1.013a1 1 0 0 1 1.11.47l1.245 2.157a1 1 0 0 1-.148 1.196l-2.893 2.99a1 1 0 0 0-.222 1.023 20.775 20.775 0 0 1 .707 2.593 1.001 1.001 0 0 0 .702.772l3.989 1.14a1.001 1.001 0 0 1 .726.963v2.49a1.001 1.001 0 0 1-.726.963zM22.632 19.774a.506.506 0 0 0-.753-.144 15.953 15.953 0 0 0 0 24.74.506.506 0 0 0 .753-.145l5.76-9.975a4.5 4.5 0 0 0 0-4.5zM32 16a15.96 15.96 0 0 0-5.666 1.033.503.503 0 0 0-.25.721l5.772 9.996A4.5 4.5 0 0 0 35.753 30h11.525a.506.506 0 0 0 .501-.58A15.994 15.994 0 0 0 32 16zm15.278 18H35.753a4.5 4.5 0 0 0-3.897 2.25l-5.772 9.996a.503.503 0 0 0 .25.721A15.998 15.998 0 0 0 47.779 34.58a.506.506 0 0 0-.501-.58z"/></svg>