<svg id="Layer_1" data-name="Layer 1" xmlns="http://www.w3.org/2000/svg" width="64" height="64" viewBox="0 0 64 64">
  <defs>
    <style>
      .cls-1 {
        fill-rule: evenodd;
      }
    </style>
  </defs>
  <title>Icons 400</title>
  <path class="cls-1" d="M43.1263,40.1417l2.7023,4.3335a.9987.9987,0,0,1-.319,1.376l-.8477.5285a23.7987,23.7987,0,0,1-10.6661,3.5219v2.1078h4c2.4453,0,8.0088,1.36,7.9977,3.0161a1.0019,1.0019,0,0,1-1.0059.982H19.0055A1.0018,1.0018,0,0,1,18,55.0255c-.0112-1.656,5.5524-3.0161,7.9976-3.0161h4V49.8917A23.9413,23.9413,0,0,1,19.2914,5.6969l.8478-.5287a.999.999,0,0,1,1.3761.3192l2.7,4.33a17.9746,17.9746,0,0,1,18.9106,30.324Zm.7783-6.8a14.05,14.05,0,0,0,1.505-3.394.2554.2554,0,0,0-.3811-.2817L43.2441,30.781a.5.5,0,0,0-.2152.5512q.257.9861.4155,1.9166A.2512.2512,0,0,0,43.9046,33.342ZM19.7639,10.23a19.976,19.976,0,0,0,21.035,33.7307l-1.0682-1.7128A17.9754,17.9754,0,0,1,20.8255,11.9322Zm8.2684,15.911,5.809-3.6292a.5089.5089,0,0,0,.1445-.7193c-.6071-.8671-1.22-1.68-1.83-2.4308a.4988.4988,0,0,0-.6542-.1027l-5.3681,3.3537a.4986.4986,0,0,0-.1945.6328c.4078.877.87,1.7842,1.3832,2.71A.5092.5092,0,0,0,28.0323,26.1409Zm-6.3162,9.3543a13.9531,13.9531,0,0,0,2.4852,2.12.5061.5061,0,0,0,.5486.0057l3.5494-2.2176a.4919.4919,0,0,0,.1167-.7381c-.6222-.7391-1.2337-1.5228-1.8271-2.3533a.4971.4971,0,0,0-.6675-.1373l-4.0951,2.5583A.5032.5032,0,0,0,21.7161,35.4952Zm8.2909-5.2444c.6072.8671,1.22,1.68,1.83,2.4309a.4992.4992,0,0,0,.6543.1027l5.368-3.3538a.4983.4983,0,0,0,.1945-.6328c-.4076-.8769-.87-1.7842-1.3831-2.71a.5092.5092,0,0,0-.71-.1856l-5.8092,3.6292A.5091.5091,0,0,0,30.007,30.2508Zm-.3609,9.5452a14.0526,14.0526,0,0,0,3.7112.1354.2511.2511,0,0,0,.1178-.4545q-.7656-.5494-1.5409-1.2134a.5.5,0,0,0-.59-.0482L29.56,39.33A.2554.2554,0,0,0,29.6461,39.796Zm5.8546-4.1774a.5.5,0,0,0-.0592.8059c1.6967,1.3979,3.1327,1.9886,3.9719,1.4642s.9376-2.0734.4248-4.211a.5.5,0,0,0-.7505-.3ZM20.0883,18.7011a14.0416,14.0416,0,0,0-1.5052,3.3943.2554.2554,0,0,0,.3812.2815l1.7843-1.1148a.5.5,0,0,0,.2152-.5511q-.2568-.9861-.4154-1.9166A.2511.2511,0,0,0,20.0883,18.7011ZM18.157,27.9442a13.9458,13.9458,0,0,0,.8163,3.1624.5034.5034,0,0,0,.7339.2353l4.095-2.5584a.4971.4971,0,0,0,.1691-.66q-.73-1.3459-1.3147-2.6735a.4921.4921,0,0,0-.7147-.2187l-3.5494,2.2174A.5063.5063,0,0,0,18.157,27.9442Zm6.4224-13.79c-.8392.5245-.9377,2.0736-.4248,4.2111a.5.5,0,0,0,.75.3l3.5869-2.2409a.5.5,0,0,0,.0593-.8059C26.8545,14.2208,25.4186,13.63,24.5794,14.1544Zm5.9382-1.5881q.7656.5494,1.541,1.2134a.5.5,0,0,0,.59.0482l1.7844-1.1146a.2554.2554,0,0,0-.0862-.466,14.0479,14.0479,0,0,0-3.7111-.1354A.2511.2511,0,0,0,30.5176,12.5663Zm8.7252,1.8564L35.6934,16.64a.4922.4922,0,0,0-.1167.7383c.6223.7391,1.2337,1.5227,1.8272,2.3533a.4975.4975,0,0,0,.6676.1374l4.095-2.5584a.5034.5034,0,0,0,.11-.7627,13.9525,13.9525,0,0,0-2.4852-2.12A.5067.5067,0,0,0,39.2428,14.4227Zm5.0429,6.2786L40.1906,23.26a.4972.4972,0,0,0-.1692.66q.73,1.3459,1.3147,2.6735a.4921.4921,0,0,0,.7147.2188l3.55-2.2174a.5063.5063,0,0,0,.2354-.4956,13.948,13.948,0,0,0-.8161-3.1624A.5035.5035,0,0,0,44.2857,20.7013Z"/>
</svg>
