<svg id="Layer_1" data-name="Layer 1" xmlns="http://www.w3.org/2000/svg" width="64" height="64" viewBox="0 0 64 64"><defs><style>.cls-1{fill-rule:evenodd}</style></defs><title>Icons 400</title><path class="cls-1" d="M43.126 40.142l2.703 4.333a.999.999 0 0 1-.32 1.376l-.847.529a23.799 23.799 0 0 1-10.666 3.522v2.107h4c2.445 0 8.009 1.36 7.997 3.016a1.002 1.002 0 0 1-1.005.983H19.006A1.002 1.002 0 0 1 18 55.025c-.011-1.655 5.552-3.016 7.998-3.016h4v-2.117A23.941 23.941 0 0 1 19.29 5.697l.848-.529a.999.999 0 0 1 1.376.32l2.7 4.33a17.975 17.975 0 0 1 18.91 30.323zm.779-6.8a14.05 14.05 0 0 0 1.505-3.394.255.255 0 0 0-.381-.282l-1.785 1.115a.5.5 0 0 0-.215.551q.257.986.415 1.917a.251.251 0 0 0 .46.093zM19.764 10.23a19.976 19.976 0 0 0 21.035 33.73l-1.068-1.712a17.975 17.975 0 0 1-18.905-30.316zm8.268 15.911l5.81-3.63a.509.509 0 0 0 .144-.719 42.694 42.694 0 0 0-1.83-2.43.499.499 0 0 0-.654-.103l-5.368 3.354a.499.499 0 0 0-.195.632c.408.877.87 1.785 1.383 2.71a.51.51 0 0 0 .71.186zm-6.316 9.354a13.953 13.953 0 0 0 2.485 2.12.506.506 0 0 0 .549.006l3.55-2.218a.492.492 0 0 0 .116-.738 37.555 37.555 0 0 1-1.827-2.353.497.497 0 0 0-.668-.137l-4.095 2.558a.503.503 0 0 0-.11.762zm8.291-5.244a42.78 42.78 0 0 0 1.83 2.43.5.5 0 0 0 .654.104l5.368-3.354a.498.498 0 0 0 .195-.633 43.004 43.004 0 0 0-1.383-2.71.51.51 0 0 0-.71-.186l-5.81 3.63a.51.51 0 0 0-.144.719zm-.36 9.545a14.053 14.053 0 0 0 3.71.136.251.251 0 0 0 .118-.455q-.766-.55-1.54-1.213a.5.5 0 0 0-.59-.049L29.56 39.33a.255.255 0 0 0 .086.466zM35.5 35.62a.5.5 0 0 0-.06.806c1.697 1.398 3.133 1.988 3.972 1.464s.938-2.074.425-4.211a.5.5 0 0 0-.75-.3zM20.088 18.7a14.042 14.042 0 0 0-1.505 3.394.255.255 0 0 0 .381.282l1.785-1.115a.5.5 0 0 0 .215-.551q-.257-.986-.416-1.917a.251.251 0 0 0-.46-.093zm-1.931 9.243a13.946 13.946 0 0 0 .816 3.163.503.503 0 0 0 .734.235l4.095-2.558a.497.497 0 0 0 .17-.66q-.73-1.346-1.315-2.674a.492.492 0 0 0-.715-.219l-3.55 2.218a.506.506 0 0 0-.235.495zm6.422-13.79c-.839.525-.937 2.074-.424 4.211a.5.5 0 0 0 .75.3l3.586-2.24a.5.5 0 0 0 .06-.807c-1.696-1.397-3.132-1.988-3.972-1.464zm5.939-1.588q.765.55 1.54 1.213a.5.5 0 0 0 .59.049l1.785-1.115a.255.255 0 0 0-.086-.466 14.048 14.048 0 0 0-3.711-.135.251.251 0 0 0-.118.454zm8.725 1.856l-3.55 2.218a.492.492 0 0 0-.116.738c.622.74 1.233 1.523 1.827 2.354a.497.497 0 0 0 .667.137l4.095-2.558a.503.503 0 0 0 .11-.763 13.953 13.953 0 0 0-2.485-2.12.507.507 0 0 0-.548-.005zm5.043 6.28L40.19 23.26a.497.497 0 0 0-.17.66q.73 1.346 1.315 2.674a.492.492 0 0 0 .715.218l3.55-2.217a.506.506 0 0 0 .235-.496 13.948 13.948 0 0 0-.816-3.162.503.503 0 0 0-.734-.236z"/></svg>