<svg id="Layer_1" data-name="Layer 1" xmlns="http://www.w3.org/2000/svg" width="64" height="64" viewBox="0 0 64 64"><defs><style>.cls-1{fill-rule:evenodd}</style></defs><title>Icons 400</title><path class="cls-1" d="M59.123 36.383c-1.238.993-1.47 3.77-2.373 6.633-1.413 4.475-3.86 7-10.75 7-8.013 0-9.17-2.395-10.813-7-1.122-3.146-.564-7-3.187-7s-2.065 3.854-3.188 7c-1.643 4.605-2.799 7-10.812 7-6.89 0-9.337-2.525-10.75-7-.904-2.864-1.135-5.64-2.373-6.632A2.128 2.128 0 0 1 4 34.744v-2.011a1.495 1.495 0 0 1 1.21-1.473A69.501 69.501 0 0 1 18 30.016c9.206 0 10.246 2 14 2s4.794-2 14-2a69.501 69.501 0 0 1 12.79 1.246A1.495 1.495 0 0 1 60 32.733v2.013a2.128 2.128 0 0 1-.877 1.637zM18 34.017c-8.866 0-8.74 1.44-7.182 7 .965 3.44 1.72 5 7.182 5 6.31 0 6.08-1.19 7.252-5 1.71-5.568.856-7-7.252-7zm28 0c-8.108 0-8.963 1.432-7.252 7 1.171 3.81.943 5 7.252 5 5.463 0 6.218-1.56 7.182-5 1.559-5.56 1.684-7-7.182-7zm11.17-4.99c-.536-.075-2.22-.171-2.766-.248a1.488 1.488 0 0 1-1.19-1c-3.347-9.773-4.362-16.142-7.146-7.467a.967.967 0 0 1-1.621.381l-.985-1.015a1.546 1.546 0 0 1-.181-1.919c1.297-1.97 4.213-5.75 6.207-5.75 2.55 0 4.828 4.245 8.484 16.034a.754.754 0 0 1-.802.985zm-37.616-8.334a.968.968 0 0 1-1.621-.381c-2.784-8.675-3.8-2.306-7.146 7.466a1.488 1.488 0 0 1-1.19 1.001c-.547.077-2.23.173-2.767.249a.754.754 0 0 1-.8-.985c3.655-11.789 5.932-16.033 8.483-16.033 1.994 0 4.91 3.78 6.207 5.75a1.546 1.546 0 0 1-.18 1.919l-.986 1.014z"/></svg>