<svg id="Layer_1" data-name="Layer 1" xmlns="http://www.w3.org/2000/svg" width="64" height="64" viewBox="0 0 64 64">
  <defs>
    <style>
      .cls-1 {
        fill-rule: evenodd;
      }
    </style>
  </defs>
  <title>Icons 400</title>
  <path class="cls-1" d="M59.1231,36.3835c-1.2378.9926-1.4692,3.7687-2.3731,6.6321-1.4129,4.4756-3.86,7-10.75,7-8.013,0-9.1692-2.3947-10.8125-7-1.1227-3.1461-.5648-7-3.1875-7s-2.0649,3.8539-3.1875,7c-1.6433,4.6053-2.7995,7-10.8125,7-6.89,0-9.3371-2.5244-10.75-7-.9039-2.8634-1.1353-5.6395-2.3731-6.6321A2.1283,2.1283,0,0,1,4,34.7455v-2.012a1.4948,1.4948,0,0,1,1.21-1.472A69.5013,69.5013,0,0,1,18,30.0156c9.2061,0,10.2461,2,14,2s4.7939-2,14-2a69.5013,69.5013,0,0,1,12.79,1.2459A1.4948,1.4948,0,0,1,60,32.7335v2.012A2.1283,2.1283,0,0,1,59.1231,36.3835ZM18,34.0156c-8.8658,0-8.7407,1.4406-7.1821,7,.9646,3.44,1.7194,5,7.1821,5,6.3091,0,6.0808-1.19,7.2516-5C26.9628,35.4477,26.1081,34.0156,18,34.0156Zm28,0c-8.1081,0-8.9628,1.4321-7.2516,7,1.1708,3.81.9425,5,7.2516,5,5.4627,0,6.2175-1.56,7.1821-5C54.7407,35.4562,54.8658,34.0156,46,34.0156Zm11.17-4.989c-.5356-.0754-2.22-.1717-2.7664-.2486a1.4885,1.4885,0,0,1-1.19-1.0009c-3.3463-9.7725-4.3621-16.1414-7.1461-7.4662a.9674.9674,0,0,1-1.6206.3814c-.5112-.5264-.4868-.5013-.9854-1.0149a1.5463,1.5463,0,0,1-.1809-1.9189c1.2976-1.97,4.2136-5.75,6.207-5.75,2.551,0,4.8281,4.2446,8.4839,16.0332A.7538.7538,0,0,1,57.17,29.0266ZM19.5537,20.6923a.9675.9675,0,0,1-1.6207-.3814c-2.7839-8.6752-3.8-2.3063-7.1461,7.4662a1.4885,1.4885,0,0,1-1.19,1.0009c-.5466.0769-2.2308.1732-2.7665.2486a.7538.7538,0,0,1-.801-.9846c3.6557-11.7886,5.9329-16.0332,8.4839-16.0332,1.9934,0,4.9094,3.7795,6.2071,5.75a1.5463,1.5463,0,0,1-.1811,1.9189C20.04,20.191,20.0648,20.1659,19.5537,20.6923Z"/>
</svg>
