<svg id="Layer_1" data-name="Layer 1" xmlns="http://www.w3.org/2000/svg" width="64" height="64" viewBox="0 0 64 64"><defs><style>.cls-1{fill-rule:evenodd}</style></defs><title>Icons 100</title><path class="cls-1" d="M32.002 56h-.004a24 24 0 1 1 .004 0zm-10.467-8.095a27.673 27.673 0 0 1-1.532-3.57.496.496 0 0 0-.466-.335h-2.479a.5.5 0 0 0-.392.812 20.091 20.091 0 0 0 4.155 3.742.498.498 0 0 0 .714-.65zM14.023 40h4.189a.492.492 0 0 0 .485-.587 38.981 38.981 0 0 1-.613-4.943.496.496 0 0 0-.492-.47H12.67a.507.507 0 0 0-.503.565 19.872 19.872 0 0 0 1.388 5.127.507.507 0 0 0 .468.308zM12.67 30h4.922a.496.496 0 0 0 .492-.47 38.98 38.98 0 0 1 .613-4.943.492.492 0 0 0-.485-.587h-4.189a.507.507 0 0 0-.468.308 19.873 19.873 0 0 0-1.388 5.127.507.507 0 0 0 .503.565zm4.388-10h2.48a.496.496 0 0 0 .465-.335 27.636 27.636 0 0 1 1.532-3.57.498.498 0 0 0-.714-.648 20.093 20.093 0 0 0-4.155 3.741.5.5 0 0 0 .392.812zm12.181-7.226c-1.97 1.132-3.685 3.451-4.954 6.536a.504.504 0 0 0 .467.69H29.5a.5.5 0 0 0 .5-.5v-6.292a.506.506 0 0 0-.76-.434zM29.5 24h-6.253a.502.502 0 0 0-.494.398 36.676 36.676 0 0 0-.672 5.066.507.507 0 0 0 .504.536H29.5a.5.5 0 0 0 .5-.5v-5a.5.5 0 0 0-.5-.5zm0 10h-6.916a.507.507 0 0 0-.503.536 36.675 36.675 0 0 0 .672 5.066.502.502 0 0 0 .494.398H29.5a.5.5 0 0 0 .5-.5v-5a.5.5 0 0 0-.5-.5zm0 10h-4.748a.504.504 0 0 0-.467.69c1.268 3.085 2.984 5.404 4.954 6.536A.506.506 0 0 0 30 50.79V44.5a.5.5 0 0 0-.5-.5zm21.83-10h-4.922a.496.496 0 0 0-.492.47 38.98 38.98 0 0 1-.613 4.943.492.492 0 0 0 .485.587h4.189a.507.507 0 0 0 .468-.308 19.863 19.863 0 0 0 1.388-5.127.507.507 0 0 0-.503-.565zm-4.388 10h-2.48a.496.496 0 0 0-.466.335 27.645 27.645 0 0 1-1.53 3.57.498.498 0 0 0 .713.648 20.085 20.085 0 0 0 4.155-3.741.5.5 0 0 0-.392-.812zM34.76 51.226c1.97-1.132 3.685-3.451 4.954-6.536a.504.504 0 0 0-.467-.69H34.5a.5.5 0 0 0-.5.5v6.291a.506.506 0 0 0 .76.435zM34.5 40h6.253a.502.502 0 0 0 .494-.398 36.66 36.66 0 0 0 .672-5.066.507.507 0 0 0-.503-.536H34.5a.5.5 0 0 0-.5.5v5a.5.5 0 0 0 .5.5zM34 13.209V19.5a.5.5 0 0 0 .5.5h4.748a.504.504 0 0 0 .467-.69c-1.268-3.085-2.984-5.404-4.954-6.536a.506.506 0 0 0-.761.435zM34 24.5v5a.5.5 0 0 0 .5.5h6.916a.507.507 0 0 0 .503-.536 36.676 36.676 0 0 0-.672-5.066.502.502 0 0 0-.494-.398H34.5a.5.5 0 0 0-.5.5zm8.465-8.405a27.638 27.638 0 0 1 1.531 3.57.496.496 0 0 0 .467.335h2.479a.5.5 0 0 0 .392-.812 20.088 20.088 0 0 0-4.155-3.742.498.498 0 0 0-.714.65zm2.838 8.492a38.98 38.98 0 0 1 .613 4.944.496.496 0 0 0 .492.469h4.922a.507.507 0 0 0 .503-.565 19.867 19.867 0 0 0-1.389-5.127.507.507 0 0 0-.467-.308h-4.189a.492.492 0 0 0-.485.587z"/></svg>