<svg id="Layer_1" data-name="Layer 1" xmlns="http://www.w3.org/2000/svg" width="64" height="64" viewBox="0 0 64 64">
  <defs>
    <style>
      .cls-1 {
        fill-rule: evenodd;
      }
    </style>
  </defs>
  <title>Icons 400</title>
  <path class="cls-1" d="M13.1084,30.816l-7.45-3.7179a1.2029,1.2029,0,0,1,0-2.1527L31.1636,12.2183a1.8715,1.8715,0,0,1,1.67,0L58.34,24.9454a1.2029,1.2029,0,0,1,0,2.1527L32.8341,39.8259a1.8709,1.8709,0,0,1-1.67,0L19.7658,34.1383a.5.5,0,0,1,0-.894l12.6777-6.3268a1,1,0,0,0-.8894-1.791l-13.6673,6.82a1.9976,1.9976,0,0,0-1.0911,1.5456c-.0814.6657-1.58,12.5779-1.58,12.5779a2.97,2.97,0,0,1-.2022,4.1371l.9442,5.9709a1.0119,1.0119,0,0,1-.53,1.0495A5.92,5.92,0,0,1,8.35,56.3555a1.0143,1.0143,0,0,1-.2628-1.1484l2.3594-5.5762a2.9692,2.9692,0,0,1,.8093-4.0491ZM30.2706,41.5771a3.8635,3.8635,0,0,0,3.4514-.0008l13.55-6.7465a.4989.4989,0,0,1,.7187.3893c.4637,4.0292.9573,8.2875.9939,8.4828a.9954.9954,0,0,1-.3773.9884A30.9894,30.9894,0,0,1,32.0193,50.004a31.66,31.66,0,0,1-14.1565-3.7869.9971.9971,0,0,1-.5021-.9985L18.44,36.43a.4993.4993,0,0,1,.7183-.3862Z"/>
</svg>
