<svg id="Layer_1" data-name="Layer 1" xmlns="http://www.w3.org/2000/svg" width="64" height="64" viewBox="0 0 64 64">
  <defs>
    <style>
      .cls-1 {
        fill-rule: evenodd;
      }
    </style>
  </defs>
  <title>Icons 400</title>
  <path class="cls-1" d="M50,54.0157H20.4853a6,6,0,0,1-4.2427-1.7573l-3.071-3.0711A4,4,0,0,1,12,46.3589V10.0157a2,2,0,0,1,2-2H44a2,2,0,0,1,2,2v36a2,2,0,0,1-2,2H18.8321a.5.5,0,0,0-.3535.8536l.5606.5606a2,2,0,0,0,1.4142.5858H47.5a.5.5,0,0,0,.5-.5v-35a.5.5,0,0,1,.5-.5H50a2,2,0,0,1,2,2v36A2,2,0,0,1,50,54.0157Zm-17-33h2v2a1,1,0,0,0,2,0v-2h2a1,1,0,1,0,0-2H37v-2a1,1,0,0,0-2,0v2H33a1,1,0,1,0,0,2Zm-14.3808,10.91A.9983.9983,0,0,0,19.93,31.4l1.4753-3.4473,6.6309-1.3286L30.08,31.4a.9989.9989,0,1,0,1.8356-.7883l-1.8782-4.3885,1.16-.2324a1.0022,1.0022,0,0,0-.3928-1.9656l-1.5726.3151-3.309-7.7322a.9979.9979,0,0,0-1.8356,0L18.0945,30.612A1,1,0,0,0,18.6193,31.9253Zm8.6112-7.1837-4.8682.9755,2.6429-6.1753Z"/>
</svg>
