<svg id="Layer_1" data-name="Layer 1" xmlns="http://www.w3.org/2000/svg" width="64" height="64" viewBox="0 0 64 64"><defs><style>.cls-1{fill-rule:evenodd}</style></defs><title>Icons 400</title><path class="cls-1" d="M13.108 30.816l-7.45-3.718a1.203 1.203 0 0 1 0-2.153l25.506-12.727a1.871 1.871 0 0 1 1.67 0L58.34 24.945a1.203 1.203 0 0 1 0 2.153L32.834 39.826a1.87 1.87 0 0 1-1.67 0l-11.398-5.688a.5.5 0 0 1 0-.894l12.678-6.326a1 1 0 0 0-.89-1.791l-13.667 6.82a1.998 1.998 0 0 0-1.091 1.545 24244 24244 0 0 1-1.58 12.578 2.97 2.97 0 0 1-.202 4.137l.944 5.971a1.012 1.012 0 0 1-.53 1.05 5.92 5.92 0 0 1-7.078-.873 1.014 1.014 0 0 1-.263-1.148l2.36-5.576a2.97 2.97 0 0 1 .809-4.05zm17.163 10.761a3.864 3.864 0 0 0 3.451 0l13.55-6.747a.499.499 0 0 1 .719.39c.463 4.028.957 8.287.994 8.482a.995.995 0 0 1-.378.988 30.99 30.99 0 0 1-16.588 5.314 31.66 31.66 0 0 1-14.156-3.787.997.997 0 0 1-.502-.998l1.079-8.789a.5.5 0 0 1 .718-.386z"/></svg>