<svg id="Layer_1" data-name="Layer 1" xmlns="http://www.w3.org/2000/svg" width="64" height="64" viewBox="0 0 64 64"><defs><style>.cls-1{fill-rule:evenodd}</style></defs><title>Icons 400</title><path class="cls-1" d="M50 54.016H20.485a6 6 0 0 1-4.242-1.758l-3.071-3.07A4 4 0 0 1 12 46.357V10.017a2 2 0 0 1 2-2h30a2 2 0 0 1 2 2v36a2 2 0 0 1-2 2H18.832a.5.5 0 0 0-.353.853l.56.56a2 2 0 0 0 1.414.587H47.5a.5.5 0 0 0 .5-.5v-35a.5.5 0 0 1 .5-.5H50a2 2 0 0 1 2 2v36a2 2 0 0 1-2 2zm-17-33h2v2a1 1 0 0 0 2 0v-2h2a1 1 0 1 0 0-2h-2v-2a1 1 0 0 0-2 0v2h-2a1 1 0 1 0 0 2zm-14.38 10.91a.998.998 0 0 0 1.31-.526l1.475-3.447 6.631-1.329L30.08 31.4a.999.999 0 1 0 1.836-.788l-1.879-4.389 1.16-.232a1.002 1.002 0 0 0-.392-1.966l-1.573.315-3.309-7.732a.998.998 0 0 0-1.836 0l-5.992 14.004a1 1 0 0 0 .524 1.313zm8.61-7.184l-4.868.976 2.643-6.176z"/></svg>