<svg id="Layer_1" data-name="Layer 1" xmlns="http://www.w3.org/2000/svg" width="64" height="64" viewBox="0 0 64 64"><defs><style>.cls-1{fill-rule:evenodd}</style></defs><title>Icons 100</title><path class="cls-1" d="M47 50H37a3 3 0 0 1-3-3V37a3 3 0 0 1 3-3h10a3 3 0 0 1 3 3v10a3 3 0 0 1-3 3zm0-20H37a3 3 0 0 1-3-3V17a3 3 0 0 1 3-3h10a3 3 0 0 1 3 3v10a3 3 0 0 1-3 3zm-30 4h10a3 3 0 0 1 3 3v10a3 3 0 0 1-3 3H17a3 3 0 0 1-3-3V37a3 3 0 0 1 3-3zm-3-17a3 3 0 0 1 3-3h10a3 3 0 0 1 3 3v10a3 3 0 0 1-3 3H17a3 3 0 0 1-3-3V17z"/></svg>