<svg id="Layer_1" data-name="Layer 1" xmlns="http://www.w3.org/2000/svg" width="64" height="64" viewBox="0 0 64 64"><defs><style>.cls-1{fill-rule:evenodd}</style></defs><title>Icons 400</title><path class="cls-1" d="M54 29.016a7 7 0 0 1-7 7H19a9 9 0 0 1-.952-17.95 10.987 10.987 0 0 1 20.418-4.634 7.961 7.961 0 0 1 10.42 8.873A6.98 6.98 0 0 1 54 29.016zm-36 19a3 3 0 1 1-3 3 3 3 0 0 1 3-3zm1-5a3 3 0 1 1 3 3 3 3 0 0 1-3-3zm9 5a3 3 0 1 1-3 3 3 3 0 0 1 3-3zm1-5a3 3 0 1 1 3 3 3 3 0 0 1-3-3zm9 5a3 3 0 1 1-3 3 3 3 0 0 1 3-3zm1-5a3 3 0 1 1 3 3 3 3 0 0 1-3-3z"/></svg>