<svg id="Layer_1" data-name="Layer 1" xmlns="http://www.w3.org/2000/svg" width="64" height="64" viewBox="0 0 64 64">
  <defs>
    <style>
      .cls-1 {
        fill-rule: evenodd;
      }
    </style>
  </defs>
  <title>Icons 400</title>
  <path class="cls-1" d="M54,29.0156a7,7,0,0,1-7,7H19a9,9,0,0,1-.952-17.9487,10.9873,10.9873,0,0,1,20.4177-4.6348,7.961,7.961,0,0,1,10.4209,8.8734A6.98,6.98,0,0,1,54,29.0156Zm-36,19a3,3,0,1,1-3,3A3,3,0,0,1,18,48.0156Zm1-5a3,3,0,1,1,3,3A3,3,0,0,1,19,43.0156Zm9,5a3,3,0,1,1-3,3A3,3,0,0,1,28,48.0156Zm1-5a3,3,0,1,1,3,3A3,3,0,0,1,29,43.0156Zm9,5a3,3,0,1,1-3,3A3,3,0,0,1,38,48.0156Zm1-5a3,3,0,1,1,3,3A3,3,0,0,1,39,43.0156Z"/>
</svg>
