<svg id="Layer_1" data-name="Layer 1" xmlns="http://www.w3.org/2000/svg" width="64" height="64" viewBox="0 0 64 64"><defs><style>.cls-1{fill-rule:evenodd}</style></defs><title>Icons 400</title><path class="cls-1" d="M50.995 29.016a3.513 3.513 0 0 1 2.858 1.156.707.707 0 0 1 0 .825c-1.012 1.426-5.087 6.64-6.896 12.308-2.952 9.244-9.161 12.71-16.96 12.71a13.999 13.999 0 0 1-13.997-14v-22a2 2 0 1 1 4 0v12.002a1 1 0 0 0 1 .999 1 1 0 0 0 1-1v-18.5a2.5 2.5 0 1 1 4.999 0v17.5a1 1 0 0 0 1 1 1 1 0 0 0 1-1v-20.5a2.5 2.5 0 1 1 4.999 0v20.5a1 1 0 0 0 1 1 1 1 0 0 0 1-1v-17.5a2.5 2.5 0 1 1 5 0v24.053a.659.659 0 0 0 1.224.34c2.38-4.007 5.675-8.893 8.773-8.893z"/></svg>