<svg id="Layer_1" data-name="Layer 1" xmlns="http://www.w3.org/2000/svg" width="64" height="64" viewBox="0 0 64 64">
  <defs>
    <style>
      .cls-1 {
        fill-rule: evenodd;
      }
    </style>
  </defs>
  <title>Icons 100</title>
  <path class="cls-1" d="M56,34V46a4,4,0,0,1-4,4H50v1a3,3,0,0,1-3,3H45a3,3,0,0,1-3-3V37a3,3,0,0,1,3-3h2a3,3,0,0,1,3,3v1h2V34a20,20,0,0,0-40,0v4h2V37a3,3,0,0,1,3-3h2a3,3,0,0,1,3,3V51a3,3,0,0,1-3,3H17a3,3,0,0,1-3-3V50H12a4,4,0,0,1-4-4V34A24,24,0,0,1,56,34Z"/>
</svg>
