<svg id="Layer_1" data-name="Layer 1" xmlns="http://www.w3.org/2000/svg" width="64" height="64" viewBox="0 0 64 64"><defs><style>.cls-1{fill-rule:evenodd}</style></defs><title>Icons 100</title><path class="cls-1" d="M32 54C26.774 54 7 41.4 7 24.385A14.223 14.223 0 0 1 21.023 10 13.904 13.904 0 0 1 32 15.445 13.905 13.905 0 0 1 42.977 10 14.223 14.223 0 0 1 57 24.385C57 41.4 37.225 54 32 54zm10.977-40c-6.482 0-8.681 6-10.977 6s-4.495-6-10.977-6A10.22 10.22 0 0 0 11 24.385C11 39.485 29.383 49.969 32 50c2.617-.031 21-10.514 21-25.615A10.22 10.22 0 0 0 42.977 14z"/></svg>