<svg id="Layer_1" data-name="Layer 1" xmlns="http://www.w3.org/2000/svg" width="64" height="64" viewBox="0 0 64 64">
  <defs>
    <style>
      .cls-1 {
        fill-rule: evenodd;
      }
    </style>
  </defs>
  <title>Icons 100</title>
  <path class="cls-1" d="M32,54C26.7745,54,7,41.4009,7,24.3848A14.2232,14.2232,0,0,1,21.0227,10,13.9043,13.9043,0,0,1,32,15.4448,13.9045,13.9045,0,0,1,42.9774,10,14.2232,14.2232,0,0,1,57,24.3848C57,41.4009,37.2255,54,32,54ZM42.9774,14C36.495,14,34.2958,20,32,20s-4.4948-6-10.9773-6A10.22,10.22,0,0,0,11,24.3848C11,39.4855,29.3834,49.9688,32,50c2.6168-.0312,21-10.5145,21-25.6152A10.22,10.22,0,0,0,42.9774,14Z"/>
</svg>
