<svg id="Layer_1" data-name="Layer 1" xmlns="http://www.w3.org/2000/svg" width="64" height="64" viewBox="0 0 64 64"><defs><style>.cls-1{fill-rule:evenodd}</style></defs><title>Icons 200</title><path class="cls-1" d="M58 52H34a2 2 0 1 1 0-4h24a2 2 0 1 1 0 4zm-4.2-6H36.954a8 8 0 0 1-7.155-4.422l-5.562-11.123a1 1 0 0 0-.73-.539l-10.22-1.703a1 1 0 0 0-.923.336l-3.773 4.403A3 3 0 0 1 6.314 34h-2.81a.5.5 0 0 1-.447-.724l3.525-7.052a.5.5 0 0 0 0-.448l-4.525-9.052A.5.5 0 0 1 2.504 16h2.723a2.999 2.999 0 0 1 2.367 1.158l3.465 4.456a1 1 0 0 0 .79.386h14.625a1 1 0 0 0 .833-.446l1.406-2.108a1 1 0 0 1 .833-.446H32v-1.87l-18.002.857a1.998 1.998 0 0 1 0-3.997L32 14.846V14a2 2 0 0 1 4 0v.846l18.002-.857a1.998 1.998 0 0 1 0 3.997L36 17.129V19h2.477a1 1 0 0 1 .833.446l1.406 2.109a1 1 0 0 0 .832.445h1.23a12.006 12.006 0 0 1 9.989 5.345l6.219 9.327a6.006 6.006 0 0 1-.96 7.775A6.225 6.225 0 0 1 53.8 46zm1.101-8.777l-5.4-8.105A6.997 6.997 0 0 0 43.678 26H37.52a.5.5 0 0 0-.447.724l5.359 10.723a1 1 0 0 0 .893.553h11.16a.5.5 0 0 0 .417-.777z"/></svg>