<svg id="Layer_1" data-name="Layer 1" xmlns="http://www.w3.org/2000/svg" width="64" height="64" viewBox="0 0 64 64">
  <defs>
    <style>
      .cls-1 {
        fill-rule: evenodd;
      }
    </style>
  </defs>
  <title>Icons 200</title>
  <path class="cls-1" d="M58,52H34a2,2,0,1,1,0-4H58A2,2,0,1,1,58,52Zm-4.2-6H36.9544a8,8,0,0,1-7.1549-4.4222L24.2372,30.4554a1,1,0,0,0-.73-0.5391l-10.22-1.7028a1,1,0,0,0-.9232.3356L8.5913,32.9524A3,3,0,0,1,6.314,34h-2.81a0.5,0.5,0,0,1-.447-0.7236l3.5254-7.0528a0.5,0.5,0,0,0,0-.4472L2.0569,16.7236A0.5,0.5,0,0,1,2.504,16H5.227a2.9986,2.9986,0,0,1,2.3673,1.1582L11.059,21.614a1,1,0,0,0,.7892.386H26.4745a1.0008,1.0008,0,0,0,.8327-0.4456l1.4062-2.1089A1,1,0,0,1,29.5458,19H32v-1.87l-18.002.8565a1.9983,1.9983,0,0,1,0-3.9967L32,14.8459V14a2,2,0,0,1,4,0v0.8459l18.002-.8566a1.9983,1.9983,0,0,1,0,3.9967L36,17.1295V19h2.4772a1,1,0,0,1,.8326.4455l1.4063,2.1092A1,1,0,0,0,41.5483,22h1.23a12.0058,12.0058,0,0,1,9.9884,5.3454l6.219,9.3264a6.0064,6.0064,0,0,1-.96,7.7754A6.2246,6.2246,0,0,1,53.8,46Zm1.1015-8.7773-5.4005-8.1049A6.9973,6.9973,0,0,0,43.678,26H37.52a0.5,0.5,0,0,0-.4471.7237l5.3589,10.7236A0.9991,0.9991,0,0,0,43.3253,38h11.16A0.5,0.5,0,0,0,54.9016,37.2227Z"/>
</svg>
