<svg id="Layer_1" data-name="Layer 1" xmlns="http://www.w3.org/2000/svg" width="64" height="64" viewBox="0 0 64 64">
  <defs>
    <style>
      .cls-1 {
        fill-rule: evenodd;
      }
    </style>
  </defs>
  <title>Icons 200</title>
  <path class="cls-1" d="M32,56A24,24,0,1,1,56,32,24,24,0,0,1,32,56Zm0-44A20,20,0,1,0,52,32,20,20,0,0,0,32,12Zm2.4791,23.0144A2.37,2.37,0,0,1,32,37.0129a1.9562,1.9562,0,0,1-2-2.0013c0-4.9652,5.5-5.4512,5.5-9.0058A3.18,3.18,0,0,0,32,23.0039c-2.7871,0-3.6562,1.5948-4,3.0019-0.3316,1.356-1.0293,2.0013-2,2.0013a1.9593,1.9593,0,0,1-2-2.0013,7.6832,7.6832,0,0,1,8-8.0051,7.6746,7.6746,0,0,1,8,8.0051C40,30.884,35.4053,31.0758,34.4793,35.0144ZM31.994,40a3,3,0,1,1-3,3A3,3,0,0,1,31.994,40Z"/>
</svg>
