<svg id="Layer_1" data-name="Layer 1" xmlns="http://www.w3.org/2000/svg" width="64" height="64" viewBox="0 0 64 64">
  <defs>
    <style>
      .cls-1 {
        fill-rule: evenodd;
      }
    </style>
  </defs>
  <title>Icons 100</title>
  <path class="cls-1" d="M48,10a2,2,0,0,1,2,2v8.5253a0.75,0.75,0,0,1-1.28.53l-6.134-6.1366A2,2,0,0,1,42,13.5052V12a2,2,0,0,1,2-2h4Zm0,44H39a2,2,0,0,1-2-2V40a2,2,0,0,0-2-2H29a2,2,0,0,0-2,2V52a2,2,0,0,1-2,2H16a2,2,0,0,1-2-2V33.987h-3.99a2.0007,2.0007,0,0,1-1.4138-3.4151L30.59,8.5654a1.999,1.999,0,0,1,2.8277,0l21.994,22.0065a2.0007,2.0007,0,0,1-1.4137,3.4151H50V52A2,2,0,0,1,48,54Z"/>
</svg>
