<svg id="Layer_1" data-name="Layer 1" xmlns="http://www.w3.org/2000/svg" width="64" height="64" viewBox="0 0 64 64"><defs><style>.cls-1{fill-rule:evenodd}</style></defs><title>Icons 100</title><path class="cls-1" d="M48 10a2 2 0 0 1 2 2v8.525a.75.75 0 0 1-1.28.53l-6.134-6.136A2 2 0 0 1 42 13.505V12a2 2 0 0 1 2-2h4zm0 44h-9a2 2 0 0 1-2-2V40a2 2 0 0 0-2-2h-6a2 2 0 0 0-2 2v12a2 2 0 0 1-2 2h-9a2 2 0 0 1-2-2V33.987h-3.99a2 2 0 0 1-1.414-3.415L30.59 8.565a1.999 1.999 0 0 1 2.828 0l21.994 22.007a2 2 0 0 1-1.414 3.415H50V52a2 2 0 0 1-2 2z"/></svg>