<svg id="Layer_1" data-name="Layer 1" xmlns="http://www.w3.org/2000/svg" width="64" height="64" viewBox="0 0 64 64">
  <defs>
    <style>
      .cls-1 {
        fill-rule: evenodd;
      }
    </style>
  </defs>
  <title>Icons 100</title>
  <path class="cls-1" d="M49,54H15a5,5,0,0,1-5-5V41.3276a20.0238,20.0238,0,0,1,.1753-2.6434l3.246-24.345A5,5,0,0,1,18.3776,10H45.6225a5,5,0,0,1,4.9561,4.3392l3.2459,24.345A19.9562,19.9562,0,0,1,54,41.3276V49A5,5,0,0,1,49,54Zm0.8135-15.1322-3.2-24A1,1,0,0,0,45.6226,14H18.3775a1,1,0,0,0-.9911.8678l-3.2,24A1,1,0,0,0,15.1776,40h7.1017a1,1,0,0,1,.9486.6838l1.5442,4.6324A1,1,0,0,0,25.7208,46H38.2793a1,1,0,0,0,.9486-0.6838l1.5442-4.6324A1,1,0,0,1,41.7208,40h7.1017A1,1,0,0,0,49.8136,38.8678Z"/>
</svg>
