<svg id="Layer_1" data-name="Layer 1" xmlns="http://www.w3.org/2000/svg" width="64" height="64" viewBox="0 0 64 64"><defs><style>.cls-1{fill-rule:evenodd}</style></defs><title>Icons 100</title><path class="cls-1" d="M49 54H15a5 5 0 0 1-5-5v-7.672a20.024 20.024 0 0 1 .175-2.644l3.246-24.345A5 5 0 0 1 18.378 10h27.245a5 5 0 0 1 4.956 4.34l3.246 24.344A19.956 19.956 0 0 1 54 41.328V49a5 5 0 0 1-5 5zm.814-15.132l-3.2-24a1 1 0 0 0-.991-.868H18.378a1 1 0 0 0-.992.868l-3.2 24A1 1 0 0 0 15.178 40h7.101a1 1 0 0 1 .949.684l1.544 4.632a1 1 0 0 0 .949.684h12.558a1 1 0 0 0 .949-.684l1.544-4.632a1 1 0 0 1 .949-.684h7.102a1 1 0 0 0 .99-1.132z"/></svg>