<svg id="Layer_1" data-name="Layer 1" xmlns="http://www.w3.org/2000/svg" width="64" height="64" viewBox="0 0 64 64"><defs><style>.cls-1{fill-rule:evenodd}</style></defs><title>Icons 200</title><path class="cls-1" d="M32 56a24 24 0 1 1 24-24 24 24 0 0 1-24 24zm0-44a20 20 0 1 0 20 20 20 20 0 0 0-20-20zm1.5 12a3.28 3.28 0 0 1-3.5-3 3.28 3.28 0 0 1 3.5-3 3.279 3.279 0 0 1 3.5 3 3.279 3.279 0 0 1-3.5 3zm1.4 8.499l-1.769 8.844a1 1 0 0 0 .426 1.028l1.863 1.242A1.303 1.303 0 0 1 34.697 46h-3.089a4.597 4.597 0 0 1-4.508-5.499l1.769-8.844a1 1 0 0 0-.426-1.029l-1.863-1.241A1.303 1.303 0 0 1 27.303 27h3.09a4.597 4.597 0 0 1 4.507 5.499z"/></svg>