<svg id="Layer_1" data-name="Layer 1" xmlns="http://www.w3.org/2000/svg" width="64" height="64" viewBox="0 0 64 64">
  <defs>
    <style>
      .cls-1 {
        fill-rule: evenodd;
      }
    </style>
  </defs>
  <title>Icons 200</title>
  <path class="cls-1" d="M32,56A24,24,0,1,1,56,32,24,24,0,0,1,32,56Zm0-44A20,20,0,1,0,52,32,20,20,0,0,0,32,12Zm1.5,12A3.2791,3.2791,0,0,1,30,21a3.2791,3.2791,0,0,1,3.5-3A3.2789,3.2789,0,0,1,37,21,3.279,3.279,0,0,1,33.5,24Zm1.4,8.499-1.769,8.8443a1.0005,1.0005,0,0,0,.426,1.0282L35.42,43.6132A1.3027,1.3027,0,0,1,34.6973,46H31.6081A4.5974,4.5974,0,0,1,27.1,40.501l1.769-8.8444a1,1,0,0,0-.4259-1.0281L26.58,29.3868A1.3028,1.3028,0,0,1,27.3028,27h3.0894A4.5973,4.5973,0,0,1,34.9,32.499Z"/>
</svg>
