<svg id="Layer_1" data-name="Layer 1" xmlns="http://www.w3.org/2000/svg" width="64" height="64" viewBox="0 0 64 64">
  <defs>
    <style>
      .cls-1 {
        fill-rule: evenodd;
      }
    </style>
  </defs>
  <title>Icons 400</title>
  <path class="cls-1" d="M53,54.0157H11a3,3,0,0,1-3-3v-17.78a1.2047,1.2047,0,0,1,1.8744-1.0016L29.2265,45.1759a4.9994,4.9994,0,0,0,5.5468,0l19.3522-12.942A1.2048,1.2048,0,0,1,56,33.2353v17.78A3,3,0,0,1,53,54.0157ZM54.6641,29.512l-4.979,3.3194A1.0839,1.0839,0,0,1,48,31.9295V25.0158a3,3,0,0,0-3-3H19a3,3,0,0,0-3,3v6.9137a1.0837,1.0837,0,0,1-1.685.9017L9.336,29.512A3,3,0,0,1,8,27.0157v-2A3,3,0,0,1,9.3359,22.52l21-14a3,3,0,0,1,3.3283,0l21,14A3,3,0,0,1,56,25.0158v2A3,3,0,0,1,54.6641,29.512Z"/>
</svg>
