<svg id="Layer_1" data-name="Layer 1" xmlns="http://www.w3.org/2000/svg" width="64" height="64" viewBox="0 0 64 64"><defs><style>.cls-1{fill-rule:evenodd}</style></defs><title>Icons 400</title><path class="cls-1" d="M53 54.016H11a3 3 0 0 1-3-3v-17.78a1.205 1.205 0 0 1 1.874-1.002l19.352 12.942a5 5 0 0 0 5.547 0l19.352-12.942A1.205 1.205 0 0 1 56 33.235v17.78a3 3 0 0 1-3 3zm1.664-24.504l-4.979 3.32A1.084 1.084 0 0 1 48 31.93v-6.914a3 3 0 0 0-3-3H19a3 3 0 0 0-3 3v6.914a1.084 1.084 0 0 1-1.685.901l-4.979-3.319A3 3 0 0 1 8 27.016v-2a3 3 0 0 1 1.336-2.496l21-14a3 3 0 0 1 3.328 0l21 14A3 3 0 0 1 56 25.016v2a3 3 0 0 1-1.336 2.496z"/></svg>