<svg id="Layer_1" data-name="Layer 1" xmlns="http://www.w3.org/2000/svg" width="64" height="64" viewBox="0 0 64 64"><defs><style>.cls-1{fill-rule:evenodd}</style></defs><title>Icons 200</title><path class="cls-1" d="M42.446 15.079c-2.727.653-4.068 2.177-4.394 4.223l-4.02 25.639a3.456 3.456 0 0 0 2.57 3.942.5.5 0 0 1 .367.56l-.18 1.134a.503.503 0 0 1-.498.423h-14.8a.501.501 0 0 1-.498-.577l.173-1.093a.502.502 0 0 1 .38-.408c2.728-.654 4.068-2.179 4.394-4.224l4.02-25.638a3.456 3.456 0 0 0-2.57-3.942.5.5 0 0 1-.367-.56l.18-1.135A.503.503 0 0 1 27.7 13h14.8a.502.502 0 0 1 .498.578l-.173 1.092a.502.502 0 0 1-.38.409z"/></svg>