<svg id="Layer_1" data-name="Layer 1" xmlns="http://www.w3.org/2000/svg" width="64" height="64" viewBox="0 0 64 64">
  <defs>
    <style>
      .cls-1 {
        fill-rule: evenodd;
      }
    </style>
  </defs>
  <title>Icons 200</title>
  <path class="cls-1" d="M42.4464,15.0786c-2.7275.6536-4.0682,2.1776-4.394,4.2233l-4.02,25.6387a3.4556,3.4556,0,0,0,2.57,3.9424,0.5,0.5,0,0,1,.3668.56l-0.1794,1.1343A0.5031,0.5031,0,0,1,36.2912,51h-14.8a0.5015,0.5015,0,0,1-.4984-0.5774L21.1661,49.33a0.5018,0.5018,0,0,1,.38-0.4085c2.7277-.6536,4.0683-2.1782,4.3941-4.2234L29.96,19.06a3.4556,3.4556,0,0,0-2.57-3.9425,0.5,0.5,0,0,1-.3668-0.56l0.1794-1.1342A0.5031,0.5031,0,0,1,27.701,13h14.8a0.5016,0.5016,0,0,1,.4982.5776L42.8261,14.67A0.5019,0.5019,0,0,1,42.4464,15.0786Z"/>
</svg>
