<svg id="Layer_1" data-name="Layer 1" xmlns="http://www.w3.org/2000/svg" width="64" height="64" viewBox="0 0 64 64"><defs><style>.cls-1{fill-rule:evenodd}</style></defs><title>Icons 100</title><path class="cls-1" d="M52 22H12a2 2 0 0 1-2-2v-4a2 2 0 0 1 2-2h40a2 2 0 0 1 2 2v4a2 2 0 0 1-2 2zm-2.01 2a1.001 1.001 0 0 1 1.001 1.067L49.243 51.2A3.006 3.006 0 0 1 46.24 54H17.76a3.006 3.006 0 0 1-3.003-2.8l-1.748-26.134A1.001 1.001 0 0 1 14.01 24h35.98zM24.606 43.568a2.001 2.001 0 1 0 2.829 2.83l4.58-4.584 4.582 4.584a2.001 2.001 0 1 0 2.829-2.83l-4.581-4.585 4.593-4.596a2.001 2.001 0 1 0-2.83-2.832l-4.592 4.597-4.593-4.597a2.001 2.001 0 1 0-2.83 2.831l4.594 4.597z"/></svg>