<svg id="Layer_1" data-name="Layer 1" xmlns="http://www.w3.org/2000/svg" width="64" height="64" viewBox="0 0 64 64">
  <defs>
    <style>
      .cls-1 {
        fill-rule: evenodd;
      }
    </style>
  </defs>
  <title>Icons 100</title>
  <path class="cls-1" d="M52,22H12a2,2,0,0,1-2-2V16a2,2,0,0,1,2-2H52a2,2,0,0,1,2,2v4A2,2,0,0,1,52,22Zm-2.01,2a1.0014,1.0014,0,0,1,1.0011,1.0665L49.2434,51.2A3.0055,3.0055,0,0,1,46.24,54H17.76a3.0057,3.0057,0,0,1-3.0032-2.8L13.0087,25.0665A1.0014,1.0014,0,0,1,14.01,24H49.99ZM24.6058,43.5675a2.0011,2.0011,0,1,0,2.8289,2.8309l4.5809-4.5843,4.581,4.5843a2.0011,2.0011,0,1,0,2.8289-2.8309l-4.5809-4.5844,4.5932-4.5966a2.0011,2.0011,0,1,0-2.8289-2.8311l-4.5933,4.5967-4.5931-4.5967a2.001,2.001,0,1,0-2.8287,2.8311l4.593,4.5966Z"/>
</svg>
