<svg id="Layer_1" data-name="Layer 1" xmlns="http://www.w3.org/2000/svg" width="64" height="64" viewBox="0 0 64 64"><defs><style>.cls-1{fill-rule:evenodd}</style></defs><title>Icons 100</title><path class="cls-1" d="M13.414 53.414l-2.828-2.828A2 2 0 0 1 10 49.172v-2.343a2 2 0 0 1 .586-1.414l17.12-17.12a.999.999 0 0 0 .292-.707V23.39a13.252 13.252 0 0 1 13.005-13.386 13 13 0 0 1 12.994 12.993 13.252 13.252 0 0 1-13.386 13.005h-6.198a1 1 0 0 0-.707.293l-1.414 1.414a1 1 0 0 0-.293.707v2.172a1 1 0 0 1-.293.707l-1.414 1.414a1 1 0 0 1-.708.293h-1.17a1 1 0 0 0-.708.293l-1.414 1.414a1 1 0 0 0-.293.707v1.171a1 1 0 0 1-.293.708l-1.414 1.414a1 1 0 0 1-.707.292h-2.171a1 1 0 0 0-.708.293l-1.414 1.414a1 1 0 0 0-.293.707v1.172a1 1 0 0 1-.293.707l-.414.414a.999.999 0 0 1-.707.293h-2.757a2 2 0 0 1-1.414-.586zm31.584-31.412a3 3 0 1 0-3-3 3 3 0 0 0 3 3zm-30.285 26.7L30.705 32.71a1 1 0 0 0-1.414-1.414L13.299 47.288a1 1 0 1 0 1.414 1.414z"/></svg>