<svg id="Layer_1" data-name="Layer 1" xmlns="http://www.w3.org/2000/svg" width="64" height="64" viewBox="0 0 64 64">
  <defs>
    <style>
      .cls-1 {
        fill-rule: evenodd;
      }
    </style>
  </defs>
  <title>Icons 100</title>
  <path class="cls-1" d="M53,48H11a5,5,0,0,1-5-5V21a5,5,0,0,1,5-5H53a5,5,0,0,1,5,5V43A5,5,0,0,1,53,48ZM18,43a1,1,0,0,0,1,1H45a1,1,0,0,0,1-1V40a1,1,0,0,0-1-1H19a1,1,0,0,0-1,1v3Zm-8,0a1,1,0,0,0,1,1h4a1,1,0,0,0,1-1V40a1,1,0,0,0-1-1H11a1,1,0,0,0-1,1v3Zm8-19a1,1,0,0,0-1-1H11a1,1,0,0,0-1,1v3a1,1,0,0,0,1,1h6a1,1,0,0,0,1-1V24Zm1,7H11a1,1,0,0,0-1,1v3a1,1,0,0,0,1,1h8a1,1,0,0,0,1-1V32A1,1,0,0,0,19,31Zm7-7a1,1,0,0,0-1-1H21a1,1,0,0,0-1,1v3a1,1,0,0,0,1,1h4a1,1,0,0,0,1-1V24Zm1,7H23a1,1,0,0,0-1,1v3a1,1,0,0,0,1,1h4a1,1,0,0,0,1-1V32A1,1,0,0,0,27,31Zm7-7a1,1,0,0,0-1-1H29a1,1,0,0,0-1,1v3a1,1,0,0,0,1,1h4a1,1,0,0,0,1-1V24Zm1,7H31a1,1,0,0,0-1,1v3a1,1,0,0,0,1,1h4a1,1,0,0,0,1-1V32A1,1,0,0,0,35,31Zm7-7a1,1,0,0,0-1-1H37a1,1,0,0,0-1,1v3a1,1,0,0,0,1,1h4a1,1,0,0,0,1-1V24Zm1,7H39a1,1,0,0,0-1,1v3a1,1,0,0,0,1,1h4a1,1,0,0,0,1-1V32A1,1,0,0,0,43,31Zm11-7a1,1,0,0,0-1-1H45a1,1,0,0,0-1,1v3a1,1,0,0,0,1,1h8a1,1,0,0,0,1-1V24Zm0,8a1,1,0,0,0-1-1H47a1,1,0,0,0-1,1v3a1,1,0,0,0,1,1h6a1,1,0,0,0,1-1V32Zm0,8a1,1,0,0,0-1-1H49a1,1,0,0,0-1,1v3a1,1,0,0,0,1,1h4a1,1,0,0,0,1-1V40Z"/>
</svg>
