<svg id="Layer_1" data-name="Layer 1" xmlns="http://www.w3.org/2000/svg" width="64" height="64" viewBox="0 0 64 64"><defs><style>.cls-1{fill-rule:evenodd}</style></defs><title>Icons 100</title><path class="cls-1" d="M40 17a2 2 0 0 1 2-2h8a2 2 0 0 1 2 2v6a2 2 0 0 1-2 2h-8a2 2 0 0 1-2-2v-6zm2 22h8a2 2 0 0 1 2 2v6a2 2 0 0 1-2 2h-8a2 2 0 0 1-2-2v-6a2 2 0 0 1 2-2zm-2-10a2 2 0 0 1 2-2h8a2 2 0 0 1 2 2v6a2 2 0 0 1-2 2h-8a2 2 0 0 1-2-2v-6zM26 17a2 2 0 0 1 2-2h8a2 2 0 0 1 2 2v6a2 2 0 0 1-2 2h-8a2 2 0 0 1-2-2v-6zm2 22h8a2 2 0 0 1 2 2v6a2 2 0 0 1-2 2h-8a2 2 0 0 1-2-2v-6a2 2 0 0 1 2-2zm-2-10a2 2 0 0 1 2-2h8a2 2 0 0 1 2 2v6a2 2 0 0 1-2 2h-8a2 2 0 0 1-2-2v-6zM12 17a2 2 0 0 1 2-2h8a2 2 0 0 1 2 2v6a2 2 0 0 1-2 2h-8a2 2 0 0 1-2-2v-6zm2 22h8a2 2 0 0 1 2 2v6a2 2 0 0 1-2 2h-8a2 2 0 0 1-2-2v-6a2 2 0 0 1 2-2zm-2-10a2 2 0 0 1 2-2h8a2 2 0 0 1 2 2v6a2 2 0 0 1-2 2h-8a2 2 0 0 1-2-2v-6z"/></svg>