<svg id="Layer_1" data-name="Layer 1" xmlns="http://www.w3.org/2000/svg" width="64" height="64" viewBox="0 0 64 64">
  <defs>
    <style>
      .cls-1 {
        fill-rule: evenodd;
      }
    </style>
  </defs>
  <title>Icons 400</title>
  <path class="cls-1" d="M-37.9843,26.383V12.0157a2,2,0,0,0-2-2,2,2,0,0,0-2,2V26.383a5.9826,5.9826,0,0,0-4,5.6326,5.9825,5.9825,0,0,0,4,5.6327V52.0156a2,2,0,0,0,2,2,2,2,0,0,0,2-2V37.6483a5.9824,5.9824,0,0,0,4-5.6327A5.9825,5.9825,0,0,0-37.9843,26.383Zm-16-10V12.0157a2,2,0,0,0-2-2,2,2,0,0,0-2,2V16.383a5.9826,5.9826,0,0,0-4,5.6328,5.9826,5.9826,0,0,0,4,5.6326V52.0156a2,2,0,0,0,2,2,2,2,0,0,0,2-2V27.6483a5.9825,5.9825,0,0,0,4-5.6326A5.9825,5.9825,0,0,0-53.9843,16.383Zm-16,20V12.0157a2,2,0,0,0-2-2,2,2,0,0,0-2,2V36.383a5.9825,5.9825,0,0,0-4,5.6326,5.9826,5.9826,0,0,0,4,5.6327v4.3673a2,2,0,0,0,2,2,2,2,0,0,0,2-2V47.6483a5.9825,5.9825,0,0,0,4-5.6327A5.9824,5.9824,0,0,0-69.9843,36.383Zm119-26.3674h-32a6,6,0,0,0-6,6v32a6,6,0,0,0,6,6h32a6,6,0,0,0,6-6v-32A6,6,0,0,0,49.0157,10.0156ZM35.1783,27.2822l6.8154-11.6986a1.1818,1.1818,0,0,1,2.0357,0l6.8154,11.6986a1.1658,1.1658,0,0,1-1.0178,1.7465H36.196A1.1657,1.1657,0,0,1,35.1783,27.2822ZM16.0156,17.0156a2,2,0,0,1,2-2h10a2,2,0,0,1,2,2v10a2,2,0,0,1-2,2h-10a2,2,0,0,1-2-2ZM32.0367,40.0569,27.54,43.2835l1.7256,5.2319a1.1452,1.1452,0,0,1-1.7647,1.2717l-4.4841-3.2443-4.4845,3.2443a1.1448,1.1448,0,0,1-1.7641-1.2717l1.7256-5.2319-4.4969-3.2266A1.1361,1.1361,0,0,1,14.6685,38l5.5532.0106,1.7048-5.2385a1.15,1.15,0,0,1,2.1809,0L25.8123,38.01,31.3649,38A1.1358,1.1358,0,0,1,32.0367,40.0569Zm10.9789,9.9587a8,8,0,1,1,8-8A8,8,0,0,1,43.0157,50.0156Zm86.5858-3.4142a2,2,0,0,0-1.4142-.5858H111.8441a2,2,0,0,0-1.4142.5858L105.6014,51.43a2,2,0,0,0-.5858,1.4143v2.1715a1,1,0,0,0,1,1h28a1,1,0,0,0,1-1V52.8441A2,2,0,0,0,134.43,51.43ZM124.035,30.0156h-8.07a1.0472,1.0472,0,0,0-.9993,1.0486A40.9527,40.9527,0,0,1,112.0787,42.87a.8.8,0,0,0,.6636,1.1461h14.4868a.8.8,0,0,0,.6885-1.1461,39.822,39.822,0,0,1-2.8831-11.8053A1.0474,1.0474,0,0,0,124.035,30.0156Zm-12.0193-2h16a1,1,0,0,0,1-1v-.5a1,1,0,0,0-.5528-.8945L126.18,24.48a.4955.4955,0,0,1-.1224-.8057,9,9,0,1,0-12.0838,0,.4955.4955,0,0,1-.1224.8057l-2.2829,1.1414a1,1,0,0,0-.5528.8945v.5A1,1,0,0,0,112.0157,28.0156ZM217.6014,46.6014a2,2,0,0,0-1.4142-.5858H199.8441a2,2,0,0,0-1.4142.5858L193.6014,51.43a2,2,0,0,0-.5858,1.4143v2.1715a1,1,0,0,0,1,1h28a1,1,0,0,0,1-1V52.8441A2,2,0,0,0,222.43,51.43Zm4.4142-36.5858h-4.2192a1,1,0,0,0-.97.7575l-.6212,2.485a1,1,0,0,1-.97.7575h-2.4384a1,1,0,0,1-.97-.7575l-.6211-2.485a1,1,0,0,0-.97-.7575h-4.4384a1,1,0,0,0-.97.7575l-.6212,2.485a1,1,0,0,1-.97.7575h-2.4384a1,1,0,0,1-.97-.7575l-.6212-2.485a1,1,0,0,0-.97-.7575h-4.2192a1,1,0,0,0-1,1v6.1716a2,2,0,0,0,.5858,1.4142L198.43,23.43a2,2,0,0,0,1.4142.5858h16.3432a2,2,0,0,0,1.4142-.5858l4.8284-4.8284a2,2,0,0,0,.5858-1.4142V11.0156A1,1,0,0,0,222.0157,10.0156Zm-6,34a1,1,0,0,0,1-1v-16a1,1,0,0,0-1-1h-16a1,1,0,0,0-1,1v16a1,1,0,0,0,1,1ZM296.9539,8.1912a15.6673,15.6673,0,0,1,3.2583.7633.9476.9476,0,0,0,1.0613-.2538,10.9644,10.9644,0,0,1,1.8105-1.5978.3648.3648,0,0,0-.1083-.64,9.555,9.555,0,0,0-2.7619-.4479,7.2644,7.2644,0,0,0-3.83.9625C295.9122,7.3032,295.7653,8.0189,296.9539,8.1912Zm-14.9525,22.56c.679-.3389.764-.381,1.1516-.5746a2.0028,2.0028,0,0,0,.8961-.8941c.1938-.3868.4377-.9981.4377-.9981a.4984.4984,0,0,1,.446-.2764c1.4409,0,8.5317,0,10.3167,0a.3706.3706,0,0,1,.348.4809c-2.103,6.6615-8.0771,7.4528-9.5349,14.6057a.7518.7518,0,0,0,.7265.9152c3.0483,0,14.8432,0,18.0683,0a1.2541,1.2541,0,0,0,1.2238-1.0043c1.2076-5.784,3.9546-9.8221,3.9546-16.99A16.957,16.957,0,0,0,306,15.2013a.4775.4775,0,0,1-.0939-.4695c.6686-1.9618,1.4284-4.6861,1.0436-6.0386a1.1182,1.1182,0,0,0-1.2531-.6631c-1.2342.3115-2.6278,1.8616-3.7238,3.35a.4892.4892,0,0,1-.6222.144,13.8093,13.8093,0,0,0-6.2967-1.5078c-3.4364,0-5.0223,4.3685-7.5825,5.9975-2.8911,1.84-6.9971,4.4283-8.4846,5.3787a5.0493,5.0493,0,0,0-2.3587,2.9337l-.5709,2.2776a1.2491,1.2491,0,0,0,.4638,1.3035s2.7732,2.2,3.3807,2.655A2.0079,2.0079,0,0,0,282.0013,30.7508ZM308.915,10.76a21.5309,21.5309,0,0,1-.8481,3.454.9835.9835,0,0,0,.1574.872,18.64,18.64,0,0,1,3.8093,10.927c0,7.2066-2.6406,11.8-4.0047,17.0685a.7476.7476,0,0,0,.7325.9209h2.271a1.2325,1.2325,0,0,0,1.1874-.87c1.31-4.4114,3.8139-9.2365,3.8139-17.1192a21.6875,21.6875,0,0,0-6.5016-15.49A.3685.3685,0,0,0,308.915,10.76Zm-2.2434,35.8416a2,2,0,0,0-1.4142-.5857H286.9156a1.9991,1.9991,0,0,0-1.4141.5857L280.6738,51.43a2,2,0,0,0-.5858,1.4142v2.1715a1,1,0,0,0,1,1h29.9972a1,1,0,0,0,1-1V52.8443a1.9994,1.9994,0,0,0-.5857-1.4142Zm69.1168-2.5852h16.485a1.0081,1.0081,0,0,0,.9586-.7319c1.37-4.5192,4.8-9.9968,4.8-16.2686,0-4.7128-3.1171-9.3076-7.7655-11.5571a.5017.5017,0,0,0-.6972.35,29.4692,29.4692,0,0,1-2.1351,5.6348c-1.24,2.6738-2.4114,5.2-2.4114,8.589a.9984.9984,0,0,1-1.9968,0c0-3.8281,1.32-6.6742,2.5962-9.4261,1.24-2.6738,2.4092-5.2013,2.4092-8.5907a4,4,0,0,0-8.0005,0,3.8966,3.8966,0,0,0,.25,1.3743.995.995,0,0,1-.6056,1.3155c-5.6693,1.8117-9.6449,6.9872-9.6449,12.3105,0,6.2718,3.43,11.7494,4.8,16.2686A1.008,1.008,0,0,0,375.7884,44.0165Zm17.813,2.5849a2,2,0,0,0-1.4142-.5858H375.8441a2,2,0,0,0-1.4142.5858L369.6014,51.43a2,2,0,0,0-.5857,1.4143v2.1715a1,1,0,0,0,1,1h28a1,1,0,0,0,1-1V52.8441A2,2,0,0,0,398.43,51.43Zm77.368-30.2972a1.1067,1.1067,0,0,0,2.0575,0l2.7021-6.7766a4.04,4.04,0,0,0-.89-4.3472h0a4.0094,4.0094,0,0,0-5.6826,0h0a4.04,4.04,0,0,0-.89,4.3472Zm13.6271,30.2932a2.0014,2.0014,0,0,0-1.4148-.5859h-22.35a2.0014,2.0014,0,0,0-1.4148.5859l-4.83,4.8292A2,2,0,0,0,454,52.8409v2.172a1,1,0,0,0,1,1h34.0114a1,1,0,0,0,1-1v-2.172a2,2,0,0,0-.586-1.4144Zm-2.0809-32.5817a11.4872,11.4872,0,0,0-10.0714,5.9617.4906.4906,0,0,1-.8574,0,11.4954,11.4954,0,0,0-21.5713,5.5383c0,9.5227,10,11.3647,10,17.5a1,1,0,0,0,1,1h22a1,1,0,0,0,1-1c0-6.1353,10-7.9773,10-17.5A11.5,11.5,0,0,0,482.5157,14.0156Zm-15.21,21.98a.9369.9369,0,0,1-1.1006-.6c-1.3836-4.197-2.6835-5.9525-3.8733-7.2885a1.2269,1.2269,0,0,1,.1468-1.7866,1.4053,1.4053,0,0,1,1.9635.1946,18.9237,18.9237,0,0,1,3.5592,8.4713A.8732.8732,0,0,1,467.3054,35.9953ZM481.7,28.107c-1.19,1.336-2.49,3.0914-3.8734,7.2885a.9368.9368,0,0,1-1.1006.6.8733.8733,0,0,1-.6956-1.009,18.9235,18.9235,0,0,1,3.5591-8.4713,1.4054,1.4054,0,0,1,1.9636-.1946A1.2269,1.2269,0,0,1,481.7,28.107Zm98.3158-10.0909a4,4,0,0,0-4,4,3.94,3.94,0,0,0,.43,1.787.5092.5092,0,0,1-.1.6158l-6.5578,5.9023a.5.5,0,0,1-.8336-.3423L568.26,18.1674a.5029.5029,0,0,1,.3189-.489,3.9819,3.9819,0,1,0-4.1036-.5733.5091.5091,0,0,1,.1675.572l-4.1589,11.0912a.5.5,0,0,1-.9365,0l-4.1588-11.0912a.5091.5091,0,0,1,.1675-.572,4.0131,4.0131,0,1,0-4.1036.5733.5031.5031,0,0,1,.319.489l-.6947,11.8117a.5.5,0,0,1-.8337.3423l-6.5578-5.9023a.5092.5092,0,0,1-.1-.6158,3.94,3.94,0,0,0,.43-1.787,4,4,0,1,0-4.0612,3.9826.5024.5024,0,0,1,.4662.296l7.2054,16.8135a1.5,1.5,0,0,0,1.3787.9091h22.0218a1.5,1.5,0,0,0,1.3787-.9091l7.2054-16.8136a.5026.5026,0,0,1,.4662-.2959,3.9916,3.9916,0,0,0-.0612-7.9828Zm-7.4191,28.5832a2.0016,2.0016,0,0,0-1.4146-.5859H548.8312a2.0016,2.0016,0,0,0-1.4147.5859l-4.83,4.8294A2,2,0,0,0,542,52.8432v2.1722a1,1,0,0,0,1,1h34.0114a1,1,0,0,0,1-1V52.8432a2,2,0,0,0-.586-1.4145Z"/>
</svg>
