<svg id="Layer_1" data-name="Layer 1" xmlns="http://www.w3.org/2000/svg" width="64" height="64" viewBox="0 0 64 64"><defs><style>.cls-1{fill-rule:evenodd}</style></defs><title>Icons 300</title><path class="cls-1" d="M11.342 20.3l18.844-9.903a4.343 4.343 0 0 1 3.597 0L52.627 20.3c1.795.944 1.795 2.488 0 3.432l-18.844 9.903a4.343 4.343 0 0 1-3.597 0l-18.844-9.903c-1.795-.944-1.795-2.488 0-3.432zm0 20l3.164-1.663a2 2 0 0 1 1.86 0l12.905 6.775a6.331 6.331 0 0 0 5.46 0l12.889-6.766a2 2 0 0 1 1.86 0l3.147 1.654c1.795.944 1.795 2.488 0 3.431l-18.844 9.904a4.343 4.343 0 0 1-3.597 0l-18.844-9.903c-1.795-.944-1.795-2.488 0-3.432zm0-10l3.164-1.663a2 2 0 0 1 1.86 0l12.905 6.776a6.331 6.331 0 0 0 5.46 0l12.889-6.767a2 2 0 0 1 1.86 0l3.147 1.654c1.795.944 1.795 2.488 0 3.431l-18.844 9.904a4.343 4.343 0 0 1-3.597 0l-18.844-9.903c-1.795-.944-1.795-2.488 0-3.432z"/></svg>