<svg id="Layer_1" data-name="Layer 1" xmlns="http://www.w3.org/2000/svg" width="64" height="64" viewBox="0 0 64 64">
  <defs>
    <style>
      .cls-1 {
        fill-rule: evenodd;
      }
    </style>
  </defs>
  <title>Icons 300</title>
  <path class="cls-1" d="M11.3421,20.3l18.8436-9.9033a4.3434,4.3434,0,0,1,3.5973,0L52.6266,20.3c1.7955.9436,1.7955,2.4878,0,3.4315L33.783,33.6348a4.3434,4.3434,0,0,1-3.5973,0L11.3421,23.7316C9.5467,22.7879,9.5467,21.2437,11.3421,20.3Zm0,20,3.1635-1.6628a2,2,0,0,1,1.86,0l12.9058,6.7753a6.3312,6.3312,0,0,0,5.46,0L47.62,38.6459a2,2,0,0,1,1.86.0005L52.6266,40.3c1.7956.9436,1.7955,2.4878,0,3.4314L33.783,53.6348a4.3434,4.3434,0,0,1-3.5973,0L11.3421,43.7316C9.5467,42.788,9.5467,41.2438,11.3421,40.3Zm0-10,3.1635-1.6628a2,2,0,0,1,1.86,0l12.9058,6.7754a6.3312,6.3312,0,0,0,5.46,0L47.62,28.6459a2,2,0,0,1,1.86,0L52.6266,30.3c1.7956.9436,1.7955,2.4878,0,3.4314L33.783,43.6348a4.3434,4.3434,0,0,1-3.5973,0L11.3421,33.7316C9.5467,32.788,9.5467,31.2438,11.3421,30.3Z"/>
</svg>
