<svg id="Layer_1" data-name="Layer 1" xmlns="http://www.w3.org/2000/svg" width="64" height="64" viewBox="0 0 64 64">
  <defs>
    <style>
      .cls-1 {
        fill-rule: evenodd;
      }
    </style>
  </defs>
  <title>Icons 300</title>
  <path class="cls-1" d="M25.0157,56.0156a15.6959,15.6959,0,0,1-5.344-.9426,1.0038,1.0038,0,0,1-.5551-1.409,279.28,279.28,0,0,1,15.81-25.8558.506.506,0,0,0-.7328-.6834c-8.96,7.6078-15.6279,17.3095-19.1735,23.3879a.9744.9744,0,0,1-1.6056.1228,15.2465,15.2465,0,0,1-3.3993-9.62c0-23.6576,27.7549-31.1651,38.8281-33.0046a1.4718,1.4718,0,0,1,1.6427,1.0044c.5911,1.7914,1.5292,5.9068,1.5292,13C52.0157,40.5164,40.5054,56.0156,25.0157,56.0156Z"/>
</svg>
