<svg id="Layer_1" data-name="Layer 1" xmlns="http://www.w3.org/2000/svg" width="64" height="64" viewBox="0 0 64 64"><defs><style>.cls-1{fill-rule:evenodd}</style></defs><title>Icons 300</title><path class="cls-1" d="M25.016 56.016a15.696 15.696 0 0 1-5.344-.943 1.004 1.004 0 0 1-.555-1.409 279.28 279.28 0 0 1 15.81-25.856.506.506 0 0 0-.733-.683c-8.96 7.608-15.628 17.31-19.174 23.388a.974.974 0 0 1-1.605.123 15.246 15.246 0 0 1-3.4-9.62c0-23.658 27.755-31.166 38.829-33.005a1.472 1.472 0 0 1 1.642 1.004c.591 1.792 1.53 5.907 1.53 13 0 18.501-11.51 34-27 34z"/></svg>