<svg id="Layer_1" data-name="Layer 1" xmlns="http://www.w3.org/2000/svg" width="64" height="64" viewBox="0 0 64 64">
  <defs>
    <style>
      .cls-1 {
        fill-rule: evenodd;
      }
    </style>
  </defs>
  <title>Icons 300</title>
  <path class="cls-1" d="M30.976,8.3046a1.9949,1.9949,0,0,1,2.08,0L55.2938,21.8819a1.5073,1.5073,0,0,1,.7219,1.2866v1.8488a1.0031,1.0031,0,0,1-1.0033,1.003H52.0157a1,1,0,0,0-1,1V45.2025a1,1,0,0,0,.4789.8533l3.7992,2.3195a1.5072,1.5072,0,0,1,.7219,1.2865V53.01a1.0035,1.0035,0,0,1-1.0036,1.0034H9.0157a1,1,0,0,1-1-1v-3.354a1.5035,1.5035,0,0,1,.72-1.2832l3.8011-2.3207a1,1,0,0,0,.4788-.8531V27.02a1,1,0,0,0-1-1h-3a1,1,0,0,1-1-1V23.166a1.5031,1.5031,0,0,1,.72-1.2829Zm9.04,36.7026a1,1,0,0,0,1,1h4a1,1,0,0,0,1-1V27.02a1,1,0,0,0-1-1h-4a1,1,0,0,0-1,1Zm-11,0a1,1,0,0,0,1,1h4a1,1,0,0,0,1-1V27.02a1,1,0,0,0-1-1h-4a1,1,0,0,0-1,1Zm3-23.9938a2.9993,2.9993,0,1,0-3-2.9993A3,3,0,0,0,32.0158,21.0134Zm-14,23.9938a1,1,0,0,0,1,1h4a1,1,0,0,0,1-1V27.02a1,1,0,0,0-1-1h-4a1,1,0,0,0-1,1Z"/>
</svg>
