<svg id="Layer_1" data-name="Layer 1" xmlns="http://www.w3.org/2000/svg" width="64" height="64" viewBox="0 0 64 64"><defs><style>.cls-1{fill-rule:evenodd}</style></defs><title>Icons 300</title><path class="cls-1" d="M30.976 8.305a1.995 1.995 0 0 1 2.08 0l22.238 13.577a1.507 1.507 0 0 1 .722 1.287v1.848a1.003 1.003 0 0 1-1.004 1.003h-2.996a1 1 0 0 0-1 1v18.183a1 1 0 0 0 .479.853l3.799 2.32a1.507 1.507 0 0 1 .722 1.286v3.348a1.004 1.004 0 0 1-1.004 1.003H9.016a1 1 0 0 1-1-1V49.66a1.504 1.504 0 0 1 .72-1.283l3.8-2.32a1 1 0 0 0 .48-.854V27.02a1 1 0 0 0-1-1h-3a1 1 0 0 1-1-1v-1.854a1.503 1.503 0 0 1 .72-1.283zm9.04 36.702a1 1 0 0 0 1 1h4a1 1 0 0 0 1-1V27.02a1 1 0 0 0-1-1h-4a1 1 0 0 0-1 1zm-11 0a1 1 0 0 0 1 1h4a1 1 0 0 0 1-1V27.02a1 1 0 0 0-1-1h-4a1 1 0 0 0-1 1zm3-23.994a3 3 0 1 0-3-2.999 3 3 0 0 0 3 3zm-14 23.994a1 1 0 0 0 1 1h4a1 1 0 0 0 1-1V27.02a1 1 0 0 0-1-1h-4a1 1 0 0 0-1 1z"/></svg>