<svg id="Layer_1" data-name="Layer 1" xmlns="http://www.w3.org/2000/svg" width="64" height="64" viewBox="0 0 64 64">
  <defs>
    <style>
      .cls-1 {
        fill-rule: evenodd;
      }
    </style>
  </defs>
  <title>Icons 300</title>
  <path class="cls-1" d="M39.2731,40.5926c-.5818,1.99-1.0555,3.4215-3.07,3.4215H27.852c-2.0148,0-2.4884-1.4317-3.07-3.4215-1.9425-6.6425-7.6743-8.8461-7.75-17.4261a14.997,14.997,0,1,1,29.9925,0C46.9475,31.7465,41.2157,33.95,39.2731,40.5926ZM27.024,46.0143H37.0308a2,2,0,0,1,0,4.0008H27.024a2,2,0,0,1,0-4.0008Zm1.1709,6.001H35.86a1.1713,1.1713,0,0,1,1.1709,1.1717,2.0007,2.0007,0,0,1-.5856,1.4146l-.8277.8285a1.9984,1.9984,0,0,1-1.4133.5858H29.8508a1.9981,1.9981,0,0,1-1.4134-.5858l-.8278-.8285a2.002,2.002,0,0,1-.5856-1.4146A1.1714,1.1714,0,0,1,28.1949,52.0153Z"/>
</svg>
