<svg id="Layer_1" data-name="Layer 1" xmlns="http://www.w3.org/2000/svg" width="64" height="64" viewBox="0 0 64 64"><defs><style>.cls-1{fill-rule:evenodd}</style></defs><title>Icons 300</title><path class="cls-1" d="M39.273 40.593c-.582 1.99-1.055 3.421-3.07 3.421h-8.351c-2.015 0-2.488-1.432-3.07-3.421-1.942-6.643-7.674-8.847-7.75-17.427a14.997 14.997 0 1 1 29.992 0c-.077 8.58-5.808 10.784-7.75 17.427zm-12.249 5.421h10.007a2 2 0 0 1 0 4.001H27.024a2 2 0 0 1 0-4zm1.17 6.001h7.666a1.171 1.171 0 0 1 1.17 1.172 2 2 0 0 1-.585 1.415l-.827.828a1.998 1.998 0 0 1-1.414.586h-4.353a1.998 1.998 0 0 1-1.414-.586l-.827-.828a2.002 2.002 0 0 1-.586-1.415 1.171 1.171 0 0 1 1.17-1.172z"/></svg>