<svg id="Layer_1" data-name="Layer 1" xmlns="http://www.w3.org/2000/svg" width="64" height="64" viewBox="0 0 64 64">
  <defs>
    <style>
      .cls-1 {
        fill-rule: evenodd;
      }
    </style>
  </defs>
  <title>Icons 200</title>
  <path class="cls-1" d="M23.981,33.9895a9.9727,9.9727,0,0,1-7.0733-2.93l-4.0011-4.002a10.0042,10.0042,0,0,1,14.1465-14.15L31.0542,16.91a10.0107,10.0107,0,0,1,1.797,11.7026L35.3585,31.12a10.0051,10.0051,0,0,1,11.7,1.7972L51.06,36.92a10.0043,10.0043,0,1,1-14.1466,14.15l-4.0011-4.002a10.0119,10.0119,0,0,1-1.7969-11.7027l-2.5076-2.5081A9.9994,9.9994,0,0,1,23.981,33.9895Zm12.4683,9.54,4.0009,4.002a5.0015,5.0015,0,0,0,7.0724-7.0739l-4.0011-4.002a4.9738,4.9738,0,0,0-4.2278-1.3992l3.8136,3.8146a3.0008,3.0008,0,1,1-4.2434,4.2442L35.05,39.3007A4.9765,4.9765,0,0,0,36.4493,43.5295ZM27.5174,20.4472l-4.0009-4.0019A5.002,5.002,0,0,0,16.4433,23.52l4.0011,4.002a4.7466,4.7466,0,0,0,4.2283,1.3989l-3.8136-3.8146a3.0008,3.0008,0,0,1,4.2432-4.2443l3.8137,3.8147A4.9782,4.9782,0,0,0,27.5174,20.4472Z"/>
</svg>
