<svg id="Layer_1" data-name="Layer 1" xmlns="http://www.w3.org/2000/svg" width="64" height="64" viewBox="0 0 64 64"><defs><style>.cls-1{fill-rule:evenodd}</style></defs><title>Icons 200</title><path class="cls-1" d="M23.981 33.99a9.973 9.973 0 0 1-7.073-2.93l-4.001-4.002a10.004 10.004 0 0 1 14.146-14.15l4.001 4.002a10.01 10.01 0 0 1 1.797 11.703l2.508 2.507a10.005 10.005 0 0 1 11.7 1.797l4.001 4.003a10.004 10.004 0 1 1-14.147 14.15l-4-4.002a10.012 10.012 0 0 1-1.798-11.703l-2.507-2.508a10 10 0 0 1-4.627 1.133zm12.468 9.54l4.001 4.001a5.002 5.002 0 0 0 7.073-7.073l-4.001-4.002a4.974 4.974 0 0 0-4.228-1.4l3.813 3.815a3 3 0 1 1-4.243 4.244l-3.814-3.814a4.976 4.976 0 0 0 1.4 4.228zm-8.932-23.083l-4-4.002a5.002 5.002 0 0 0-7.074 7.075l4.001 4.002a4.747 4.747 0 0 0 4.229 1.399l-3.814-3.815a3 3 0 0 1 4.243-4.244l3.814 3.815a4.978 4.978 0 0 0-1.399-4.23z"/></svg>