<svg id="Layer_1" data-name="Layer 1" xmlns="http://www.w3.org/2000/svg" width="64" height="64" viewBox="0 0 64 64"><defs><style>.cls-1{fill-rule:evenodd}</style></defs><title>Icons 100</title><path class="cls-1" d="M48 49H26a2 2 0 0 1 0-4h22a2 2 0 0 1 0 4zm0-10H26a2 2 0 0 1 0-4h22a2 2 0 0 1 0 4zm0-10H26a2 2 0 0 1-2-2 2 2 0 0 1 2-2h22a2 2 0 0 1 2 2 2 2 0 0 1-2 2zm0-10H26a2 2 0 0 1 0-4h22a2 2 0 0 1 0 4zm-34 7a2 2 0 0 1 2-2h2a2 2 0 0 1 2 2v2a2 2 0 0 1-2 2h-2a2 2 0 0 1-2-2v-2zm2 18h2a2 2 0 0 1 2 2v2a2 2 0 0 1-2 2h-2a2 2 0 0 1-2-2v-2a2 2 0 0 1 2-2zm-2-8a2 2 0 0 1 2-2h2a2 2 0 0 1 2 2v2a2 2 0 0 1-2 2h-2a2 2 0 0 1-2-2v-2zm6-18a2 2 0 0 1-2 2h-2a2 2 0 0 1-2-2v-2a2 2 0 0 1 2-2h2a2 2 0 0 1 2 2v2z"/></svg>