<svg id="Layer_1" data-name="Layer 1" xmlns="http://www.w3.org/2000/svg" width="64" height="64" viewBox="0 0 64 64">
  <defs>
    <style>
      .cls-1 {
        fill-rule: evenodd;
      }
    </style>
  </defs>
  <title>Icons 100</title>
  <path class="cls-1" d="M44,30h1a4.1767,4.1767,0,0,1,4,4.3332V51.6667A4.1767,4.1767,0,0,1,45,56H19a4.1768,4.1768,0,0,1-4-4.3333V34.3333A4.1767,4.1767,0,0,1,19,30h1V22.9953c0-4.0306.8463-6.3789,2.7289-8.262s4.2294-2.73,8.2584-2.73h2.0253c4.0289,0,6.3759.8468,8.2585,2.73S44,18.9647,44,22.9953V30ZM40,22.997c0-2.5649-.5387-4.0592-1.7366-5.2576s-2.6914-1.7372-5.2553-1.7372H30.9921c-2.564,0-4.0576.5388-5.2554,1.7372S24,20.4321,24,22.997V30H40V22.997Z"/>
</svg>
