<svg id="Layer_1" data-name="Layer 1" xmlns="http://www.w3.org/2000/svg" width="64" height="64" viewBox="0 0 64 64">
  <defs>
    <style>
      .cls-1 {
        fill-rule: evenodd;
      }
    </style>
  </defs>
  <title>Icons 400</title>
  <path class="cls-1" d="M56.0169,40.8283v1.1841a2.0009,2.0009,0,0,1-2.0008,2.001v4.0018a1.0353,1.0353,0,0,1-1.0671,1h-1.53a1.0835,1.0835,0,0,1-.9152-.4857l-2.5794-4.0308a1.0836,1.0836,0,0,0-.9151-.4856H25.5714a1.0009,1.0009,0,0,0-.8582.4859l-2.4179,4.03a1.0006,1.0006,0,0,1-.858.4857H20.0028a1,1,0,0,1-1-1V44.0135A2.6177,2.6177,0,0,1,16.4892,42.1c-1.6612-5.9177-3.4445-10.5575-5.49-13.0927A5.0052,5.0052,0,0,1,6.057,23.22a5.331,5.331,0,0,1,4.8663-4.2167c4.8521-.0828,7.2594,7.0656,9.639,14.6069A2.0007,2.0007,0,0,0,22.47,35.0094H54.8616a3.1067,3.1067,0,0,1,3.1452,2.7444A2.99,2.99,0,0,1,56.0169,40.8283ZM15.1543,18.4854a.4963.4963,0,0,1,.0867-.8276,13.1044,13.1044,0,0,1,5.7782-1.6422c7.9215,0,13.1036,10,25.0021,10,4.7433,0,8.6313,2.8535,8.9757,6.4736a.4943.4943,0,0,1-.4992.5265h-31.65a.5.5,0,0,1-.4761-.349C20.5307,26.8494,18.5565,21.1008,15.1543,18.4854Z"/>
</svg>
