<svg id="Layer_1" data-name="Layer 1" xmlns="http://www.w3.org/2000/svg" width="64" height="64" viewBox="0 0 64 64"><defs><style>.cls-1{fill-rule:evenodd}</style></defs><title>Icons 400</title><path class="cls-1" d="M56.017 40.828v1.184a2 2 0 0 1-2 2.001v4.002a1.035 1.035 0 0 1-1.068 1h-1.53a1.083 1.083 0 0 1-.915-.486l-2.58-4.03a1.084 1.084 0 0 0-.915-.486H25.571a1 1 0 0 0-.858.486l-2.418 4.03a1 1 0 0 1-.858.486h-1.434a1 1 0 0 1-1-1v-4.002a2.618 2.618 0 0 1-2.514-1.913c-1.661-5.918-3.444-10.557-5.49-13.093a5.005 5.005 0 0 1-4.942-5.787 5.331 5.331 0 0 1 4.866-4.217c4.852-.083 7.26 7.066 9.64 14.607a2 2 0 0 0 1.907 1.4h32.392a3.107 3.107 0 0 1 3.145 2.744 2.99 2.99 0 0 1-1.99 3.074zM15.154 18.485a.496.496 0 0 1 .087-.827 13.104 13.104 0 0 1 5.778-1.642c7.922 0 13.104 10 25.002 10 4.744 0 8.632 2.853 8.976 6.473a.494.494 0 0 1-.5.527h-31.65a.5.5 0 0 1-.475-.35c-1.841-5.817-3.816-11.565-7.218-14.18z"/></svg>