<svg id="Layer_1" data-name="Layer 1" xmlns="http://www.w3.org/2000/svg" width="64" height="64" viewBox="0 0 64 64"><defs><style>.cls-1{fill-rule:evenodd}</style></defs><title>Icons 100</title><path class="cls-1" d="M10.465 54.535a4.998 4.998 0 0 0 7.07 0l27-27a5 5 0 0 0 0-7.071l-1-1a4.999 4.999 0 0 0-7.07 0l-27 27a4.999 4.999 0 0 0 0 7.07zm21.828-25.242l7-7a1 1 0 0 1 1.414 0l1 1a1 1 0 0 1 0 1.414l-7 7a1 1 0 0 1-1.414 0l-1-1a1 1 0 0 1 0-1.414zm-1.157-14.838a2 2 0 0 1-1.59-1.591l-.452-2.373a.604.604 0 0 0-1.187 0l-.452 2.373a2 2 0 0 1-1.59 1.59l-2.373.452a.604.604 0 0 0 0 1.187l2.373.452a2 2 0 0 1 1.59 1.59l.452 2.373a.604.604 0 0 0 1.187 0l.452-2.373a2 2 0 0 1 1.59-1.59l2.373-.452a.604.604 0 0 0 0-1.187zm24 16a2 2 0 0 1-1.59-1.591l-.452-2.373a.604.604 0 0 0-1.187 0l-.452 2.373a2 2 0 0 1-1.59 1.59l-2.373.452a.604.604 0 0 0 0 1.187l2.373.452a2 2 0 0 1 1.59 1.59l.452 2.373a.604.604 0 0 0 1.187 0l.452-2.373a2 2 0 0 1 1.59-1.59l2.373-.452a.604.604 0 0 0 0-1.187zM51.648 9.886l-.566-3.393a.59.59 0 0 0-1.164 0l-.566 3.393a3 3 0 0 1-2.466 2.466l-3.393.566a.59.59 0 0 0 0 1.164l3.393.566a3 3 0 0 1 2.466 2.466l.566 3.393a.59.59 0 0 0 1.164 0l.566-3.393a3 3 0 0 1 2.466-2.466l3.393-.566a.59.59 0 0 0 0-1.164l-3.393-.566a3 3 0 0 1-2.466-2.466z"/></svg>