<svg id="Layer_1" data-name="Layer 1" xmlns="http://www.w3.org/2000/svg" width="64" height="64" viewBox="0 0 64 64">
  <defs>
    <style>
      .cls-1 {
        fill-rule: evenodd;
      }
    </style>
  </defs>
  <title>Icons 100</title>
  <path class="cls-1" d="M10.4649,54.5352a4.998,4.998,0,0,0,7.07,0l27-27a4.9991,4.9991,0,0,0,0-7.0712l-1-1a4.999,4.999,0,0,0-7.07,0l-27,27a4.9989,4.9989,0,0,0,0,7.07ZM32.293,29.293l7-7a0.9995,0.9995,0,0,1,1.414,0l1,1a0.9993,0.9993,0,0,1,0,1.4139l-7,7a0.9995,0.9995,0,0,1-1.414,0l-1-1A0.9994,0.9994,0,0,1,32.293,29.293ZM31.1359,14.4545a2,2,0,0,1-1.59-1.5905l-0.4519-2.3728a0.6042,0.6042,0,0,0-1.1871,0l-0.4523,2.3729a2,2,0,0,1-1.59,1.59l-2.3729.452a0.6042,0.6042,0,0,0,0,1.1871l2.3729,0.452a2,2,0,0,1,1.59,1.59l0.4523,2.373a0.6042,0.6042,0,0,0,1.1871,0l0.4519-2.3729a2,2,0,0,1,1.59-1.59l2.3729-.452a0.6042,0.6042,0,0,0,0-1.1871Zm24,16a2,2,0,0,1-1.59-1.5905l-0.452-2.3729a0.6042,0.6042,0,0,0-1.187,0l-0.4522,2.373a2,2,0,0,1-1.59,1.59l-2.373.452a0.6042,0.6042,0,0,0,0,1.1871l2.373,0.452a2,2,0,0,1,1.59,1.59l0.4522,2.3729a0.6042,0.6042,0,0,0,1.187,0l0.452-2.3729a2,2,0,0,1,1.59-1.59l2.373-.452a0.6042,0.6042,0,0,0,0-1.1871ZM51.6479,9.8863L51.0823,6.4932a0.59,0.59,0,0,0-1.1644,0L49.3523,9.8863a3,3,0,0,1-2.466,2.4661l-3.3932.5654a0.59,0.59,0,0,0,0,1.1644l3.3932,0.5656a3,3,0,0,1,2.466,2.466l0.5656,3.3931a0.59,0.59,0,0,0,1.1644,0l0.5656-3.3931a3,3,0,0,1,2.4657-2.466l3.3933-.5656a0.59,0.59,0,0,0,0-1.1644l-3.3933-.5654A3,3,0,0,1,51.6479,9.8863Z"/>
</svg>
