<svg id="Layer_1" data-name="Layer 1" xmlns="http://www.w3.org/2000/svg" width="64" height="64" viewBox="0 0 64 64">
  <defs>
    <style>
      .cls-1 {
        fill-rule: evenodd;
      }
    </style>
  </defs>
  <title>Icons 200</title>
  <path class="cls-1" d="M33.6643,37.4961a3,3,0,0,1-3.3283,0l-21-14A3,3,0,0,1,8,21V19a3,3,0,0,1,3-3H53a3,3,0,0,1,3,3v2a2.9993,2.9993,0,0,1-1.3358,2.4961ZM56,45a3,3,0,0,1-3,3H11a3,3,0,0,1-3-3V27.22a1.2047,1.2047,0,0,1,1.8744-1.0014L29.2267,39.16a4.9994,4.9994,0,0,0,5.5468,0l19.3521-12.942A1.2047,1.2047,0,0,1,56,27.22V45Z"/>
</svg>
