<svg id="Layer_1" data-name="Layer 1" xmlns="http://www.w3.org/2000/svg" width="64" height="64" viewBox="0 0 64 64">
  <defs>
    <style>
      .cls-1 {
        fill-rule: evenodd;
      }
    </style>
  </defs>
  <title>Icons 100</title>
  <path class="cls-1" d="M55,13.4936V45.4625a2,2,0,0,1-1.2121,1.8382L43.091,51.8852A1.5,1.5,0,0,1,41,50.5065V18.5376a2,2,0,0,1,1.2122-1.8384l10.697-4.5844A1.5,1.5,0,0,1,55,13.4936ZM21.788,47.3007L11.0909,51.8852A1.5,1.5,0,0,1,9,50.5065V18.5376a2,2,0,0,1,1.2122-1.8384l10.6969-4.5844A1.5,1.5,0,0,1,23,13.4936V45.4625A2,2,0,0,1,21.788,47.3007Zm5.3029-35.1859,10.697,4.5844A2,2,0,0,1,39,18.5376V50.5065a1.5,1.5,0,0,1-2.0909,1.3787L26.2122,47.3007A2,2,0,0,1,25,45.4625V13.4936A1.5,1.5,0,0,1,27.0909,12.1148Z"/>
</svg>
