<svg id="Layer_1" data-name="Layer 1" xmlns="http://www.w3.org/2000/svg" width="64" height="64" viewBox="0 0 64 64"><defs><style>.cls-1{fill-rule:evenodd}</style></defs><title>Icons 100</title><path class="cls-1" d="M55 13.494v31.968a2 2 0 0 1-1.212 1.839L43.09 51.885A1.5 1.5 0 0 1 41 50.507v-31.97a2 2 0 0 1 1.212-1.838l10.697-4.584A1.5 1.5 0 0 1 55 13.494zM21.788 47.3l-10.697 4.584A1.5 1.5 0 0 1 9 50.507v-31.97a2 2 0 0 1 1.212-1.838l10.697-4.584A1.5 1.5 0 0 1 23 13.494v31.968a2 2 0 0 1-1.212 1.839zm5.303-35.186l10.697 4.584A2 2 0 0 1 39 18.538v31.969a1.5 1.5 0 0 1-2.09 1.378l-10.698-4.584A2 2 0 0 1 25 45.462V13.494a1.5 1.5 0 0 1 2.09-1.38z"/></svg>