<svg id="Layer_1" data-name="Layer 1" xmlns="http://www.w3.org/2000/svg" width="64" height="64" viewBox="0 0 64 64">
  <defs>
    <style>
      .cls-1 {
        fill-rule: evenodd;
      }
    </style>
  </defs>
  <title>Icons 400</title>
  <path class="cls-1" d="M48,54.0157H34a1,1,0,0,1-1-1v-19a1,1,0,0,1,1-1H53a1,1,0,0,1,1,1v14A6,6,0,0,1,48,54.0157Zm0-15H38a1,1,0,1,0,0,2H48a1,1,0,1,0,0-2Zm0,6H38a1,1,0,1,0,0,2H48a1,1,0,1,0,0-2Zm-14-35H48a6,6,0,0,1,6,6v14a1,1,0,0,1-1,1H34a1,1,0,0,1-1-1v-19A1,1,0,0,1,34,10.0157Zm4,12H48a1,1,0,1,0,0-2H38a1,1,0,0,0,0,2Zm-28,26v-14a1,1,0,0,1,1-1H30a1,1,0,0,1,1,1v19a1,1,0,0,1-1,1H16A6,6,0,0,1,10,48.0157Zm6.3034-.293a.9989.9989,0,0,0,1.4133,0L21,44.4394l3.2832,3.2833a.9994.9994,0,0,0,1.4134-1.4134L22.4134,43.026l3.3-3.3A.9995.9995,0,0,0,24.3,38.3125l-3.3,3.3-3.3-3.3a.9994.9994,0,1,0-1.4134,1.4134l3.3,3.3-3.2831,3.2833A.9989.9989,0,0,0,16.3034,47.7227ZM10,16.0157a6,6,0,0,1,6-6H30a1,1,0,0,1,1,1v19a1,1,0,0,1-1,1H11a1,1,0,0,1-1-1Zm6,6h4v4a1,1,0,0,0,2,0v-4h4a1,1,0,0,0,0-2H22v-4a1,1,0,0,0-2,0v4H16a1,1,0,0,0,0,2Z"/>
</svg>
