<svg id="Layer_1" data-name="Layer 1" xmlns="http://www.w3.org/2000/svg" width="64" height="64" viewBox="0 0 64 64"><defs><style>.cls-1{fill-rule:evenodd}</style></defs><title>Icons 400</title><path class="cls-1" d="M48 54.016H34a1 1 0 0 1-1-1v-19a1 1 0 0 1 1-1h19a1 1 0 0 1 1 1v14a6 6 0 0 1-6 6zm0-15H38a1 1 0 1 0 0 2h10a1 1 0 1 0 0-2zm0 6H38a1 1 0 1 0 0 2h10a1 1 0 1 0 0-2zm-14-35h14a6 6 0 0 1 6 6v14a1 1 0 0 1-1 1H34a1 1 0 0 1-1-1v-19a1 1 0 0 1 1-1zm4 12h10a1 1 0 1 0 0-2H38a1 1 0 0 0 0 2zm-28 26v-14a1 1 0 0 1 1-1h19a1 1 0 0 1 1 1v19a1 1 0 0 1-1 1H16a6 6 0 0 1-6-6zm6.303-.293a.999.999 0 0 0 1.414 0L21 44.439l3.283 3.284a1 1 0 0 0 1.414-1.414l-3.284-3.283 3.3-3.3a1 1 0 0 0-1.413-1.413l-3.3 3.3-3.3-3.3a1 1 0 1 0-1.413 1.413l3.3 3.3-3.283 3.283a.999.999 0 0 0 0 1.414zM10 16.016a6 6 0 0 1 6-6h14a1 1 0 0 1 1 1v19a1 1 0 0 1-1 1H11a1 1 0 0 1-1-1zm6 6h4v4a1 1 0 0 0 2 0v-4h4a1 1 0 0 0 0-2h-4v-4a1 1 0 0 0-2 0v4h-4a1 1 0 0 0 0 2z"/></svg>