<svg id="Layer_1" data-name="Layer 1" xmlns="http://www.w3.org/2000/svg" width="64" height="64" viewBox="0 0 64 64">
  <defs>
    <style>
      .cls-1 {
        fill-rule: evenodd;
      }
    </style>
  </defs>
  <title>Icons 300</title>
  <path class="cls-1" d="M31.0158,56.0156c-3.9767,0-10-1.9811-10-8,0-17.9418-11-18.9284-11-27,0-6.0359,3.8789-11,11-11,3.9078,0,4.9574,2,8,2s4.0527-4,11-4c9,0,14,5.1343,14,13C54.0158,31.9729,39.1623,56.0156,31.0158,56.0156Zm9-44c-5.4168,0-8.5833,4-11,4-2.2565,0-4.5279-2-8-2-4.2488,0-6,2.604-6,4a.93.93,0,0,0,1,1c1.0317,0,2.1851-1,5-1,4.4473,0,8,3,8,12,0,9.94-2,16.0141-2,19a.9506.9506,0,0,0,1,1c2.0845,0,5-8.0185,5-20,0-10.0032,1.8332-14,8-14,2.4351,0,5.0738,1,6,1a.9107.9107,0,0,0,1-1C48.0158,14.3272,44.4288,12.0157,40.0158,12.0157Z"/>
</svg>
