<svg id="Layer_1" data-name="Layer 1" xmlns="http://www.w3.org/2000/svg" width="64" height="64" viewBox="0 0 64 64"><defs><style>.cls-1{fill-rule:evenodd}</style></defs><title>Icons 300</title><path class="cls-1" d="M31.016 56.016c-3.977 0-10-1.981-10-8 0-17.942-11-18.929-11-27 0-6.036 3.879-11 11-11 3.908 0 4.957 2 8 2s4.053-4 11-4c9 0 14 5.134 14 13 0 10.957-14.854 35-23 35zm9-44c-5.417 0-8.583 4-11 4-2.257 0-4.528-2-8-2-4.249 0-6 2.604-6 4a.93.93 0 0 0 1 1c1.032 0 2.185-1 5-1 4.447 0 8 3 8 12 0 9.94-2 16.014-2 19a.95.95 0 0 0 1 1c2.084 0 5-8.019 5-20 0-10.004 1.833-14 8-14 2.435 0 5.074 1 6 1a.91.91 0 0 0 1-1c0-1.689-3.587-4-8-4z"/></svg>