<svg id="Layer_1" data-name="Layer 1" xmlns="http://www.w3.org/2000/svg" width="64" height="64" viewBox="0 0 64 64">
  <defs>
    <style>
      .cls-1 {
        fill-rule: evenodd;
      }
    </style>
  </defs>
  <title>Icons 200</title>
  <path class="cls-1" d="M35.7569,31.9292l5.3139,5.314C42.96,39.1309,46,43.6426,46,46.3135V52a2,2,0,0,1-4,0V46.3135a5.9587,5.9587,0,0,0-1.7572-4.2422l-7.314-7.314A10.1261,10.1261,0,0,1,32,33.67a10.08,10.08,0,0,1-.9287,1.0877l-7.3139,7.314A5.9588,5.9588,0,0,0,22,46.3135V52a2,2,0,0,1-4,0V46.3135c0-2.6709,3.04-7.1826,4.9293-9.07l5.3139-5.314A5.9623,5.9623,0,0,0,30,27.6865V22.0108H25.0049a1.0273,1.0273,0,0,1-.819-1.6224l6.9888-9.9743a0.9956,0.9956,0,0,1,1.6381,0l6.9888,9.9743a1.0273,1.0273,0,0,1-.819,1.6224H34v5.6757A5.9625,5.9625,0,0,0,35.7569,31.9292Z"/>
</svg>
