<svg id="Layer_1" data-name="Layer 1" xmlns="http://www.w3.org/2000/svg" width="64" height="64" viewBox="0 0 64 64"><defs><style>.cls-1{fill-rule:evenodd}</style></defs><title>Icons 200</title><path class="cls-1" d="M35.757 31.93l5.314 5.313c1.889 1.888 4.929 6.4 4.929 9.07V52a2 2 0 0 1-4 0v-5.687a5.959 5.959 0 0 0-1.757-4.242l-7.314-7.314A10.126 10.126 0 0 1 32 33.67a10.08 10.08 0 0 1-.929 1.088l-7.314 7.314A5.959 5.959 0 0 0 22 46.313V52a2 2 0 0 1-4 0v-5.687c0-2.67 3.04-7.182 4.93-9.07l5.313-5.314A5.962 5.962 0 0 0 30 27.687V22.01h-4.995a1.027 1.027 0 0 1-.82-1.623l6.99-9.974a.996.996 0 0 1 1.638 0l6.989 9.974a1.027 1.027 0 0 1-.82 1.623H34v5.676a5.963 5.963 0 0 0 1.757 4.242z"/></svg>