<svg id="Layer_1" data-name="Layer 1" xmlns="http://www.w3.org/2000/svg" width="64" height="64" viewBox="0 0 64 64"><defs><style>.cls-1{fill-rule:evenodd}</style></defs><title>Icons 400</title><path class="cls-1" d="M46.99 56.012H12.988a.998.998 0 0 1-1-.979 2.562 2.562 0 0 1 1.94-2.506l13.306-3.325a1 1 0 0 0 .758-.97v-1.438a1 1 0 0 0-.758-.97l-9.305-2.326a2.562 2.562 0 0 1-1.94-2.506.998.998 0 0 1 1-.979h20.059a3.927 3.927 0 0 0 3.505-2.066 12.938 12.938 0 0 0 1.152-8.66 2.006 2.006 0 0 0-1.277-1.458l-4.945-1.8-1.964 5.348a2.013 2.013 0 0 1-2.573 1.188l-1.028 2.8a1.001 1.001 0 0 1-1.279.597L24.851 34.6a.988.988 0 0 1-.593-1.27l1.028-2.8a1.98 1.98 0 0 1-1.201-2.545l5.828-15.867a2.014 2.014 0 0 1 2.572-1.188L36.253.67a1.014 1.014 0 0 1 1.29-.601l3.773 1.357a.996.996 0 0 1 .597 1.28l-3.768 10.259a1.98 1.98 0 0 1 1.201 2.545l-.182.498a18.893 18.893 0 0 1 5.22 27.102.997.997 0 0 0-.093 1.035l4.488 8.973a2 2 0 0 1-1.789 2.894z"/></svg>