<svg id="Layer_1" data-name="Layer 1" xmlns="http://www.w3.org/2000/svg" width="64" height="64" viewBox="0 0 64 64">
  <defs>
    <style>
      .cls-1 {
        fill-rule: evenodd;
      }
    </style>
  </defs>
  <title>Icons 200</title>
  <path class="cls-1" d="M32.0134,40a7.0027,7.0027,0,0,1-7.0052-7L25.0123,31.89a0.5308,0.5308,0,0,1,.9061-0.375l7.4793,7.48a0.5385,0.5385,0,0,1-.2617.8935A6.5569,6.5569,0,0,1,32.0134,40Zm8.0055,12a2,2,0,0,1,.0032,4v0.0011L24.0078,56a2,2,0,1,1,0-4h6.0041V47.8506A15.0144,15.0144,0,0,1,17.0027,33V27a2.0015,2.0015,0,0,1,4.0029,0v6A10.9942,10.9942,0,0,0,36.3285,43.1119a1.3537,1.3537,0,0,1,1.4857.3l1.4694,1.4695a0.8333,0.8333,0,0,1-.2031,1.3235,14.8637,14.8637,0,0,1-5.0623,1.6442V52Zm13.4334,1.41a2.0008,2.0008,0,0,1-2.8305,0L10.5891,13.3747a2.0017,2.0017,0,0,1,2.8306-2.831L53.4523,50.5788A2.0015,2.0015,0,0,1,53.4523,53.41ZM43.0211,27a2.0015,2.0015,0,0,1,4.0029,0l0.0025,5.9942a14.8628,14.8628,0,0,1-1.0041,5.3818,0.9718,0.9718,0,0,1-1.5907.33l-1.53-1.53a1.2308,1.2308,0,0,1-.2956-1.217,10.82,10.82,0,0,0,.4177-2.9652v-5.966C43.0238,27.0183,43.0211,27.0094,43.0211,27Zm-4-11.7178,0.0031,15.8122a0.8974,0.8974,0,0,1-1.5311.6356L26.1842,20.4575a4.0013,4.0013,0,0,1-1.1719-2.8287v-2.64a7.0037,7.0037,0,0,1,7.22-6.9991A7.1979,7.1979,0,0,1,39.0215,15.2819Z"/>
</svg>
