<svg id="Layer_1" data-name="Layer 1" xmlns="http://www.w3.org/2000/svg" width="64" height="64" viewBox="0 0 64 64">
  <defs>
    <style>
      .cls-1 {
        fill-rule: evenodd;
      }
    </style>
  </defs>
  <title>Icons 400</title>
  <path class="cls-1" d="M46.99,56.0124H12.9879a.9977.9977,0,0,1-1-.9789,2.5617,2.5617,0,0,1,1.9407-2.5061l13.3055-3.3253a1,1,0,0,0,.7577-.97V46.7936a1,1,0,0,0-.7577-.97L17.9294,43.498a2.5617,2.5617,0,0,1-1.9407-2.506.9977.9977,0,0,1,1-.9789h20.059a3.9269,3.9269,0,0,0,3.5048-2.0662,12.9381,12.9381,0,0,0,1.1526-8.66,2.0056,2.0056,0,0,0-1.2771-1.4581l-4.9453-1.7993-1.9641,5.3475a2.0134,2.0134,0,0,1-2.5724,1.1884l-1.0284,2.8a1.0013,1.0013,0,0,1-1.2787.5969L24.8506,34.6a.9878.9878,0,0,1-.5931-1.27l1.0285-2.8a1.9806,1.9806,0,0,1-1.2011-2.5451l5.8277-15.8667A2.0137,2.0137,0,0,1,32.4851,10.93L36.2531.6707A1.0139,1.0139,0,0,1,37.5422.069l3.7735,1.3566a.9955.9955,0,0,1,.5978,1.28L38.1453,12.9649A1.9805,1.9805,0,0,1,39.3465,15.51l-.183.4982A18.8927,18.8927,0,0,1,44.3846,43.11a.9973.9973,0,0,0-.0935,1.0349l4.488,8.9733A2,2,0,0,1,46.99,56.0124Z"/>
</svg>
