<svg id="Layer_1" data-name="Layer 1" xmlns="http://www.w3.org/2000/svg" width="64" height="64" viewBox="0 0 64 64"><defs><style>.cls-1{fill-rule:evenodd}</style></defs><title>Icons 200</title><path class="cls-1" d="M32.013 40a7.003 7.003 0 0 1-7.005-7l.004-1.11a.53.53 0 0 1 .906-.375l7.48 7.48a.538.538 0 0 1-.262.894 6.557 6.557 0 0 1-1.123.111zm8.006 12a2 2 0 0 1 .003 4v.001L24.008 56a2 2 0 1 1 0-4h6.004v-4.15A15.014 15.014 0 0 1 17.002 33v-6a2.002 2.002 0 0 1 4.004 0v6a10.994 10.994 0 0 0 15.322 10.112 1.354 1.354 0 0 1 1.486.3l1.47 1.47a.833.833 0 0 1-.203 1.323 14.864 14.864 0 0 1-5.063 1.644V52zm13.433 1.41a2 2 0 0 1-2.83 0L10.589 13.375a2.002 2.002 0 0 1 2.83-2.831l40.033 40.035a2.002 2.002 0 0 1 0 2.831zM43.022 27a2.002 2.002 0 0 1 4.002 0l.003 5.994a14.863 14.863 0 0 1-1.005 5.382.972.972 0 0 1-1.59.33l-1.53-1.53a1.23 1.23 0 0 1-.296-1.217 10.82 10.82 0 0 0 .418-2.965v-5.966c0-.01-.003-.019-.003-.028zm-4-11.718l.002 15.812a.897.897 0 0 1-1.53.636l-11.31-11.273a4.001 4.001 0 0 1-1.172-2.828v-2.64a7.004 7.004 0 0 1 7.22-7 7.198 7.198 0 0 1 6.79 7.293z"/></svg>