<svg id="Layer_1" data-name="Layer 1" xmlns="http://www.w3.org/2000/svg" width="64" height="64" viewBox="0 0 64 64"><defs><style>.cls-1{fill-rule:evenodd}</style></defs><title>Icons 200</title><path class="cls-1" d="M51 54a10.99 10.99 0 0 1-7.274-19.236l-1.866-3.11A15.417 15.417 0 0 0 37 43v.02A1.984 1.984 0 0 1 35.022 45H23.81a10.993 10.993 0 1 1-6.474-12.11l2.126-3.189A13.188 13.188 0 0 0 13 28H6.97a1 1 0 0 1-.83-1.558l1.123-1.672a4 4 0 0 1 3.32-1.77h11.85a1 1 0 0 1 .833.446l2.729 4.107a1 1 0 0 0 .833.447h4.31a1 1 0 0 0 .832-.446l2.733-4.108a1 1 0 0 1 .833-.446h6.933l-1.813-3h-3.45a3 3 0 0 1-2.683-1.658l-.447-.895A1 1 0 0 1 34.97 16h9.33a3 3 0 0 1 2.573 1.458l3.415 5.7a4.999 4.999 0 0 1 .712 2.57v1.309a.987.987 0 0 1-.898.994 13.218 13.218 0 0 0-4.942 1.349l1.995 3.325A10.996 10.996 0 1 1 51 54zM18.385 38.529L16.737 41h2.97a6.982 6.982 0 0 0-1.322-2.471zM13 45a2 2 0 0 1-1.664-3.11l3.721-5.582A7 7 0 1 0 19.707 45H13zm9.642-12.857l-1.982 2.972A10.967 10.967 0 0 1 23.81 41h3.052a15.337 15.337 0 0 0-4.22-8.857zM58 43a6.975 6.975 0 0 0-8.733-6.775l3.406 5.676a2.055 2.055 0 0 1-.275 2.531 2 2 0 0 1-3.113-.403l-3.447-5.745A6.997 6.997 0 1 0 58 43z"/></svg>