<svg id="Layer_1" data-name="Layer 1" xmlns="http://www.w3.org/2000/svg" width="64" height="64" viewBox="0 0 64 64">
  <defs>
    <style>
      .cls-1 {
        fill-rule: evenodd;
      }
    </style>
  </defs>
  <title>Icons 200</title>
  <path class="cls-1" d="M51,54a10.9894,10.9894,0,0,1-7.2741-19.2363l-1.866-3.11A15.4168,15.4168,0,0,0,37,43v0.02A1.9837,1.9837,0,0,1,35.0221,45H23.81A10.9929,10.9929,0,1,1,17.336,32.8906l2.1261-3.1892A13.1883,13.1883,0,0,0,13,28H6.97a1,1,0,0,1-.83-1.5576L7.2632,24.77A4,4,0,0,1,10.5839,23H22.4328a1,1,0,0,1,.8329.4464l2.7293,4.1071A1,1,0,0,0,26.8279,28h4.31a1,1,0,0,0,.8326-0.4461l2.7328-4.1078A1,1,0,0,1,35.5358,23h6.933l-1.8124-3h-3.45a3,3,0,0,1-2.6834-1.6583l-0.4472-.8945A1,1,0,0,1,34.97,16h9.33a3,3,0,0,1,2.5732,1.4579l3.4151,5.6992A4.999,4.999,0,0,1,51,25.7272v1.3095a0.9868,0.9868,0,0,1-.898.9946A13.2184,13.2184,0,0,0,45.16,29.38l1.9946,3.3245A10.9956,10.9956,0,1,1,51,54ZM18.3846,38.5286L16.7368,41h2.97A6.9817,6.9817,0,0,0,18.3846,38.5286ZM13,45a2,2,0,0,1-1.6641-3.1094l3.7215-5.5821A7.0008,7.0008,0,1,0,19.7064,45H13Zm9.642-12.8574L20.66,35.1148A10.9667,10.9667,0,0,1,23.81,41h3.0517A15.3366,15.3366,0,0,0,22.6421,32.1426ZM58,43a6.9753,6.9753,0,0,0-8.7328-6.775l3.4054,5.6757a2.0549,2.0549,0,0,1-.2748,2.5318,2.0009,2.0009,0,0,1-3.1125-.4037l-3.447-5.7451A6.9967,6.9967,0,1,0,58,43Z"/>
</svg>
