<svg id="Layer_1" data-name="Layer 1" xmlns="http://www.w3.org/2000/svg" width="64" height="64" viewBox="0 0 64 64">
  <defs>
    <style>
      .cls-1 {
        fill-rule: evenodd;
      }
    </style>
  </defs>
  <title>Icons 300</title>
  <path class="cls-1" d="M54.0218,23.0157a1,1,0,0,1-1,1H11.0194a1,1,0,0,1-1-1v-9a2,2,0,0,1,2-2H23.3631a4,4,0,0,1,2.8289,1.1716l3.6567,3.6567a4.0015,4.0015,0,0,0,2.8289,1.1717H52.0217a2,2,0,0,1,2,2Zm-43.9963,3H54.0186a2,2,0,0,1,1.9941,2.1535L54.3893,49.2459a3.0007,3.0007,0,0,1-2.9917,2.77H12.6436a3,3,0,0,1-2.9916-2.77l-.5511-7.1533a1,1,0,0,1,.9971-1.0768H28.005v4.995a1.0243,1.0243,0,0,0,1.6181.8191l9.9483-6.9888a.9969.9969,0,0,0,0-1.6381l-9.9483-6.9887a1.0243,1.0243,0,0,0-1.6181.819v4.9824H9.6359a1,1,0,0,1-.997-.9232l-.61-7.92A2.0027,2.0027,0,0,1,10.0255,26.0156Z"/>
</svg>
