<svg id="Layer_1" data-name="Layer 1" xmlns="http://www.w3.org/2000/svg" width="64" height="64" viewBox="0 0 64 64">
  <defs>
    <style>
      .cls-1 {
        fill-rule: evenodd;
      }
    </style>
  </defs>
  <title>Icons 300</title>
  <path class="cls-1" d="M37.0157,22.0157a1,1,0,0,1-1-1V10.43a1,1,0,0,1,1.7071-.7072L48.3087,20.3087a1,1,0,0,1-.7071,1.707Zm13,5v26a3,3,0,0,1-3,3h-30a3,3,0,0,1-3-3v-11a1,1,0,0,1,1-1H28.005v4.9951a1.0244,1.0244,0,0,0,1.6181.819l9.9483-6.9888a.9969.9969,0,0,0,0-1.6381l-9.9483-6.9888a1.0244,1.0244,0,0,0-1.6181.8191v4.9824H15.0157a1,1,0,0,1-1-1v-25a3,3,0,0,1,3-3h14a3,3,0,0,1,3,3v10a3,3,0,0,0,3,3h10A3,3,0,0,1,50.0157,27.0157Z"/>
</svg>
