<svg id="Layer_1" data-name="Layer 1" xmlns="http://www.w3.org/2000/svg" width="64" height="64" viewBox="0 0 64 64"><defs><style>.cls-1{fill-rule:evenodd}</style></defs><title>Icons 300</title><path class="cls-1" d="M37.016 22.016a1 1 0 0 1-1-1V10.43a1 1 0 0 1 1.707-.707l10.586 10.586a1 1 0 0 1-.707 1.707zm13 5v26a3 3 0 0 1-3 3h-30a3 3 0 0 1-3-3v-11a1 1 0 0 1 1-1h12.989v4.995a1.024 1.024 0 0 0 1.618.819l9.948-6.989a.997.997 0 0 0 0-1.638l-9.948-6.989a1.024 1.024 0 0 0-1.618.82v4.982h-12.99a1 1 0 0 1-1-1v-25a3 3 0 0 1 3-3h14a3 3 0 0 1 3 3v10a3 3 0 0 0 3 3h10a3 3 0 0 1 3 3z"/></svg>