<svg id="Layer_1" data-name="Layer 1" xmlns="http://www.w3.org/2000/svg" width="64" height="64" viewBox="0 0 64 64"><defs><style>.cls-1{fill-rule:evenodd}</style></defs><title>Icons 300</title><path class="cls-1" d="M54.022 23.016a1 1 0 0 1-1 1H11.019a1 1 0 0 1-1-1v-9a2 2 0 0 1 2-2h11.344a4 4 0 0 1 2.829 1.171l3.657 3.657a4.002 4.002 0 0 0 2.829 1.172h19.344a2 2 0 0 1 2 2zm-43.996 3h43.993a2 2 0 0 1 1.994 2.153l-1.624 21.077a3 3 0 0 1-2.991 2.77H12.644a3 3 0 0 1-2.992-2.77l-.551-7.153a1 1 0 0 1 .997-1.077h17.907v4.995a1.024 1.024 0 0 0 1.618.819l9.948-6.989a.997.997 0 0 0 0-1.638l-9.948-6.989a1.024 1.024 0 0 0-1.618.82v4.982H9.635a1 1 0 0 1-.996-.924l-.61-7.92a2.003 2.003 0 0 1 1.996-2.156z"/></svg>