<svg id="Layer_1" data-name="Layer 1" xmlns="http://www.w3.org/2000/svg" width="64" height="64" viewBox="0 0 64 64"><defs><style>.cls-1{fill-rule:evenodd}</style></defs><title>Icons 100</title><path class="cls-1" d="M10 50V14a4 4 0 0 1 4-4h36a4 4 0 0 1 4 4v36a4 4 0 0 1-4 4H14a4 4 0 0 1-4-4zm8-35a1 1 0 0 0-1-1h-3a1 1 0 0 0-1 1v2a1 1 0 0 0 1 1h3a1 1 0 0 0 1-1v-2zm0 8a1 1 0 0 0-1-1h-3a1 1 0 0 0-1 1v2a1 1 0 0 0 1 1h3a1 1 0 0 0 1-1v-2zm0 8a1 1 0 0 0-1-1h-3a1 1 0 0 0-1 1v2a1 1 0 0 0 1 1h3a1 1 0 0 0 1-1v-2zm0 8a1 1 0 0 0-1-1h-3a1 1 0 0 0-1 1v2a1 1 0 0 0 1 1h3a1 1 0 0 0 1-1v-2zm28 10a1 1 0 0 0 1 1h3a1 1 0 0 0 1-1v-2a1 1 0 0 0-1-1h-3a1 1 0 0 0-1 1v2zm0-8a1 1 0 0 0 1 1h3a1 1 0 0 0 1-1v-2a1 1 0 0 0-1-1h-3a1 1 0 0 0-1 1v2zm0-8a1 1 0 0 0 1 1h3a1 1 0 0 0 1-1v-2a1 1 0 0 0-1-1h-3a1 1 0 0 0-1 1v2zm0-8a1 1 0 0 0 1 1h3a1 1 0 0 0 1-1v-2a1 1 0 0 0-1-1h-3a1 1 0 0 0-1 1v2zm0-8a1 1 0 0 0 1 1h3a1 1 0 0 0 1-1v-2a1 1 0 0 0-1-1h-3a1 1 0 0 0-1 1v2zM21 49a1 1 0 0 0 1 1h20a1 1 0 0 0 1-1V35a1 1 0 0 0-1-1H22a1 1 0 0 0-1 1v14zm0-20a1 1 0 0 0 1 1h20a1 1 0 0 0 1-1V15a1 1 0 0 0-1-1H22a1 1 0 0 0-1 1v14zm-3 20v-2a1 1 0 0 0-1-1h-3a1 1 0 0 0-1 1v2a1 1 0 0 0 1 1h3a1 1 0 0 0 1-1z"/></svg>