<svg id="Layer_1" data-name="Layer 1" xmlns="http://www.w3.org/2000/svg" width="64" height="64" viewBox="0 0 64 64"><defs><style>.cls-1{fill-rule:evenodd}</style></defs><title>Icons 400</title><path class="cls-1" d="M52.553 41.911l-7.724-3.865A1.501 1.501 0 0 1 44 36.703v-5.386a1.501 1.501 0 0 1 .83-1.343l7.723-3.865a1 1 0 0 1 1.447.895v14.012a1 1 0 0 1-1.447.895zM38 22.016a8 8 0 1 1 8-8 8 8 0 0 1-8 8zm0-12a4 4 0 1 0 4 4 4 4 0 0 0-4-4zm-18 12a8 8 0 1 1 8-8 8 8 0 0 1-8 8zm0-12a4 4 0 1 0 4 4 4 4 0 0 0-4-4zm-2 14h22a2 2 0 0 1 2 2v14a2 2 0 0 1-2 2H18a2 2 0 0 1-2-2v-14a2 2 0 0 1 2-2zm3.717 21.121a1.752 1.752 0 0 1 1.635-1.121h1.638a1 1 0 0 1 .934 1.359l-3.667 9.52a1.752 1.752 0 0 1-1.635 1.12h-1.638a1 1 0 0 1-.934-1.359zm11.266-1.121h1.644a1.758 1.758 0 0 1 1.641 1.121l3.682 9.52a1 1 0 0 1-.938 1.359h-1.644a1.758 1.758 0 0 1-1.641-1.122l-3.682-9.52a1 1 0 0 1 .938-1.358z"/></svg>