<svg id="Layer_1" data-name="Layer 1" xmlns="http://www.w3.org/2000/svg" width="64" height="64" viewBox="0 0 64 64">
  <defs>
    <style>
      .cls-1 {
        fill-rule: evenodd;
      }
    </style>
  </defs>
  <title>Icons 100</title>
  <path class="cls-1" d="M10,50V14a4,4,0,0,1,4-4H50a4,4,0,0,1,4,4V50a4,4,0,0,1-4,4H14A4,4,0,0,1,10,50Zm8-35a1,1,0,0,0-1-1H14a1,1,0,0,0-1,1v2a1,1,0,0,0,1,1h3a1,1,0,0,0,1-1V15Zm0,8a1,1,0,0,0-1-1H14a1,1,0,0,0-1,1v2a1,1,0,0,0,1,1h3a1,1,0,0,0,1-1V23Zm0,8a1,1,0,0,0-1-1H14a1,1,0,0,0-1,1v2a1,1,0,0,0,1,1h3a1,1,0,0,0,1-1V31Zm0,8a1,1,0,0,0-1-1H14a1,1,0,0,0-1,1v2a1,1,0,0,0,1,1h3a1,1,0,0,0,1-1V39ZM46,49a1,1,0,0,0,1,1h3a1,1,0,0,0,1-1V47a1,1,0,0,0-1-1H47a1,1,0,0,0-1,1v2Zm0-8a1,1,0,0,0,1,1h3a1,1,0,0,0,1-1V39a1,1,0,0,0-1-1H47a1,1,0,0,0-1,1v2Zm0-8a1,1,0,0,0,1,1h3a1,1,0,0,0,1-1V31a1,1,0,0,0-1-1H47a1,1,0,0,0-1,1v2Zm0-8a1,1,0,0,0,1,1h3a1,1,0,0,0,1-1V23a1,1,0,0,0-1-1H47a1,1,0,0,0-1,1v2Zm0-8a1,1,0,0,0,1,1h3a1,1,0,0,0,1-1V15a1,1,0,0,0-1-1H47a1,1,0,0,0-1,1v2ZM21,49a1,1,0,0,0,1,1H42a1,1,0,0,0,1-1V35a1,1,0,0,0-1-1H22a1,1,0,0,0-1,1V49Zm0-20a1,1,0,0,0,1,1H42a1,1,0,0,0,1-1V15a1,1,0,0,0-1-1H22a1,1,0,0,0-1,1V29ZM18,49V47a1,1,0,0,0-1-1H14a1,1,0,0,0-1,1v2a1,1,0,0,0,1,1h3A1,1,0,0,0,18,49Z"/>
</svg>
