<svg id="Layer_1" data-name="Layer 1" xmlns="http://www.w3.org/2000/svg" width="64" height="64" viewBox="0 0 64 64">
  <defs>
    <style>
      .cls-1 {
        fill-rule: evenodd;
      }
    </style>
  </defs>
  <title>Icons 100</title>
  <path class="cls-1" d="M24.2725,12.7132L46.8938,7.0578A2.5,2.5,0,0,1,50,9.4833V43.549C50,47.3336,46.6045,50,42,50a5.8809,5.8809,0,0,1-6-5.8615,5.8209,5.8209,0,0,1,4.4091-5.647l4.0762-1.019A2,2,0,0,0,46,35.5323V20.9683a1,1,0,0,0-1.2425-.97L27.1362,24.4035A1.5,1.5,0,0,0,26,25.8588v24.69C26,54.3335,22.6046,57,18,57a5.8809,5.8809,0,0,1-6-5.8614,5.8209,5.8209,0,0,1,4.4091-5.6471l4.076-1.0191A2,2,0,0,0,22,42.5322V15.6235A3,3,0,0,1,24.2725,12.7132Z"/>
</svg>
