<svg id="Layer_1" data-name="Layer 1" xmlns="http://www.w3.org/2000/svg" width="64" height="64" viewBox="0 0 64 64"><defs><style>.cls-1{fill-rule:evenodd}</style></defs><title>Icons 400</title><path class="cls-1" d="M54 45.985V18.047a.999.999 0 0 1 1.668-.756 20.286 20.286 0 0 1 0 29.449.999.999 0 0 1-1.668-.755zm-6 8.03H12a4 4 0 0 1-4-4v-36a4 4 0 0 1 4-4h36a4 4 0 0 1 4 4v36a4 4 0 0 1-4 4zm-7-37.287a1.7 1.7 0 0 0-2.107-1.65L24.521 18.62A2 2 0 0 0 23 20.56V38.78a1.279 1.279 0 0 1-.94 1.347c-.635.154-2.06.491-3.91.939a4.049 4.049 0 0 0-3.15 3.9 4.135 4.135 0 0 0 4.286 4.05c3.289 0 5.714-1.842 5.714-4.457V28.031a1 1 0 0 1 .76-.97l12.41-3.058a.67.67 0 0 1 .83.65v9.127a1.279 1.279 0 0 1-.94 1.348c-.635.154-2.06.491-3.91.939a4.049 4.049 0 0 0-3.15 3.9 4.135 4.135 0 0 0 4.286 4.05c3.289 0 5.714-1.842 5.714-4.457z"/></svg>