<svg id="Layer_1" data-name="Layer 1" xmlns="http://www.w3.org/2000/svg" width="64" height="64" viewBox="0 0 64 64">
  <defs>
    <style>
      .cls-1 {
        fill-rule: evenodd;
      }
    </style>
  </defs>
  <title>Icons 400</title>
  <path class="cls-1" d="M48.8314,23.354Q41.1,27.6566,37.2623,20.8069T41.1567,9.6548q7.7317-4.3024,11.569,2.547T48.8314,23.354ZM37.4178,26.7s-2.7913,1.328-6.443,3.0651A1.9715,1.9715,0,0,1,31,30.0157v24a2,2,0,0,1-2,2H27a2,2,0,0,1-2-2v-12L19.5475,35.2c-2.9894,1.4212-5.2358,2.4886-5.5255,2.6244a2.0225,2.0225,0,0,1-2.6247-.8468l-1.1224-2.012a2.0263,2.0263,0,0,1,.6569-2.6807c.8876-.5828,21.7367-14.0984,21.7367-14.0984A1.0158,1.0158,0,0,1,34.21,18.82a13.63,13.63,0,0,0,1.36,3.3293,13.6192,13.6192,0,0,0,2.1183,2.9052A1.0173,1.0173,0,0,1,37.4178,26.7Z"/>
</svg>
