<svg id="Layer_1" data-name="Layer 1" xmlns="http://www.w3.org/2000/svg" width="64" height="64" viewBox="0 0 64 64"><defs><style>.cls-1{fill-rule:evenodd}</style></defs><title>Icons 400</title><path class="cls-1" d="M48.831 23.354q-7.731 4.303-11.569-2.547t3.895-11.152q7.731-4.303 11.569 2.547T48.83 23.354zM37.418 26.7l-6.443 3.065a1.972 1.972 0 0 1 .025.25v24a2 2 0 0 1-2 2h-2a2 2 0 0 1-2-2v-12L19.547 35.2a3798.85 3798.85 0 0 1-5.525 2.624 2.022 2.022 0 0 1-2.625-.846l-1.122-2.012a2.026 2.026 0 0 1 .657-2.681c.887-.583 21.736-14.098 21.736-14.098a1.016 1.016 0 0 1 1.542.633 13.63 13.63 0 0 0 1.36 3.33 13.62 13.62 0 0 0 2.118 2.905 1.017 1.017 0 0 1-.27 1.645z"/></svg>