<svg id="Layer_1" data-name="Layer 1" xmlns="http://www.w3.org/2000/svg" width="64" height="64" viewBox="0 0 64 64"><defs><style>.cls-1{fill-rule:evenodd}</style></defs><title>Icons 100</title><path class="cls-1" d="M24.273 12.713l22.62-5.655A2.5 2.5 0 0 1 50 9.483V43.55C50 47.334 46.605 50 42 50a5.88 5.88 0 0 1-6-5.862 5.82 5.82 0 0 1 4.41-5.646l4.075-1.02A2 2 0 0 0 46 35.533V20.968a1 1 0 0 0-1.242-.97l-17.622 4.405A1.5 1.5 0 0 0 26 25.86v24.69C26 54.334 22.605 57 18 57a5.88 5.88 0 0 1-6-5.861 5.82 5.82 0 0 1 4.41-5.648l4.075-1.019A2 2 0 0 0 22 42.532V15.624a3 3 0 0 1 2.273-2.91z"/></svg>