<svg id="Layer_1" data-name="Layer 1" xmlns="http://www.w3.org/2000/svg" width="64" height="64" viewBox="0 0 64 64">
  <defs>
    <style>
      .cls-1 {
        fill-rule: evenodd;
      }
    </style>
  </defs>
  <title>Icons 300</title>
  <path class="cls-1" d="M37.0157,22.0157a1,1,0,0,1-1-1V10.43a1,1,0,0,1,1.7071-.7072L48.3085,20.3087a1,1,0,0,1-.7071,1.707Zm13,5v26a3,3,0,0,1-3,3h-30a3,3,0,0,1-3-3v-42a3,3,0,0,1,3-3h14a3,3,0,0,1,3,3v10a3,3,0,0,0,3,3h10A3,3,0,0,1,50.0155,27.0157Zm-9,11a1,1,0,0,0-1-1h-6v-6a1,1,0,0,0-1-1h-2a1,1,0,0,0-1,1v6h-6a1,1,0,0,0-1,1v2a1,1,0,0,0,1,1h6v6a1,1,0,0,0,1,1h2a1,1,0,0,0,1-1v-6h6a1,1,0,0,0,1-1Z"/>
</svg>
