<svg id="Layer_1" data-name="Layer 1" xmlns="http://www.w3.org/2000/svg" width="64" height="64" viewBox="0 0 64 64"><defs><style>.cls-1{fill-rule:evenodd}</style></defs><title>Icons 300</title><path class="cls-1" d="M37.016 22.016a1 1 0 0 1-1-1V10.43a1 1 0 0 1 1.707-.707l10.586 10.586a1 1 0 0 1-.708 1.707zm13 5v26a3 3 0 0 1-3 3h-30a3 3 0 0 1-3-3v-42a3 3 0 0 1 3-3h14a3 3 0 0 1 3 3v10a3 3 0 0 0 3 3h10a3 3 0 0 1 3 3zm-9 11a1 1 0 0 0-1-1h-6v-6a1 1 0 0 0-1-1h-2a1 1 0 0 0-1 1v6h-6a1 1 0 0 0-1 1v2a1 1 0 0 0 1 1h6v6a1 1 0 0 0 1 1h2a1 1 0 0 0 1-1v-6h6a1 1 0 0 0 1-1z"/></svg>