<svg id="Layer_1" data-name="Layer 1" xmlns="http://www.w3.org/2000/svg" width="64" height="64" viewBox="0 0 64 64">
  <defs>
    <style>
      .cls-1 {
        fill-rule: evenodd;
      }
    </style>
  </defs>
  <title>Icons 300</title>
  <path class="cls-1" d="M54.0155,20.0157v3a1,1,0,0,1-1,1h-42a1,1,0,0,1-1-1v-9a2,2,0,0,1,2-2H23.3588a3.9993,3.9993,0,0,1,2.8284,1.1717l3.6568,3.6567a4,4,0,0,0,2.8285,1.1717h19.343A2,2,0,0,1,54.0155,20.0157Zm-43.9936,6H54.01a2.001,2.001,0,0,1,1.9966,2.1534L54.3828,49.2459a3.0022,3.0022,0,0,1-2.9951,2.77H12.6434a3.0026,3.0026,0,0,1-2.9951-2.77L8.025,28.1691A2.0012,2.0012,0,0,1,10.0219,26.0157Zm12.9938,14a1,1,0,0,0,1,1h6v6a1,1,0,0,0,1,1h2a1,1,0,0,0,1-1v-6h6a1,1,0,0,0,1-1v-2a1,1,0,0,0-1-1h-6v-6a1,1,0,0,0-1-1h-2a1,1,0,0,0-1,1v6h-6a1,1,0,0,0-1,1Z"/>
</svg>
