<svg id="Layer_1" data-name="Layer 1" xmlns="http://www.w3.org/2000/svg" width="64" height="64" viewBox="0 0 64 64"><defs><style>.cls-1{fill-rule:evenodd}</style></defs><title>Icons 300</title><path class="cls-1" d="M54.016 20.016v3a1 1 0 0 1-1 1h-42a1 1 0 0 1-1-1v-9a2 2 0 0 1 2-2h11.343a4 4 0 0 1 2.828 1.171l3.657 3.657a4 4 0 0 0 2.828 1.172h19.344a2 2 0 0 1 2 2zm-43.994 6H54.01a2.001 2.001 0 0 1 1.997 2.153l-1.624 21.077a3.002 3.002 0 0 1-2.995 2.77H12.643a3.003 3.003 0 0 1-2.995-2.77L8.025 28.169a2.001 2.001 0 0 1 1.997-2.153zm12.994 14a1 1 0 0 0 1 1h6v6a1 1 0 0 0 1 1h2a1 1 0 0 0 1-1v-6h6a1 1 0 0 0 1-1v-2a1 1 0 0 0-1-1h-6v-6a1 1 0 0 0-1-1h-2a1 1 0 0 0-1 1v6h-6a1 1 0 0 0-1 1z"/></svg>