<svg id="Layer_1" data-name="Layer 1" xmlns="http://www.w3.org/2000/svg" width="64" height="64" viewBox="0 0 64 64">
  <defs>
    <style>
      .cls-1 {
        fill-rule: evenodd;
      }
    </style>
  </defs>
  <title>Icons 200</title>
  <path class="cls-1" d="M16,54a6,6,0,0,1-6-6V11c0-.5524.8955-1,2-1s2,0.4476,2,1,0.8955,1,2,1,2-.4477,2-1,0.8954-1,2-1,2,0.4476,2,1,0.8954,1,2,1,2-.4477,2-1,0.8954-1,2-1,2,0.4476,2,1,0.8954,1,2,1,2-.4477,2-1,0.8953-1,2-1,2,0.4476,2,1,0.8953,1,2,1,2-.4477,2-1,0.8953-1,2-1,2,0.4476,2,1,0.8953,1,2,1,2-.4477,2-1,0.8953-1,2-1,2,0.4476,2,1V48a6,6,0,0,1-6,6H16Zm1-22a1,1,0,0,0-1,1V45a1,1,0,0,0,1,1H27a1,1,0,0,0,1-1V33a1,1,0,0,0-1-1H17ZM44,21a1,1,0,0,0-1-1H21a1,1,0,0,0-1,1v2a1,1,0,0,0,1,1H43a1,1,0,0,0,1-1V21Zm3,11H33a1,1,0,0,0,0,2H47A1,1,0,1,0,47,32Zm0,6H33a1,1,0,0,0,0,2H47A1,1,0,1,0,47,38Zm0,6H33a1,1,0,0,0,0,2H47A1,1,0,1,0,47,44Z"/>
</svg>
