<svg id="Layer_1" data-name="Layer 1" xmlns="http://www.w3.org/2000/svg" width="64" height="64" viewBox="0 0 64 64"><defs><style>.cls-1{fill-rule:evenodd}</style></defs><title>Icons 200</title><path class="cls-1" d="M16 54a6 6 0 0 1-6-6V11c0-.552.895-1 2-1s2 .448 2 1 .895 1 2 1 2-.448 2-1 .895-1 2-1 2 .448 2 1 .895 1 2 1 2-.448 2-1 .895-1 2-1 2 .448 2 1 .895 1 2 1 2-.448 2-1 .895-1 2-1 2 .448 2 1 .895 1 2 1 2-.448 2-1 .895-1 2-1 2 .448 2 1 .895 1 2 1 2-.448 2-1 .895-1 2-1 2 .448 2 1v37a6 6 0 0 1-6 6H16zm1-22a1 1 0 0 0-1 1v12a1 1 0 0 0 1 1h10a1 1 0 0 0 1-1V33a1 1 0 0 0-1-1H17zm27-11a1 1 0 0 0-1-1H21a1 1 0 0 0-1 1v2a1 1 0 0 0 1 1h22a1 1 0 0 0 1-1v-2zm3 11H33a1 1 0 0 0 0 2h14a1 1 0 1 0 0-2zm0 6H33a1 1 0 0 0 0 2h14a1 1 0 1 0 0-2zm0 6H33a1 1 0 0 0 0 2h14a1 1 0 1 0 0-2z"/></svg>