<svg id="Layer_1" data-name="Layer 1" xmlns="http://www.w3.org/2000/svg" width="64" height="64" viewBox="0 0 64 64"><defs><style>.cls-1{fill-rule:evenodd}</style></defs><title>Icons 100</title><path class="cls-1" d="M47.376 51.379c-1.807 1.807-4.06 2.62-7.926 2.621H20.546c-3.866 0-6.119-.814-7.926-2.621S10 47.316 10 43.445V24.558c0-3.87.813-6.125 2.62-7.933s4.061-2.622 7.93-2.622L36 14a2 2 0 0 1 2 2 10 10 0 0 0 10 10 2 2 0 0 1 2 2l-.004 15.445c0 3.87-.812 6.125-2.62 7.934zM48 24a8 8 0 1 1 8.001-8 8 8 0 0 1-8 8z"/></svg>