<svg id="Layer_1" data-name="Layer 1" xmlns="http://www.w3.org/2000/svg" width="64" height="64" viewBox="0 0 64 64">
  <defs>
    <style>
      .cls-1 {
        fill-rule: evenodd;
      }
    </style>
  </defs>
  <title>Icons 100</title>
  <path class="cls-1" d="M47.3761,51.3786C45.5692,53.1864,43.3165,53.9994,39.45,54H20.5464c-3.8662-.0006-6.119-0.8136-7.926-2.6214S10,47.3156,10,43.4452V24.5579c0-3.87.8127-6.1251,2.62-7.9333s4.0613-2.6213,7.93-2.6213C20.55,14.0033,34.8955,14,36,14a2,2,0,0,1,2,2A10,10,0,0,0,48,26a2,2,0,0,1,2,2c0,1.1046-.0036,15.4452-0.0036,15.4452C49.9964,47.3156,49.1837,49.57,47.3761,51.3786ZM47.9994,24.001a8,8,0,1,1,8.0006-8A8,8,0,0,1,47.9994,24.001Z"/>
</svg>
