<svg id="Layer_1" data-name="Layer 1" xmlns="http://www.w3.org/2000/svg" width="64" height="64" viewBox="0 0 64 64"><defs><style>.cls-1{fill-rule:evenodd}</style></defs><title>Icons 100</title><path class="cls-1" d="M50.998 25.18A2 2 0 0 1 49.006 27h-7.519l-.908 10h7.332a2.043 2.043 0 0 1 2.097 2.18A2.067 2.067 0 0 1 47.91 41h-7.695L39.2 52.181A2 2 0 0 1 37.208 54a2 2 0 0 1-1.992-2.18L36.2 41H26.166L25.15 52.181a2 2 0 0 1-3.983-.362L22.15 41h-7.156a2 2 0 0 1 0-4h7.519l.908-10H16.09a2.043 2.043 0 0 1-2.097-2.181A2.066 2.066 0 0 1 16.09 23h7.696L24.8 11.82a2 2 0 0 1 3.984.36L27.8 23h10.033l1.016-11.18a2 2 0 0 1 3.984.36L41.85 23h7.156a2 2 0 0 1 1.992 2.18zM27.438 27l-.908 10h10.032l.909-10H27.438z"/></svg>