<svg id="Layer_1" data-name="Layer 1" xmlns="http://www.w3.org/2000/svg" width="64" height="64" viewBox="0 0 64 64">
  <defs>
    <style>
      .cls-1 {
        fill-rule: evenodd;
      }
    </style>
  </defs>
  <title>Icons 100</title>
  <path class="cls-1" d="M50.9978,25.1809A2,2,0,0,1,49.006,27H41.4872L40.579,37h7.3321a2.0433,2.0433,0,0,1,2.0966,2.1809A2.0665,2.0665,0,0,1,47.9111,41H40.2156L39.2,52.181A2,2,0,0,1,37.2082,54h0a2,2,0,0,1-1.9917-2.1809L36.1991,41H26.1662L25.15,52.181a2,2,0,0,1-3.9835-.3619L22.15,41H14.9941a2,2,0,0,1,0-4h7.5188l0.9084-10H16.0888a2.0432,2.0432,0,0,1-2.0964-2.181A2.0663,2.0663,0,0,1,16.0888,23h7.6958L24.8,11.8192a2,2,0,0,1,3.9836.3617L27.801,23H37.834L38.85,11.8192a2,2,0,0,1,3.9836.3617L41.85,23H49.006A2,2,0,0,1,50.9978,25.1809ZM27.4378,27L26.53,37H36.5623l0.9083-10H27.4378Z"/>
</svg>
