<svg id="Layer_1" data-name="Layer 1" xmlns="http://www.w3.org/2000/svg" width="64" height="64" viewBox="0 0 64 64"><defs><style>.cls-1{fill-rule:evenodd}</style></defs><title>Icons 400</title><path class="cls-1" d="M52.997 43.23l-20 11.497a2 2 0 0 1-1.994 0L11 43.229a1.997 1.997 0 0 1-1-1.732V22.503a1.997 1.997 0 0 1 1-1.73l5.315-3.056a.997.997 0 0 1 .997.001L39.5 30.574a1.004 1.004 0 0 1 .5.87V36.5a.5.5 0 0 0 .755.431l4.756-2.834a1.004 1.004 0 0 0 .489-.862v-5.558a.502.502 0 0 0-.25-.434l-22.16-12.84a.503.503 0 0 1 .002-.87l7.41-4.26a2 2 0 0 1 1.995 0L53 20.772a1.998 1.998 0 0 1 1 1.732v18.99a2.002 2.002 0 0 1-1.003 1.736zM22 37.306a1 1 0 0 0-.502-.867l-6.749-3.88a.5.5 0 0 0-.749.433v6.766a1 1 0 0 0 .502.867l6.749 3.88a.5.5 0 0 0 .749-.434z"/></svg>