<svg id="Layer_1" data-name="Layer 1" xmlns="http://www.w3.org/2000/svg" width="64" height="64" viewBox="0 0 64 64">
  <defs>
    <style>
      .cls-1 {
        fill-rule: evenodd;
      }
    </style>
  </defs>
  <title>Icons 400</title>
  <path class="cls-1" d="M52.997,43.23l-20,11.497a2,2,0,0,1-1.9943,0L11,43.2286a1.997,1.997,0,0,1-1-1.7317V22.5034a1.9967,1.9967,0,0,1,1-1.7313l5.315-3.0554a.9967.9967,0,0,1,.997.0017L39.5,30.5742a1.0043,1.0043,0,0,1,.5.8692V36.5a.5.5,0,0,0,.7553.4314l4.7553-2.834A1.0044,1.0044,0,0,0,46,33.2347V27.6772a.5019.5019,0,0,0-.25-.4345L23.59,14.4032a.5028.5028,0,0,1,.0015-.87l7.4108-4.26a2,2,0,0,1,1.9944,0L53,20.7719a1.9976,1.9976,0,0,1,1,1.732v18.99A2.0024,2.0024,0,0,1,52.997,43.23ZM22,37.3056a1,1,0,0,0-.5016-.867l-6.7492-3.88A.5.5,0,0,0,14,32.9924V39.758a1,1,0,0,0,.5016.867l6.7492,3.88A.5.5,0,0,0,22,44.0713Z"/>
</svg>
