<svg id="Layer_1" data-name="Layer 1" xmlns="http://www.w3.org/2000/svg" width="64" height="64" viewBox="0 0 64 64"><defs><style>.cls-1{fill-rule:evenodd}</style></defs><title>Icons 200</title><path class="cls-1" d="M51.398 31.795L37.26 34.15A3.891 3.891 0 0 0 34 38a2 2 0 0 1 2 2v12a2 2 0 0 1-2 2h-4a2 2 0 0 1-2-2V40a2 2 0 0 1 2-2 7.878 7.878 0 0 1 6.603-7.795l14.136-2.355A3.89 3.89 0 0 0 54 24a3.003 3.003 0 0 0-3-3v1a4 4 0 0 1-4 4H17a4 4 0 0 1-4-4v-6a4 4 0 0 1 4-4h30a4 4 0 0 1 4 4v1a7.008 7.008 0 0 1 7 7 7.878 7.878 0 0 1-6.602 7.795z"/></svg>