<svg id="Layer_1" data-name="Layer 1" xmlns="http://www.w3.org/2000/svg" width="64" height="64" viewBox="0 0 64 64">
  <defs>
    <style>
      .cls-1 {
        fill-rule: evenodd;
      }
    </style>
  </defs>
  <title>Icons 200</title>
  <path class="cls-1" d="M49.9709,54.7464a1.0007,1.0007,0,0,1-.971,1.24H38.9967a1.0014,1.0014,0,0,1-.9573-0.7092,54.3973,54.3973,0,0,1-1.5427-7.0836A53.5585,53.5585,0,0,1,34.9513,55.28a1.0007,1.0007,0,0,1-.9564.7072H14.9883a1,1,0,0,1-.9711-1.24,76.2941,76.2941,0,0,0,1.9715-15.7645,1,1,0,0,1,1-1h30.01a1,1,0,0,1,1,1A76.2941,76.2941,0,0,0,49.9709,54.7464ZM47.9917,31.98v3.0009a1,1,0,0,1-.9991,1H17.0161a1,1,0,0,1-.999-1V31.98c0-5,11.99-5.9744,11.99-11.0026,0-3.97-1.9956-5.9866-2.0069-8.9772a6,6,0,1,1,12,0c-0.0113,2.9906-1.9984,5.0073-1.9984,8.9772C36.0016,26.0054,47.9917,26.98,47.9917,31.98Z"/>
</svg>
