<svg id="Layer_1" data-name="Layer 1" xmlns="http://www.w3.org/2000/svg" width="64" height="64" viewBox="0 0 64 64">
  <defs>
    <style>
      .cls-1 {
        fill-rule: evenodd;
      }
    </style>
  </defs>
  <title>Icons 300</title>
  <path class="cls-1" d="M26.4555,12.0745,25.0646,6.5059a1.9984,1.9984,0,1,1,3.8773-.97l1.6038,6.4209,18.71,18.7092a2.4845,2.4845,0,0,1,0,3.5138L29.2523,54.1822a6.2,6.2,0,0,1-8.767,0L6.805,40.5032a6.2078,6.2078,0,0,1,0-8.7793Zm6.56,18.9413a3,3,0,1,0-3-3A3,3,0,0,0,33.0157,31.0158Zm18.7231-1.2695L45.7423,23.75a.8289.8289,0,0,1,0-1.1716,2,2,0,0,1,2.8285,0l6.1795,6.18c2.625,2.625,4.2653,10.38,4.2653,15.258a4,4,0,0,1-8,0c0-4.1673,1.5094-7.1321,1.9333-10.97A4.0831,4.0831,0,0,0,51.7388,29.7463Z"/>
</svg>
