<svg id="Layer_1" data-name="Layer 1" xmlns="http://www.w3.org/2000/svg" width="64" height="64" viewBox="0 0 64 64"><defs><style>.cls-1{fill-rule:evenodd}</style></defs><title>Icons 300</title><path class="cls-1" d="M26.456 12.075l-1.391-5.57a1.998 1.998 0 1 1 3.877-.97l1.604 6.422 18.71 18.709a2.485 2.485 0 0 1 0 3.514L29.252 54.182a6.2 6.2 0 0 1-8.767 0L6.805 40.503a6.208 6.208 0 0 1 0-8.78zm6.56 18.94a3 3 0 1 0-3-3 3 3 0 0 0 3 3zm18.723-1.269l-5.997-5.996a.829.829 0 0 1 0-1.172 2 2 0 0 1 2.829 0l6.18 6.18c2.624 2.625 4.265 10.38 4.265 15.258a4 4 0 0 1-8 0c0-4.167 1.509-7.132 1.933-10.97a4.083 4.083 0 0 0-1.21-3.3z"/></svg>