<svg id="Layer_1" data-name="Layer 1" xmlns="http://www.w3.org/2000/svg" width="64" height="64" viewBox="0 0 64 64"><defs><style>.cls-1{fill-rule:evenodd}</style></defs><title>Icons 200</title><path class="cls-1" d="M49.97 54.746a1 1 0 0 1-.97 1.24H38.997a1.001 1.001 0 0 1-.958-.709 54.397 54.397 0 0 1-1.542-7.083 53.559 53.559 0 0 1-1.546 7.086 1 1 0 0 1-.956.707H14.988a1 1 0 0 1-.97-1.24 76.294 76.294 0 0 0 1.97-15.764 1 1 0 0 1 1-1h30.01a1 1 0 0 1 1 1 76.294 76.294 0 0 0 1.973 15.763zM47.993 31.98v3a1 1 0 0 1-1 1H17.017a1 1 0 0 1-.999-1v-3c0-5 11.99-5.974 11.99-11.003 0-3.97-1.996-5.986-2.007-8.977a6 6 0 1 1 12 0c-.011 2.99-1.998 5.008-1.998 8.977 0 5.028 11.99 6.003 11.99 11.003z"/></svg>