<svg id="Layer_1" data-name="Layer 1" xmlns="http://www.w3.org/2000/svg" width="64" height="64" viewBox="0 0 64 64">
  <defs>
    <style>
      .cls-1 {
        fill-rule: evenodd;
      }
    </style>
  </defs>
  <title>Icons 200</title>
  <path class="cls-1" d="M51.3976,31.7949L37.2609,34.15A3.8914,3.8914,0,0,0,34,38a2,2,0,0,1,2,2V52a2,2,0,0,1-2,2H30a2,2,0,0,1-2-2V40a2,2,0,0,1,2-2,7.8775,7.8775,0,0,1,6.603-7.7949L50.7394,27.85A3.8907,3.8907,0,0,0,54,24a3.0033,3.0033,0,0,0-3-3v1a4,4,0,0,1-4,4H17a4,4,0,0,1-4-4V16a4,4,0,0,1,4-4H47a4,4,0,0,1,4,4v1a7.0081,7.0081,0,0,1,7,7A7.8775,7.8775,0,0,1,51.3976,31.7949Z"/>
</svg>
