<svg id="Layer_1" data-name="Layer 1" xmlns="http://www.w3.org/2000/svg" width="64" height="64" viewBox="0 0 64 64"><defs><style>.cls-1{fill-rule:evenodd}</style></defs><title>Icons 100</title><path class="cls-1" d="M52 10a2.584 2.584 0 0 1 2 2c0 1.668-14.64 19.64-18.5 23.5-2.503 2.503-5.908 4.5-7.75 4.5-.817 0-3.75-2.998-3.75-3.75 0-1.842 1.997-5.247 4.5-7.75C32.36 24.64 50.332 10 52 10zM9 49c0-.876 1.055-.233 2.667-1.843 1.352-1.351.844-4.51 3.67-7.333a6.225 6.225 0 1 1 8.805 8.8A11.335 11.335 0 0 1 16 52c-3.579 0-7-2.124-7-3z"/></svg>