<svg id="Layer_1" data-name="Layer 1" xmlns="http://www.w3.org/2000/svg" width="64" height="64" viewBox="0 0 64 64">
  <defs>
    <style>
      .cls-1 {
        fill-rule: evenodd;
      }
    </style>
  </defs>
  <title>Icons 100</title>
  <path class="cls-1" d="M52,10a2.5838,2.5838,0,0,1,2,2c0,1.6678-14.6392,19.6393-18.5,23.5-2.5026,2.5027-5.9078,4.5-7.75,4.5C26.933,40,24,37.0022,24,36.25c0-1.8424,1.9974-5.2474,4.5-7.75C32.3609,24.6392,50.3322,10,52,10ZM9,49c0-.8757,1.0549-0.2326,2.6668-1.8434,1.3521-1.3509.8441-4.51,3.6693-7.3329a6.2246,6.2246,0,1,1,8.8063,8.8A11.3347,11.3347,0,0,1,16,52C12.421,52,9,49.8758,9,49Z"/>
</svg>
