<svg id="Layer_1" data-name="Layer 1" xmlns="http://www.w3.org/2000/svg" width="64" height="64" viewBox="0 0 64 64"><defs><style>.cls-1{fill-rule:evenodd}</style></defs><title>Icons 400</title><path class="cls-1" d="M32 56.016a24 24 0 1 1 24-24 24 24 0 0 1-24 24zm-20-24a19.996 19.996 0 0 0 32.648 15.489L16.51 19.368A19.914 19.914 0 0 0 12 32.016zm20-20a19.914 19.914 0 0 0-12.66 4.52l28.14 28.14A19.997 19.997 0 0 0 32 12.016zm8.643 22.986l-3.197-3.197a.762.762 0 0 1-.046-1.007 2.945 2.945 0 0 0 .6-1.782 3 3 0 0 0-3-3h-2.515a2 2 0 0 1-1.414-.586l-4.56-4.56a.5.5 0 0 1 .353-.854H35a8.991 8.991 0 0 1 6.752 14.938.76.76 0 0 1-1.109.048zm-9.507 3.014H28v5a1 1 0 0 1-1 1h-4a1 1 0 0 1-1-1V28.88a.5.5 0 0 1 .854-.353l8.636 8.635a.5.5 0 0 1-.354.854z"/></svg>