<svg id="Layer_1" data-name="Layer 1" xmlns="http://www.w3.org/2000/svg" width="64" height="64" viewBox="0 0 64 64">
  <defs>
    <style>
      .cls-1 {
        fill-rule: evenodd;
      }
    </style>
  </defs>
  <title>Icons 400</title>
  <path class="cls-1" d="M58.9036,25.8239a12.54,12.54,0,0,1-11.4557,7.202.5036.5036,0,0,1-.488-.4888A10.0049,10.0049,0,0,0,36.9774,23.03a9.8432,9.8432,0,0,0-1.2243.0764.4927.4927,0,0,1-.555-.3868,11.44,11.44,0,0,1-.1782-1.3064A12.5624,12.5624,0,0,1,42.1828,9.0962.9584.9584,0,0,1,43.5,10.2553a11.05,11.05,0,0,0,.8109,8.6025,11.5974,11.5974,0,0,0,4.8569,4.8535,11.02,11.02,0,0,0,8.5749.8011A.9574.9574,0,0,1,58.9036,25.8239ZM44.9725,33.02a8.0182,8.0182,0,0,1-.11,1.2643,6.99,6.99,0,0,1-1.8893,13.7216H14.9911A8.991,8.991,0,0,1,14.04,30.0741a10.9814,10.9814,0,0,1,20.4052-4.63A7.9837,7.9837,0,0,1,44.9725,33.02Z"/>
</svg>
