<svg id="Layer_1" data-name="Layer 1" xmlns="http://www.w3.org/2000/svg" width="64" height="64" viewBox="0 0 64 64">
  <defs>
    <style>
      .cls-1 {
        fill-rule: evenodd;
      }
    </style>
  </defs>
  <title>Icons 400</title>
  <path class="cls-1" d="M59.9865,41.0114a6.999,6.999,0,0,1-6.9988,6.9991H24.992A8.9985,8.9985,0,0,1,24.04,30.064,10.9856,10.9856,0,0,1,44.4546,25.43a7.9585,7.9585,0,0,1,10.4231,8.8479A6.9968,6.9968,0,0,1,59.9865,41.0114ZM20.9926,17.0022a7.9868,7.9868,0,0,1,6.2419,2.999.496.496,0,0,1-.1026.7011A13.0588,13.0588,0,0,0,22.3373,28.07a.4824.4824,0,0,1-.342.3562,10.9285,10.9285,0,0,0-4.9974,3.03.4968.4968,0,0,1-.6475.0783,8.0055,8.0055,0,0,1,4.6422-14.5316ZM32.3739,16.33a5.9977,5.9977,0,0,1-1.2759,1.4988l-1.0341.8724a.9878.9878,0,0,1-1.3936-.11A10.0081,10.0081,0,1,0,14.6688,32.7672a.9893.9893,0,0,1,.0844,1.45l-1.0293,1.0791A5.995,5.995,0,0,1,12.47,36.2994L8.6655,38.5821A.91.91,0,0,1,7.417,37.3335l2.6994-4.4992a.91.91,0,0,0-.8724-1.3738l-2.0535.2087a.91.91,0,0,1-.6672-1.6108l1.6-1.3047a.91.91,0,0,0-.3544-1.5882l-5.09-1.2727a.91.91,0,0,1,0-1.7657l5.09-1.2726a.91.91,0,0,0,.3544-1.5882l-1.6-1.3046a.91.91,0,0,1,.6672-1.6108L9.244,18.56a.91.91,0,0,0,.8724-1.3736L7.417,12.6868A.91.91,0,0,1,8.6655,11.438l4.4991,2.7a.91.91,0,0,0,1.3737-.8725L14.33,11.2116a.91.91,0,0,1,1.6106-.6672l1.3046,1.6a.91.91,0,0,0,1.5883-.3545l1.2726-5.09a.91.91,0,0,1,1.7656,0l1.2725,5.09a.91.91,0,0,0,1.5883.3545l1.3046-1.6a.91.91,0,0,1,1.6106.6672l-.2085,2.0535a.91.91,0,0,0,1.3737.8725l4.4989-2.7A.91.91,0,0,1,34.56,12.6868Z"/>
</svg>
