<svg id="Layer_1" data-name="Layer 1" xmlns="http://www.w3.org/2000/svg" width="64" height="64" viewBox="0 0 64 64"><defs><style>.cls-1{fill-rule:evenodd}</style></defs><title>Icons 400</title><path class="cls-1" d="M58.904 25.824a12.54 12.54 0 0 1-11.456 7.202.504.504 0 0 1-.488-.489 10.005 10.005 0 0 0-9.983-9.507 9.843 9.843 0 0 0-1.224.076.493.493 0 0 1-.555-.386 11.44 11.44 0 0 1-.178-1.307 12.562 12.562 0 0 1 7.163-12.317.958.958 0 0 1 1.317 1.16 11.05 11.05 0 0 0 .81 8.602 11.597 11.597 0 0 0 4.858 4.853 11.02 11.02 0 0 0 8.575.801.957.957 0 0 1 1.16 1.312zM44.972 33.02a8.018 8.018 0 0 1-.11 1.264 6.99 6.99 0 0 1-1.889 13.722H14.991a8.991 8.991 0 0 1-.951-17.932 10.981 10.981 0 0 1 20.405-4.63 7.984 7.984 0 0 1 10.527 7.576z"/></svg>