<svg id="Layer_1" data-name="Layer 1" xmlns="http://www.w3.org/2000/svg" width="64" height="64" viewBox="0 0 64 64"><defs><style>.cls-1{fill-rule:evenodd}</style></defs><title>Icons 400</title><path class="cls-1" d="M59.986 41.011a6.999 6.999 0 0 1-6.998 7H24.992a8.998 8.998 0 0 1-.952-17.947 10.986 10.986 0 0 1 20.415-4.634 7.958 7.958 0 0 1 10.423 8.848 6.997 6.997 0 0 1 5.108 6.733zM20.993 17.002a7.987 7.987 0 0 1 6.242 3 .496.496 0 0 1-.103.7 13.059 13.059 0 0 0-4.795 7.368.482.482 0 0 1-.342.356 10.928 10.928 0 0 0-4.997 3.03.497.497 0 0 1-.648.079 8.005 8.005 0 0 1 4.643-14.532zm11.38-.672a5.998 5.998 0 0 1-1.275 1.499l-1.034.872a.988.988 0 0 1-1.394-.11A10.008 10.008 0 1 0 14.67 32.767a.99.99 0 0 1 .084 1.45l-1.03 1.08a5.995 5.995 0 0 1-1.253 1.002l-3.805 2.283a.91.91 0 0 1-1.248-1.248l2.7-4.5a.91.91 0 0 0-.873-1.374l-2.054.21a.91.91 0 0 1-.667-1.612l1.6-1.304a.91.91 0 0 0-.354-1.589l-5.09-1.272a.91.91 0 0 1 0-1.766l5.09-1.273a.91.91 0 0 0 .354-1.588l-1.6-1.304a.91.91 0 0 1 .667-1.611l2.054.209a.91.91 0 0 0 .872-1.374l-2.699-4.5a.91.91 0 0 1 1.248-1.248l4.5 2.7a.91.91 0 0 0 1.373-.872l-.208-2.054a.91.91 0 0 1 1.61-.668l1.305 1.6a.91.91 0 0 0 1.588-.354l1.273-5.09a.91.91 0 0 1 1.766 0l1.272 5.09a.91.91 0 0 0 1.589.354l1.304-1.6a.91.91 0 0 1 1.61.668l-.208 2.053a.91.91 0 0 0 1.374.873l4.499-2.7a.91.91 0 0 1 1.248 1.249z"/></svg>