<svg id="Layer_1" data-name="Layer 1" xmlns="http://www.w3.org/2000/svg" width="64" height="64" viewBox="0 0 64 64">
  <defs>
    <style>
      .cls-1 {
        fill-rule: evenodd;
      }
    </style>
  </defs>
  <title>Icons 200</title>
  <path class="cls-1" d="M21,18a1,1,0,0,1-1-1V12a2,2,0,0,1,2-2h1.5a1,1,0,0,0,.8-0.4l1.8-2.4A3,3,0,0,1,28.5,6h7a3,3,0,0,1,2.4,1.2l1.8,2.4a1,1,0,0,0,.8.4H42a2,2,0,0,1,2,2v5a1,1,0,0,1-1,1H21Zm26-4h2a3,3,0,0,1,3,3V53a3,3,0,0,1-3,3H15a3,3,0,0,1-3-3V17a3,3,0,0,1,3-3h2a1,1,0,0,1,1,1v2a3,3,0,0,0,3,3H43a3,3,0,0,0,3-3V15A1,1,0,0,1,47,14Z"/>
</svg>
