<svg id="Layer_1" data-name="Layer 1" xmlns="http://www.w3.org/2000/svg" width="64" height="64" viewBox="0 0 64 64"><defs><style>.cls-1{fill-rule:evenodd}</style></defs><title>Icons 300</title><path class="cls-1" d="M56.016 46.016a2 2 0 0 1-2 2h-22a2 2 0 1 1 0-4h22a2 2 0 0 1 2 2zm-39-11a3 3 0 1 1 3-3 3 3 0 0 1-3 3zm1-17a2 2 0 0 1 2-2h22a2 2 0 1 1 0 4h-22a2 2 0 0 1-2-2zm6 14a2 2 0 0 1 2-2h22a2 2 0 0 1 2 2 2 2 0 0 1-2 2h-22a2 2 0 0 1-2-2zm-1 17a3 3 0 1 1 3-3 3 3 0 0 1-3 3zm-9-31a3 3 0 1 1-3-3 3 3 0 0 1 3 3z"/></svg>