<svg id="Layer_1" data-name="Layer 1" xmlns="http://www.w3.org/2000/svg" width="64" height="64" viewBox="0 0 64 64">
  <defs>
    <style>
      .cls-1 {
        fill-rule: evenodd;
      }
    </style>
  </defs>
  <title>Icons 300</title>
  <path class="cls-1" d="M56.0157,46.0158a2,2,0,0,1-2,2h-22a2,2,0,1,1,0-4h22A2,2,0,0,1,56.0157,46.0158Zm-39-11a3,3,0,1,1,3-3A3,3,0,0,1,17.0156,35.0157Zm1-17a2,2,0,0,1,2-2h22a2,2,0,1,1,0,4h-22A2,2,0,0,1,18.0157,18.0158Zm6,14h0a2,2,0,0,1,2-2h22a2,2,0,0,1,2,2h0a2,2,0,0,1-2,2h-22A2,2,0,0,1,24.0157,32.0158Zm-1,17a3,3,0,1,1,3-3A3,3,0,0,1,23.0156,49.0157Zm-9-31a3,3,0,1,1-3-3A3,3,0,0,1,14.0157,18.0157Z"/>
</svg>
