<svg id="Layer_1" data-name="Layer 1" xmlns="http://www.w3.org/2000/svg" width="64" height="64" viewBox="0 0 64 64">
  <defs>
    <style>
      .cls-1 {
        fill-rule: evenodd;
      }
    </style>
  </defs>
  <title>Icons 100</title>
  <path class="cls-1" d="M10.042,53.043L12.06,46.3047a8.0043,8.0043,0,0,1,2.003-3.3587L39.71,17.2591a0.9977,0.9977,0,0,1,1.4124,0l5.5783,5.5878a1.0016,1.0016,0,0,1,0,1.4146L21.0544,49.9476a7.9936,7.9936,0,0,1-3.3573,2.0084l-6.7223,2.02A0.7492,0.7492,0,0,1,10.042,53.043ZM50.3554,10.8542l2.7459,2.7493a2.9931,2.9931,0,0,1,0,4.2286l-3.3467,3.3507a0.994,0.994,0,0,1-1.4074,0l-5.5606-5.5683a0.9977,0.9977,0,0,1,0-1.41l3.3466-3.3507A2.9823,2.9823,0,0,1,50.3554,10.8542Z"/>
</svg>
