<svg id="Layer_1" data-name="Layer 1" xmlns="http://www.w3.org/2000/svg" width="64" height="64" viewBox="0 0 64 64"><defs><style>.cls-1{fill-rule:evenodd}</style></defs><title>Icons 100</title><path class="cls-1" d="M10.042 53.043l2.018-6.738a8.004 8.004 0 0 1 2.003-3.359L39.71 17.259a.998.998 0 0 1 1.412 0l5.579 5.588a1.002 1.002 0 0 1 0 1.414L21.054 49.948a7.994 7.994 0 0 1-3.357 2.008l-6.722 2.02a.75.75 0 0 1-.933-.933zm40.313-42.189l2.746 2.75a2.993 2.993 0 0 1 0 4.228l-3.346 3.35a.994.994 0 0 1-1.408 0l-5.56-5.568a.998.998 0 0 1 0-1.41l3.346-3.35a2.982 2.982 0 0 1 4.222 0z"/></svg>