<svg id="Layer_1" data-name="Layer 1" xmlns="http://www.w3.org/2000/svg" width="64" height="64" viewBox="0 0 64 64">
  <defs>
    <style>
      .cls-1 {
        fill-rule: evenodd;
      }
    </style>
  </defs>
  <title>Icons 100</title>
  <path class="cls-1" d="M54.7254,40.92a1.9546,1.9546,0,0,1-2.4575.9205l-8.0208-3.1836a1.91,1.91,0,0,1-1.2191-1.7733V31.2051a0.9446,0.9446,0,0,0-.5517-0.8626,23.3926,23.3926,0,0,0-10.4716-2.2958,23.3945,23.3945,0,0,0-10.4706,2.295,0.9459,0.9459,0,0,0-.5527.8638v5.6761a1.9127,1.9127,0,0,1-1.2208,1.7754L11.7411,41.84a1.9528,1.9528,0,0,1-2.456-.9188L5.2035,32.8834a1.8824,1.8824,0,0,1,.3761-2.22c2.609-2.504,10.64-8.6756,26.4248-8.6752,15.7871,0,23.8184,6.1736,26.4265,8.6772a1.882,1.882,0,0,1,.3751,2.219Z"/>
</svg>
