<svg id="Layer_1" data-name="Layer 1" xmlns="http://www.w3.org/2000/svg" width="64" height="64" viewBox="0 0 64 64"><defs><style>.cls-1{fill-rule:evenodd}</style></defs><title>Icons 300</title><path class="cls-1" d="M59.616 38.023a1.563 1.563 0 0 1-1.735-1.343L56.01 19.667a1.528 1.528 0 0 1 1.405-1.659 1.563 1.563 0 0 1 1.735 1.343l1.871 17.014a1.528 1.528 0 0 1-1.405 1.658zm-53 8a1.563 1.563 0 0 1-1.735-1.343L3.01 27.667a1.528 1.528 0 0 1 1.405-1.659 1.563 1.563 0 0 1 1.736 1.343l1.87 17.014a1.528 1.528 0 0 1-1.405 1.658zM10.94 21.03a2.122 2.122 0 0 1 2.367 1.788l2.702 23.976A2.049 2.049 0 0 1 14.092 49a2.122 2.122 0 0 1-2.367-1.788L9.023 23.238a2.049 2.049 0 0 1 1.917-2.208zM38.098 7.041a4.966 4.966 0 0 1 5.495 4.397l4.388 37.86a5.002 5.002 0 0 1-4.34 5.566L25.936 56.97a4.966 4.966 0 0 1-5.495-4.397l-4.387-37.859a5.002 5.002 0 0 1 4.34-5.566zM24.029 49.116a.993.993 0 0 0 1.1.88l17.703-2.106a1 1 0 0 0 .868-1.114l-3.695-31.881a.993.993 0 0 0-1.1-.88l-17.703 2.106a1 1 0 0 0-.868 1.113zm26.696-7.902l-2.702-23.976a2.049 2.049 0 0 1 1.917-2.208 2.122 2.122 0 0 1 2.367 1.788l2.702 23.975a2.049 2.049 0 0 1-1.917 2.208 2.122 2.122 0 0 1-2.367-1.787z"/></svg>