<svg id="Layer_1" data-name="Layer 1" xmlns="http://www.w3.org/2000/svg" width="64" height="64" viewBox="0 0 64 64"><defs><style>.cls-1{fill-rule:evenodd}</style></defs><title>Icons 100</title><path class="cls-1" d="M50.11 51.701a1.878 1.878 0 0 1-1.831 1.301c-3.608-.074-13.628-1.386-24.765-12.523-11.138-11.138-12.448-21.16-12.522-24.767a1.878 1.878 0 0 1 1.3-1.83l8.549-2.79a1.95 1.95 0 0 1 2.383 1.085l3.413 7.905a1.906 1.906 0 0 1-.39 2.111L22.24 26.2a.942.942 0 0 0-.22.998 23.34 23.34 0 0 0 5.77 9.008 23.34 23.34 0 0 0 9.005 5.768.944.944 0 0 0 1-.22l4.004-4.004a1.909 1.909 0 0 1 2.114-.391l7.904 3.412a1.948 1.948 0 0 1 1.084 2.38z"/></svg>