<svg id="Layer_1" data-name="Layer 1" xmlns="http://www.w3.org/2000/svg" width="64" height="64" viewBox="0 0 64 64"><defs><style>.cls-1{fill-rule:evenodd}</style></defs><title>Icons 300</title><path class="cls-1" d="M62.998 32.026h-4.983a25.849 25.849 0 0 1-3.263 12.608 2.002 2.002 0 0 1-3.478-1.982 21.863 21.863 0 0 0 2.74-10.626H49.02a1.024 1.024 0 0 1-.82-1.618l6.989-9.948a.997.997 0 0 1 1.638 0l6.989 9.948a1.024 1.024 0 0 1-.819 1.618zM9.28 19.398a2.002 2.002 0 0 1 3.478 1.983 21.863 21.863 0 0 0-2.74 10.625h4.992a1.024 1.024 0 0 1 .82 1.618L8.84 43.572a.997.997 0 0 1-1.638 0L.214 33.623a1.024 1.024 0 0 1 .82-1.618h4.983A25.848 25.848 0 0 1 9.28 19.397zm34.36 35.467l-17.704 2.105a4.966 4.966 0 0 1-5.495-4.397l-4.387-37.859a5.002 5.002 0 0 1 4.34-5.566L38.097 7.04a4.966 4.966 0 0 1 5.495 4.397l4.388 37.86a5.002 5.002 0 0 1-4.341 5.566zm-3.635-39.97a.993.993 0 0 0-1.099-.879l-17.704 2.106a1 1 0 0 0-.868 1.113l3.695 31.882a.994.994 0 0 0 1.099.88l17.704-2.106a1 1 0 0 0 .868-1.114z"/></svg>