<svg id="Layer_1" data-name="Layer 1" xmlns="http://www.w3.org/2000/svg" width="64" height="64" viewBox="0 0 64 64"><defs><style>.cls-1{fill-rule:evenodd}</style></defs><title>Icons 300</title><path class="cls-1" d="M56.828 43.572a.997.997 0 0 1-1.638 0l-6.988-9.949a1.024 1.024 0 0 1 .819-1.618h4.993a21.867 21.867 0 0 0-2.74-10.625 2.002 2.002 0 0 1 3.478-1.983 25.848 25.848 0 0 1 3.262 12.608h4.984a1.024 1.024 0 0 1 .819 1.618zM8.841 20.46l6.989 9.948a1.024 1.024 0 0 1-.82 1.618h-4.992a21.86 21.86 0 0 0 2.74 10.626 2.002 2.002 0 0 1-3.478 1.982 25.844 25.844 0 0 1-3.263-12.608H1.033a1.024 1.024 0 0 1-.819-1.618l6.99-9.948a.997.997 0 0 1 1.637 0zM43.59 52.572a4.966 4.966 0 0 1-5.495 4.397l-17.703-2.105a5.002 5.002 0 0 1-4.341-5.567l4.388-37.86a4.966 4.966 0 0 1 5.495-4.396l17.704 2.105a5.002 5.002 0 0 1 4.34 5.567zm-.76-36.451l-17.704-2.106a.993.993 0 0 0-1.1.88l-3.695 31.881a1 1 0 0 0 .869 1.114l17.704 2.106a.993.993 0 0 0 1.099-.88l3.695-31.882a1 1 0 0 0-.869-1.113z"/></svg>