<svg id="Layer_1" data-name="Layer 1" xmlns="http://www.w3.org/2000/svg" width="64" height="64" viewBox="0 0 64 64">
  <defs>
    <style>
      .cls-1 {
        fill-rule: evenodd;
      }
    </style>
  </defs>
  <title>Icons 100</title>
  <path class="cls-1" d="M50.11,51.7013a1.8782,1.8782,0,0,1-1.8315,1.3009c-3.6075-.0739-13.6278-1.3859-24.7644-12.5229C12.3763,29.3409,11.0656,19.319,10.9919,15.7125a1.8777,1.8777,0,0,1,1.3009-1.83l8.5482-2.79a1.95,1.95,0,0,1,2.3834,1.0844l3.4127,7.905a1.9059,1.9059,0,0,1-.3909,2.1112L22.24,26.199a0.9422,0.9422,0,0,0-.2192.9979,23.3405,23.3405,0,0,0,5.7683,9.0079,23.34,23.34,0,0,0,9.0064,5.768,0.9436,0.9436,0,0,0,.9993-0.2194l4.0046-4.0049a1.9085,1.9085,0,0,1,2.1141-.391L51.8169,40.77a1.9483,1.9483,0,0,1,1.0845,2.3809Z"/>
</svg>
