<svg id="Layer_1" data-name="Layer 1" xmlns="http://www.w3.org/2000/svg" width="64" height="64" viewBox="0 0 64 64"><defs><style>.cls-1{fill-rule:evenodd}</style></defs><title>Icons 100</title><path class="cls-1" d="M54.725 40.92a1.955 1.955 0 0 1-2.457.92l-8.02-3.183a1.91 1.91 0 0 1-1.22-1.773v-5.679a.945.945 0 0 0-.552-.862 23.393 23.393 0 0 0-10.471-2.296 23.395 23.395 0 0 0-10.47 2.295.946.946 0 0 0-.554.864v5.676a1.913 1.913 0 0 1-1.22 1.775l-8.02 3.183a1.953 1.953 0 0 1-2.456-.919l-4.082-8.038a1.882 1.882 0 0 1 .377-2.22c2.609-2.504 10.64-8.675 26.424-8.675 15.788 0 23.819 6.174 26.427 8.677a1.882 1.882 0 0 1 .375 2.22z"/></svg>