<svg id="Layer_1" data-name="Layer 1" xmlns="http://www.w3.org/2000/svg" width="64" height="64" viewBox="0 0 64 64">
  <defs>
    <style>
      .cls-1 {
        fill-rule: evenodd;
      }
    </style>
  </defs>
  <title>Icons 300</title>
  <path class="cls-1" d="M56.0158,45.0157a6,6,0,0,1-6,6h-36a6,6,0,0,1-6-6v-26a6,6,0,0,1,6-6h36a6,6,0,0,1,6,6Zm-4-26a2,2,0,0,0-2-2h-36a2,2,0,0,0-2,2V43.1747L24.5936,30.6016a2.0006,2.0006,0,0,1,2.829,0L38.0111,41.1872l4.5866-4.5856a2,2,0,0,1,2.829,0l6.5891,6.587Zm-11,12a5,5,0,1,1,5-5A5,5,0,0,1,41.0157,31.0157Z"/>
</svg>
