<svg id="Layer_1" data-name="Layer 1" xmlns="http://www.w3.org/2000/svg" width="64" height="64" viewBox="0 0 64 64">
  <defs>
    <style>
      .cls-1 {
        fill-rule: evenodd;
      }
    </style>
  </defs>
  <title>Icons 300</title>
  <path class="cls-1" d="M14.4248,42.5071l4.076-1.0189a2,2,0,0,0,1.5149-1.94l0-25.5323a2,2,0,0,1,4,0v33.549c0,3.7845-3.3955,6.4511-8,6.4511a5.881,5.881,0,0,1-6-5.8615A5.821,5.821,0,0,1,14.4248,42.5071ZM30.0156,16.0158h20a2,2,0,1,1,0,4h-20a2,2,0,1,1,0-4Zm0,14h20a2,2,0,1,1,0,4h-20a2,2,0,1,1,0-4Zm0,14h20a2,2,0,1,1,0,4h-20a2,2,0,1,1,0-4Z"/>
</svg>
