<svg id="Layer_1" data-name="Layer 1" xmlns="http://www.w3.org/2000/svg" width="64" height="64" viewBox="0 0 64 64"><defs><style>.cls-1{fill-rule:evenodd}</style></defs><title>Icons 300</title><path class="cls-1" d="M14.425 42.507l4.076-1.019a2 2 0 0 0 1.515-1.94V14.016a2 2 0 0 1 4 0v33.549c0 3.784-3.396 6.451-8 6.451a5.881 5.881 0 0 1-6-5.861 5.821 5.821 0 0 1 4.409-5.648zm15.59-26.491h20a2 2 0 1 1 0 4h-20a2 2 0 1 1 0-4zm0 14h20a2 2 0 1 1 0 4h-20a2 2 0 1 1 0-4zm0 14h20a2 2 0 1 1 0 4h-20a2 2 0 1 1 0-4z"/></svg>