<svg id="Layer_1" data-name="Layer 1" xmlns="http://www.w3.org/2000/svg" width="64" height="64" viewBox="0 0 64 64">
  <defs>
    <style>
      .cls-1 {
        fill-rule: evenodd;
      }
    </style>
  </defs>
  <title>Icons 100</title>
  <path class="cls-1" d="M12.9884,19.2849L29.9869,29.6018V21.0786a1.9967,1.9967,0,0,1,3.0014-1.7937L50,29.61V21a2,2,0,0,1,4,0V43a2,2,0,0,1-4,0V34.3886L32.9883,44.7133a1.9968,1.9968,0,0,1-3.0014-1.7938V34.3966L12.9884,44.7133a1.9968,1.9968,0,0,1-3.0015-1.7938V21.0786A1.9968,1.9968,0,0,1,12.9884,19.2849Z"/>
</svg>
