<svg id="Layer_1" data-name="Layer 1" xmlns="http://www.w3.org/2000/svg" width="64" height="64" viewBox="0 0 64 64"><defs><style>.cls-1{fill-rule:evenodd}</style></defs><title>Icons 400</title><path class="cls-1" d="M55 31.017a22.991 22.991 0 0 1-16.778 22.126.748.748 0 0 1-.938-.768l.068-1.264a1.26 1.26 0 0 1 .871-1.12 19.496 19.496 0 1 0-12.418.008 1.26 1.26 0 0 1 .873 1.121l.068 1.264a.749.749 0 0 1-.937.768A22.994 22.994 0 1 1 55 31.017zm-7.994-1.013a14.988 14.988 0 0 1-8.094 13.31.756.756 0 0 1-1.106-.708l.067-1.256a1.939 1.939 0 0 1 .786-1.484 11.5 11.5 0 1 0-13.292.02 1.938 1.938 0 0 1 .79 1.486l.067 1.248a.757.757 0 0 1-1.104.708 14.998 14.998 0 1 1 21.886-13.324zM32 24.015a5 5 0 1 1-5 5 5 5 0 0 1 5-5zm.013 11.997c3.587 0 4.042 1.637 3.99 2.593l-.8 15.003c-.047.883-.622 2.408-3.19 2.408s-3.157-1.525-3.204-2.408l-.8-15.003c-.051-.955.417-2.593 4.004-2.593z"/></svg>