<svg id="Layer_1" data-name="Layer 1" xmlns="http://www.w3.org/2000/svg" width="64" height="64" viewBox="0 0 64 64">
  <defs>
    <style>
      .cls-1 {
        fill-rule: evenodd;
      }
    </style>
  </defs>
  <title>Icons 400</title>
  <path class="cls-1" d="M55,31.0167A22.9914,22.9914,0,0,1,38.2219,53.143a.7484.7484,0,0,1-.9376-.7678l.0675-1.2639a1.26,1.26,0,0,1,.8714-1.1207,19.496,19.496,0,1,0-12.4183.0086,1.26,1.26,0,0,1,.8733,1.1213l.0675,1.2637a.7486.7486,0,0,1-.9367.7682A22.9939,22.9939,0,1,1,55,31.0167Zm-7.9937-1.0123a14.9875,14.9875,0,0,1-8.0945,13.3089.7565.7565,0,0,1-1.1059-.7074l.067-1.2559a1.9386,1.9386,0,0,1,.7865-1.4835,11.5008,11.5008,0,1,0-13.2926.0189,1.9382,1.9382,0,0,1,.7909,1.4867l.0666,1.248a.7566.7566,0,0,1-1.1046.7081A14.998,14.998,0,1,1,47.0063,30.0044ZM32,24.015a5,5,0,1,1-5,5A5,5,0,0,1,32,24.015Zm.013,11.9972c3.5874,0,4.0415,1.6373,3.9906,2.5929l-.8,15.0026c-.0471.8834-.6226,2.408-3.1906,2.408s-3.1574-1.5246-3.2045-2.408l-.8-15.0026C27.9576,37.65,28.4256,36.0122,32.013,36.0122Z"/>
</svg>
