<svg id="Layer_1" data-name="Layer 1" xmlns="http://www.w3.org/2000/svg" width="64" height="64" viewBox="0 0 64 64">
  <defs>
    <style>
      .cls-1 {
        fill-rule: evenodd;
      }
    </style>
  </defs>
  <title>Icons 400</title>
  <path class="cls-1" d="M51.9981,26.9913a2,2,0,0,1-2.002-1.9981V16.8521L33.3721,33.43a1.9895,1.9895,0,0,1-2.8046-2.8224L47.21,14.0119H38.9776a1.9981,1.9981,0,1,1,0-3.9962h13.02A2,2,0,0,1,54,12.0137V24.9932A2,2,0,0,1,51.9981,26.9913ZM28,22.0089H16a2.0024,2.0024,0,0,0-2,2.0006V48.0158a2.0023,2.0023,0,0,0,2,2.0006H40a2.0027,2.0027,0,0,0,2-2.0006v-12a2,2,0,1,1,4,0v12a6.0077,6.0077,0,0,1-6,6.0021H16a6.0077,6.0077,0,0,1-6-6.0021V24.0095a6.0075,6.0075,0,0,1,6-6.0019H28a2.0007,2.0007,0,0,1,0,4.0013Z"/>
</svg>
