<svg id="Layer_1" data-name="Layer 1" xmlns="http://www.w3.org/2000/svg" width="64" height="64" viewBox="0 0 64 64"><defs><style>.cls-1{fill-rule:evenodd}</style></defs><title>Icons 400</title><path class="cls-1" d="M51.998 26.991a2 2 0 0 1-2.002-1.998v-8.14L33.372 33.43a1.99 1.99 0 0 1-2.804-2.822L47.21 14.012h-8.232a1.998 1.998 0 1 1 0-3.996h13.02A2 2 0 0 1 54 12.014v12.98a2 2 0 0 1-2.002 1.997zM28 22.01H16a2.002 2.002 0 0 0-2 2v24.007a2.002 2.002 0 0 0 2 2h24a2.003 2.003 0 0 0 2-2v-12a2 2 0 1 1 4 0v12a6.008 6.008 0 0 1-6 6.002H16a6.008 6.008 0 0 1-6-6.002V24.01a6.008 6.008 0 0 1 6-6.002h12a2 2 0 0 1 0 4z"/></svg>