<svg id="Layer_1" data-name="Layer 1" xmlns="http://www.w3.org/2000/svg" width="64" height="64" viewBox="0 0 64 64">
  <defs>
    <style>
      .cls-1 {
        fill-rule: evenodd;
      }
    </style>
  </defs>
  <title>Icons 300</title>
  <path class="cls-1" d="M31.5793,42.58c-4.2264,2.1061-5.1294,2.1049-8.6811-1.4468s-3.553-4.4547-1.4469-8.6813c2.9115-5.8428,5.2219-15.35,10.128-20.2561A14.3233,14.3233,0,1,1,51.8355,32.4519C46.9293,37.3581,37.4222,39.6685,31.5793,42.58Zm-16.1158.1448c3.64-1.505,2.8992-2.9339,5.8394,0h0c2.94,2.9338,1.5081,2.1941,0,5.8268-.9551,2.3-.69,5.0583-2.19,6.5551a3.09,3.09,0,0,1-4.38,0c-1.3027-1.3-1.1209-2.5752-2.19-3.6417h0C11.4751,50.3984,10.197,50.58,8.8943,49.28a3.0743,3.0743,0,0,1,0-4.37C10.3944,43.413,13.1581,43.6777,15.4635,42.7248Z"/>
</svg>
