<svg id="Layer_1" data-name="Layer 1" xmlns="http://www.w3.org/2000/svg" width="64" height="64" viewBox="0 0 64 64"><defs><style>.cls-1{fill-rule:evenodd}</style></defs><title>Icons 300</title><path class="cls-1" d="M31.58 42.58c-4.227 2.106-5.13 2.105-8.682-1.447s-3.553-4.455-1.447-8.681c2.912-5.843 5.222-15.35 10.128-20.256a14.323 14.323 0 1 1 20.257 20.256c-4.907 4.906-14.414 7.217-20.257 10.128zm-16.116.145c3.64-1.505 2.899-2.934 5.839 0 2.94 2.934 1.508 2.194 0 5.827-.955 2.3-.69 5.058-2.19 6.555a3.09 3.09 0 0 1-4.38 0c-1.303-1.3-1.121-2.576-2.19-3.642-1.068-1.067-2.346-.885-3.649-2.185a3.074 3.074 0 0 1 0-4.37c1.5-1.497 4.264-1.232 6.57-2.185z"/></svg>