<svg id="Layer_1" data-name="Layer 1" xmlns="http://www.w3.org/2000/svg" width="64" height="64" viewBox="0 0 64 64">
  <defs>
    <style>
      .cls-1 {
        fill-rule: evenodd;
      }
    </style>
  </defs>
  <title>Icons 300</title>
  <path class="cls-1" d="M32.0156,56.0156a24,24,0,1,1,24-24A24,24,0,0,1,32.0156,56.0156Zm0-44a20,20,0,1,0,20,20A20,20,0,0,0,32.0156,12.0156ZM35.9882,42.72l-15.02-8.9907a1.9963,1.9963,0,0,1,0-3.4261l15.02-8.9907a2.0038,2.0038,0,0,1,3.0326,1.7131V41.0065A2.0042,2.0042,0,0,1,35.9882,42.72Z"/>
</svg>
