<svg id="Layer_1" data-name="Layer 1" xmlns="http://www.w3.org/2000/svg" width="64" height="64" viewBox="0 0 64 64">
  <defs>
    <style>
      .cls-1 {
        fill-rule: evenodd;
      }
    </style>
  </defs>
  <title>Icons 300</title>
  <path class="cls-1" d="M32.0156,56.0222a24.05,24.05,0,0,1-13.8864-43.651A2.0015,2.0015,0,0,1,20.41,15.6606a20,20,0,1,0,23.21,0,2.0015,2.0015,0,0,1,2.2812-3.2894,24.05,24.05,0,0,1-13.8864,43.651Zm0-26.0066a2,2,0,0,1-2-2v-22a2,2,0,0,1,4,0v22A2,2,0,0,1,32.0156,30.0156Z"/>
</svg>
