<svg id="Layer_1" data-name="Layer 1" xmlns="http://www.w3.org/2000/svg" width="64" height="64" viewBox="0 0 64 64">
  <defs>
    <style>
      .cls-1 {
        fill-rule: evenodd;
      }
    </style>
  </defs>
  <title>Icons 200</title>
  <path class="cls-1" d="M55,54H9a1,1,0,0,1-1-1V37a5,5,0,0,1,5-5H51a5,5,0,0,1,5,5V53A1,1,0,0,1,55,54Zm-4.1592-5.5547-4.0021-6A1,1,0,0,0,46.0066,42H17.9921a1,1,0,0,0-.8324.4452l-4.002,6A1,1,0,0,0,13.99,50H50.0085A1,1,0,0,0,50.8409,48.4453ZM46,30H18a1,1,0,0,1-1-1V13a3,3,0,0,1,3-3H44a3,3,0,0,1,3,3V29A1,1,0,0,1,46,30Z"/>
</svg>
