<svg id="Layer_1" data-name="Layer 1" xmlns="http://www.w3.org/2000/svg" width="64" height="64" viewBox="0 0 64 64">
  <defs>
    <style>
      .cls-1 {
        fill-rule: evenodd;
      }
    </style>
  </defs>
  <title>Icons 300</title>
  <path class="cls-1" d="M53.5959,44.1881l-8.7306,9.1314a8.7276,8.7276,0,0,1-6.3079,2.696H26.0318a8.7277,8.7277,0,0,1-6.16-2.545l-9.2884-9.2546a8.7265,8.7265,0,0,1-2.5675-6.1822V25.5261a8.727,8.727,0,0,1,2.6955-6.3072l9.1841-8.7829a8.7276,8.7276,0,0,1,6.0317-2.42H38.6628a8.7281,8.7281,0,0,1,6.1829,2.5678l8.6253,8.6585a8.7271,8.7271,0,0,1,2.5445,6.1591V38.157A8.7267,8.7267,0,0,1,53.5959,44.1881ZM47.92,30.71a2.2072,2.2072,0,0,0-1.9031-.696c-2.5316,0-5.1456,4.4322-5.8292,5.6754a.6254.6254,0,0,1-1.1717-.3041v-16.87a1.5,1.5,0,1,0-3,0v12.5a1,1,0,0,1-2,0v-14.5a1.5,1.5,0,1,0-3,0v14.5a1,1,0,0,1-2,0v-12.5a1.5,1.5,0,1,0-3,0v13.5a1,1,0,1,1-2,0v-8.5a1.5,1.5,0,0,0-3,0c0,.8284-.0027,15.4929-.0027,15.4929a9.9975,9.9975,0,0,0,10.0015,9.9938c5.5446,0,9.9028-2.4483,12.0019-8.9937a32.6472,32.6472,0,0,1,4.9035-8.714A.4985.4985,0,0,0,47.92,30.71Z"/>
</svg>
