<svg id="Layer_1" data-name="Layer 1" xmlns="http://www.w3.org/2000/svg" width="64" height="64" viewBox="0 0 64 64"><defs><style>.cls-1{fill-rule:evenodd}</style></defs><title>Icons 300</title><path class="cls-1" d="M53.596 44.188l-8.73 9.131a8.728 8.728 0 0 1-6.309 2.696H26.032a8.728 8.728 0 0 1-6.16-2.545l-9.289-9.254a8.726 8.726 0 0 1-2.567-6.182V25.526a8.727 8.727 0 0 1 2.695-6.307l9.185-8.783a8.728 8.728 0 0 1 6.031-2.42h12.736a8.728 8.728 0 0 1 6.183 2.568l8.625 8.658a8.727 8.727 0 0 1 2.544 6.16v12.755a8.727 8.727 0 0 1-2.42 6.031zM47.92 30.71a2.207 2.207 0 0 0-1.903-.696c-2.532 0-5.146 4.432-5.83 5.675a.625.625 0 0 1-1.171-.304v-16.87a1.5 1.5 0 1 0-3 0v12.5a1 1 0 0 1-2 0v-14.5a1.5 1.5 0 1 0-3 0v14.5a1 1 0 0 1-2 0v-12.5a1.5 1.5 0 1 0-3 0v13.5a1 1 0 1 1-2 0v-8.5a1.5 1.5 0 0 0-3 0l-.003 15.493a9.998 9.998 0 0 0 10.002 9.994c5.544 0 9.903-2.448 12.002-8.994a32.647 32.647 0 0 1 4.903-8.714.498.498 0 0 0 0-.584z"/></svg>