<svg id="Layer_1" data-name="Layer 1" xmlns="http://www.w3.org/2000/svg" width="64" height="64" viewBox="0 0 64 64">
  <defs>
    <style>
      .cls-1 {
        fill-rule: evenodd;
      }
    </style>
  </defs>
  <title>Icons 400</title>
  <path class="cls-1" d="M50,52.0157H14a6,6,0,0,1-6-6v-28a6,6,0,0,1,6-6H50a6,6,0,0,1,6,6v28A6,6,0,0,1,50,52.0157Zm-6-30.002a2,2,0,0,0-2.002-1.998h-13.02a1.9981,1.9981,0,1,0,0,3.9961H37.21L20.5675,40.6072A1.9895,1.9895,0,0,0,23.3721,43.43l16.624-16.5775v8.1411a2.002,2.002,0,0,0,4.004,0Z"/>
</svg>
