<svg id="Layer_1" data-name="Layer 1" xmlns="http://www.w3.org/2000/svg" width="64" height="64" viewBox="0 0 64 64">
  <defs>
    <style>
      .cls-1 {
        fill-rule: evenodd;
      }
    </style>
  </defs>
  <title>Icons 300</title>
  <path class="cls-1" d="M32.0157,56.0155a24,24,0,1,1,24-24A24,24,0,0,1,32.0157,56.0155Zm3.5-41a3.5,3.5,0,1,0,3.5,3.5A3.5,3.5,0,0,0,35.5156,15.0157ZM43.12,29.8529l-4.3736-.7952a.5.5,0,0,1-.3464-.2468l-1.5337-2.7268a4,4,0,0,0-1.6976-1.6165l-1.7158-.858a5.6242,5.6242,0,0,0-3.8409-.4355L24.3088,24.46a3,3,0,0,0-2.2931,2.9155v4.5724a1.0678,1.0678,0,0,0,2.1259.1443l.5848-4.2888a.37.37,0,0,1,.3279-.318l4.2382-.446a.1249.1249,0,0,1,.1256.1786l-2.3417,4.85A16,16,0,0,0,25.658,36.68l-.6125,4.1357a.7527.7527,0,0,1-.1565.3587l-3.5446,4.4309a1.4993,1.4993,0,0,0-.3288.937,1.4739,1.4739,0,0,0,1.4738,1.4738,1.6105,1.6105,0,0,0,1.2195-.4655l3.67-3.8536A8.0062,8.0062,0,0,0,28.816,41.604l1.6329-3.4474a.125.125,0,0,1,.19-.0452L34.8541,41.39a.5.5,0,0,1,.1886.3285l.7871,5.9727a1.581,1.581,0,0,0,1.592,1.3245,1.5627,1.5627,0,0,0,1.6039-1.6043l-.4286-6.5561a4,4,0,0,0-1.2328-2.6886l-4.2849-4.09a.125.125,0,0,1-.028-.1412l1.8807-4.2319a.1251.1251,0,0,1,.212-.0272l.8206,1.0258a3.5,3.5,0,0,0,2.7331,1.3136h4.2277a1.09,1.09,0,0,0,.1949-2.1628Z"/>
</svg>
