<svg id="Layer_1" data-name="Layer 1" xmlns="http://www.w3.org/2000/svg" width="64" height="64" viewBox="0 0 64 64"><defs><style>.cls-1{fill-rule:evenodd}</style></defs><title>Icons 300</title><path class="cls-1" d="M32.016 56.016a24 24 0 1 1 24-24 24 24 0 0 1-24 24zm3.5-41a3.5 3.5 0 1 0 3.5 3.5 3.5 3.5 0 0 0-3.5-3.5zm7.604 14.837l-4.374-.795a.5.5 0 0 1-.346-.247l-1.534-2.727a4 4 0 0 0-1.697-1.616l-1.716-.858a5.624 5.624 0 0 0-3.841-.436l-5.303 1.286a3 3 0 0 0-2.293 2.916v4.572a1.068 1.068 0 0 0 2.126.144l.584-4.289a.37.37 0 0 1 .328-.318l4.239-.446a.125.125 0 0 1 .125.179l-2.342 4.85a16 16 0 0 0-1.418 4.612l-.613 4.136a.753.753 0 0 1-.156.358l-3.545 4.431a1.5 1.5 0 0 0-.328.937 1.474 1.474 0 0 0 1.473 1.474 1.61 1.61 0 0 0 1.22-.465l3.67-3.854a8.006 8.006 0 0 0 1.437-2.093l1.633-3.447a.125.125 0 0 1 .19-.046l4.215 3.279a.5.5 0 0 1 .189.329l.787 5.972a1.581 1.581 0 0 0 1.592 1.325 1.563 1.563 0 0 0 1.604-1.605l-.429-6.556a4 4 0 0 0-1.233-2.688l-4.285-4.09a.125.125 0 0 1-.028-.142l1.881-4.231a.125.125 0 0 1 .212-.028l.82 1.026a3.5 3.5 0 0 0 2.734 1.314h4.228a1.09 1.09 0 0 0 .194-2.163z"/></svg>