<svg id="Layer_1" data-name="Layer 1" xmlns="http://www.w3.org/2000/svg" width="64" height="64" viewBox="0 0 64 64">
  <defs>
    <style>
      .cls-1 {
        fill-rule: evenodd;
      }
    </style>
  </defs>
  <title>Icons 200</title>
  <path class="cls-1" d="M12,16a4,4,0,0,1,4-4h4a4,4,0,0,1,4,4v4a4,4,0,0,1-4,4H16a4,4,0,0,1-4-4V16Zm4,3a1,1,0,0,0,1,1h2a1,1,0,0,0,1-1V17a1,1,0,0,0-1-1H17a1,1,0,0,0-1,1v2ZM14,32h1.5a0.5,0.5,0,0,0,.5-0.5V30a2,2,0,1,1,4,0v1.5a0.5,0.5,0,0,0,.5.5H22a2,2,0,1,1,0,4H14A2,2,0,1,1,14,32ZM12,44a4,4,0,0,1,4-4h4a4,4,0,0,1,4,4v4a4,4,0,0,1-4,4H16a4,4,0,0,1-4-4V44Zm4,3a1,1,0,0,0,1,1h2a1,1,0,0,0,1-1V45a1,1,0,0,0-1-1H17a1,1,0,0,0-1,1v2Zm34,5H46a2,2,0,1,1,0-4h4A2,2,0,1,1,50,52Zm2-14a2,2,0,0,1-2,2H48.5a0.5,0.5,0,0,0-.5.5V42a2,2,0,0,1-4,0V38a2,2,0,0,1,2-2h1.5a0.5,0.5,0,0,0,.5-0.5v-3a0.5,0.5,0,0,0-.5-0.5H46a2,2,0,1,1,0-4h4a2,2,0,0,1,2,2v8ZM44,12h4a4,4,0,0,1,4,4v4a4,4,0,0,1-4,4H44a4,4,0,0,1-4-4V16A4,4,0,0,1,44,12Zm0,7a1,1,0,0,0,1,1h2a1,1,0,0,0,1-1V17a1,1,0,0,0-1-1H45a1,1,0,0,0-1,1v2ZM30,16a2,2,0,0,1,0-4h4a2,2,0,0,1,2,2v9.5a0.5,0.5,0,0,0,.5.5H38a2,2,0,1,1,0,4H34a2,2,0,0,1-2-2V24.5a0.5,0.5,0,0,0-.5-0.5H30a2,2,0,1,1,0-4h1.5a0.5,0.5,0,0,0,.5-0.5V16H30ZM28,32.5a0.5,0.5,0,0,0-.5-0.5H26a2,2,0,1,1,0-4h4a2,2,0,0,1,2,2v4a2,2,0,0,1-4,0V32.5ZM30,40h1.5a0.5,0.5,0,0,0,.5-0.5V38a2,2,0,0,1,2-2h1.5a0.5,0.5,0,0,0,.5-0.5V34a2,2,0,0,1,4,0v4a2,2,0,0,1-2,2H36.5a0.5,0.5,0,0,0-.5.5V42a2,2,0,0,1-2,2H30A2,2,0,1,1,30,40Zm8,4a2,2,0,0,1,2,2v4a2,2,0,0,1-2,2H30a2,2,0,1,1,0-4h5.5a0.5,0.5,0,0,0,.5-0.5V46A2,2,0,0,1,38,44Z"/>
</svg>
