<svg id="Layer_1" data-name="Layer 1" xmlns="http://www.w3.org/2000/svg" width="64" height="64" viewBox="0 0 64 64"><defs><style>.cls-1{fill-rule:evenodd}</style></defs><title>Icons 200</title><path class="cls-1" d="M12 16a4 4 0 0 1 4-4h4a4 4 0 0 1 4 4v4a4 4 0 0 1-4 4h-4a4 4 0 0 1-4-4v-4zm4 3a1 1 0 0 0 1 1h2a1 1 0 0 0 1-1v-2a1 1 0 0 0-1-1h-2a1 1 0 0 0-1 1v2zm-2 13h1.5a.5.5 0 0 0 .5-.5V30a2 2 0 1 1 4 0v1.5a.5.5 0 0 0 .5.5H22a2 2 0 1 1 0 4h-8a2 2 0 1 1 0-4zm-2 12a4 4 0 0 1 4-4h4a4 4 0 0 1 4 4v4a4 4 0 0 1-4 4h-4a4 4 0 0 1-4-4v-4zm4 3a1 1 0 0 0 1 1h2a1 1 0 0 0 1-1v-2a1 1 0 0 0-1-1h-2a1 1 0 0 0-1 1v2zm34 5h-4a2 2 0 1 1 0-4h4a2 2 0 1 1 0 4zm2-14a2 2 0 0 1-2 2h-1.5a.5.5 0 0 0-.5.5V42a2 2 0 0 1-4 0v-4a2 2 0 0 1 2-2h1.5a.5.5 0 0 0 .5-.5v-3a.5.5 0 0 0-.5-.5H46a2 2 0 1 1 0-4h4a2 2 0 0 1 2 2v8zm-8-26h4a4 4 0 0 1 4 4v4a4 4 0 0 1-4 4h-4a4 4 0 0 1-4-4v-4a4 4 0 0 1 4-4zm0 7a1 1 0 0 0 1 1h2a1 1 0 0 0 1-1v-2a1 1 0 0 0-1-1h-2a1 1 0 0 0-1 1v2zm-14-3a2 2 0 0 1 0-4h4a2 2 0 0 1 2 2v9.5a.5.5 0 0 0 .5.5H38a2 2 0 1 1 0 4h-4a2 2 0 0 1-2-2v-1.5a.5.5 0 0 0-.5-.5H30a2 2 0 1 1 0-4h1.5a.5.5 0 0 0 .5-.5V16h-2zm-2 16.5a.5.5 0 0 0-.5-.5H26a2 2 0 1 1 0-4h4a2 2 0 0 1 2 2v4a2 2 0 0 1-4 0v-1.5zm2 7.5h1.5a.5.5 0 0 0 .5-.5V38a2 2 0 0 1 2-2h1.5a.5.5 0 0 0 .5-.5V34a2 2 0 0 1 4 0v4a2 2 0 0 1-2 2h-1.5a.5.5 0 0 0-.5.5V42a2 2 0 0 1-2 2h-4a2 2 0 1 1 0-4zm8 4a2 2 0 0 1 2 2v4a2 2 0 0 1-2 2h-8a2 2 0 1 1 0-4h5.5a.5.5 0 0 0 .5-.5V46a2 2 0 0 1 2-2z"/></svg>