<svg id="Layer_1" data-name="Layer 1" xmlns="http://www.w3.org/2000/svg" width="64" height="64" viewBox="0 0 64 64">
  <defs>
    <style>
      .cls-1 {
        fill-rule: evenodd;
      }
    </style>
  </defs>
  <title>Icons 400</title>
  <path class="cls-1" d="M54,29.0156a7,7,0,0,1-7,7H19a9,9,0,0,1-.952-17.9487,10.9873,10.9873,0,0,1,20.4177-4.6348,7.9614,7.9614,0,0,1,10.4211,8.8734A6.98,6.98,0,0,1,54,29.0156ZM20.1767,39.1308A2.0007,2.0007,0,0,1,23.7559,40.92L16.7531,54.9242A2.0007,2.0007,0,0,1,13.174,53.135Zm10.0042,0A2.0007,2.0007,0,0,1,33.76,40.92L26.7573,54.9242a2.0007,2.0007,0,0,1-3.5792-1.7892Zm10.0042,0A2.0007,2.0007,0,0,1,43.7642,40.92L36.7615,54.9242a2.0007,2.0007,0,0,1-3.5791-1.7892Z"/>
</svg>
