<svg id="Layer_1" data-name="Layer 1" xmlns="http://www.w3.org/2000/svg" width="64" height="64" viewBox="0 0 64 64">
  <defs>
    <style>
      .cls-1 {
        fill-rule: evenodd;
      }
    </style>
  </defs>
  <title>Icons 200</title>
  <path class="cls-1" d="M38,9c0-.5524.8954-1,2-1s2,0.4477,2,1,0.8954,1,2,1,2-.4477,2-1,0.8954-1,2-1,2,0.4477,2,1V55c0,0.5522-.8955,1-2,1s-2-.4478-2-1-0.8955-1-2-1-2,.4477-2,1-0.8955,1-2,1-2-.4478-2-1-0.8955-1-2-1-2,.4477-2,1-0.8955,1-2,1-2-.4478-2-1-0.8955-1-2-1-2,.4477-2,1-0.8955,1-2,1-2-.4478-2-1-0.8956-1-2-1-2,.4477-2,1-0.8954,1-2,1-2-.4478-2-1V9c0-.5524.8955-1,2-1s2,0.4477,2,1,0.8955,1,2,1,2-.4477,2-1,0.8953-1,2-1,2,0.4477,2,1,0.8954,1,2,1,2-.4477,2-1,0.8954-1,2-1,2,0.4477,2,1,0.8954,1,2,1S38,9.5523,38,9Zm1,33h6a1,1,0,1,0,0-2H39A1,1,0,1,0,39,42Zm0-6h6a1,1,0,1,0,0-2H39A1,1,0,1,0,39,36Zm0-6h6a1,1,0,0,0,0-2H39A1,1,0,0,0,39,30ZM19,42h8a1,1,0,1,0,0-2H19A1,1,0,1,0,19,42Zm0-6H33a1,1,0,1,0,0-2H19A1,1,0,1,0,19,36Zm0-8a1,1,0,1,0,0,2H31a1,1,0,0,0,0-2H19Zm8-10a1,1,0,0,0-1,1v2a1,1,0,0,0,1,1H37a1,1,0,0,0,1-1V19a1,1,0,0,0-1-1H27Z"/>
</svg>
