<svg id="Layer_1" data-name="Layer 1" xmlns="http://www.w3.org/2000/svg" width="64" height="64" viewBox="0 0 64 64"><defs><style>.cls-1{fill-rule:evenodd}</style></defs><title>Icons 200</title><path class="cls-1" d="M38 9c0-.552.895-1 2-1s2 .448 2 1 .895 1 2 1 2-.448 2-1 .895-1 2-1 2 .448 2 1v46c0 .552-.895 1-2 1s-2-.448-2-1-.895-1-2-1-2 .448-2 1-.895 1-2 1-2-.448-2-1-.895-1-2-1-2 .448-2 1-.895 1-2 1-2-.448-2-1-.895-1-2-1-2 .448-2 1-.895 1-2 1-2-.448-2-1-.896-1-2-1-2 .448-2 1-.895 1-2 1-2-.448-2-1V9c0-.552.895-1 2-1s2 .448 2 1 .895 1 2 1 2-.448 2-1 .895-1 2-1 2 .448 2 1 .895 1 2 1 2-.448 2-1 .895-1 2-1 2 .448 2 1 .895 1 2 1 2-.448 2-1zm1 33h6a1 1 0 1 0 0-2h-6a1 1 0 1 0 0 2zm0-6h6a1 1 0 1 0 0-2h-6a1 1 0 1 0 0 2zm0-6h6a1 1 0 0 0 0-2h-6a1 1 0 0 0 0 2zM19 42h8a1 1 0 1 0 0-2h-8a1 1 0 1 0 0 2zm0-6h14a1 1 0 1 0 0-2H19a1 1 0 1 0 0 2zm0-8a1 1 0 1 0 0 2h12a1 1 0 0 0 0-2H19zm8-10a1 1 0 0 0-1 1v2a1 1 0 0 0 1 1h10a1 1 0 0 0 1-1v-2a1 1 0 0 0-1-1H27z"/></svg>