<svg id="Layer_1" data-name="Layer 1" xmlns="http://www.w3.org/2000/svg" width="64" height="64" viewBox="0 0 64 64"><defs><style>.cls-1{fill-rule:evenodd}</style></defs><title>Icons 400</title><path class="cls-1" d="M55.3 33.535L37.275 48.534a2.003 2.003 0 0 1-3.285-1.536v-7.982h-8.517l2.429 7.73a1.753 1.753 0 0 1-1.688 2.27H9a.994.994 0 0 1-.453-1.884l8.459-4.23-4.907-15.617a1.753 1.753 0 0 1 1.688-2.27h20.202v-8.014a2.003 2.003 0 0 1 3.285-1.536l18.027 14.998a1.998 1.998 0 0 1 0 3.072z"/></svg>