<svg id="Layer_1" data-name="Layer 1" xmlns="http://www.w3.org/2000/svg" width="64" height="64" viewBox="0 0 64 64">
  <defs>
    <style>
      .cls-1 {
        fill-rule: evenodd;
      }
    </style>
  </defs>
  <title>Icons 400</title>
  <path class="cls-1" d="M55.3008,33.5352,37.2741,48.5338a2.0033,2.0033,0,0,1-3.2853-1.5362v-7.982H25.4722l2.4287,7.73a1.753,1.753,0,0,1-1.6875,2.27H9a.9944.9944,0,0,1-.4531-1.8839l8.4586-4.23L12.0991,27.2855a1.753,1.753,0,0,1,1.6875-2.27H33.9888V17.0008a2.0033,2.0033,0,0,1,3.2853-1.5363L55.3008,30.4627A1.9977,1.9977,0,0,1,55.3008,33.5352Z"/>
</svg>
