<svg id="Layer_1" data-name="Layer 1" xmlns="http://www.w3.org/2000/svg" width="64" height="64" viewBox="0 0 64 64">
  <defs>
    <style>
      .cls-1 {
        fill-rule: evenodd;
      }
    </style>
  </defs>
  <title>Icons 100</title>
  <path class="cls-1" d="M50,36a4,4,0,1,1,4-4A4,4,0,0,1,50,36ZM10,32a4,4,0,1,1,4,4A4,4,0,0,1,10,32ZM28,14a4,4,0,1,1,4,4A4,4,0,0,1,28,14Zm8,36a4,4,0,1,1-4-4A4,4,0,0,1,36,50Zm-21.4459-.5963a2.001,2.001,0,0,1,0-2.8305L29.1429,31.9845,14.5565,17.398a2.0015,2.0015,0,0,1,2.83-2.8305L31.9734,29.1539,46.5709,14.5564a2.0015,2.0015,0,0,1,2.83,2.8306L34.8041,31.9845l14.6,14.6a2.0015,2.0015,0,0,1-2.8306,2.8305l-14.6-14.6L17.3846,49.4037A2.001,2.001,0,0,1,14.5541,49.4037Z"/>
</svg>
