<svg id="Layer_1" data-name="Layer 1" xmlns="http://www.w3.org/2000/svg" width="64" height="64" viewBox="0 0 64 64"><defs><style>.cls-1{fill-rule:evenodd}</style></defs><title>Icons 100</title><path class="cls-1" d="M50 36a4 4 0 1 1 4-4 4 4 0 0 1-4 4zm-40-4a4 4 0 1 1 4 4 4 4 0 0 1-4-4zm18-18a4 4 0 1 1 4 4 4 4 0 0 1-4-4zm8 36a4 4 0 1 1-4-4 4 4 0 0 1 4 4zm-21.446-.596a2.001 2.001 0 0 1 0-2.83l14.589-14.59-14.587-14.586a2.002 2.002 0 0 1 2.83-2.83l14.587 14.586 14.598-14.598a2.002 2.002 0 0 1 2.83 2.831L34.804 31.985l14.6 14.6a2.002 2.002 0 0 1-2.83 2.83l-14.6-14.6-14.59 14.589a2.001 2.001 0 0 1-2.83 0z"/></svg>