<svg id="Layer_1" data-name="Layer 1" xmlns="http://www.w3.org/2000/svg" width="64" height="64" viewBox="0 0 64 64">
  <defs>
    <style>
      .cls-1 {
        fill-rule: evenodd;
      }
    </style>
  </defs>
  <title>Icons 200</title>
  <path class="cls-1" d="M50,20a6,6,0,0,1,6,6V38a6,6,0,0,1-6,6H40a2,2,0,1,1,0-4H50a2,2,0,0,0,2-2V26a2,2,0,0,0-2-2H40a2,2,0,1,1,0-4H50ZM26,10h1a6.9758,6.9758,0,0,1,5,2.11A6.9758,6.9758,0,0,1,37,10h1a2,2,0,0,1,0,4H37a3.0033,3.0033,0,0,0-3,3V47a3.0033,3.0033,0,0,0,3,3h1a2,2,0,0,1,0,4H37a6.9759,6.9759,0,0,1-5-2.1105A6.9759,6.9759,0,0,1,27,54H26a2,2,0,0,1,0-4h1a3.0033,3.0033,0,0,0,3-3V17a3.0033,3.0033,0,0,0-3-3H26A2,2,0,0,1,26,10ZM14,40H24a2,2,0,1,1,0,4H14a6,6,0,0,1-6-6V26a6,6,0,0,1,6-6H24a2,2,0,1,1,0,4H14a2,2,0,0,0-2,2V38A2,2,0,0,0,14,40Z"/>
</svg>
