<svg id="Layer_1" data-name="Layer 1" xmlns="http://www.w3.org/2000/svg" width="64" height="64" viewBox="0 0 64 64"><defs><style>.cls-1{fill-rule:evenodd}</style></defs><title>Icons 200</title><path class="cls-1" d="M50 20a6 6 0 0 1 6 6v12a6 6 0 0 1-6 6H40a2 2 0 1 1 0-4h10a2 2 0 0 0 2-2V26a2 2 0 0 0-2-2H40a2 2 0 1 1 0-4h10zM26 10h1a6.976 6.976 0 0 1 5 2.11A6.976 6.976 0 0 1 37 10h1a2 2 0 0 1 0 4h-1a3.003 3.003 0 0 0-3 3v30a3.003 3.003 0 0 0 3 3h1a2 2 0 0 1 0 4h-1a6.976 6.976 0 0 1-5-2.11A6.976 6.976 0 0 1 27 54h-1a2 2 0 0 1 0-4h1a3.003 3.003 0 0 0 3-3V17a3.003 3.003 0 0 0-3-3h-1a2 2 0 0 1 0-4zM14 40h10a2 2 0 1 1 0 4H14a6 6 0 0 1-6-6V26a6 6 0 0 1 6-6h10a2 2 0 1 1 0 4H14a2 2 0 0 0-2 2v12a2 2 0 0 0 2 2z"/></svg>