<svg id="Layer_1" data-name="Layer 1" xmlns="http://www.w3.org/2000/svg" width="64" height="64" viewBox="0 0 64 64"><defs><style>.cls-1{fill-rule:evenodd}</style></defs><title>Icons 200</title><path class="cls-1" d="M42 44H22.01v4.995a1.024 1.024 0 0 1-1.617.82l-9.949-6.99a.997.997 0 0 1 0-1.638l9.949-6.989a1.025 1.025 0 0 1 1.618.82V40H42a8 8 0 0 0 8-8 2 2 0 0 1 4 0 12 12 0 0 1-12 12zm1.607-14.199a1.024 1.024 0 0 1-1.618-.819V24H22a8 8 0 0 0-8 8 2 2 0 0 1-4 0 12 12 0 0 1 12-12h19.99v-4.995a1.024 1.024 0 0 1 1.617-.82l9.949 6.99a.997.997 0 0 1 0 1.638z"/></svg>