<svg id="Layer_1" data-name="Layer 1" xmlns="http://www.w3.org/2000/svg" width="64" height="64" viewBox="0 0 64 64">
  <defs>
    <style>
      .cls-1 {
        fill-rule: evenodd;
      }
    </style>
  </defs>
  <title>Icons 200</title>
  <path class="cls-1" d="M42,44H22.0109v4.995a1.0245,1.0245,0,0,1-1.6183.8191l-9.9482-6.9888a0.997,0.997,0,0,1,0-1.6381l9.9482-6.9888a1.0246,1.0246,0,0,1,1.6183.8191V40H42a8,8,0,0,0,8-8,2,2,0,0,1,4,0A12,12,0,0,1,42,44Zm1.6074-14.1986a1.0245,1.0245,0,0,1-1.6182-.8191V24H22a8,8,0,0,0-8,8,2,2,0,0,1-4,0A12,12,0,0,1,22,20H41.9893V15.0048a1.0245,1.0245,0,0,1,1.6182-.819l9.9483,6.9888a0.9969,0.9969,0,0,1,0,1.6381Z"/>
</svg>
