<svg id="Layer_1" data-name="Layer 1" xmlns="http://www.w3.org/2000/svg" width="64" height="64" viewBox="0 0 64 64"><defs><style>.cls-1{fill-rule:evenodd}</style></defs><title>Icons 100</title><path class="cls-1" d="M60.309 51a1.671 1.671 0 0 1-1.602-1.165C56.454 42.532 50.213 39.003 40.01 39v8.011a2.003 2.003 0 0 1-3.285 1.538L18.699 33.537a2 2 0 0 1 0-3.076L36.726 15.45a2.003 2.003 0 0 1 3.285 1.538v8.014c14.274.727 21.465 9.365 21.987 24.225A1.7 1.7 0 0 1 60.308 51zM17.41 28.93a4.002 4.002 0 0 0 0 6.148l5.15 4.289a4.005 4.005 0 0 1 1.441 3.077v4.568a2.003 2.003 0 0 1-3.285 1.541L2.693 33.541a2.001 2.001 0 0 1 0-3.075l18.023-15.012a2.003 2.003 0 0 1 3.285 1.542v4.567a4.005 4.005 0 0 1-1.441 3.077z"/></svg>