<svg id="Layer_1" data-name="Layer 1" xmlns="http://www.w3.org/2000/svg" width="64" height="64" viewBox="0 0 64 64">
  <defs>
    <style>
      .cls-1 {
        fill-rule: evenodd;
      }
    </style>
  </defs>
  <title>Icons 100</title>
  <path class="cls-1" d="M60.3086,51a1.6711,1.6711,0,0,1-1.602-1.1647C56.454,42.5323,50.2126,39.003,40.0112,39v8.0111a2.0031,2.0031,0,0,1-3.2853,1.5376L18.6994,33.5366a2.0006,2.0006,0,0,1,0-3.0753L36.7259,15.4494a2.0031,2.0031,0,0,1,3.2853,1.5377V25.001c14.2738,0.7267,21.4649,9.365,21.9864,24.2249A1.6994,1.6994,0,0,1,60.3086,51ZM17.41,28.9295a4.0018,4.0018,0,0,0,0,6.1483l5.15,4.2892a4.0049,4.0049,0,0,1,1.4411,3.0772v4.5679a2.0031,2.0031,0,0,1-3.2846,1.541L2.6934,33.5411a2.0014,2.0014,0,0,1,0-3.0751L20.7165,15.4545a2.0031,2.0031,0,0,1,3.2846,1.5412v4.5674A4.0049,4.0049,0,0,1,22.56,24.64Z"/>
</svg>
