<svg id="Layer_1" data-name="Layer 1" xmlns="http://www.w3.org/2000/svg" width="64" height="64" viewBox="0 0 64 64"><defs><style>.cls-1{fill-rule:evenodd}</style></defs><title>Icons 300</title><path class="cls-1" d="M51.61 49.197a2.002 2.002 0 0 1-3.2 0l-9.004-11.99a1.998 1.998 0 0 1 1.602-3.197h5.009v-9.99a2 2 0 0 0-2.002-1.999H28.002A2 2 0 0 1 26 20.023v-3.996a2 2 0 0 1 2.002-1.999h17.014a9 9 0 0 1 9.008 8.992v10.99h4.989a1.998 1.998 0 0 1 1.601 3.196zM15.6 14.827l9.003 11.99A1.998 1.998 0 0 1 23 30.014h-5.008v9.991a2 2 0 0 0 2.002 1.998h16.013a2 2 0 0 1 2.002 1.998v3.997a2 2 0 0 1-2.002 1.998H18.994a9 9 0 0 1-9.008-8.992v-10.99H4.998a1.998 1.998 0 0 1-1.602-3.197l9.003-11.99a2.004 2.004 0 0 1 3.201 0z"/></svg>