<svg id="Layer_1" data-name="Layer 1" xmlns="http://www.w3.org/2000/svg" width="64" height="64" viewBox="0 0 64 64">
  <defs>
    <style>
      .cls-1 {
        fill-rule: evenodd;
      }
    </style>
  </defs>
  <title>Icons 300</title>
  <path class="cls-1" d="M51.6106,49.1971a2.0024,2.0024,0,0,1-3.2011,0l-9.0035-11.99A1.9977,1.9977,0,0,1,41.0076,34.01h5.0093V24.0194a2,2,0,0,0-2.0016-1.9982H28.0017A2,2,0,0,1,26,20.023V16.0266a2,2,0,0,1,2.0018-1.9983H45.0161a9,9,0,0,1,9.0077,8.992V34.01h4.989a1.9977,1.9977,0,0,1,1.6014,3.1962ZM15.6,14.8273l9.0027,11.9894a1.9985,1.9985,0,0,1-1.6019,3.1974H17.993v9.991a2,2,0,0,0,2.0018,1.9981H36.0084A2,2,0,0,1,38.01,44.0015v3.9964a2,2,0,0,1-2.0018,1.9982H18.994a9,9,0,0,1-9.0077-8.992v-10.99H4.9985a1.9984,1.9984,0,0,1-1.602-3.1974L12.399,14.8273A2.0037,2.0037,0,0,1,15.6,14.8273Z"/>
</svg>
