<svg id="Layer_1" data-name="Layer 1" xmlns="http://www.w3.org/2000/svg" width="64" height="64" viewBox="0 0 64 64">
  <defs>
    <style>
      .cls-1 {
        fill-rule: evenodd;
      }
    </style>
  </defs>
  <title>Icons 200</title>
  <path class="cls-1" d="M32,56A24,24,0,1,1,56,32,24,24,0,0,1,32,56Zm0-44A20,20,0,1,0,52,32,20,20,0,0,0,32,12Zm-0.006,34a3,3,0,1,1,3-3A3,3,0,0,1,31.9941,46Zm0-9a2.4038,2.4038,0,0,1-2.4456-2.2482L28.9935,20.9973a3,3,0,0,1,6,0L34.4392,34.7518A2.4036,2.4036,0,0,1,31.9936,37Z"/>
</svg>
