<svg id="Layer_1" data-name="Layer 1" xmlns="http://www.w3.org/2000/svg" width="64" height="64" viewBox="0 0 64 64">
  <defs>
    <style>
      .cls-1 {
        fill-rule: evenodd;
      }
    </style>
  </defs>
  <title>Icons 200</title>
  <path class="cls-1" d="M46.0686,46.07a2.013,2.013,0,0,1-.1082-2.7053A18.0019,18.0019,0,0,0,32.0109,13.9995v4.9829a1.0274,1.0274,0,0,1-1.6225.8191l-9.9742-6.9888a0.9956,0.9956,0,0,1,0-1.6381l9.9742-6.9888a1.0273,1.0273,0,0,1,1.6225.8191V9.9993a22.0023,22.0023,0,0,1,17,35.954A1.994,1.994,0,0,1,46.0686,46.07ZM28.75,40.927A3.021,3.021,0,0,1,25.167,38.6l-2.0938-9.8506A3.0213,3.0213,0,0,1,25.4,25.166l9.85-2.0936a3.0212,3.0212,0,0,1,3.5832,2.327L40.9269,35.25A3.0212,3.0212,0,0,1,38.6,38.8334ZM17.9315,17.9307a2.0125,2.0125,0,0,1,.1082,2.7052,18.002,18.002,0,0,0,13.95,29.3652V45.0176a1.0272,1.0272,0,0,1,1.6224-.819l9.9742,6.9887a0.9956,0.9956,0,0,1,0,1.6382l-9.9742,6.9887a1.0273,1.0273,0,0,1-1.6224-.8191V54.0014a22.0023,22.0023,0,0,1-17-35.9541A1.9938,1.9938,0,0,1,17.9315,17.9307Z"/>
</svg>
