<svg id="Layer_1" data-name="Layer 1" xmlns="http://www.w3.org/2000/svg" width="64" height="64" viewBox="0 0 64 64"><defs><style>.cls-1{fill-rule:evenodd}</style></defs><title>Icons 200</title><path class="cls-1" d="M46.069 46.07a2.013 2.013 0 0 1-.109-2.705 18.002 18.002 0 0 0-13.95-29.366v4.983a1.027 1.027 0 0 1-1.622.82l-9.974-6.99a.996.996 0 0 1 0-1.637l9.974-6.99a1.027 1.027 0 0 1 1.623.82v4.994a22.002 22.002 0 0 1 17 35.954 1.994 1.994 0 0 1-2.942.117zM28.75 40.927a3.021 3.021 0 0 1-3.583-2.327l-2.094-9.85a3.021 3.021 0 0 1 2.327-3.584l9.85-2.094a3.021 3.021 0 0 1 3.583 2.327l2.094 9.851a3.021 3.021 0 0 1-2.327 3.583zM17.931 17.931a2.013 2.013 0 0 1 .109 2.705A18.002 18.002 0 0 0 31.99 50v-4.983a1.027 1.027 0 0 1 1.622-.82l9.974 6.99a.996.996 0 0 1 0 1.637l-9.974 6.99a1.027 1.027 0 0 1-1.622-.82v-4.994a22.002 22.002 0 0 1-17-35.954 1.994 1.994 0 0 1 2.941-.116z"/></svg>