<svg id="Layer_1" data-name="Layer 1" xmlns="http://www.w3.org/2000/svg" width="64" height="64" viewBox="0 0 64 64"><defs><style>.cls-1{fill-rule:evenodd}</style></defs><title>Icons 200</title><path class="cls-1" d="M32.011 54.001v4.994a1.027 1.027 0 0 1-1.623.82l-9.974-6.99a.996.996 0 0 1 0-1.638L30.39 44.2a1.027 1.027 0 0 1 1.622.819V50A18.002 18.002 0 0 0 45.96 20.636a2 2 0 0 1 3.05-2.589 22.002 22.002 0 0 1-16.999 35.954zM28.75 23.072l9.85 2.094a3.021 3.021 0 0 1 2.327 3.583L38.833 38.6a3.021 3.021 0 0 1-3.583 2.327l-9.85-2.094a3.021 3.021 0 0 1-2.326-3.583l2.093-9.85a3.021 3.021 0 0 1 3.583-2.328zm4.862-3.27a1.027 1.027 0 0 1-1.623-.82V14A18.002 18.002 0 0 0 18.04 43.364a2 2 0 0 1-3.05 2.588A22.002 22.002 0 0 1 31.99 10V5.005a1.027 1.027 0 0 1 1.622-.82l9.974 6.99a.995.995 0 0 1 0 1.638z"/></svg>