<svg id="Layer_1" data-name="Layer 1" xmlns="http://www.w3.org/2000/svg" width="64" height="64" viewBox="0 0 64 64">
  <defs>
    <style>
      .cls-1 {
        fill-rule: evenodd;
      }
    </style>
  </defs>
  <title>Icons 100</title>
  <path class="cls-1" d="M32,56A24,24,0,1,1,56,32,24,24,0,0,1,32,56ZM44.1019,18.1931l-14.724,9.8275a4.85,4.85,0,0,0-1.3451,1.3467L18.2166,44.1084a1.2132,1.2132,0,0,0,1.6814,1.6833l14.7242-9.8275a4.8522,4.8522,0,0,0,1.345-1.3467l9.8162-14.741A1.2133,1.2133,0,0,0,44.1019,18.1931ZM32,35a3,3,0,1,1,3-3A3,3,0,0,1,32,35Z"/>
</svg>
