<svg id="Layer_1" data-name="Layer 1" xmlns="http://www.w3.org/2000/svg" width="64" height="64" viewBox="0 0 64 64"><defs><style>.cls-1{fill-rule:evenodd}</style></defs><title>Icons 100</title><path class="cls-1" d="M46 56.003H18A6.008 6.008 0 0 1 12 50V46a2 2 0 0 1 4 0v4a2.002 2.002 0 0 0 2 2.001h28a2.003 2.003 0 0 0 2-2V46a2 2 0 0 1 4 0v4a6.008 6.008 0 0 1-6 6.003zM32 10a2 2 0 0 1 2 2v19.99h4.995a1.027 1.027 0 0 1 .82 1.622l-6.99 9.974a.996.996 0 0 1-1.638 0L24.2 33.612a1.027 1.027 0 0 1 .819-1.623H30V12a2 2 0 0 1 2-2z"/></svg>