<svg id="Layer_1" data-name="Layer 1" xmlns="http://www.w3.org/2000/svg" width="64" height="64" viewBox="0 0 64 64">
  <defs>
    <style>
      .cls-1 {
        fill-rule: evenodd;
      }
    </style>
  </defs>
  <title>Icons 100</title>
  <path class="cls-1" d="M46,56.0027H18a6.0077,6.0077,0,0,1-6-6.0021V46a2,2,0,0,1,4,0v4.0006a2.0022,2.0022,0,0,0,2,2.0006H46a2.0027,2.0027,0,0,0,2-2.0006V46a2,2,0,0,1,4,0v4.0006A6.0078,6.0078,0,0,1,46,56.0027ZM32,10a2,2,0,0,1,2,2V31.9892h4.9951a1.0273,1.0273,0,0,1,.819,1.6225l-6.9888,9.9741a0.9955,0.9955,0,0,1-1.6381,0l-6.9886-9.9741a1.0273,1.0273,0,0,1,.8189-1.6225H30V12A2,2,0,0,1,32,10Z"/>
</svg>
