<svg id="Layer_1" data-name="Layer 1" xmlns="http://www.w3.org/2000/svg" width="64" height="64" viewBox="0 0 64 64"><defs><style>.cls-1{fill-rule:evenodd}</style></defs><title>Icons 400</title><path class="cls-1" d="M55 30.024h-8.934a2 2 0 0 1-1.414-.586L32.707 17.497a1 1 0 0 0-1.414 0L19.347 29.438a2 2 0 0 1-1.414.586H9a1 1 0 0 1-1-1v-1.996a1 1 0 0 1 1-1h7.895a.5.5 0 0 0 .353-.146L30 13.134V4.786a.685.685 0 0 1 .555-.646c2.964-.461 5.926.672 8.89.212a.446.446 0 0 1 .555.434v5.485a.685.685 0 0 1-.555.647A21.45 21.45 0 0 1 34 10.704v2.43l12.752 12.748a.5.5 0 0 0 .353.146H55a1 1 0 0 1 1 1v1.996a1 1 0 0 1-1 1zm-43 1.99h5.93a4 4 0 0 0 2.828-1.17L31.293 20.31a1 1 0 0 1 1.414 0l10.535 10.532a4 4 0 0 0 2.828 1.172H52a2 2 0 0 1 2 2v17.99a2 2 0 0 1-2 2H38a2 2 0 0 1-2-2V44.01a2 2 0 0 0-2-2h-4a2 2 0 0 0-2 2v7.995a2 2 0 0 1-2 2H12a2 2 0 0 1-2-2v-17.99a2 2 0 0 1 2-2zm29 16.994a1 1 0 0 0 1 1h6a1 1 0 0 0 1-1V43.01a1 1 0 0 0-1-1h-6a1 1 0 0 0-1 1zm-9-12.986a3 3 0 1 0-3-2.999 3 3 0 0 0 3 3zM15 49.008a1 1 0 0 0 1 1h6a1 1 0 0 0 1-1V43.01a1 1 0 0 0-1-1h-6a1 1 0 0 0-1 1z"/></svg>