<svg id="Layer_1" data-name="Layer 1" xmlns="http://www.w3.org/2000/svg" width="64" height="64" viewBox="0 0 64 64">
  <defs>
    <style>
      .cls-1 {
        fill-rule: evenodd;
      }
    </style>
  </defs>
  <title>Icons 400</title>
  <path class="cls-1" d="M55,30.0237H46.0665a2,2,0,0,1-1.414-.5856L32.707,17.4967a1,1,0,0,0-1.4142,0L19.3474,29.4381a2,2,0,0,1-1.4139.5856H9a1,1,0,0,1-1-1V27.0283a1,1,0,0,1,1-1h7.8947a.5.5,0,0,0,.3536-.1463L30,13.1341V4.7861a.6851.6851,0,0,1,.5555-.6463c2.9631-.4609,5.926.6726,8.889.2118A.4455.4455,0,0,1,40,4.7861v5.4853a.685.685,0,0,1-.5555.6463A21.4492,21.4492,0,0,1,34,10.7039v2.43l12.752,12.748a.5.5,0,0,0,.3532.1462H55a1,1,0,0,1,1,1v1.9955A1,1,0,0,1,55,30.0237ZM12,32.0146h5.9295a4,4,0,0,0,2.828-1.1713L31.2928,20.3115a1,1,0,0,1,1.4143,0L43.2424,30.8433a3.9992,3.9992,0,0,0,2.828,1.1713H52a2,2,0,0,1,2,2V52.0059a2,2,0,0,1-2,1.9995H38a2,2,0,0,1-2-2V44.01a2,2,0,0,0-2-2H30a2,2,0,0,0-2,2v7.9949a2,2,0,0,1-2,2H12a2,2,0,0,1-2-2V34.0145A2,2,0,0,1,12,32.0146ZM41,49.0083a1,1,0,0,0,1,1h6a1,1,0,0,0,1-1V43.01a1,1,0,0,0-1-.9995H42a1,1,0,0,0-1,.9995ZM32,36.0222a2.9993,2.9993,0,1,0-3-2.9992A3,3,0,0,0,32,36.0222ZM15,49.0083a1,1,0,0,0,1,1h6a1,1,0,0,0,1-1V43.01a1,1,0,0,0-1-.9995H16a1,1,0,0,0-1,.9995Z"/>
</svg>
