<svg id="Layer_1" data-name="Layer 1" xmlns="http://www.w3.org/2000/svg" width="64" height="64" viewBox="0 0 64 64">
  <defs>
    <style>
      .cls-1 {
        fill-rule: evenodd;
      }
    </style>
  </defs>
  <title>Icons 400</title>
  <path class="cls-1" d="M36.54,42.0006a37.9793,37.9793,0,0,0,6.9239,2.1458,3.98,3.98,0,0,1,6.6528-.5814,2.35,2.35,0,0,0,.5284-.6134c.8094-1.4238.01-3.6322-1.9613-6.1623a.9957.9957,0,0,1,.1242-1.334q.6162-.5782,1.2091-1.1743a1.0058,1.0058,0,0,1,1.52.1039C54.6288,38.4643,55.802,42.3095,54.29,44.94a5.9349,5.9349,0,0,1-3.6388,2.59,3.9833,3.9833,0,0,1-7.2607.2395c-6.0623-.8664-12.4791-3.6416-17.7822-6.86,1.0854,7.7162,3.5348,13.1066,6.3877,13.1066,1.6864,0,3.2292-1.8958,4.4357-5.0308A.9946.9946,0,0,1,37.65,48.38q.7569.2292,1.5162.4332a1.01,1.01,0,0,1,.6719,1.3661c-1.9925,4.8274-4.7663,7.8367-7.8422,7.8367-6.36,0-11.2417-12.6577-10.9609-26.9942a37.0629,37.0629,0,0,0-5.4781,5.166A3.9459,3.9459,0,0,1,12.955,41.87a2.3886,2.3886,0,0,0,.2876.8793c.8215,1.411,3.1113,1.8249,6.2592,1.388a.99.99,0,0,1,1.0866.7728q.1937.8293.4144,1.6426a1.0082,1.0082,0,0,1-.85,1.2686c-5.0459.6342-8.9349-.2742-10.4466-2.9a5.8142,5.8142,0,0,1-.4883-4.0947,3.9633,3.9633,0,0,1,3.4334-6.7294c3.7813-4.8736,9.4225-9.0839,14.8092-12.0625-7.0142-2.8533-12.7243-3.4-14.1146-.9548-.8071,1.42-.0148,3.619,1.9435,6.14a.9932.9932,0,0,1-.1251,1.3294q-.6178.58-1.2087,1.1754a1.0053,1.0053,0,0,1-1.5211-.1036c-3.0771-4.07-4.2426-7.9042-2.7332-10.5293C12.89,13.5455,26.3432,15.77,38.382,23.1146a40.0622,40.0622,0,0,0-1.6088-7.12,3.986,3.986,0,0,1-3.45-5.5656,2.5525,2.5525,0,0,0-1.3282-.4129c-1.6809,0-3.2188,1.8835-4.4235,5a.99.99,0,0,1-1.2133.6006q-.7592-.2309-1.5173-.4349a1.01,1.01,0,0,1-.6716-1.3673c1.9913-4.8045,4.7581-7.798,7.8257-7.798a6.1084,6.1084,0,0,1,4.2974,2.07,3.9817,3.9817,0,0,1,3.8,6.4143,50.3569,50.3569,0,0,1,2.85,18.5207c5.9228-4.65,9.2172-9.3137,7.8055-11.7382-.8243-1.4156-3.1263-1.8276-6.29-1.3836a.99.99,0,0,1-1.0883-.7726q-.1934-.828-.4138-1.645a1.0084,1.0084,0,0,1,.8493-1.2671c5.0618-.642,8.9641.2647,10.4789,2.8961C58.1082,25.7518,45.9846,36.7993,36.54,42.0006Zm2.3295-13.83a61.9366,61.9366,0,0,0-6.8232-4.0271,62.2,62.2,0,0,0-6.9114,3.942,63.0074,63.0074,0,0,0-.0136,7.7679,60.59,60.59,0,0,0,6.8218,4.0327,61.7363,61.7363,0,0,0,6.9107-3.9394A62.4228,62.4228,0,0,0,38.8694,28.171Z"/>
</svg>
