<svg id="Layer_1" data-name="Layer 1" xmlns="http://www.w3.org/2000/svg" width="64" height="64" viewBox="0 0 64 64"><defs><style>.cls-1{fill-rule:evenodd}</style></defs><title>Icons 400</title><path class="cls-1" d="M36.54 42a37.98 37.98 0 0 0 6.924 2.146 3.98 3.98 0 0 1 6.653-.581 2.35 2.35 0 0 0 .528-.613c.81-1.424.01-3.633-1.961-6.163a.996.996 0 0 1 .124-1.334q.616-.578 1.21-1.174a1.006 1.006 0 0 1 1.52.104c3.09 4.08 4.264 7.925 2.752 10.555a5.935 5.935 0 0 1-3.639 2.59 3.983 3.983 0 0 1-7.26.24c-6.063-.867-12.48-3.642-17.783-6.86 1.086 7.716 3.535 13.106 6.388 13.106 1.686 0 3.23-1.896 4.436-5.03a.995.995 0 0 1 1.218-.606q.757.23 1.516.433a1.01 1.01 0 0 1 .672 1.366c-1.992 4.828-4.766 7.837-7.842 7.837-6.36 0-11.242-12.658-10.961-26.994a37.063 37.063 0 0 0-5.478 5.166 3.946 3.946 0 0 1-2.602 5.682 2.389 2.389 0 0 0 .288.88c.821 1.41 3.11 1.824 6.259 1.387a.99.99 0 0 1 1.086.773q.194.83.415 1.643a1.008 1.008 0 0 1-.85 1.268c-5.046.634-8.935-.274-10.447-2.9a5.814 5.814 0 0 1-.488-4.094 3.963 3.963 0 0 1 3.433-6.73c3.782-4.873 9.423-9.084 14.81-12.062-7.015-2.854-12.725-3.4-14.115-.955-.807 1.42-.015 3.619 1.943 6.14a.993.993 0 0 1-.125 1.33q-.617.58-1.208 1.175a1.005 1.005 0 0 1-1.521-.104c-3.078-4.07-4.243-7.904-2.734-10.53 3.189-5.546 16.642-3.321 28.681 4.024a40.062 40.062 0 0 0-1.609-7.12 3.986 3.986 0 0 1-3.45-5.566 2.553 2.553 0 0 0-1.328-.413c-1.68 0-3.219 1.884-4.424 5a.99.99 0 0 1-1.213.6q-.759-.23-1.517-.434a1.01 1.01 0 0 1-.672-1.368c1.992-4.804 4.758-7.798 7.826-7.798a6.108 6.108 0 0 1 4.297 2.07 3.982 3.982 0 0 1 3.8 6.415 50.357 50.357 0 0 1 2.85 18.52c5.923-4.65 9.218-9.313 7.806-11.738-.824-1.415-3.126-1.827-6.29-1.383a.99.99 0 0 1-1.088-.773q-.194-.828-.414-1.645a1.008 1.008 0 0 1 .85-1.267c5.06-.642 8.963.265 10.478 2.896 3.824 6.64-8.3 17.688-17.744 22.89zm2.33-13.83a61.937 61.937 0 0 0-6.824-4.027 62.2 62.2 0 0 0-6.911 3.942 63.007 63.007 0 0 0-.014 7.768 60.59 60.59 0 0 0 6.822 4.033 61.736 61.736 0 0 0 6.91-3.94 62.423 62.423 0 0 0 .016-7.775z"/></svg>