<svg id="Layer_1" data-name="Layer 1" xmlns="http://www.w3.org/2000/svg" width="64" height="64" viewBox="0 0 64 64">
  <defs>
    <style>
      .cls-1 {
        fill-rule: evenodd;
      }
    </style>
  </defs>
  <title>Icons 200</title>
  <path class="cls-1" d="M58,43a2,2,0,0,1-2,2H8a2,2,0,0,1-2-2,7.5306,7.5306,0,0,1,.9923-3.7365l6.3714-11.15A2.21,2.21,0,0,1,15.2826,27H25.7935A2.2065,2.2065,0,0,1,28,29.2065a2.1773,2.1773,0,0,1-1.5621,2.0424,5.0026,5.0026,0,0,0-3.4144,5.2423A5.31,5.31,0,0,0,28.2151,41h9.9856a10.0168,10.0168,0,0,1,5.9322-7.2235L39.38,20h-2.182a3,3,0,0,1-2.6834-1.6583l-0.4472-.8945A1,1,0,0,1,34.9619,16H43.109A8.8241,8.8241,0,0,1,49,14c1.1046,0,2,1.7909,2,4s-0.8954,4-2,4a9.77,9.77,0,0,1-4.2521-.931l4.1294,11.9752A9.9966,9.9966,0,0,1,58,43ZM16.1979,25a3,3,0,0,1-2.6832-1.6584l-0.4472-.8944A1,1,0,0,1,13.9619,21H24.74a3,3,0,0,1,2.6834,1.6584l0.447,0.8944A1,1,0,0,1,26.9759,25H16.1979Zm8.7037,22a1.1742,1.1742,0,0,1,.9871,1.6889A8.7169,8.7169,0,0,1,18,54a8.7166,8.7166,0,0,1-7.8885-5.3111A1.1741,1.1741,0,0,1,11.0985,47H24.9016Zm30,0a1.1742,1.1742,0,0,1,.9871,1.6889,8.5141,8.5141,0,0,1-15.7773,0A1.1742,1.1742,0,0,1,41.0985,47H54.9016Z"/>
</svg>
