<svg id="Layer_1" data-name="Layer 1" xmlns="http://www.w3.org/2000/svg" width="64" height="64" viewBox="0 0 64 64"><defs><style>.cls-1{fill-rule:evenodd}</style></defs><title>Icons 300</title><path class="cls-1" d="M54.095 8.203a1.305 1.305 0 0 1 1.936 1.375l-7.512 39.144a1.576 1.576 0 0 1-2.067 1.183l-11.688-4.377-4.982 9.963a.927.927 0 0 1-1.756-.414V44.419a4.145 4.145 0 0 1 .888-2.513c.648-.741 19.102-24.89 19.102-24.89S23.299 39.103 22.326 39.89a3.043 3.043 0 0 1-2.922.56L8.896 36.859a1.298 1.298 0 0 1-.227-2.353z"/></svg>