<svg id="Layer_1" data-name="Layer 1" xmlns="http://www.w3.org/2000/svg" width="64" height="64" viewBox="0 0 64 64">
  <defs>
    <style>
      .cls-1 {
        fill-rule: evenodd;
      }
    </style>
  </defs>
  <title>Icons 300</title>
  <path class="cls-1" d="M54.0949,8.2031a1.3052,1.3052,0,0,1,1.936,1.3752L48.5194,48.7216a1.5762,1.5762,0,0,1-2.0677,1.1833L34.7639,45.5284,29.7817,55.491a.9269.9269,0,0,1-1.7561-.4144V44.4187a4.1454,4.1454,0,0,1,.8881-2.513c.6483-.7407,19.1019-24.89,19.1019-24.89S23.299,39.1029,22.3269,39.89a3.0428,3.0428,0,0,1-2.9232.5609L8.8962,36.8579a1.2977,1.2977,0,0,1-.2273-2.3528Z"/>
</svg>
