<svg id="Layer_1" data-name="Layer 1" xmlns="http://www.w3.org/2000/svg" width="64" height="64" viewBox="0 0 64 64"><defs><style>.cls-1{fill-rule:evenodd}</style></defs><title>Icons 400</title><path class="cls-1" d="M52 54.016H12a2 2 0 0 1-2-2v-8a2 2 0 0 1 2-2h40a2 2 0 0 1 2 2v8a2 2 0 0 1-2 2zm-30-7a1 1 0 0 0-1-1h-6a1 1 0 0 0-1 1v2a1 1 0 0 0 1 1h6a1 1 0 0 0 1-1zm30-9H12a2 2 0 0 1-2-2v-8a2 2 0 0 1 2-2h40a2 2 0 0 1 2 2v8a2 2 0 0 1-2 2zm-30-7a1 1 0 0 0-1-1h-6a1 1 0 0 0-1 1v2a1 1 0 0 0 1 1h6a1 1 0 0 0 1-1zm30-9H12a2 2 0 0 1-2-2v-8a2 2 0 0 1 2-2h40a2 2 0 0 1 2 2v8a2 2 0 0 1-2 2zm-30-7a1 1 0 0 0-1-1h-6a1 1 0 0 0-1 1v2a1 1 0 0 0 1 1h6a1 1 0 0 0 1-1z"/></svg>