<svg id="Layer_1" data-name="Layer 1" xmlns="http://www.w3.org/2000/svg" width="64" height="64" viewBox="0 0 64 64">
  <defs>
    <style>
      .cls-1 {
        fill-rule: evenodd;
      }
    </style>
  </defs>
  <title>Icons 400</title>
  <path class="cls-1" d="M52,54.0156H12a2,2,0,0,1-2-2v-8a2,2,0,0,1,2-2H52a2,2,0,0,1,2,2v8A2,2,0,0,1,52,54.0156Zm-30-7a1,1,0,0,0-1-1H15a1,1,0,0,0-1,1v2a1,1,0,0,0,1,1h6a1,1,0,0,0,1-1Zm30-9H12a2,2,0,0,1-2-2v-8a2,2,0,0,1,2-2H52a2,2,0,0,1,2,2v8A2,2,0,0,1,52,38.0156Zm-30-7a1,1,0,0,0-1-1H15a1,1,0,0,0-1,1v2a1,1,0,0,0,1,1h6a1,1,0,0,0,1-1Zm30-9H12a2,2,0,0,1-2-2v-8a2,2,0,0,1,2-2H52a2,2,0,0,1,2,2v8A2,2,0,0,1,52,22.0156Zm-30-7a1,1,0,0,0-1-1H15a1,1,0,0,0-1,1v2a1,1,0,0,0,1,1h6a1,1,0,0,0,1-1Z"/>
</svg>
