<svg id="Layer_1" data-name="Layer 1" xmlns="http://www.w3.org/2000/svg" width="64" height="64" viewBox="0 0 64 64">
  <defs>
    <style>
      .cls-1 {
        fill-rule: evenodd;
      }
    </style>
  </defs>
  <title>Icons 300</title>
  <path class="cls-1" d="M60.6713,25.2591,51.6583,26.91a1,1,0,0,0-.77.6676,17.2028,17.2028,0,0,0,0,10.8766l4.03,12.8626a2.04,2.04,0,0,1-1.874,2.6991,1.9685,1.9685,0,0,1-1.7667-1.1336L45.1273,40.2394a.1249.1249,0,0,0-.2235,0l-6.151,12.6427a1.9687,1.9687,0,0,1-1.7668,1.1336,2.04,2.04,0,0,1-1.874-2.6991l4.03-12.8626a17.2028,17.2028,0,0,0,0-10.8766.9993.9993,0,0,0-.7695-.6676l-6.3573-1.1643L25.6582,26.91a1,1,0,0,0-.7694.6676,17.2028,17.2028,0,0,0,0,10.8766l4.03,12.8626a2.04,2.04,0,0,1-1.8738,2.6991,1.9685,1.9685,0,0,1-1.7668-1.1336L19.1273,40.2394a.1249.1249,0,0,0-.2234,0L12.7528,52.8821a1.9689,1.9689,0,0,1-1.7668,1.1336,2.04,2.04,0,0,1-1.874-2.6991l4.03-12.8626a17.2028,17.2028,0,0,0,0-10.8766,1,1,0,0,0-.77-.6676L3.36,25.2591a1.6349,1.6349,0,0,1,.2923-3.2434H60.379a1.6349,1.6349,0,0,1,.2923,3.2434ZM45.0157,10.0157a5,5,0,1,1-5,5A5,5,0,0,1,45.0157,10.0157Zm-26,0a5,5,0,1,1-5,5A5,5,0,0,1,19.0157,10.0157Z"/>
</svg>
