<svg id="Layer_1" data-name="Layer 1" xmlns="http://www.w3.org/2000/svg" width="64" height="64" viewBox="0 0 64 64"><defs><style>.cls-1{fill-rule:evenodd}</style></defs><title>Icons 300</title><path class="cls-1" d="M60.671 25.26l-9.013 1.65a1 1 0 0 0-.77.668 17.203 17.203 0 0 0 0 10.876l4.03 12.863a2.04 2.04 0 0 1-1.874 2.699 1.968 1.968 0 0 1-1.766-1.134l-6.15-12.643a.125.125 0 0 0-.224 0l-6.151 12.643a1.969 1.969 0 0 1-1.767 1.134 2.04 2.04 0 0 1-1.874-2.7l4.03-12.862a17.203 17.203 0 0 0 0-10.877 1 1 0 0 0-.77-.667l-6.357-1.164-6.357 1.164a1 1 0 0 0-.77.668 17.203 17.203 0 0 0 0 10.876l4.03 12.863a2.04 2.04 0 0 1-1.873 2.699 1.968 1.968 0 0 1-1.767-1.134l-6.15-12.643a.125.125 0 0 0-.224 0l-6.151 12.643a1.969 1.969 0 0 1-1.767 1.134 2.04 2.04 0 0 1-1.874-2.7l4.03-12.862a17.203 17.203 0 0 0 0-10.877 1 1 0 0 0-.77-.667L3.36 25.26a1.635 1.635 0 0 1 .292-3.244H60.38a1.635 1.635 0 0 1 .292 3.243zM45.016 10.015a5 5 0 1 1-5 5 5 5 0 0 1 5-5zm-26 0a5 5 0 1 1-5 5 5 5 0 0 1 5-5z"/></svg>