<svg id="Layer_1" data-name="Layer 1" xmlns="http://www.w3.org/2000/svg" width="64" height="64" viewBox="0 0 64 64">
  <defs>
    <style>
      .cls-1 {
        fill-rule: evenodd;
      }
    </style>
  </defs>
  <title>Icons 200</title>
  <path class="cls-1" d="M50.0278,34.0081a1,1,0,0,1,.9865,1.1646L48.4322,50.6679a4,4,0,0,1-3.9455,3.3429H19.5136a4,4,0,0,1-3.9456-3.3429L12.9858,35.1727a1,1,0,0,1,.9865-1.1646H50.0278ZM36.0983,10.178a2.01,2.01,0,0,1,2.6936.8959l6.4815,12.933H52a2,2,0,0,1,2,2v4.0006a2,2,0,0,1-2,2H12a2,2,0,0,1-2-2V26.0072a2,2,0,0,1,2-2h6.7581l6.46-12.9034A2.002,2.002,0,0,1,28.8,12.8923L23.236,24.0069H40.7839L35.2,12.8655A2.0008,2.0008,0,0,1,36.0983,10.178Z"/>
</svg>
