<svg id="Layer_1" data-name="Layer 1" xmlns="http://www.w3.org/2000/svg" width="64" height="64" viewBox="0 0 64 64">
  <defs>
    <style>
      .cls-1 {
        fill-rule: evenodd;
      }
    </style>
  </defs>
  <title>Icons 200</title>
  <path class="cls-1" d="M49.98,51.752A2.0012,2.0012,0,0,1,47.9942,54H15.9766a2,2,0,0,1-1.9855-2.248h0a127.4623,127.4623,0,0,0,.9849-15.8151V26a2.0006,2.0006,0,0,1,2.0012-2H21V19a11,11,0,0,1,22,0v5h3.9935a2.0005,2.0005,0,0,1,2.0011,2v9.9368A127.4623,127.4623,0,0,0,49.98,51.7519h0ZM39,19a7,7,0,0,0-14,0v5H39V19Z"/>
</svg>
