<svg id="Layer_1" data-name="Layer 1" xmlns="http://www.w3.org/2000/svg" width="64" height="64" viewBox="0 0 64 64"><defs><style>.cls-1{fill-rule:evenodd}</style></defs><title>Icons 200</title><path class="cls-1" d="M50.028 34.008a1 1 0 0 1 .986 1.165l-2.582 15.495a4 4 0 0 1-3.945 3.343H19.514a4 4 0 0 1-3.946-3.343l-2.582-15.495a1 1 0 0 1 .986-1.165h36.056zm-13.93-23.83a2.01 2.01 0 0 1 2.694.896l6.481 12.933H52a2 2 0 0 1 2 2v4a2 2 0 0 1-2 2H12a2 2 0 0 1-2-2v-4a2 2 0 0 1 2-2h6.758l6.46-12.903a2.002 2.002 0 0 1 3.582 1.788l-5.564 11.115h17.548L35.2 12.865a2 2 0 0 1 .898-2.687z"/></svg>