<svg id="Layer_1" data-name="Layer 1" xmlns="http://www.w3.org/2000/svg" width="64" height="64" viewBox="0 0 64 64"><defs><style>.cls-1{fill-rule:evenodd}</style></defs><title>Icons 200</title><path class="cls-1" d="M14.66 13.151l.122.849h36.171a2 2 0 0 1 1.98 2.283l-2.612 18.283A4 4 0 0 1 46.361 38H21a2.001 2.001 0 0 0-1.973 2.336A2.074 2.074 0 0 0 21.107 42h26.786a2.075 2.075 0 0 1 2.08 1.664A2.001 2.001 0 0 1 48 46H20.516a6 6 0 0 1-5.94-5.152L10.7 13.719A2 2 0 0 0 8.72 12H4a2 2 0 1 1 0-4h4.72a6 6 0 0 1 5.94 5.151zM16 52a4 4 0 1 1 4 4 4 4 0 0 1-4-4zm28 4a4 4 0 1 1 4-4 4 4 0 0 1-4 4z"/></svg>