<svg id="Layer_1" data-name="Layer 1" xmlns="http://www.w3.org/2000/svg" width="64" height="64" viewBox="0 0 64 64">
  <defs>
    <style>
      .cls-1 {
        fill-rule: evenodd;
      }
    </style>
  </defs>
  <title>Icons 200</title>
  <path class="cls-1" d="M14.66,13.1513L14.7817,14H50.953a2,2,0,0,1,1.98,2.2828L50.3212,34.5657A4,4,0,0,1,46.3613,38H21a2.0014,2.0014,0,0,0-1.9726,2.3359A2.0744,2.0744,0,0,0,21.1071,42H47.8932a2.0745,2.0745,0,0,1,2.08,1.6642A2.0014,2.0014,0,0,1,48,46H20.5164a6,6,0,0,1-5.94-5.1515l-3.876-27.1314A2,2,0,0,0,8.7209,12H4A2,2,0,1,1,4,8H8.7209A6,6,0,0,1,14.66,13.1513ZM16,52a4,4,0,1,1,4,4A4,4,0,0,1,16,52Zm28,4a4,4,0,1,1,4-4A4,4,0,0,1,44,56Z"/>
</svg>
