<svg id="Layer_1" data-name="Layer 1" xmlns="http://www.w3.org/2000/svg" width="64" height="64" viewBox="0 0 64 64"><defs><style>.cls-1{fill-rule:evenodd}</style></defs><title>Icons 200</title><path class="cls-1" d="M12 10h20a2 2 0 1 1 0 4H12a2 2 0 1 1 0-4zm0 8h6a2 2 0 1 1 0 4h-6a2 2 0 1 1 0-4zm-2 10a2 2 0 0 1 2-2h12a2 2 0 1 1 0 4H12a2 2 0 0 1-2-2zm36 26H18a2 2 0 1 1 0-4h28a2 2 0 1 1 0 4zm-6.186-18.388l-6.989 9.974a.996.996 0 0 1-1.638 0l-6.989-9.974a1.027 1.027 0 0 1 .82-1.623h13.977a1.027 1.027 0 0 1 .82 1.623zM52 30H32a2 2 0 1 1 0-4h20a2 2 0 1 1 0 4zm0-8h-6a2 2 0 1 1 0-4h6a2 2 0 1 1 0 4zm2-10a2 2 0 0 1-2 2H40a2 2 0 1 1 0-4h12a2 2 0 0 1 2 2zm-14 8a2 2 0 0 1-2 2H26a2 2 0 1 1 0-4h12a2 2 0 0 1 2 2z"/></svg>