<svg id="Layer_1" data-name="Layer 1" xmlns="http://www.w3.org/2000/svg" width="64" height="64" viewBox="0 0 64 64">
  <defs>
    <style>
      .cls-1 {
        fill-rule: evenodd;
      }
    </style>
  </defs>
  <title>Icons 200</title>
  <path class="cls-1" d="M45.6076,49.8015a1.0244,1.0244,0,0,1-1.6182-.8191V44.001H39.8263a9.9851,9.9851,0,0,1-7.7976-3.7533L30.433,38.2448a2.01,2.01,0,0,1,0-2.5093h0a1.9927,1.9927,0,0,1,3.1149,0l1.5995,2.0079a6.0052,6.0052,0,0,0,4.6895,2.2573h4.1524V35.0049a1.0244,1.0244,0,0,1,1.6182-.8191l9.9482,6.9888a0.997,0.997,0,0,1,0,1.6381Zm0-20a1.0244,1.0244,0,0,1-1.6182-.8191V23.9991H39.837a5.9715,5.9715,0,0,0-4.6854,2.2522L23.9566,40.2477a9.9524,9.9524,0,0,1-7.8091,3.7533H9.9935a2,2,0,0,1,0-4h6.154a5.9712,5.9712,0,0,0,4.6855-2.2511L32.0287,23.752a9.95,9.95,0,0,1,7.8083-3.7534h4.1524V15.0048a1.0244,1.0244,0,0,1,1.6182-.819l9.9482,6.9888a0.997,0.997,0,0,1,0,1.6381ZM23.9634,23.7606l1.5893,1.9947a2,2,0,1,1-3.1149,2.5093L20.833,26.25a5.9889,5.9889,0,0,0-4.6771-2.2512h-6.06a2.0716,2.0716,0,0,1-2.0755-1.6654,2.0016,2.0016,0,0,1,1.9728-2.3351h6.154A10.0093,10.0093,0,0,1,23.9634,23.7606Z"/>
</svg>
