<svg id="Layer_1" data-name="Layer 1" xmlns="http://www.w3.org/2000/svg" width="64" height="64" viewBox="0 0 64 64">
  <defs>
    <style>
      .cls-1 {
        fill-rule: evenodd;
      }
    </style>
  </defs>
  <title>Icons 400</title>
  <path class="cls-1" d="M12,52.0156H52a4,4,0,0,0,4-4v-32a4,4,0,0,0-4-4H12a4,4,0,0,0-4,4v32A4,4,0,0,0,12,52.0156Zm30-35a1,1,0,0,1,1-1h8a1,1,0,0,1,1,1v30a1,1,0,0,1-1,1H43a1,1,0,0,1-1-1Zm-30,0a1,1,0,0,1,1-1H37a1,1,0,0,1,1,1v30a1,1,0,0,1-1,1H13a1,1,0,0,1-1-1Z"/>
</svg>
