<svg id="Layer_1" data-name="Layer 1" xmlns="http://www.w3.org/2000/svg" width="64" height="64" viewBox="0 0 64 64">
  <defs>
    <style>
      .cls-1 {
        fill-rule: evenodd;
      }
    </style>
  </defs>
  <title>Icons 400</title>
  <path class="cls-1" d="M52,52.0156H12a4,4,0,0,1-4-4v-32a4,4,0,0,1,4-4H52a4,4,0,0,1,4,4v32A4,4,0,0,1,52,52.0156Zm-30-35a1,1,0,0,0-1-1H13a1,1,0,0,0-1,1v30a1,1,0,0,0,1,1h8a1,1,0,0,0,1-1Zm30,0a1,1,0,0,0-1-1H27a1,1,0,0,0-1,1v30a1,1,0,0,0,1,1H51a1,1,0,0,0,1-1Z"/>
</svg>
