<svg id="Layer_1" data-name="Layer 1" xmlns="http://www.w3.org/2000/svg" width="64" height="64" viewBox="0 0 64 64"><defs><style>.cls-1{fill-rule:evenodd}</style></defs><title>Icons 300</title><path class="cls-1" d="M34.006 12.015H16.01a6.006 6.006 0 0 0-5.998 6v28a6.006 6.006 0 0 0 5.998 6h17.995a6.006 6.006 0 0 0 5.998-6v-6a2 2 0 1 0-3.999 0v6a2.002 2.002 0 0 1-2 2H16.012a2.002 2.002 0 0 1-2-2v-28a2.002 2.002 0 0 1 2-2h17.995a2.002 2.002 0 0 1 1.999 2v6a2 2 0 1 0 3.999 0v-6a6.006 6.006 0 0 0-5.998-6zm-12 20a2 2 0 0 0 2 2H43.98v4.996a1.027 1.027 0 0 0 1.622.819l9.968-6.99a.996.996 0 0 0 0-1.637l-9.968-6.99a1.027 1.027 0 0 0-1.622.82v4.983H24.005a2 2 0 0 0-1.998 2z"/></svg>