<svg id="Layer_1" data-name="Layer 1" xmlns="http://www.w3.org/2000/svg" width="64" height="64" viewBox="0 0 64 64">
  <defs>
    <style>
      .cls-1 {
        fill-rule: evenodd;
      }
    </style>
  </defs>
  <title>Icons 300</title>
  <path class="cls-1" d="M34.0056,12.0155H16.0112a6.0056,6.0056,0,0,0-5.9981,6v28a6.0057,6.0057,0,0,0,5.9981,6H34.0056a6.0057,6.0057,0,0,0,5.9983-6v-6a1.9995,1.9995,0,1,0-3.9989,0v6a2.0017,2.0017,0,0,1-1.9994,2H16.0112a2.0017,2.0017,0,0,1-1.9994-2v-28a2.002,2.002,0,0,1,1.9994-2H34.0056a2.002,2.002,0,0,1,1.9994,2v6a1.9995,1.9995,0,1,0,3.9989,0v-6A6.0056,6.0056,0,0,0,34.0056,12.0155Zm-11.9991,20a1.9994,1.9994,0,0,0,1.9988,2h19.976v4.9951a1.0266,1.0266,0,0,0,1.6214.819l9.9678-6.9888a.9959.9959,0,0,0,0-1.6381l-9.9678-6.9888a1.0267,1.0267,0,0,0-1.6214.8192v4.9824H24.0053A1.9993,1.9993,0,0,0,22.0065,32.0157Z"/>
</svg>
