<svg id="Layer_1" data-name="Layer 1" xmlns="http://www.w3.org/2000/svg" width="64" height="64" viewBox="0 0 64 64">
  <defs>
    <style>
      .cls-1 {
        fill-rule: evenodd;
      }
    </style>
  </defs>
  <title>Icons 300</title>
  <path class="cls-1" d="M28.0258,52.0158H46.02a6.0057,6.0057,0,0,0,5.9982-6v-28a6.0056,6.0056,0,0,0-5.9982-6H28.0258a6.0057,6.0057,0,0,0-5.9983,6v6a1.9994,1.9994,0,1,0,3.9987,0v-6a2.0018,2.0018,0,0,1,2-2H46.02a2.0016,2.0016,0,0,1,1.9994,2v28a2.002,2.002,0,0,1-1.9994,2H28.0258a2.0022,2.0022,0,0,1-2-2v-6a1.9994,1.9994,0,1,0-3.9987,0v6A6.0057,6.0057,0,0,0,28.0258,52.0158Zm-18.0192-20a2,2,0,0,0,1.9988,2h19.976v4.9951a1.0266,1.0266,0,0,0,1.6214.819L43.57,32.841a.9957.9957,0,0,0,0-1.6381l-9.9677-6.9888a1.0267,1.0267,0,0,0-1.6214.8192v4.9824H12.0054A1.9993,1.9993,0,0,0,10.0066,32.0157Z"/>
</svg>
