<svg id="Layer_1" data-name="Layer 1" xmlns="http://www.w3.org/2000/svg" width="64" height="64" viewBox="0 0 64 64"><defs><style>.cls-1{fill-rule:evenodd}</style></defs><title>Icons 300</title><path class="cls-1" d="M28.026 52.016H46.02a6.006 6.006 0 0 0 5.998-6v-28a6.006 6.006 0 0 0-5.998-6H28.026a6.006 6.006 0 0 0-5.998 6v6a2 2 0 1 0 3.998 0v-6a2.002 2.002 0 0 1 2-2H46.02a2.002 2.002 0 0 1 2 2v28a2.002 2.002 0 0 1-2 2H28.026a2.002 2.002 0 0 1-2-2v-6a2 2 0 1 0-3.999 0v6a6.006 6.006 0 0 0 5.999 6zm-18.02-20a2 2 0 0 0 2 2H31.98v4.995a1.027 1.027 0 0 0 1.622.819l9.967-6.989a.996.996 0 0 0 0-1.638l-9.968-6.989a1.027 1.027 0 0 0-1.621.82v4.982H12.005a2 2 0 0 0-1.998 2z"/></svg>