<svg id="Layer_1" data-name="Layer 1" xmlns="http://www.w3.org/2000/svg" width="64" height="64" viewBox="0 0 64 64">
  <defs>
    <style>
      .cls-1 {
        fill-rule: evenodd;
      }
    </style>
  </defs>
  <title>Icons 400</title>
  <path class="cls-1" d="M54,29.0156a7,7,0,0,1-7,7H19a9,9,0,0,1-.952-17.9487,10.9873,10.9873,0,0,1,20.4177-4.6348,7.961,7.961,0,0,1,10.421,8.8734A6.98,6.98,0,0,1,54,29.0156ZM14.2115,51.1344a2.0006,2.0006,0,0,1,3.579,1.7891l-1,2.0006A2.0007,2.0007,0,0,1,13.211,53.135Zm3.0013-6.0018,3.0012-6.0018A2.0007,2.0007,0,0,1,23.793,40.92l-3.0012,6.0018a2.0007,2.0007,0,0,1-3.579-1.7892Zm9.0037,2a2.0007,2.0007,0,0,1,3.579,1.7893l-3.0012,6.0018a2.0007,2.0007,0,0,1-3.579-1.7892Zm3.0013-6.0017,1-2.0006A2.0007,2.0007,0,0,1,33.7973,40.92l-1.0005,2.0006a2.0007,2.0007,0,0,1-3.579-1.7892ZM34.22,51.1344a2.0007,2.0007,0,0,1,3.5791,1.7891l-1,2.0006A2.0007,2.0007,0,0,1,33.22,53.135Zm3.0014-6.0018,3.0011-6.0018a2.0007,2.0007,0,0,1,3.579,1.7892L40.8,46.9218a2.0007,2.0007,0,0,1-3.579-1.7892Z"/>
</svg>
