<svg id="Layer_1" data-name="Layer 1" xmlns="http://www.w3.org/2000/svg" width="64" height="64" viewBox="0 0 64 64"><defs><style>.cls-1{fill-rule:evenodd}</style></defs><title>Icons 400</title><path class="cls-1" d="M54 29.016a7 7 0 0 1-7 7H19a9 9 0 0 1-.952-17.95 10.987 10.987 0 0 1 20.418-4.634 7.961 7.961 0 0 1 10.42 8.873A6.98 6.98 0 0 1 54 29.016zM14.212 51.134a2 2 0 0 1 3.579 1.79l-1 2a2 2 0 0 1-3.58-1.789zm3-6.001l3.002-6.002a2 2 0 0 1 3.579 1.789l-3.001 6.002a2 2 0 0 1-3.58-1.79zm9.005 2a2 2 0 0 1 3.579 1.789l-3.002 6.002a2 2 0 0 1-3.579-1.79zm3-6.002l1-2a2 2 0 0 1 3.58 1.789l-1 2a2 2 0 0 1-3.58-1.789zm5.003 10.003a2 2 0 0 1 3.58 1.79l-1 2a2 2 0 0 1-3.58-1.789zm3.001-6.001l3.001-6.002a2 2 0 0 1 3.58 1.789L40.8 46.922a2 2 0 0 1-3.579-1.79z"/></svg>