<svg id="Layer_1" data-name="Layer 1" xmlns="http://www.w3.org/2000/svg" width="64" height="64" viewBox="0 0 64 64"><defs><style>.cls-1{fill-rule:evenodd}</style></defs><title>Icons 200</title><path class="cls-1" d="M56 42a2 2 0 0 1-2 2H34v1.277l11.991 6.99A2.01 2.01 0 0 1 46.716 55a1.97 1.97 0 0 1-2.705.732L34 49.896V54a2 2 0 0 1-4 0v-4.104l-10.01 5.836A1.97 1.97 0 0 1 17.284 55a2.01 2.01 0 0 1 .725-2.732L30 45.278V44H10a2 2 0 1 1 0-4V16a2 2 0 1 1 0-4h20v-2a2 2 0 0 1 4 0v2h20a2 2 0 1 1 0 4v24a2 2 0 0 1 2 2zM42.447 27.105l-16-8A1 1 0 0 0 25 20v16a1 1 0 0 0 1.447.894l16-8a1 1 0 0 0 0-1.788z"/></svg>