<svg id="Layer_1" data-name="Layer 1" xmlns="http://www.w3.org/2000/svg" width="64" height="64" viewBox="0 0 64 64">
  <defs>
    <style>
      .cls-1 {
        fill-rule: evenodd;
      }
    </style>
  </defs>
  <title>Icons 400</title>
  <path class="cls-1" d="M16,10a2,2,0,0,1,2,2V36.3674a5.9658,5.9658,0,0,1,0,11.2653V52a2,2,0,0,1-4,0V47.6327a5.9658,5.9658,0,0,1,0-11.2653V12A2,2,0,0,1,16,10Zm16,0a2,2,0,0,1,2,2v4.3673a5.9659,5.9659,0,0,1,0,11.2653V52a2,2,0,1,1-4,0V27.6327a5.9658,5.9658,0,0,1,0-11.2653V12A2,2,0,0,1,32,10Zm16,0a2,2,0,0,1,2,2V26.3674a5.9658,5.9658,0,0,1,0,11.2653V52a2,2,0,0,1-4,0V37.6327a5.9658,5.9658,0,0,1,0-11.2653V12A2,2,0,0,1,48,10Z"/>
</svg>
