<svg id="Layer_1" data-name="Layer 1" xmlns="http://www.w3.org/2000/svg" width="64" height="64" viewBox="0 0 64 64">
  <defs>
    <style>
      .cls-1 {
        fill-rule: evenodd;
      }
    </style>
  </defs>
  <title>Icons 200</title>
  <path class="cls-1" d="M56,42a2,2,0,0,1-2,2H34v1.2772l11.9913,6.9907A2.0107,2.0107,0,0,1,46.7163,55a1.97,1.97,0,0,1-2.7056.732L34,49.8959V54a2,2,0,0,1-4,0V49.896L19.9895,55.732A1.97,1.97,0,0,1,17.2839,55a2.0107,2.0107,0,0,1,.725-2.7321L30,45.2772V44H10a2,2,0,1,1,0-4V16a2,2,0,1,1,0-4H30V10a2,2,0,0,1,4,0v2H54a2,2,0,1,1,0,4V40A2,2,0,0,1,56,42ZM42.4473,27.1055l-16-8A1,1,0,0,0,25,20V36a1,1,0,0,0,1.4472.8945l16-8A1,1,0,0,0,42.4473,27.1055Z"/>
</svg>
