<svg id="Layer_1" data-name="Layer 1" xmlns="http://www.w3.org/2000/svg" width="64" height="64" viewBox="0 0 64 64">
  <defs>
    <style>
      .cls-1 {
        fill-rule: evenodd;
      }
    </style>
  </defs>
  <title>Icons 300</title>
  <path class="cls-1" d="M47.6564,34.6021l-1.9032,4.6166c.8074.6093,3.25,2.6786,3.25,5.4816a3.1313,3.1313,0,0,1-.929,2.0128.9785.9785,0,0,1-.7175.303H40.8838a1,1,0,0,1-.8607-.4911l-1.7375-2.9395a2,2,0,0,1-.1784-1.6408l.3042-.9266H19.5669A6.0258,6.0258,0,0,1,21.0035,44.7a3.1312,3.1312,0,0,1-.9288,2.0128.9785.9785,0,0,1-.7174.303H12.8838a1,1,0,0,1-.8607-.4911l-1.7375-2.9395a1.9988,1.9988,0,0,1-.1784-1.6408l.02-.06a10.0473,10.0473,0,0,1-5.2954,2.044.7439.7439,0,0,1-.7241-1.1526C9.8853,35.0387,8.14,17.0253,29.0966,17.0253a22.0646,22.0646,0,0,1,17.15,7.6,8.7548,8.7548,0,0,0,4.6861-3.4793,3.0058,3.0058,0,0,1,3.6378-.8782L59.4141,22.52a1.0039,1.0039,0,0,1,.5718,1.0488C59.4928,27.1111,55.63,32.7368,47.6564,34.6021Z"/>
</svg>
