<svg id="Layer_1" data-name="Layer 1" xmlns="http://www.w3.org/2000/svg" width="64" height="64" viewBox="0 0 64 64"><defs><style>.cls-1{fill-rule:evenodd}</style></defs><title>Icons 300</title><path class="cls-1" d="M47.656 34.602l-1.903 4.617c.808.609 3.25 2.678 3.25 5.481a3.131 3.131 0 0 1-.929 2.013.979.979 0 0 1-.717.303h-6.473a1 1 0 0 1-.86-.491l-1.738-2.94a2 2 0 0 1-.179-1.64l.304-.927H19.567a6.026 6.026 0 0 1 1.436 3.682 3.131 3.131 0 0 1-.928 2.013.979.979 0 0 1-.718.303h-6.473a1 1 0 0 1-.86-.491l-1.738-2.94a1.999 1.999 0 0 1-.179-1.64l.02-.06a10.047 10.047 0 0 1-5.295 2.043.744.744 0 0 1-.724-1.152c5.777-7.737 4.032-25.75 24.989-25.75a22.065 22.065 0 0 1 17.15 7.6 8.755 8.755 0 0 0 4.686-3.48 3.006 3.006 0 0 1 3.637-.878l4.844 2.252a1.004 1.004 0 0 1 .572 1.049c-.493 3.542-4.356 9.168-12.33 11.033z"/></svg>