<svg id="Layer_1" data-name="Layer 1" xmlns="http://www.w3.org/2000/svg" width="64" height="64" viewBox="0 0 64 64">
  <defs>
    <style>
      .cls-1 {
        fill-rule: evenodd;
      }
    </style>
  </defs>
  <title>Icons 400</title>
  <path class="cls-1" d="M32,56.0157a24,24,0,1,1,24-24A24,24,0,0,1,32,56.0157Zm0-44a20,20,0,1,0,20,20A20,20,0,0,0,32,12.0157Zm15,25H45a1,1,0,0,1-1-1v-4a1,1,0,0,1,1-1h2a1,1,0,0,1,1,1v4A1,1,0,0,1,47,37.0157Zm-1-8a2,2,0,0,1-2-2v-.5a.501.501,0,0,0-.5-.5h-6a5.5066,5.5066,0,0,1-5.5-5.5v-.5a2,2,0,0,1,4,0v.5a1.5017,1.5017,0,0,0,1.5,1.5h6a4.505,4.505,0,0,1,4.5,4.5v.5A2,2,0,0,1,46,29.0157Zm-4,3v4a1,1,0,0,1-1,1H17a1,1,0,0,1-1-1v-4a1,1,0,0,1,1-1H41A1,1,0,0,1,42,32.0157Z"/>
</svg>
