<svg id="Layer_1" data-name="Layer 1" xmlns="http://www.w3.org/2000/svg" width="64" height="64" viewBox="0 0 64 64"><defs><style>.cls-1{fill-rule:evenodd}</style></defs><title>Icons 400</title><path class="cls-1" d="M32 56.016a24 24 0 1 1 24-24 24 24 0 0 1-24 24zm0-44a20 20 0 1 0 20 20 20 20 0 0 0-20-20zm15 25h-2a1 1 0 0 1-1-1v-4a1 1 0 0 1 1-1h2a1 1 0 0 1 1 1v4a1 1 0 0 1-1 1zm-1-8a2 2 0 0 1-2-2v-.5a.501.501 0 0 0-.5-.5h-6a5.507 5.507 0 0 1-5.5-5.5v-.5a2 2 0 0 1 4 0v.5a1.502 1.502 0 0 0 1.5 1.5h6a4.505 4.505 0 0 1 4.5 4.5v.5a2 2 0 0 1-2 2zm-4 3v4a1 1 0 0 1-1 1H17a1 1 0 0 1-1-1v-4a1 1 0 0 1 1-1h24a1 1 0 0 1 1 1z"/></svg>