<svg id="Layer_1" data-name="Layer 1" xmlns="http://www.w3.org/2000/svg" width="64" height="64" viewBox="0 0 64 64"><defs><style>.cls-1{fill-rule:evenodd}</style></defs><title>Icons 400</title><path class="cls-1" d="M32 56.016a24 24 0 1 1 24-24 24 24 0 0 1-24 24zm-20-24a19.996 19.996 0 0 0 32.648 15.489L16.51 19.368A19.913 19.913 0 0 0 12 32.016zm20-20a19.914 19.914 0 0 0-12.66 4.52l28.14 28.14A19.997 19.997 0 0 0 32 12.016zm15 25h-2a1 1 0 0 1-1-1v-4a1 1 0 0 1 1-1h2a1 1 0 0 1 1 1v4a1 1 0 0 1-1 1zm-1-8a2 2 0 0 1-2-2v-.5a.5.5 0 0 0-.5-.5h-6a5.507 5.507 0 0 1-5.5-5.5v-.5a2 2 0 0 1 4 0v.5a1.502 1.502 0 0 0 1.5 1.5h6a4.505 4.505 0 0 1 4.5 4.5v.5a2 2 0 0 1-2 2zm-4 3v3.136a.5.5 0 0 1-.854.353L37.51 31.87a.5.5 0 0 1 .354-.853H41a1 1 0 0 1 1 1zm-26 4v-4a1 1 0 0 1 1-1h7.515a2 2 0 0 1 1.414.586l4.561 4.56a.5.5 0 0 1-.353.854H17a1 1 0 0 1-1-1z"/></svg>