<svg id="Layer_1" data-name="Layer 1" xmlns="http://www.w3.org/2000/svg" width="64" height="64" viewBox="0 0 64 64">
  <defs>
    <style>
      .cls-1 {
        fill-rule: evenodd;
      }
    </style>
  </defs>
  <title>Icons 400</title>
  <path class="cls-1" d="M32,56.0157a24,24,0,1,1,24-24A24,24,0,0,1,32,56.0157Zm-20-24A19.9961,19.9961,0,0,0,44.6475,47.5048L16.511,19.3681A19.9134,19.9134,0,0,0,12,32.0157Zm20-20A19.9144,19.9144,0,0,0,19.34,16.536l28.14,28.14A19.9968,19.9968,0,0,0,32,12.0152Zm15,25H45a1,1,0,0,1-1-1v-4a1,1,0,0,1,1-1h2a1,1,0,0,1,1,1v4A1,1,0,0,1,47,37.0156Zm-1-8a2,2,0,0,1-2-2v-.5a.5009.5009,0,0,0-.5-.5h-6a5.5066,5.5066,0,0,1-5.5-5.5v-.5a2,2,0,0,1,4,0v.5a1.5017,1.5017,0,0,0,1.5,1.5h6a4.5049,4.5049,0,0,1,4.5,4.5v.5A2,2,0,0,1,46,29.0156Zm-4,3v3.136a.5.5,0,0,1-.8536.3536l-3.6359-3.6361a.5.5,0,0,1,.3535-.8536H41A1,1,0,0,1,42,32.0157Zm-26,4v-4a1,1,0,0,1,1-1h7.5147a2,2,0,0,1,1.4142.5859L30.49,36.1621a.5.5,0,0,1-.3535.8535H17A1,1,0,0,1,16,36.0157Z"/>
</svg>
