<svg id="Layer_1" data-name="Layer 1" xmlns="http://www.w3.org/2000/svg" width="64" height="64" viewBox="0 0 64 64">
  <defs>
    <style>
      .cls-1 {
        fill-rule: evenodd;
      }
    </style>
  </defs>
  <title>Icons 400</title>
  <path class="cls-1" d="M51.8954,22.8066,47.9147,25.11l2.994,1.7272a2.0731,2.0731,0,0,1,.9219,2.6,1.9962,1.9962,0,0,1-2.8148.9266L44.92,28.0008a2.0031,2.0031,0,0,0-2.0037.0013L35.98,32.0156l6.9361,4.0135a2.0031,2.0031,0,0,0,2.0037.0014l3.9945-2.3047a2.071,2.071,0,0,1,2.6273.4026,1.9953,1.9953,0,0,1-.5245,3.0031l-3.1026,1.79,3.9807,2.3032a2.0819,2.0819,0,0,1,.926,2.607,1.994,1.994,0,0,1-2.82.9161L46,42.432v3.4837A2.0684,2.0684,0,0,1,44.337,47.988a1.9971,1.9971,0,0,1-2.34-1.9555V41.2687a2,2,0,0,0-.9986-1.7308l-7.0074-4.0548v8.1517a2,2,0,0,0,1.0008,1.7321L38.9,47.6216a2.0731,2.0731,0,0,1,.9218,2.6,1.9962,1.9962,0,0,1-2.8148.9266l-3.0162-1.74v4.5a2.0745,2.0745,0,0,1-1.6655,2.0795,2.0022,2.0022,0,0,1-2.3374-1.9726V49.4083L27.0727,51.09a2.0708,2.0708,0,0,1-2.6273-.4025,1.9954,1.9954,0,0,1,.5245-3.0032l4.017-2.3174a2,2,0,0,0,1.0008-1.7321V35.4831L22.98,39.5379a2,2,0,0,0-.9985,1.7308v4.647a2.0684,2.0684,0,0,1-1.6625,2.0723,1.9972,1.9972,0,0,1-2.3405-1.9555v-3.6L14.07,44.6938a2.0683,2.0683,0,0,1-2.6274-.4,2.0039,2.0039,0,0,1,.5387-3.01l4.0822-2.3621L13.07,37.1942a2.073,2.073,0,0,1-.9219-2.6,1.9962,1.9962,0,0,1,2.8148-.9266l4.0957,2.3631a2.0033,2.0033,0,0,0,2.0038-.0014l6.9361-4.0135L21.062,28.0021a2.0033,2.0033,0,0,0-2.0038-.0013l-3.9945,2.3046a2.0706,2.0706,0,0,1-2.6272-.4026A1.9952,1.9952,0,0,1,12.961,26.9l3.1024-1.79-3.9806-2.3032a2.0821,2.0821,0,0,1-.926-2.6071,1.994,1.994,0,0,1,2.82-.916l4.002,2.3157V18.1155a2.0684,2.0684,0,0,1,1.6626-2.0723,1.9971,1.9971,0,0,1,2.34,1.9555v4.7638a2,2,0,0,0,.9985,1.7308l7.0075,4.0548V20.3964a2,2,0,0,0-1.0008-1.732L25.0785,16.41a2.0731,2.0731,0,0,1-.9219-2.6,1.9962,1.9962,0,0,1,2.8148-.9266l3.0163,1.74v-4.5A2.0745,2.0745,0,0,1,31.653,8.043a2.0023,2.0023,0,0,1,2.3376,1.9726v4.6073l2.915-1.6816a2.0706,2.0706,0,0,1,2.6272.4025,1.9953,1.9953,0,0,1-.5244,3.0031l-4.017,2.3175a2,2,0,0,0-1.0008,1.732v8.1517l7.0074-4.0548a2,2,0,0,0,.9986-1.7308v-4.647a2.0684,2.0684,0,0,1,1.6625-2.0723A1.9971,1.9971,0,0,1,46,17.9987v3.6l4.002-2.3157a1.994,1.994,0,0,1,2.82.916A2.082,2.082,0,0,1,51.8954,22.8066Z"/>
</svg>
