<svg id="Layer_1" data-name="Layer 1" xmlns="http://www.w3.org/2000/svg" width="64" height="64" viewBox="0 0 64 64"><defs><style>.cls-1{fill-rule:evenodd}</style></defs><title>Icons 400</title><path class="cls-1" d="M51.895 22.807l-3.98 2.303 2.994 1.727a2.073 2.073 0 0 1 .922 2.6 1.996 1.996 0 0 1-2.815.927L44.92 28a2.003 2.003 0 0 0-2.004.001l-6.936 4.014 6.936 4.013a2.003 2.003 0 0 0 2.004.001l3.994-2.304a2.071 2.071 0 0 1 2.628.402 1.995 1.995 0 0 1-.525 3.003l-3.103 1.79 3.981 2.304a2.082 2.082 0 0 1 .926 2.607 1.994 1.994 0 0 1-2.82.916L46 42.432v3.484a2.068 2.068 0 0 1-1.663 2.072 1.997 1.997 0 0 1-2.34-1.956V41.27a2 2 0 0 0-.999-1.731l-7.007-4.055v8.152a2 2 0 0 0 1 1.732l3.909 2.255a2.073 2.073 0 0 1 .922 2.6 1.996 1.996 0 0 1-2.815.926l-3.016-1.74v4.5a2.075 2.075 0 0 1-1.666 2.08 2.002 2.002 0 0 1-2.337-1.973v-4.607l-2.915 1.682a2.07 2.07 0 0 1-2.628-.403 1.995 1.995 0 0 1 .525-3.003l4.017-2.317a2 2 0 0 0 1-1.732v-8.152l-7.007 4.055a2 2 0 0 0-.999 1.73v4.648a2.068 2.068 0 0 1-1.662 2.072 1.997 1.997 0 0 1-2.34-1.956v-3.6l-3.909 2.262a2.068 2.068 0 0 1-2.627-.4 2.004 2.004 0 0 1 .538-3.01l4.083-2.362-2.994-1.728a2.073 2.073 0 0 1-.922-2.6 1.996 1.996 0 0 1 2.815-.926l4.096 2.363a2.003 2.003 0 0 0 2.003-.002l6.936-4.013-6.936-4.014a2.003 2.003 0 0 0-2.004-.001l-3.994 2.304a2.07 2.07 0 0 1-2.628-.402 1.995 1.995 0 0 1 .525-3.003l3.102-1.79-3.98-2.303a2.082 2.082 0 0 1-.926-2.607 1.994 1.994 0 0 1 2.82-.916l4.002 2.315v-3.483a2.068 2.068 0 0 1 1.662-2.073A1.997 1.997 0 0 1 21.981 18v4.764a2 2 0 0 0 .999 1.73l7.007 4.055v-8.152a2 2 0 0 0-1-1.732l-3.909-2.254a2.073 2.073 0 0 1-.921-2.6 1.996 1.996 0 0 1 2.814-.927l3.017 1.74v-4.5a2.075 2.075 0 0 1 1.665-2.08 2.002 2.002 0 0 1 2.338 1.973v4.607l2.915-1.682a2.07 2.07 0 0 1 2.627.403 1.995 1.995 0 0 1-.525 3.003l-4.017 2.317a2 2 0 0 0-1 1.732v8.152l7.007-4.055a2 2 0 0 0 .999-1.73v-4.648a2.068 2.068 0 0 1 1.662-2.072A1.997 1.997 0 0 1 46 18v3.6l4.002-2.316a1.994 1.994 0 0 1 2.82.916 2.082 2.082 0 0 1-.927 2.608z"/></svg>