<svg id="Layer_1" data-name="Layer 1" xmlns="http://www.w3.org/2000/svg" width="64" height="64" viewBox="0 0 64 64">
  <defs>
    <style>
      .cls-1 {
        fill-rule: evenodd;
      }
    </style>
  </defs>
  <title>Icons 200</title>
  <path class="cls-1" d="M20.8128,10.4141l6.9888,9.9743a1.0273,1.0273,0,0,1-.8192,1.6224H22V52a2,2,0,0,1-4,0V22.0108H13.005a1.0273,1.0273,0,0,1-.8191-1.6224l6.9888-9.9743A0.9956,0.9956,0,0,1,20.8128,10.4141ZM51.8142,43.6116l-6.9887,9.9742a0.9956,0.9956,0,0,1-1.6382,0l-6.9887-9.9742a1.0273,1.0273,0,0,1,.8191-1.6224H42V12a2,2,0,0,1,4,0V41.9892h4.9951A1.0272,1.0272,0,0,1,51.8142,43.6116Z"/>
</svg>
