<svg id="Layer_1" data-name="Layer 1" xmlns="http://www.w3.org/2000/svg" width="64" height="64" viewBox="0 0 64 64"><defs><style>.cls-1{fill-rule:evenodd}</style></defs><title>Icons 200</title><path class="cls-1" d="M20.813 10.414l6.989 9.974a1.027 1.027 0 0 1-.82 1.623H22V52a2 2 0 0 1-4 0V22.01h-4.995a1.027 1.027 0 0 1-.82-1.622l6.99-9.974a.996.996 0 0 1 1.638 0zm31.001 33.198l-6.989 9.974a.996.996 0 0 1-1.638 0L36.2 43.612a1.027 1.027 0 0 1 .819-1.623H42V12a2 2 0 0 1 4 0v29.99h4.995a1.027 1.027 0 0 1 .82 1.622z"/></svg>