<svg id="Layer_1" data-name="Layer 1" xmlns="http://www.w3.org/2000/svg" width="64" height="64" viewBox="0 0 64 64"><defs><style>.cls-1{fill-rule:evenodd}</style></defs><title>Icons 400</title><path class="cls-1" d="M54 52.016H10a2 2 0 0 1-2-2v-6a2 2 0 0 1 2-2h9a1 1 0 0 0 1-1v-7a2 2 0 0 1 2-2h9a1 1 0 0 0 1-1v-7a2 2 0 0 1 2-2h9a1 1 0 0 0 1-1v-7a2 2 0 0 1 2-2h8a2 2 0 0 1 2 2v36a2 2 0 0 1-2 2zM14.79 24.02h5.232a1.998 1.998 0 1 1 0 3.996h-10.02A2 2 0 0 1 8 26.018v-9.98a2.002 2.002 0 0 1 4.004 0v5.141l8.624-8.577a1.99 1.99 0 0 1 2.804 2.822z"/></svg>