<svg id="Layer_1" data-name="Layer 1" xmlns="http://www.w3.org/2000/svg" width="64" height="64" viewBox="0 0 64 64"><defs><style>.cls-1{fill-rule:evenodd}</style></defs><title>Icons 400</title><path class="cls-1" d="M54 52.016H10a2 2 0 0 1-2-2v-6a2 2 0 0 1 2-2h9a1 1 0 0 0 1-1v-7a2 2 0 0 1 2-2h9a1 1 0 0 0 1-1v-7a2 2 0 0 1 2-2h9a1 1 0 0 0 1-1v-7a2 2 0 0 1 2-2h8a2 2 0 0 1 2 2v36a2 2 0 0 1-2 2zM21.998 25.99a2 2 0 0 1-2.002-1.998v-5.14l-8.624 8.577a1.99 1.99 0 0 1-2.804-2.822l8.642-8.596h-5.232a1.998 1.998 0 1 1 0-3.996h10.02A2 2 0 0 1 24 14.014v9.98a2 2 0 0 1-2.002 1.997z"/></svg>