<svg id="Layer_1" data-name="Layer 1" xmlns="http://www.w3.org/2000/svg" width="64" height="64" viewBox="0 0 64 64">
  <defs>
    <style>
      .cls-1 {
        fill-rule: evenodd;
      }
    </style>
  </defs>
  <title>Icons 400</title>
  <path class="cls-1" d="M54,52.0157H10a2,2,0,0,1-2-2v-6a2,2,0,0,1,2-2h9a1,1,0,0,0,1-1v-7a2,2,0,0,1,2-2h9a1,1,0,0,0,1-1v-7a2,2,0,0,1,2-2h9a1,1,0,0,0,1-1v-7a2,2,0,0,1,2-2h8a2,2,0,0,1,2,2v36A2,2,0,0,1,54,52.0157ZM21.998,25.9914a2,2,0,0,1-2.0018-1.9981V18.8522L11.3721,27.43a1.9894,1.9894,0,0,1-2.8045-2.8224L17.21,16.0118H11.9776a1.9981,1.9981,0,1,1,0-3.9961h10.02A2,2,0,0,1,24,14.0137v9.98A2,2,0,0,1,21.998,25.9914Z"/>
</svg>
