<svg id="Layer_1" data-name="Layer 1" xmlns="http://www.w3.org/2000/svg" width="64" height="64" viewBox="0 0 64 64">
  <defs>
    <style>
      .cls-1 {
        fill-rule: evenodd;
      }
    </style>
  </defs>
  <title>Icons 400</title>
  <path class="cls-1" d="M54,52.0157H10a2,2,0,0,1-2-2v-6a2,2,0,0,1,2-2h9a1,1,0,0,0,1-1v-7a2,2,0,0,1,2-2h9a1,1,0,0,0,1-1v-7a2,2,0,0,1,2-2h9a1,1,0,0,0,1-1v-7a2,2,0,0,1,2-2h8a2,2,0,0,1,2,2v36A2,2,0,0,1,54,52.0157ZM14.79,24.02h5.2321a1.9981,1.9981,0,1,1,0,3.9961H10.002A2,2,0,0,1,8,26.0177V16.0382a2.0019,2.0019,0,0,1,4.0038,0v5.141l8.6241-8.5774a1.9895,1.9895,0,0,1,2.8045,2.8225Z"/>
</svg>
