<svg id="Layer_1" data-name="Layer 1" xmlns="http://www.w3.org/2000/svg" width="64" height="64" viewBox="0 0 64 64"><defs><style>.cls-1{fill-rule:evenodd}</style></defs><title>Icons 100</title><path class="cls-1" d="M45.608 36.446a.5.5 0 0 0-.186.557l4.361 13.88a3.892 3.892 0 0 1-6 4.34l-11.657-8.785a.25.25 0 0 0-.301 0l-11.619 8.77a3.89 3.89 0 0 1-5.998-4.36l4.377-13.999a.25.25 0 0 0-.093-.278l-11.85-8.51a3.915 3.915 0 0 1 2.434-7.09h14.407a.25.25 0 0 0 .238-.173l4.56-14.101a3.876 3.876 0 0 1 7.39.005l4.557 14.096a.25.25 0 0 0 .238.173h14.46a3.915 3.915 0 0 1 2.43 7.093zm8.417-11.475H38.1a1 1 0 0 1-.952-.692l-4.936-15.27a.25.25 0 0 0-.475 0L26.8 24.279a1 1 0 0 1-.951.692H9.972a.25.25 0 0 0-.146.453l12.905 9.268a1 1 0 0 1 .371 1.11l-4.764 15.237a.25.25 0 0 0 .39.274l12.644-9.544a1 1 0 0 1 1.204 0l12.678 9.555a.25.25 0 0 0 .389-.274l-4.799-15.27a1 1 0 0 1 .374-1.114l12.952-9.242a.25.25 0 0 0-.145-.453z"/></svg>