<svg id="Layer_1" data-name="Layer 1" xmlns="http://www.w3.org/2000/svg" width="64" height="64" viewBox="0 0 64 64">
  <defs>
    <style>
      .cls-1 {
        fill-rule: evenodd;
      }
    </style>
  </defs>
  <title>Icons 100</title>
  <path class="cls-1" d="M45.6084,36.4462a0.5,0.5,0,0,0-.1867.5567l4.3613,13.88a3.8922,3.8922,0,0,1-6.0006,4.34L32.126,46.4381a0.25,0.25,0,0,0-.3011,0l-11.6184,8.77a3.89,3.89,0,0,1-5.9986-4.3595l4.3772-13.9995a0.25,0.25,0,0,0-.0928-0.2777l-11.85-8.51a3.9152,3.9152,0,0,1,2.434-7.09H23.4833a0.25,0.25,0,0,0,.2377-0.1731l4.56-14.1017a3.8755,3.8755,0,0,1,7.3893.005l4.5577,14.0967a0.25,0.25,0,0,0,.2376.1731H54.9266a3.9149,3.9149,0,0,1,2.43,7.0925ZM54.025,24.9709H38.1a1,1,0,0,1-.9515-0.6922L32.2123,9.009a0.25,0.25,0,0,0-.4756,0L26.8,24.2788a1,1,0,0,1-.9514.6921H9.9721a0.25,0.25,0,0,0-.1459.4531l12.9053,9.268a1,1,0,0,1,.371,1.11L18.3382,51.0392a0.25,0.25,0,0,0,.3892.2741l12.6442-9.5442a1,1,0,0,1,1.2041,0l12.678,9.5554a0.25,0.25,0,0,0,.389-0.2745l-4.7983-15.27a1,1,0,0,1,.3733-1.1137L54.17,25.4243A0.25,0.25,0,0,0,54.025,24.9709Z"/>
</svg>
