<svg id="Layer_1" data-name="Layer 1" xmlns="http://www.w3.org/2000/svg" width="64" height="64" viewBox="0 0 64 64"><defs><style>.cls-1{fill-rule:evenodd}</style></defs><title>Icons 300</title><path class="cls-1" d="M27.016 10.608V8.016a2 2 0 0 1 2-2h6a2 2 0 0 1 2 2v2.592a21.948 21.948 0 0 1 8.96 4.447l1.536-1.535a1.99 1.99 0 0 1 .056-2.744l1.184-1.184a2 2 0 0 1 2.828 0l2.829 2.828a2 2 0 0 1 0 2.829l-1.184 1.183a1.994 1.994 0 0 1-2.717.092l-1.522 1.521a21.994 21.994 0 1 1-21.97-7.437zm2.994 28.339a2.007 2.007 0 1 0 4.011 0l-.143-3.412a3.985 3.985 0 0 0-.301-7.203l-.559-13.345a1.004 1.004 0 0 0-2.005 0l-.559 13.345a3.985 3.985 0 0 0-.301 7.203z"/></svg>