<svg id="Layer_1" data-name="Layer 1" xmlns="http://www.w3.org/2000/svg" width="64" height="64" viewBox="0 0 64 64">
  <defs>
    <style>
      .cls-1 {
        fill-rule: evenodd;
      }
    </style>
  </defs>
  <title>Icons 300</title>
  <path class="cls-1" d="M27.0157,10.6082V8.0157a2,2,0,0,1,2-2h6a2,2,0,0,1,2,2v2.5925a21.9476,21.9476,0,0,1,8.96,4.447L47.5117,13.52a1.99,1.99,0,0,1,.0561-2.7441l1.1838-1.1838a2,2,0,0,1,2.8284,0L54.4086,12.42a2,2,0,0,1,0,2.8285l-1.184,1.1838a1.9939,1.9939,0,0,1-2.7168.0913l-1.5214,1.5214a21.9937,21.9937,0,1,1-21.9707-7.4369ZM30.01,38.9469a2.0069,2.0069,0,1,0,4.0111,0l-.1427-3.4115a3.9845,3.9845,0,0,0-.3015-7.2029l-.5586-13.3453a1.0039,1.0039,0,0,0-2.0056,0l-.5584,13.3452a3.9846,3.9846,0,0,0-.3015,7.203Z"/>
</svg>
