<svg id="Layer_1" data-name="Layer 1" xmlns="http://www.w3.org/2000/svg" width="64" height="64" viewBox="0 0 64 64"><defs><style>.cls-1{fill-rule:evenodd}</style></defs><title>Icons 400</title><path class="cls-1" d="M53.987 29.615A7.188 7.188 0 0 1 46.733 36h-8.469a.5.5 0 0 1-.485-.62l1.106-4.425a3.995 3.995 0 0 0-3.879-4.963h-7.71a4.999 4.999 0 0 0-4.85 3.784l-1.414 5.656a.75.75 0 0 1-.727.568h-.987a9.211 9.211 0 0 1-9.322-8.79 8.999 8.999 0 0 1 8.049-9.15 10.995 10.995 0 0 1 20.427-4.633 7.96 7.96 0 0 1 10.426 8.87 6.973 6.973 0 0 1 5.089 7.32zm-29.627.648a3.001 3.001 0 0 1 2.912-2.273h7.723a2.001 2.001 0 0 1 1.94 2.486l-1.88 7.519h5.942a2.001 2.001 0 0 1 1.466 3.362L29.457 55.364a2.001 2.001 0 0 1-3.407-1.847l1.88-7.519h-4.941a2.001 2.001 0 0 1-1.941-2.486z"/></svg>