<svg id="Layer_1" data-name="Layer 1" xmlns="http://www.w3.org/2000/svg" width="64" height="64" viewBox="0 0 64 64">
  <defs>
    <style>
      .cls-1 {
        fill-rule: evenodd;
      }
    </style>
  </defs>
  <title>Icons 400</title>
  <path class="cls-1" d="M53.9866,29.6152a7.1877,7.1877,0,0,1-7.2536,6.384H38.2641a.5.5,0,0,1-.4853-.621l1.1066-4.4243a3.9955,3.9955,0,0,0-3.8789-4.9632h-7.71a4.9988,4.9988,0,0,0-4.85,3.7847l-1.414,5.6558a.75.75,0,0,1-.7279.568h-.9867a9.2115,9.2115,0,0,1-9.3221-8.7906,8.999,8.999,0,0,1,8.0492-9.15,10.9948,10.9948,0,0,1,20.4272-4.6329,7.96,7.96,0,0,1,10.4257,8.87A6.9729,6.9729,0,0,1,53.9866,29.6152ZM24.36,30.2629A3.0013,3.0013,0,0,1,27.2716,27.99h7.7229a2.001,2.001,0,0,1,1.9412,2.4863l-1.88,7.5185h5.9414a2.001,2.001,0,0,1,1.4662,3.3625L29.4575,55.3636A2.001,2.001,0,0,1,26.05,53.5167l1.88-7.5184H22.9888a2.0011,2.0011,0,0,1-1.9412-2.4864Z"/>
</svg>
