<svg id="Layer_1" data-name="Layer 1" xmlns="http://www.w3.org/2000/svg" width="64" height="64" viewBox="0 0 64 64"><defs><style>.cls-1{fill-rule:evenodd}</style></defs><title>Icons 300</title><path class="cls-1" d="M32.016 52.016a25.553 25.553 0 0 1-4.69-.498 2.586 2.586 0 0 0-2.055.532 21.09 21.09 0 0 1-10.058 3.953 1.09 1.09 0 0 1-1.015-1.698 15.53 15.53 0 0 0 2.96-5.967 1.613 1.613 0 0 0-.603-1.57 21.159 21.159 0 0 1-8.539-16.752c0-12.135 10.745-22 24-22s24 9.864 24 22-10.746 22-24 22zm-10.006-25a3 3 0 1 0 3 3 3 3 0 0 0-3-3zm10 0a3 3 0 1 0 3 3 3 3 0 0 0-3-3zm10 0a3 3 0 1 0 3 3 3 3 0 0 0-3-3z"/></svg>