<svg id="Layer_1" data-name="Layer 1" xmlns="http://www.w3.org/2000/svg" width="64" height="64" viewBox="0 0 64 64">
  <defs>
    <style>
      .cls-1 {
        fill-rule: evenodd;
      }
    </style>
  </defs>
  <title>Icons 300</title>
  <path class="cls-1" d="M32.0156,52.0157a25.5528,25.5528,0,0,1-4.69-.498,2.5863,2.5863,0,0,0-2.0546.5322,21.0894,21.0894,0,0,1-10.0576,3.9527,1.0907,1.0907,0,0,1-1.0157-1.6981,15.53,15.53,0,0,0,2.96-5.9666,1.6132,1.6132,0,0,0-.6024-1.5706,21.1587,21.1587,0,0,1-8.539-16.7516c0-12.1352,10.7452-22,24-22s24,9.8647,24,22S45.27,52.0157,32.0156,52.0157Zm-10.0061-25a3,3,0,1,0,3,3A3,3,0,0,0,22.01,27.0158Zm10,0a3,3,0,1,0,3,3A3,3,0,0,0,32.01,27.0158Zm10,0a3,3,0,1,0,3,3A3,3,0,0,0,42.01,27.0158Z"/>
</svg>
