<svg id="Layer_1" data-name="Layer 1" xmlns="http://www.w3.org/2000/svg" width="64" height="64" viewBox="0 0 64 64">
  <defs>
    <style>
      .cls-1 {
        fill-rule: evenodd;
      }
    </style>
  </defs>
  <title>Icons 300</title>
  <path class="cls-1" d="M32.0158,8.02a1.76,1.76,0,0,1,1.4823.8034c4.771,7.4132,19.5176,17.3578,19.5176,28.1959a11.0016,11.0016,0,0,1-11,11,10.8747,10.8747,0,0,1-8.2675-3.7515,19.3127,19.3127,0,0,0,4.9236,8.4093l1.9189,1.9194a.8334.8334,0,0,1-.59,1.4226H24.03a.8333.8333,0,0,1-.5894-1.4226L25.36,52.677a19.3138,19.3138,0,0,0,4.9237-8.4093,10.875,10.875,0,0,1-8.2675,3.7515,11.0017,11.0017,0,0,1-11-11c0-10.8381,14.7467-20.7827,19.5176-28.1959A1.76,1.76,0,0,1,32.0158,8.02Z"/>
</svg>
