<svg id="Layer_1" data-name="Layer 1" xmlns="http://www.w3.org/2000/svg" width="64" height="64" viewBox="0 0 64 64"><defs><style>.cls-1{fill-rule:evenodd}</style></defs><title>Icons 300</title><path class="cls-1" d="M32.016 8.02a1.76 1.76 0 0 1 1.482.803c4.771 7.414 19.518 17.358 19.518 28.196a11.002 11.002 0 0 1-11 11 10.875 10.875 0 0 1-8.268-3.751 19.313 19.313 0 0 0 4.924 8.41l1.919 1.919a.833.833 0 0 1-.59 1.422H24.03a.833.833 0 0 1-.59-1.422l1.92-1.92a19.314 19.314 0 0 0 4.924-8.41 10.875 10.875 0 0 1-8.268 3.752 11.002 11.002 0 0 1-11-11c0-10.838 14.747-20.782 19.518-28.196a1.76 1.76 0 0 1 1.482-.803z"/></svg>