<svg id="Layer_1" data-name="Layer 1" xmlns="http://www.w3.org/2000/svg" width="64" height="64" viewBox="0 0 64 64">
  <defs>
    <style>
      .cls-1 {
        fill-rule: evenodd;
      }
    </style>
  </defs>
  <title>Icons 300</title>
  <path class="cls-1" d="M22.0157,26.02a11.0839,11.0839,0,0,1,1.6213.12,11,11,0,1,1,16.7575,0,11.0008,11.0008,0,1,1-6.6464,18.1275,19.3105,19.3105,0,0,0,4.9238,8.41l1.9188,1.9194a.8333.8333,0,0,1-.5893,1.4226H24.03a.8334.8334,0,0,1-.5895-1.4226l1.9189-1.9194a19.3107,19.3107,0,0,0,4.9239-8.41A10.998,10.998,0,1,1,22.0157,26.02Z"/>
</svg>
