<svg id="Layer_1" data-name="Layer 1" xmlns="http://www.w3.org/2000/svg" width="64" height="64" viewBox="0 0 64 64"><defs><style>.cls-1{fill-rule:evenodd}</style></defs><title>Icons 400</title><path class="cls-1" d="M58.982 33.312l-7.503 1.876a1.341 1.341 0 0 0-.522 2.34l2.358 1.923a1.341 1.341 0 0 1-.984 2.374l-3.027-.307a1.342 1.342 0 0 0-1.285 2.025l3.979 6.63a1.341 1.341 0 0 1-1.84 1.84l-6.632-3.978a1.341 1.341 0 0 0-2.024 1.286l.307 3.027a1.341 1.341 0 0 1-2.374.983l-1.923-2.358a1.341 1.341 0 0 0-2.34.523l-1.876 7.502a1.341 1.341 0 0 1-2.603 0l-1.876-7.502a1.341 1.341 0 0 0-2.34-.522l-1.924 2.357a1.341 1.341 0 0 1-2.374-.983l.308-3.027a1.341 1.341 0 0 0-2.025-1.286l-6.631 3.98a1.341 1.341 0 0 1-1.84-1.84l3.979-6.632a1.341 1.341 0 0 0-1.286-2.025l-3.027.308a1.341 1.341 0 0 1-.983-2.374l2.357-1.923a1.341 1.341 0 0 0-.522-2.341l-7.503-1.876a1.341 1.341 0 0 1 0-2.603l7.503-1.875a1.341 1.341 0 0 0 .522-2.341l-2.358-1.923a1.341 1.341 0 0 1 .984-2.374l3.027.308a1.341 1.341 0 0 0 1.285-2.025l-3.979-6.631a1.341 1.341 0 0 1 1.84-1.84l6.631 3.978a1.341 1.341 0 0 0 2.026-1.286l-.308-3.027a1.341 1.341 0 0 1 2.374-.983l1.923 2.358a1.341 1.341 0 0 0 2.341-.523l1.876-7.503a1.341 1.341 0 0 1 2.602 0l1.876 7.503a1.341 1.341 0 0 0 2.34.522l1.924-2.357a1.341 1.341 0 0 1 2.374.983L41.5 14.7a1.341 1.341 0 0 0 2.025 1.286l6.631-3.979a1.341 1.341 0 0 1 1.84 1.84l-3.979 6.631a1.341 1.341 0 0 0 1.286 2.025l3.027-.308a1.341 1.341 0 0 1 .983 2.374l-2.357 1.924a1.341 1.341 0 0 0 .522 2.34l7.503 1.876a1.341 1.341 0 0 1 0 2.603zM32 17.015a15 15 0 1 0 15 15 15 15 0 0 0-15-15zm0 28a13 13 0 1 1 13-13 13 13 0 0 1-13 13z"/></svg>