<svg id="Layer_1" data-name="Layer 1" xmlns="http://www.w3.org/2000/svg" width="64" height="64" viewBox="0 0 64 64">
  <defs>
    <style>
      .cls-1 {
        fill-rule: evenodd;
      }
    </style>
  </defs>
  <title>Icons 400</title>
  <path class="cls-1" d="M58.9822,33.3119l-7.5027,1.8757a1.3414,1.3414,0,0,0-.5225,2.3408l2.3576,1.9229a1.3414,1.3414,0,0,1-.9832,2.3741l-3.0269-.3076a1.3416,1.3416,0,0,0-1.2859,2.0248l3.9789,6.6313a1.3413,1.3413,0,0,1-1.84,1.84l-6.6312-3.9788a1.3414,1.3414,0,0,0-2.0248,1.2858l.3074,3.0268a1.3414,1.3414,0,0,1-2.374.9834l-1.9228-2.3579a1.3415,1.3415,0,0,0-2.3409.5225l-1.8756,7.5026a1.3413,1.3413,0,0,1-2.6025,0L28.8172,51.496a1.3415,1.3415,0,0,0-2.3409-.5225l-1.9229,2.3579a1.3414,1.3414,0,0,1-2.374-.9834l.3074-3.0268a1.3413,1.3413,0,0,0-2.0246-1.2858l-6.6313,3.9788a1.3414,1.3414,0,0,1-1.84-1.84l3.9787-6.6313a1.3414,1.3414,0,0,0-1.2857-2.0248l-3.0268.3076a1.3414,1.3414,0,0,1-.9833-2.3741l2.3576-1.9229a1.3414,1.3414,0,0,0-.5223-2.3408L5.0059,33.3119a1.3414,1.3414,0,0,1,0-2.6026l7.5028-1.8757a1.3413,1.3413,0,0,0,.5223-2.3408L10.6734,24.57a1.3414,1.3414,0,0,1,.9833-2.3741l3.0268.3076a1.3413,1.3413,0,0,0,1.2857-2.0247L11.99,13.8475a1.3414,1.3414,0,0,1,1.84-1.84l6.6313,3.9788A1.3413,1.3413,0,0,0,22.4868,14.7l-.3074-3.0267a1.3413,1.3413,0,0,1,2.374-.9834l1.9229,2.3576a1.3415,1.3415,0,0,0,2.3409-.5224l1.8757-7.5026a1.3412,1.3412,0,0,1,2.6025,0l1.8756,7.5026a1.3415,1.3415,0,0,0,2.3409.5224L39.4347,10.69a1.3413,1.3413,0,0,1,2.374.9834L41.5013,14.7a1.3414,1.3414,0,0,0,2.0248,1.2858l6.6312-3.9788a1.3413,1.3413,0,0,1,1.84,1.84l-3.9789,6.6312a1.3415,1.3415,0,0,0,1.2859,2.0247l3.0269-.3076a1.3414,1.3414,0,0,1,.9832,2.3741L50.957,26.4928a1.3414,1.3414,0,0,0,.5225,2.3408l7.5027,1.8757A1.3414,1.3414,0,0,1,58.9822,33.3119ZM32,17.0151a15,15,0,1,0,15,15A15.0006,15.0006,0,0,0,32,17.0151Zm0,28a13,13,0,1,1,13-13A13,13,0,0,1,32,45.0152Z"/>
</svg>
