<svg id="Layer_1" data-name="Layer 1" xmlns="http://www.w3.org/2000/svg" width="64" height="64" viewBox="0 0 64 64"><defs><style>.cls-1{fill-rule:evenodd}</style></defs><title>Icons 400</title><path class="cls-1" d="M59.123 36.39c-1.238.992-1.47 3.767-2.373 6.63-1.413 4.473-3.86 6.997-10.75 6.997-8.013 0-9.17-2.394-10.813-6.998-1.122-3.145-.564-6.997-3.187-6.997s-2.065 3.852-3.187 6.997c-1.644 4.604-2.8 6.997-10.813 6.997-6.89 0-9.337-2.523-10.75-6.997-.904-2.862-1.135-5.637-2.373-6.63A2.127 2.127 0 0 1 4 34.752V32.74a1.494 1.494 0 0 1 1.21-1.47A69.518 69.518 0 0 1 18 30.023c9.206 0 10.246 1.999 14 1.999s4.794-2 14-2a69.517 69.517 0 0 1 12.79 1.246A1.494 1.494 0 0 1 60 32.74v2.012a2.128 2.128 0 0 1-.877 1.637zm-40.758-1.985L15.46 45.289a.496.496 0 0 0 .415.624 19.06 19.06 0 0 0 2.124.105c.732 0 1.368-.018 1.934-.053a.495.495 0 0 0 .446-.371l2.835-10.627a.495.495 0 0 0-.376-.617 23.816 23.816 0 0 0-3.975-.318.51.51 0 0 0-.5.373zm28-.001L43.45 45.327a.501.501 0 0 0 .454.628c.603.042 1.293.063 2.095.063a19.296 19.296 0 0 0 1.964-.091.495.495 0 0 0 .426-.37l2.837-10.636a.502.502 0 0 0-.411-.624 28.02 28.02 0 0 0-3.953-.266.511.511 0 0 0-.498.373zm10.805-5.37c-.536-.074-2.22-.17-2.766-.247a1.488 1.488 0 0 1-1.191-1.001c-3.346-9.769-4.362-16.136-7.146-7.463a.968.968 0 0 1-1.62.38l-.986-1.014a1.546 1.546 0 0 1-.18-1.918c1.297-1.97 4.213-5.748 6.207-5.748 2.55 0 4.828 4.244 8.483 16.028a.753.753 0 0 1-.801.984zm-37.616-8.33a.968.968 0 0 1-1.621-.381c-2.784-8.672-3.8-2.306-7.146 7.463a1.488 1.488 0 0 1-1.19 1c-.547.077-2.23.174-2.767.249a.753.753 0 0 1-.8-.984c3.655-11.784 5.932-16.028 8.483-16.028 1.994 0 4.91 3.778 6.207 5.748a1.546 1.546 0 0 1-.18 1.918l-.986 1.015z"/></svg>