<svg id="Layer_1" data-name="Layer 1" xmlns="http://www.w3.org/2000/svg" width="64" height="64" viewBox="0 0 64 64">
  <defs>
    <style>
      .cls-1 {
        fill-rule: evenodd;
      }
    </style>
  </defs>
  <title>Icons 400</title>
  <path class="cls-1" d="M59.1231,36.3892c-1.2379.9923-1.4693,3.7673-2.3731,6.63-1.4129,4.474-3.86,6.9974-10.75,6.9974-8.013,0-9.1692-2.3938-10.8126-6.9974C34.0648,39.874,34.6226,36.0215,32,36.0215s-2.0648,3.8525-3.1874,6.9974c-1.6433,4.6036-2.8,6.9974-10.8126,6.9974-6.89,0-9.3371-2.5234-10.75-6.9974-.904-2.8624-1.1353-5.6374-2.3732-6.63A2.1273,2.1273,0,0,1,4,34.7518V32.7405a1.4945,1.4945,0,0,1,1.21-1.4714A69.5181,69.5181,0,0,1,18,30.0236c9.2062,0,10.2461,1.9994,14,1.9994s4.7939-1.9994,14-1.9994a69.517,69.517,0,0,1,12.79,1.2455A1.4945,1.4945,0,0,1,60,32.7405v2.0113A2.1276,2.1276,0,0,1,59.1231,36.3892ZM18.3646,34.4049,15.4611,45.2887a.4965.4965,0,0,0,.415.6245A19.06,19.06,0,0,0,18,46.0178c.7323,0,1.3684-.0181,1.934-.0532a.4948.4948,0,0,0,.4459-.3708L23.2145,34.967a.4955.4955,0,0,0-.3757-.6174,23.816,23.816,0,0,0-3.9753-.3174A.5108.5108,0,0,0,18.3646,34.4049Zm28-.0012L43.451,45.3266a.5013.5013,0,0,0,.4538.6281c.6036.0422,1.2934.0631,2.0952.0631a19.2959,19.2959,0,0,0,1.9643-.0909.4951.4951,0,0,0,.4252-.37l2.8374-10.6359a.5022.5022,0,0,0-.4114-.6241,28.0192,28.0192,0,0,0-3.9523-.266A.5113.5113,0,0,0,46.3649,34.4037ZM57.17,29.0349c-.5358-.0752-2.22-.1715-2.7664-.2484a1.4883,1.4883,0,0,1-1.1906-1.0006c-3.3462-9.7689-4.3621-16.1354-7.1461-7.4633a.9675.9675,0,0,1-1.62.3812c-.5112-.5262-.4869-.5011-.9855-1.0145a1.5458,1.5458,0,0,1-.181-1.9183c1.2977-1.9695,4.2137-5.7476,6.2071-5.7476,2.5511,0,4.8282,4.2431,8.4839,16.0274A.7535.7535,0,0,1,57.17,29.0349ZM19.5536,20.7038a.9676.9676,0,0,1-1.6206-.3812c-2.7839-8.6721-3.8-2.3056-7.1462,7.4633a1.488,1.488,0,0,1-1.19,1.0006c-.5466.0769-2.2307.1732-2.7665.2484a.7535.7535,0,0,1-.8009-.9841c3.6557-11.7843,5.9329-16.0274,8.4838-16.0274,1.9935,0,4.9094,3.7781,6.2072,5.7476a1.5456,1.5456,0,0,1-.1811,1.9183C20.04,20.2027,20.0648,20.1776,19.5536,20.7038Z"/>
</svg>
