<svg id="Layer_1" data-name="Layer 1" xmlns="http://www.w3.org/2000/svg" width="64" height="64" viewBox="0 0 64 64"><defs><style>.cls-1{fill-rule:evenodd}</style></defs><title>Icons 200</title><path class="cls-1" d="M46.826 53.555a.997.997 0 0 1-1.639 0L38.2 43.6a1.025 1.025 0 0 1 .819-1.62H44V22.979a5 5 0 1 0-10 0v18.013a9 9 0 1 1-18 0V21.988h-4.995a1.025 1.025 0 0 1-.82-1.62l6.99-9.955a.997.997 0 0 1 1.638 0l6.989 9.956a1.025 1.025 0 0 1-.82 1.62H20V40.99a5 5 0 1 0 10 0V22.978a9 9 0 1 1 18 0v19.003h4.995a1.025 1.025 0 0 1 .82 1.619z"/></svg>