<svg id="Layer_1" data-name="Layer 1" xmlns="http://www.w3.org/2000/svg" width="64" height="64" viewBox="0 0 64 64">
  <defs>
    <style>
      .cls-1 {
        fill-rule: evenodd;
      }
    </style>
  </defs>
  <title>Icons 200</title>
  <path class="cls-1" d="M46.8256,53.5554a0.9968,0.9968,0,0,1-1.6383,0L38.1987,43.6a1.0252,1.0252,0,0,1,.819-1.6194H44V22.978a5,5,0,1,0-10,0V40.9908a9,9,0,1,1-18,0V21.9881H11.005a1.0253,1.0253,0,0,1-.8191-1.6194l6.9889-9.9554a0.9965,0.9965,0,0,1,1.638,0l6.9889,9.9554a1.0253,1.0253,0,0,1-.8192,1.6194H20V40.9908a5,5,0,1,0,10,0V22.978a9,9,0,1,1,18,0V41.9807h4.9952A1.0252,1.0252,0,0,1,53.8142,43.6Z"/>
</svg>
