<svg id="Layer_1" data-name="Layer 1" xmlns="http://www.w3.org/2000/svg" width="64" height="64" viewBox="0 0 64 64">
  <defs>
    <style>
      .cls-1 {
        fill-rule: evenodd;
      }
    </style>
  </defs>
  <title>Icons 200</title>
  <path class="cls-1" d="M43.6075,25.8015a1.0245,1.0245,0,0,1-1.6182-.8191V20H23a5,5,0,1,0,0,10H41a9,9,0,0,1,0,18H22.0109v4.9951a1.0245,1.0245,0,0,1-1.6183.8191l-9.9482-6.9888a0.9969,0.9969,0,0,1,0-1.6381l9.9482-6.9887a1.0245,1.0245,0,0,1,1.6183.8189V44H41a5,5,0,0,0,0-10H23a9,9,0,1,1,0-18H41.9893V11.0049a1.0245,1.0245,0,0,1,1.6182-.8191l9.9484,6.9888a0.9972,0.9972,0,0,1,0,1.6381Z"/>
</svg>
