<svg id="Layer_1" data-name="Layer 1" xmlns="http://www.w3.org/2000/svg" width="64" height="64" viewBox="0 0 64 64"><defs><style>.cls-1{fill-rule:evenodd}</style></defs><title>Icons 200</title><path class="cls-1" d="M43.608 25.802a1.024 1.024 0 0 1-1.619-.82V20H23a5 5 0 1 0 0 10h18a9 9 0 0 1 0 18H22.01v4.995a1.024 1.024 0 0 1-1.617.82l-9.949-6.99a.997.997 0 0 1 0-1.638l9.949-6.988a1.024 1.024 0 0 1 1.618.819V44H41a5 5 0 0 0 0-10H23a9 9 0 1 1 0-18h18.99v-4.995a1.024 1.024 0 0 1 1.617-.82l9.949 6.99a.997.997 0 0 1 0 1.638z"/></svg>