<svg id="Layer_1" data-name="Layer 1" xmlns="http://www.w3.org/2000/svg" width="64" height="64" viewBox="0 0 64 64">
  <defs>
    <style>
      .cls-1 {
        fill-rule: evenodd;
      }
    </style>
  </defs>
  <title>Icons 300</title>
  <path class="cls-1" d="M52.841,43.6016a.9954.9954,0,0,1-1.638,0l-6.9889-9.9742a1.0274,1.0274,0,0,1,.8192-1.6225h4.9835A18.002,18.002,0,0,0,20.6516,18.0554a2,2,0,0,1-2.5887-3.0506,22.0025,22.0025,0,0,1,35.9542,17h4.9937a1.0274,1.0274,0,0,1,.8191,1.6225ZM12.8283,20.43l6.9888,9.9742a1.0273,1.0273,0,0,1-.819,1.6224H14.0153A18.0017,18.0017,0,0,0,43.38,45.9761a2.0005,2.0005,0,0,1,2.5888,3.0506,22.0024,22.0024,0,0,1-35.9541-17H5.0205a1.0273,1.0273,0,0,1-.8191-1.6224L11.19,20.43A.9955.9955,0,0,1,12.8283,20.43Z"/>
</svg>
