<svg id="Layer_1" data-name="Layer 1" xmlns="http://www.w3.org/2000/svg" width="64" height="64" viewBox="0 0 64 64">
  <defs>
    <style>
      .cls-1 {
        fill-rule: evenodd;
      }
    </style>
  </defs>
  <title>Icons 400</title>
  <path class="cls-1" d="M57.593,24.8259,50.59,29.8243a1.0007,1.0007,0,0,1-1.35-.1736l-3.2332-3.8766V55.0028a1,1,0,0,1-1,1h-26.01a1,1,0,0,1-1-1V25.7741l-3.2334,3.8766a1.0006,1.0006,0,0,1-1.35.1736L6.41,24.8259a.9993.9993,0,0,1-.2968-1.2922l4.83-8.8484a7.9987,7.9987,0,0,1,3.9191-3.54l7.08-2.9787a1.7976,1.7976,0,0,1,2.407,1.1922A7.9918,7.9918,0,0,0,39.64,9.3533,1.797,1.797,0,0,1,42.0464,8.16l7.0945,2.9849a7.9991,7.9991,0,0,1,3.9192,3.54l4.83,8.8483A.9994.9994,0,0,1,57.593,24.8259Z"/>
</svg>
