<svg id="Layer_1" data-name="Layer 1" xmlns="http://www.w3.org/2000/svg" width="64" height="64" viewBox="0 0 64 64"><defs><style>.cls-1{fill-rule:evenodd}</style></defs><title>Icons 400</title><path class="cls-1" d="M57.593 24.826l-7.003 4.998a1 1 0 0 1-1.35-.173l-3.233-3.877v29.229a1 1 0 0 1-1 1h-26.01a1 1 0 0 1-1-1V25.774l-3.234 3.877a1 1 0 0 1-1.35.173L6.41 24.826a1 1 0 0 1-.297-1.292l4.83-8.849a7.999 7.999 0 0 1 3.92-3.54l7.08-2.978a1.798 1.798 0 0 1 2.406 1.192 7.992 7.992 0 0 0 15.291-.006 1.797 1.797 0 0 1 2.406-1.193l7.095 2.985a8 8 0 0 1 3.92 3.54l4.83 8.848a1 1 0 0 1-.298 1.293z"/></svg>