<svg id="Layer_1" data-name="Layer 1" xmlns="http://www.w3.org/2000/svg" width="64" height="64" viewBox="0 0 64 64">
  <defs>
    <style>
      .cls-1 {
        fill-rule: evenodd;
      }
    </style>
  </defs>
  <title>Icons 100</title>
  <path class="cls-1" d="M14.51,9.9939L28.0837,9.9984a6,6,0,0,1,4.2424,1.759L53.0968,32.5431a3.0088,3.0088,0,0,1,0,4.2533L36.7917,53.1146a3.0039,3.0039,0,0,1-4.25,0L11.7694,32.3272a6,6,0,0,1-1.7559-4.24L10.0087,14.4958A4.5,4.5,0,0,1,14.51,9.9939Zm4.5237,12.04a3.0075,3.0075,0,1,0-3.005-3.0075A3.0062,3.0062,0,0,0,19.0342,22.0338Z"/>
</svg>
