<svg id="Layer_1" data-name="Layer 1" xmlns="http://www.w3.org/2000/svg" width="64" height="64" viewBox="0 0 64 64"><defs><style>.cls-1{fill-rule:evenodd}</style></defs><title>Icons 200</title><path class="cls-1" d="M54.106 33.947A2 2 0 0 0 53 35.737V43c0 5.019-7.066 6-21 6s-21-.981-21-6v-7.264a2 2 0 0 0-1.106-1.789l-1.341-.67A1 1 0 0 1 8 32.381V30a1 1 0 0 1 1-1h3.225l3.278-9.835a5.983 5.983 0 0 1 4.16-3.905 31.625 31.625 0 0 1 4.792-.9l.326-2.608A2 2 0 0 1 26.766 10h10.468a2 2 0 0 1 1.985 1.752l.326 2.609a31.612 31.612 0 0 1 4.792.9 5.981 5.981 0 0 1 4.16 3.905L51.775 29H55a1 1 0 0 1 1 1v2.382a1 1 0 0 1-.553.894zM14 39a3 3 0 1 0 3-3 3 3 0 0 0-3 3zm33.12-11.316l-2.418-7.253a1.994 1.994 0 0 0-1.385-1.303C41.722 18.707 39.006 18 32.009 18h-.017c-6.998 0-9.714.707-11.306 1.127a1.996 1.996 0 0 0-1.389 1.305l-2.417 7.252A1 1 0 0 0 17.829 29H46.17a1 1 0 0 0 .949-1.316zM47 36a3 3 0 1 0 3 3 3 3 0 0 0-3-3zM19.243 50.03A.973.973 0 0 1 20 51v1a2.002 2.002 0 0 1-2 2h-4a2.002 2.002 0 0 1-2-2v-2a.91.91 0 0 1 1-1c.473 0 3.43.784 6.243 1.03zM51 49a.91.91 0 0 1 1 1v2a2.002 2.002 0 0 1-2 2h-4a2.002 2.002 0 0 1-2-2v-1a.974.974 0 0 1 .757-.97C47.57 49.784 50.527 49 51 49z"/></svg>