<svg id="Layer_1" data-name="Layer 1" xmlns="http://www.w3.org/2000/svg" width="64" height="64" viewBox="0 0 64 64">
  <defs>
    <style>
      .cls-1 {
        fill-rule: evenodd;
      }
    </style>
  </defs>
  <title>Icons 200</title>
  <path class="cls-1" d="M54.1058,33.9473A2,2,0,0,0,53,35.7361V43c0,5.0185-7.0664,6-21,6s-21-.9814-21-6v-7.264a2,2,0,0,0-1.1056-1.7888l-1.3416-.6709A1,1,0,0,1,8,32.382V30a1,1,0,0,1,1-1h3.2248l3.2781-9.8352a5.9834,5.9834,0,0,1,4.16-3.9046,31.6249,31.6249,0,0,1,4.7918-.9l0.326-2.6086A2,2,0,0,1,26.7656,10H37.2345a2,2,0,0,1,1.9846,1.7519l0.326,2.6087a31.6118,31.6118,0,0,1,4.7915.9,5.981,5.981,0,0,1,4.16,3.9053L51.7752,29H55a1,1,0,0,1,1,1v2.382a1,1,0,0,1-.5528.8944ZM14,39a3,3,0,1,0,3-3A3,3,0,0,0,14,39ZM47.12,27.6837l-2.418-7.253a1.9939,1.9939,0,0,0-1.3853-1.3028C41.722,18.7067,39.006,18.0006,32.0087,18h-0.017c-6.9975.0006-9.7139,0.7067-11.306,1.1274a1.9961,1.9961,0,0,0-1.3885,1.3042L16.88,27.6838A1,1,0,0,0,17.8286,29H46.1711A1,1,0,0,0,47.12,27.6837ZM47,36a3,3,0,1,0,3,3A3,3,0,0,0,47,36ZM19.2429,50.03A0.9734,0.9734,0,0,1,20,51v1a2.0024,2.0024,0,0,1-2,2H14a2.0023,2.0023,0,0,1-2-2V50a0.91,0.91,0,0,1,1-1C13.4731,49,16.43,49.7843,19.2429,50.03ZM51,49a0.91,0.91,0,0,1,1,1v2a2.0023,2.0023,0,0,1-2,2H46a2.0024,2.0024,0,0,1-2-2V51a0.9735,0.9735,0,0,1,.7574-0.97C47.57,49.7843,50.5272,49,51,49Z"/>
</svg>
