<svg id="Layer_1" data-name="Layer 1" xmlns="http://www.w3.org/2000/svg" width="64" height="64" viewBox="0 0 64 64">
  <defs>
    <style>
      .cls-1 {
        fill-rule: evenodd;
      }
    </style>
  </defs>
  <title>Icons 400</title>
  <path class="cls-1" d="M32,60.0156a11.987,11.987,0,0,1-8-20.9251V14.0157a8,8,0,0,1,16.0007,0V39.0905a11.987,11.987,0,0,1-8,20.9251Zm8.0006-11.9995a7.9768,7.9768,0,0,0-3.2115-6.4A1.9745,1.9745,0,0,1,36,40.033V14.0157a4,4,0,0,0-8,0V40.033a1.9747,1.9747,0,0,1-.7888,1.5829,7.9976,7.9976,0,1,0,12.79,6.4Zm-6-30V40.2a3.82,3.82,0,0,0,1.6075,3.0286,6,6,0,1,1-7.2153,0A3.82,3.82,0,0,0,30,40.2V18.0157a2,2,0,0,1,4,0Z"/>
</svg>
