<svg id="Layer_1" data-name="Layer 1" xmlns="http://www.w3.org/2000/svg" width="64" height="64" viewBox="0 0 64 64"><defs><style>.cls-1{fill-rule:evenodd}</style></defs><title>Icons 400</title><path class="cls-1" d="M32 60.016a11.987 11.987 0 0 1-8-20.925V14.015a8 8 0 0 1 16 0V39.09a11.987 11.987 0 0 1-8 20.925zm8-12a7.976 7.976 0 0 0-3.211-6.4A1.975 1.975 0 0 1 36 40.033V14.016a4 4 0 0 0-8 0v26.017a1.975 1.975 0 0 1-.789 1.583 7.997 7.997 0 1 0 12.79 6.4zm-6-12V40.2a3.82 3.82 0 0 0 1.608 3.029 6 6 0 1 1-7.215 0A3.82 3.82 0 0 0 30 40.2v-4.184a2 2 0 0 1 4 0z"/></svg>