<svg id="Layer_1" data-name="Layer 1" xmlns="http://www.w3.org/2000/svg" width="64" height="64" viewBox="0 0 64 64"><defs><style>.cls-1{fill-rule:evenodd}</style></defs><title>Icons 300</title><path class="cls-1" d="M11.638 24.004a1.507 1.507 0 0 1 1.418-.987h2.655a1.508 1.508 0 0 1 1.413.975l9.87 26.28a.55.55 0 0 1-.518.743H23.6a1.13 1.13 0 0 1-1.06-.734l-2.338-6.265H8.029l-2.368 6.347a1.005 1.005 0 0 1-.942.652H2.552a.55.55 0 0 1-.52-.738zm7.445 17.012L14.116 27.7 9.149 41.016zm17.494 1l-2.993 8.022a1.508 1.508 0 0 1-1.414.978h-2.4a.75.75 0 0 1-.708-1.01l13.216-35.682a2.01 2.01 0 0 1 1.887-1.308h2.691a2.01 2.01 0 0 1 1.887 1.308L61.96 50.006a.75.75 0 0 1-.707 1.01h-3.375a1.508 1.508 0 0 1-1.414-.978l-2.993-8.022zm8.446-22.642L38.07 38.016h13.909z"/></svg>