<svg id="Layer_1" data-name="Layer 1" xmlns="http://www.w3.org/2000/svg" width="64" height="64" viewBox="0 0 64 64">
  <defs>
    <style>
      .cls-1 {
        fill-rule: evenodd;
      }
    </style>
  </defs>
  <title>Icons 300</title>
  <path class="cls-1" d="M19.1121,18.0157a2.007,2.007,0,0,0-1.72.971l-2.2784,3.7864a.5022.5022,0,0,1-.43.2426H13.5106a.5.5,0,0,1-.4992-.5453l.9117-10a.5007.5007,0,0,1,.4992-.4548h1.34a.5027.5027,0,0,1,.3547.1465,2.9272,2.9272,0,0,0,2.0667.8535H45.8454a2.9269,2.9269,0,0,0,2.0667-.8535.5025.5025,0,0,1,.3546-.1465h1.34a.5007.5007,0,0,1,.4992.4548l.912,10a.5008.5008,0,0,1-.4995.5453H49.3459a.5018.5018,0,0,1-.43-.2426l-2.2785-3.7864a2.0073,2.0073,0,0,0-1.72-.971H36.0266V45.2139a3.8881,3.8881,0,0,0,2.6659,3.6878.5.5,0,0,1,.3429.4744v1.14a.5008.5008,0,0,1-.5015.5H25.4955a.5008.5008,0,0,1-.5015-.5v-1.14a.5.5,0,0,1,.3429-.4744,3.8883,3.8883,0,0,0,2.6661-3.6878V18.0157Z"/>
</svg>
