<svg id="Layer_1" data-name="Layer 1" xmlns="http://www.w3.org/2000/svg" width="64" height="64" viewBox="0 0 64 64">
  <defs>
    <style>
      .cls-1 {
        fill-rule: evenodd;
      }
    </style>
  </defs>
  <title>Icons 300</title>
  <path class="cls-1" d="M11.6384,24.0038a1.5074,1.5074,0,0,1,1.4171-.9872h2.6559a1.5079,1.5079,0,0,1,1.4127.975l9.87,26.2809a.55.55,0,0,1-.518.7424H23.6a1.1308,1.1308,0,0,1-1.06-.7336L20.202,44.0158H8.0292l-2.3679,6.347a1.005,1.005,0,0,1-.9425.6521H2.552a.55.55,0,0,1-.52-.738Zm7.4445,17.0119L14.1156,27.7014,9.1485,41.0157Zm17.4936,1-2.9926,8.0219a1.5078,1.5078,0,0,1-1.4139.9781h-2.4a.7507.7507,0,0,1-.7077-1.0093L42.2785,14.3243a2.01,2.01,0,0,1,1.8867-1.3086h2.6912a2.01,2.01,0,0,1,1.8867,1.3086L61.9593,50.0064a.7506.7506,0,0,1-.7077,1.0093H57.8767a1.5078,1.5078,0,0,1-1.4138-.9781L53.47,42.0157Zm8.4469-22.6416L38.0689,38.0158h13.909Z"/>
</svg>
