<svg id="Layer_1" data-name="Layer 1" xmlns="http://www.w3.org/2000/svg" width="64" height="64" viewBox="0 0 64 64"><defs><style>.cls-1{fill-rule:evenodd}</style></defs><title>Icons 300</title><path class="cls-1" d="M19.112 18.016a2.007 2.007 0 0 0-1.72.97l-2.278 3.787a.502.502 0 0 1-.43.243H13.51a.5.5 0 0 1-.5-.546l.912-10a.5.5 0 0 1 .5-.454h1.34a.503.503 0 0 1 .354.146 2.927 2.927 0 0 0 2.067.854h27.661a2.927 2.927 0 0 0 2.067-.854.502.502 0 0 1 .355-.146h1.34a.5.5 0 0 1 .499.454l.912 10a.5.5 0 0 1-.5.546h-1.172a.502.502 0 0 1-.43-.243l-2.279-3.786a2.007 2.007 0 0 0-1.72-.971h-8.89v27.198a3.888 3.888 0 0 0 2.666 3.688.5.5 0 0 1 .342.474v1.14a.5.5 0 0 1-.501.5H25.496a.5.5 0 0 1-.502-.5v-1.14a.5.5 0 0 1 .343-.474 3.888 3.888 0 0 0 2.666-3.688V18.016z"/></svg>