<svg id="Layer_1" data-name="Layer 1" xmlns="http://www.w3.org/2000/svg" width="64" height="64" viewBox="0 0 64 64">
  <defs>
    <style>
      .cls-1 {
        fill-rule: evenodd;
      }
    </style>
  </defs>
  <title>Icons 400</title>
  <path class="cls-1" d="M32,56.0136c-4.8966,0-22-6.9251-22-29.002C10,15.0788,13.3065,8.7327,13.4472,8.51A1.1517,1.1517,0,0,1,14.73,8.0563,69.6279,69.6279,0,0,0,32,10.01,69.6275,69.6275,0,0,0,49.27,8.0563a1.1519,1.1519,0,0,1,1.2826.4541C50.6935,8.7327,54,15.0788,54,27.0116,54,49.0885,36.8966,56.0136,32,56.0136ZM22.5028,22.008c-2.1883,0-4.5077,2.6225-4.5077,6.0068a1.0028,1.0028,0,0,0,1.799.6061,4.7508,4.7508,0,0,1,3.0717-1.6136,5.56,5.56,0,0,1,3.56.8188,1.0053,1.0053,0,0,0,1.58-.927C27.8108,25.2074,25.8079,22.008,22.5028,22.008Zm9.4956,19.0127A20.2887,20.2887,0,0,1,21.5726,38.19a1.0005,1.0005,0,0,0-1.53,1.0643,12.104,12.104,0,0,0,11.956,8.7724,12.104,12.104,0,0,0,11.956-8.7724.9991.9991,0,0,0-1.5311-1.0629A20.1465,20.1465,0,0,1,31.9984,41.0207ZM41.4972,22.008c-3.3051,0-5.3081,3.1994-5.5028,4.8911a1.0054,1.0054,0,0,0,1.58.927,5.56,5.56,0,0,1,3.56-.8188,4.7512,4.7512,0,0,1,3.0717,1.6136,1.0028,1.0028,0,0,0,1.799-.6061C46.0049,24.63,43.6855,22.008,41.4972,22.008Z"/>
</svg>
