<svg id="Layer_1" data-name="Layer 1" xmlns="http://www.w3.org/2000/svg" width="64" height="64" viewBox="0 0 64 64"><defs><style>.cls-1{fill-rule:evenodd}</style></defs><title>Icons 400</title><path class="cls-1" d="M32 56.014c-4.897 0-22-6.926-22-29.002 0-11.933 3.306-18.28 3.447-18.502a1.152 1.152 0 0 1 1.283-.454A69.628 69.628 0 0 0 32 10.01a69.627 69.627 0 0 0 17.27-1.954 1.152 1.152 0 0 1 1.283.454C50.693 8.733 54 15.08 54 27.012c0 22.077-17.103 29.002-22 29.002zm-9.497-34.006c-2.188 0-4.508 2.622-4.508 6.007a1.003 1.003 0 0 0 1.8.606 4.75 4.75 0 0 1 3.07-1.614 5.56 5.56 0 0 1 3.56.82 1.005 1.005 0 0 0 1.58-.928c-.194-1.692-2.197-4.891-5.502-4.891zm9.495 19.013a20.289 20.289 0 0 1-10.425-2.831 1 1 0 0 0-1.53 1.064 12.104 12.104 0 0 0 11.956 8.773 12.104 12.104 0 0 0 11.956-8.773 1 1 0 0 0-1.531-1.063 20.146 20.146 0 0 1-10.426 2.83zm9.5-19.013c-3.306 0-5.309 3.2-5.504 4.891a1.005 1.005 0 0 0 1.58.927 5.56 5.56 0 0 1 3.56-.819 4.751 4.751 0 0 1 3.072 1.614 1.003 1.003 0 0 0 1.8-.606c-.001-3.385-2.32-6.007-4.509-6.007z"/></svg>