<svg id="Layer_1" data-name="Layer 1" xmlns="http://www.w3.org/2000/svg" width="64" height="64" viewBox="0 0 64 64">
  <defs>
    <style>
      .cls-1 {
        fill-rule: evenodd;
      }
    </style>
  </defs>
  <title>Icons 300</title>
  <path class="cls-1" d="M12.0116,14.0157h4.79a4.0011,4.0011,0,0,0,2.2194-.6718l.9617-.641a16.0083,16.0083,0,0,1,8.8778-2.6872H43.784a4.1669,4.1669,0,0,1,4.2285,3.7352,3.942,3.942,0,0,1-.5791,2.3259,3.6009,3.6009,0,0,1,3.1039,2.1861,3.995,3.995,0,0,1,.32,2.8826A3.9294,3.9294,0,0,1,49.35,23.2591a3.9713,3.9713,0,0,1,.5709,7.2566,3.9777,3.9777,0,0,1,2.0561,4.1087,4.1123,4.1123,0,0,1-4.1186,3.3913H34.82a.5041.5041,0,0,0-.4466.7208,26.7393,26.7393,0,0,1,1.645,10.2792c0,6-3.4353,9-6.0018,9a1.9711,1.9711,0,0,1-2.0006-2V48.3762a3.9986,3.9986,0,0,0-.83-2.4389l-7.9717-10.36a4.0019,4.0019,0,0,0-3.1715-1.5612H12.0116a2,2,0,0,1-2-2v-16A2,2,0,0,1,12.0116,14.0157Z"/>
</svg>
