<svg id="Layer_1" data-name="Layer 1" xmlns="http://www.w3.org/2000/svg" width="64" height="64" viewBox="0 0 64 64"><defs><style>.cls-1{fill-rule:evenodd}</style></defs><title>Icons 300</title><path class="cls-1" d="M12.012 30.016h4.031a4.001 4.001 0 0 0 3.172-1.561l7.971-10.36a4 4 0 0 0 .83-2.44v-7.64a1.97 1.97 0 0 1 2-2c2.567 0 6.002 3 6.002 9a26.742 26.742 0 0 1-1.645 10.28.504.504 0 0 0 .447.72h13.039a4.112 4.112 0 0 1 4.118 3.392 3.977 3.977 0 0 1-2.056 4.109 3.971 3.971 0 0 1-.57 7.256 3.93 3.93 0 0 1 1.507 2.114 3.995 3.995 0 0 1-.32 2.882 3.6 3.6 0 0 1-3.104 2.186 3.942 3.942 0 0 1 .579 2.327 4.167 4.167 0 0 1-4.229 3.735H28.861a16.006 16.006 0 0 1-8.878-2.688l-.962-.64a4.003 4.003 0 0 0-2.22-.672h-4.79a2 2 0 0 1-2-2v-16a2 2 0 0 1 2-2z"/></svg>