<svg id="Layer_1" data-name="Layer 1" xmlns="http://www.w3.org/2000/svg" width="64" height="64" viewBox="0 0 64 64"><defs><style>.cls-1{fill-rule:evenodd}</style></defs><title>Icons 300</title><path class="cls-1" d="M12.012 14.016h4.79a4.001 4.001 0 0 0 2.219-.672l.962-.641a16.008 16.008 0 0 1 8.878-2.687h14.923a4.167 4.167 0 0 1 4.229 3.735 3.942 3.942 0 0 1-.58 2.326 3.6 3.6 0 0 1 3.104 2.186 3.995 3.995 0 0 1 .32 2.883 3.93 3.93 0 0 1-1.507 2.113 3.971 3.971 0 0 1 .57 7.257 3.978 3.978 0 0 1 2.057 4.108 4.112 4.112 0 0 1-4.119 3.392H34.82a.504.504 0 0 0-.447.72 26.74 26.74 0 0 1 1.645 10.28c0 6-3.435 9-6.001 9a1.971 1.971 0 0 1-2.001-2v-7.64a3.999 3.999 0 0 0-.83-2.439l-7.972-10.36a4.002 4.002 0 0 0-3.171-1.56h-4.031a2 2 0 0 1-2-2v-16a2 2 0 0 1 2-2.001z"/></svg>