<svg id="Layer_1" data-name="Layer 1" xmlns="http://www.w3.org/2000/svg" width="64" height="64" viewBox="0 0 64 64">
  <defs>
    <style>
      .cls-1 {
        fill-rule: evenodd;
      }
    </style>
  </defs>
  <title>Icons 300</title>
  <path class="cls-1" d="M12.0117,30.0157h4.0315a4.0013,4.0013,0,0,0,3.1714-1.5612l7.9719-10.36a4,4,0,0,0,.83-2.4389v-7.64a1.9709,1.9709,0,0,1,2-2c2.5665,0,6.0017,3,6.0017,9a26.7421,26.7421,0,0,1-1.645,10.2793.5042.5042,0,0,0,.4467.7207H47.8587a4.1125,4.1125,0,0,1,4.1186,3.3915,3.9773,3.9773,0,0,1-2.056,4.1085,3.9714,3.9714,0,0,1-.5709,7.2566,3.93,3.93,0,0,1,1.5075,2.1136,3.9955,3.9955,0,0,1-.3206,2.8826,3.6,3.6,0,0,1-3.1038,2.1861,3.9415,3.9415,0,0,1,.5791,2.326,4.1669,4.1669,0,0,1-4.2285,3.7351H28.8607a16.0064,16.0064,0,0,1-8.8776-2.6872l-.9617-.641a4.0026,4.0026,0,0,0-2.2195-.6717h-4.79a2,2,0,0,1-2.0006-2v-16A2,2,0,0,1,12.0117,30.0157Z"/>
</svg>
