<svg id="Layer_1" data-name="Layer 1" xmlns="http://www.w3.org/2000/svg" width="64" height="64" viewBox="0 0 64 64">
  <defs>
    <style>
      .cls-1 {
        fill-rule: evenodd;
      }
    </style>
  </defs>
  <title>Icons 200</title>
  <path class="cls-1" d="M53,49H11a3,3,0,0,1-3-3V39.3919a3.0564,3.0564,0,0,1,1.9462-2.7848,5.0021,5.0021,0,0,0,0-9.2142A3.0562,3.0562,0,0,1,8,24.6081V18a3,3,0,0,1,3-3H53a3,3,0,0,1,3,3v6.6082a3.056,3.056,0,0,1-1.9462,2.7848,5.0021,5.0021,0,0,0,0,9.2142A3.0562,3.0562,0,0,1,56,39.3919V46A3,3,0,0,1,53,49Z"/>
</svg>
