<svg id="Layer_1" data-name="Layer 1" xmlns="http://www.w3.org/2000/svg" width="64" height="64" viewBox="0 0 64 64"><defs><style>.cls-1{fill-rule:evenodd}</style></defs><title>Icons 200</title><path class="cls-1" d="M47.555 43.773A5 5 0 0 1 43.395 46h-22.79a5 5 0 0 1-4.16-2.227l-.756-1.134A16.01 16.01 0 0 1 13 33.758a27.938 27.938 0 0 1 .256-3.777l2.527-18.522A4 4 0 0 1 19.746 8h24.508a4 4 0 0 1 3.963 3.46l2.527 18.52A27.955 27.955 0 0 1 51 33.759a16.01 16.01 0 0 1-2.689 8.88zM20 38a3 3 0 1 0-3-3 3 3 0 0 0 3 3zm26.282-11.135l-1.637-12a1 1 0 0 0-.991-.865H20.346a1 1 0 0 0-.99.865l-1.637 12a1 1 0 0 0 .99 1.135h26.582a1 1 0 0 0 .99-1.135zM44 32a3 3 0 1 0 3 3 3 3 0 0 0-3-3zM21.19 48.445a.995.995 0 0 1 .829-.445h.997a1 1 0 0 1 .945 1.316l-.227.684h16.501l-.227-.684A.999.999 0 0 1 40.953 48h.997a.996.996 0 0 1 .83.445l3.985 6a1 1 0 0 1-.83 1.555h-2.99a.996.996 0 0 1-.944-.684L41.564 54H22.405l-.437 1.316a.997.997 0 0 1-.945.684h-2.99a1 1 0 0 1-.83-1.555z"/></svg>