<svg id="Layer_1" data-name="Layer 1" xmlns="http://www.w3.org/2000/svg" width="64" height="64" viewBox="0 0 64 64"><defs><style>.cls-1{fill-rule:evenodd}</style></defs><title>Icons 300</title><path class="cls-1" d="M29.026 38.016v-4.983a1.027 1.027 0 0 0-1.622-.819l-9.974 6.989a1 1 0 0 0 0 1.638l9.974 6.989a1.027 1.027 0 0 0 1.622-.819v-4.995h23.58a.754.754 0 0 1 .66 1.112 23.986 23.986 0 0 1-45.25-11.112 23.562 23.562 0 0 1 .557-5.037 1.244 1.244 0 0 1 1.22-.963h25.212v4.982a1.027 1.027 0 0 0 1.622.82l9.975-6.99a1 1 0 0 0 0-1.638l-9.975-6.989a1.027 1.027 0 0 0-1.622.82v4.995h-23.58a.754.754 0 0 1-.66-1.112 23.986 23.986 0 0 1 45.25 11.112 23.559 23.559 0 0 1-.557 5.036 1.244 1.244 0 0 1-1.22.964z"/></svg>