<svg id="Layer_1" data-name="Layer 1" xmlns="http://www.w3.org/2000/svg" width="64" height="64" viewBox="0 0 64 64">
  <defs>
    <style>
      .cls-1 {
        fill-rule: evenodd;
      }
    </style>
  </defs>
  <title>Icons 300</title>
  <path class="cls-1" d="M29.0264,38.0156V33.0333a1.0273,1.0273,0,0,0-1.6224-.8191L17.43,39.2028a1,1,0,0,0,0,1.6383L27.404,47.83a1.0273,1.0273,0,0,0,1.6224-.819V42.0157h23.58a.7539.7539,0,0,1,.6594,1.1119A23.9863,23.9863,0,0,1,8.0156,32.0156a23.5617,23.5617,0,0,1,.5573-5.0363,1.2436,1.2436,0,0,1,1.2207-.9637H35.0049v4.9823a1.0273,1.0273,0,0,0,1.6224.8192l9.9743-6.9888a1,1,0,0,0,0-1.6381l-9.9743-6.9888a1.0273,1.0273,0,0,0-1.6224.8192v4.995h-23.58a.754.754,0,0,1-.66-1.1118A23.9863,23.9863,0,0,1,56.0156,32.0156a23.5586,23.5586,0,0,1-.5572,5.0362,1.2437,1.2437,0,0,1-1.2207.9638Z"/>
</svg>
