<svg id="Layer_1" data-name="Layer 1" xmlns="http://www.w3.org/2000/svg" width="64" height="64" viewBox="0 0 64 64">
  <defs>
    <style>
      .cls-1 {
        fill-rule: evenodd;
      }
    </style>
  </defs>
  <title>Icons 400</title>
  <path class="cls-1" d="M57.8944,36.99l-.8764,5.3491a1.9981,1.9981,0,0,1-1.9709,1.6762h-5.149a1.0259,1.0259,0,0,1-.879-.53,6.975,6.975,0,0,0-6.0284-3.47H38.9961a.9993.9993,0,0,1-.9986-1v-16a.9993.9993,0,0,1,.9986-1H54.05A1.998,1.998,0,0,1,56.0208,23.69l1.8725,11.3514A6.0052,6.0052,0,0,1,57.8944,36.99Zm-5.47-10.5562a.5.5,0,0,0-.4926-.4185H42.4914a.5.5,0,0,0-.4993.5v5a.5.5,0,0,0,.4993.5h4.188a1.8877,1.8877,0,0,1,1.8617,1.5815.5.5,0,0,0,.4927.4185H53.087a.5.5,0,0,0,.4926-.5815ZM34.0119,46.0156h-9.67a.4976.4976,0,0,1-.4841-.4082,6.9707,6.9707,0,0,0-1.41-2.9912.37.37,0,0,1,.2924-.6006h12.272a1,1,0,0,1,1,1v1A2,2,0,0,1,34.0119,46.0156Zm1-6H7a1,1,0,0,1-1.0005-1v-23a2,2,0,0,1,2.0009-2H34.0119a2,2,0,0,1,2.0009,2v23A1,1,0,0,1,35.0124,40.0156ZM7,42.0156H11.27a.37.37,0,0,1,.2924.6006,6.9722,6.9722,0,0,0-1.41,2.9912.4975.4975,0,0,1-.484.4082H8.0007a2,2,0,0,1-2.0009-2v-1A1,1,0,0,1,7,42.0156Zm9.9923,0a5,5,0,1,1-4.9967,5A4.9985,4.9985,0,0,1,16.9926,42.0156Zm26.0157,0a5,5,0,1,1-4.9968,5A4.9984,4.9984,0,0,1,43.0083,42.0156Z"/>
</svg>
