<svg id="Layer_1" data-name="Layer 1" xmlns="http://www.w3.org/2000/svg" width="64" height="64" viewBox="0 0 64 64"><defs><style>.cls-1{fill-rule:evenodd}</style></defs><title>Icons 400</title><path class="cls-1" d="M57.894 36.99l-.876 5.35a1.998 1.998 0 0 1-1.97 1.675h-5.15a1.026 1.026 0 0 1-.879-.53 6.975 6.975 0 0 0-6.028-3.47h-3.995a1 1 0 0 1-.999-1v-16a1 1 0 0 1 1-1H54.05a1.998 1.998 0 0 1 1.97 1.675l1.873 11.351a6.005 6.005 0 0 1 .001 1.949zm-5.47-10.556a.5.5 0 0 0-.492-.419h-9.44a.5.5 0 0 0-.5.5v5a.5.5 0 0 0 .5.5h4.187a1.888 1.888 0 0 1 1.862 1.582.5.5 0 0 0 .493.418h4.053a.5.5 0 0 0 .493-.581zM34.012 46.016h-9.67a.498.498 0 0 1-.484-.409 6.97 6.97 0 0 0-1.41-2.99.37.37 0 0 1 .292-.601h12.272a1 1 0 0 1 1 1v1a2 2 0 0 1-2 2zm1-6H7a1 1 0 0 1-1-1v-23a2 2 0 0 1 2-2h26.012a2 2 0 0 1 2 2v23a1 1 0 0 1-1 1zM7 42.016h4.27a.37.37 0 0 1 .292.6 6.972 6.972 0 0 0-1.41 2.991.497.497 0 0 1-.484.409H8.001a2 2 0 0 1-2.001-2v-1a1 1 0 0 1 1-1zm9.992 0a5 5 0 1 1-4.996 5 4.998 4.998 0 0 1 4.997-5zm26.016 0a5 5 0 1 1-4.997 5 4.998 4.998 0 0 1 4.997-5z"/></svg>