<svg id="Layer_1" data-name="Layer 1" xmlns="http://www.w3.org/2000/svg" width="64" height="64" viewBox="0 0 64 64">
  <defs>
    <style>
      .cls-1 {
        fill-rule: evenodd;
      }
    </style>
  </defs>
  <title>Icons 200</title>
  <path class="cls-1" d="M50,58H14a2,2,0,1,1,0-4H50A2,2,0,1,1,50,58ZM47,18.6368V35c0,8.2843-4.3576,15-15.5,15S16,43.2843,16,35V18.6a3.636,3.636,0,0,0-2.6375-3.4963A0.5,0.5,0,0,1,13,14.6229V13.5a0.5,0.5,0,0,1,.5-0.5h13a0.5,0.5,0,0,1,.5.5v1.1228a0.5,0.5,0,0,1-.3625.4809A3.6361,3.6361,0,0,0,24,18.6V36c0,4.97,1.9987,9,9,9s9-4.03,9-9V18.6391a3.6631,3.6631,0,0,0-2.6718-3.519A0.5,0.5,0,0,1,39,14.65V13.5a0.5,0.5,0,0,1,.5-0.5h10a0.5,0.5,0,0,1,.5.5v1.1492a0.5,0.5,0,0,1-.33.47A3.6625,3.6625,0,0,0,47,18.6368Z"/>
</svg>
