<svg id="Layer_1" data-name="Layer 1" xmlns="http://www.w3.org/2000/svg" width="64" height="64" viewBox="0 0 64 64"><defs><style>.cls-1{fill-rule:evenodd}</style></defs><title>Icons 200</title><path class="cls-1" d="M50 58H14a2 2 0 1 1 0-4h36a2 2 0 1 1 0 4zm-3-39.363V35c0 8.284-4.358 15-15.5 15S16 43.284 16 35V18.6a3.636 3.636 0 0 0-2.638-3.496.5.5 0 0 1-.362-.481V13.5a.5.5 0 0 1 .5-.5h13a.5.5 0 0 1 .5.5v1.123a.5.5 0 0 1-.362.48A3.636 3.636 0 0 0 24 18.6V36c0 4.97 1.999 9 9 9s9-4.03 9-9V18.64a3.663 3.663 0 0 0-2.672-3.52.5.5 0 0 1-.328-.47V13.5a.5.5 0 0 1 .5-.5h10a.5.5 0 0 1 .5.5v1.15a.5.5 0 0 1-.33.47A3.663 3.663 0 0 0 47 18.636z"/></svg>