<svg id="Layer_1" data-name="Layer 1" xmlns="http://www.w3.org/2000/svg" width="64" height="64" viewBox="0 0 64 64">
  <defs>
    <style>
      .cls-1 {
        fill-rule: evenodd;
      }
    </style>
  </defs>
  <title>Icons 300</title>
  <path class="cls-1" d="M55.4617,27.398l-4.6175,4.6176,4.5863,4.5864A2,2,0,0,1,52.6019,39.43L48.0156,34.844,43.4292,39.43a2,2,0,0,1-2.8283-2.8284l4.5863-4.5864L40.57,27.398A2,2,0,1,1,43.3981,24.57l4.6175,4.6176L52.6333,24.57a2,2,0,1,1,2.8284,2.8284ZM40.01,52.0158H7.0205a1.0108,1.0108,0,0,1-1.003-1.07c.2635-4.53,2.3229-5.688,6.8522-7.3688,4.3493-1.6141,5.8385-3.21,6.0934-7.1636A9.48,9.48,0,0,1,16.97,34.6981a9.55,9.55,0,0,1-1.905-4.7138,1.1781,1.1781,0,0,1-.1439.0191c-1.0845,0-1.9053-2.2814-1.9053-3.8861s.5572-2.0923,1.0887-2.0923c.1139,0,.2089.0134.31.0221a13.5713,13.5713,0,0,1-.399-3.094c0-5.6888,2.3033-8.9375,9.5-8.9375,3.4281,0,3.6591.8475,4.3184,2.0313a2.063,2.063,0,0,1,1.2953-.4062c1.83,0,3.8864,2.21,3.8864,7.3124a13.5653,13.5653,0,0,1-.3991,3.094c.1015-.0087.1962-.0221.31-.0221.5316,0,1.0889.4879,1.0889,2.0923s-.8208,3.8861-1.9053,3.8861a1.1867,1.1867,0,0,1-.1441-.0191,9.5484,9.5484,0,0,1-1.9047,4.7138,9.491,9.491,0,0,1-1.9937,1.7155c.2549,3.9534,1.7441,5.5492,6.0934,7.1633,4.5292,1.6808,6.5886,2.8388,6.8523,7.3688A1.0111,1.0111,0,0,1,40.01,52.0158Z"/>
</svg>
