<svg id="Layer_1" data-name="Layer 1" xmlns="http://www.w3.org/2000/svg" width="64" height="64" viewBox="0 0 64 64"><defs><style>.cls-1{fill-rule:evenodd}</style></defs><title>Icons 300</title><path class="cls-1" d="M55.462 27.398l-4.618 4.618 4.586 4.586a2 2 0 0 1-2.828 2.828l-4.586-4.586-4.587 4.586a2 2 0 0 1-2.828-2.828l4.586-4.587-4.617-4.617a2 2 0 1 1 2.828-2.828l4.618 4.618 4.617-4.618a2 2 0 1 1 2.829 2.828zM40.01 52.016H7.02a1.01 1.01 0 0 1-1.003-1.07c.264-4.53 2.323-5.688 6.853-7.369 4.349-1.614 5.838-3.21 6.093-7.164a9.48 9.48 0 0 1-1.993-1.715 9.55 9.55 0 0 1-1.905-4.714 1.178 1.178 0 0 1-.144.02c-1.084 0-1.905-2.282-1.905-3.887s.557-2.092 1.088-2.092c.114 0 .21.013.31.022a13.571 13.571 0 0 1-.399-3.094c0-5.689 2.304-8.937 9.5-8.937 3.429 0 3.66.847 4.319 2.03a2.063 2.063 0 0 1 1.295-.405c1.83 0 3.887 2.21 3.887 7.312a13.565 13.565 0 0 1-.4 3.094c.102-.009.197-.022.31-.022.532 0 1.09.488 1.09 2.092s-.821 3.886-1.906 3.886a1.187 1.187 0 0 1-.144-.019 9.548 9.548 0 0 1-1.905 4.714 9.491 9.491 0 0 1-1.993 1.716c.255 3.953 1.744 5.549 6.093 7.163 4.53 1.68 6.589 2.839 6.852 7.369a1.011 1.011 0 0 1-1.003 1.07z"/></svg>