<svg id="Layer_1" data-name="Layer 1" xmlns="http://www.w3.org/2000/svg" width="64" height="64" viewBox="0 0 64 64"><defs><style>.cls-1{fill-rule:evenodd}</style></defs><title>Icons 100</title><path class="cls-1" d="M15 51.667V34.333A4.177 4.177 0 0 1 19 30h1V18.995c0-4.03.846-6.379 2.729-8.262s4.23-2.73 8.258-2.73h2.026c4.029 0 6.376.847 8.258 2.73S44 14.965 44 18.995V22a2 2 0 0 1-4 0v-3.003c0-2.565-.538-4.06-1.736-5.258s-2.692-1.737-5.256-1.737h-2.016c-2.564 0-4.058.54-5.255 1.737S24 16.432 24 18.997V30h21a4.177 4.177 0 0 1 4 4.333v17.334A4.177 4.177 0 0 1 45 56H19a4.177 4.177 0 0 1-4-4.333z"/></svg>