<svg id="Layer_1" data-name="Layer 1" xmlns="http://www.w3.org/2000/svg" width="64" height="64" viewBox="0 0 64 64">
  <defs>
    <style>
      .cls-1 {
        fill-rule: evenodd;
      }
    </style>
  </defs>
  <title>Icons 100</title>
  <path class="cls-1" d="M15,51.6667V34.3333A4.1767,4.1767,0,0,1,19,30h1V18.9953c0-4.0306.8463-6.3789,2.7288-8.262s4.2294-2.73,8.2585-2.73h2.0254c4.0289,0,6.3759.8467,8.2584,2.73S44,14.9647,44,18.9953V22h0a2,2,0,0,1-4,0h0V18.997c0-2.565-.5384-4.0593-1.7365-5.2576s-2.6915-1.7372-5.2554-1.7372H30.992c-2.5639,0-4.0575.5389-5.2554,1.7372S24,16.432,24,18.997V30H45a4.1768,4.1768,0,0,1,4,4.3332V51.6667A4.1768,4.1768,0,0,1,45,56H19A4.1767,4.1767,0,0,1,15,51.6667Z"/>
</svg>
