<svg id="Layer_1" data-name="Layer 1" xmlns="http://www.w3.org/2000/svg" width="64" height="64" viewBox="0 0 64 64">
  <defs>
    <style>
      .cls-1 {
        fill-rule: evenodd;
      }
    </style>
  </defs>
  <title>Icons 300</title>
  <path class="cls-1" d="M32.0139,50.0253a17.8932,17.8932,0,0,0,8.4232-2.094,2.0005,2.0005,0,0,1,1.9475,3.4951A22.01,22.01,0,1,1,54.007,32.0187c0,6.0772-3.5806,11.0038-7.9976,11.0038a7.99,7.99,0,0,1-6.96-4.07,10.1305,10.1305,0,0,1-8.5347,5.07c-5.7972,0-10.4966-5.3744-10.4966-12.0041S24.717,20.0145,30.5142,20.0145a9.8677,9.8677,0,0,1,7.4978,3.6108v-.5028a2.0748,2.0748,0,0,1,1.6635-2.08,2.0011,2.0011,0,0,1,2.3352,1.9733V35.02a4,4,0,0,0,3.9987,4.0014c2.2085,0,3.9989-3.1351,3.9989-7.0024h0A17.9973,17.9973,0,1,0,32.0139,50.0253Zm-1-26.0094c-3.8648,0-6.9977,3.583-6.9977,8.0028s3.1329,8.0027,6.9977,8.0027,6.9979-3.5829,6.9979-8.0027S34.879,24.0159,31.0141,24.0159Z"/>
</svg>
