<svg id="Layer_1" data-name="Layer 1" xmlns="http://www.w3.org/2000/svg" width="64" height="64" viewBox="0 0 64 64">
  <defs>
    <style>
      .cls-1 {
        fill-rule: evenodd;
      }
    </style>
  </defs>
  <title>Icons 300</title>
  <path class="cls-1" d="M18.6033,46.584c5.8719-1.9333,7.3121-3.8332,7.4067-8.9887a10.5218,10.5218,0,0,1-2.9942.42c-2.8434,0-6-3.5522-6-12,0-11.1178,3.752-15,8-15a8.88,8.88,0,0,1,2.1156.2979C28.3,9.3691,31.6276,8.0156,35.0158,8.0156c7.079,0,12,5.9535,12,16,0,4.191-1,6.9772-1,9a2.2679,2.2679,0,0,0,2,2.5c1.62,0,2-1.4884,2,.5,0,2.22-2.5738,3-6,3a15.7494,15.7494,0,0,1-5.9947-1.4371c.0917,5.1683,1.5286,7.07,7.4071,9.0055,5.5276,1.82,8.1353,3.091,8.5952,7.7709a1.5115,1.5115,0,0,1-1.5,1.6608H11.5084a1.5116,1.5116,0,0,1-1.5006-1.6608C10.4679,49.675,13.0756,48.4038,18.6033,46.584Z"/>
</svg>
