<svg id="Layer_1" data-name="Layer 1" xmlns="http://www.w3.org/2000/svg" width="64" height="64" viewBox="0 0 64 64">
  <defs>
    <style>
      .cls-1 {
        fill-rule: evenodd;
      }
    </style>
  </defs>
  <title>Icons 300</title>
  <path class="cls-1" d="M18.6031,46.584c5.9084-1.9452,7.33-3.8562,7.4089-9.0845A11.8617,11.8617,0,0,1,24.92,36.4962c-.8306.8164-1.2834,1.5194-1.9046,1.5194-1.4816,0-6-3.8322-6-13,0-10.741,5.9209-17,13-17,3.388,0,5.1836.2871,7,2,5.1855,0,10,3.8823,10,15,0,9.0963-4.4719,13-6,13-.6377,0-1.0928-.6973-1.9139-1.5095a11.9093,11.9093,0,0,1-1.0823.9934c.0785,5.2283,1.5,7.1393,7.4085,9.0845,5.5276,1.82,8.1353,3.091,8.5953,7.7709a1.5114,1.5114,0,0,1-1.5,1.6608H11.5085a1.5116,1.5116,0,0,1-1.5006-1.6608C10.4678,49.675,13.0755,48.4038,18.6031,46.584Z"/>
</svg>
