<svg id="Layer_1" data-name="Layer 1" xmlns="http://www.w3.org/2000/svg" width="64" height="64" viewBox="0 0 64 64"><defs><style>.cls-1{fill-rule:evenodd}</style></defs><title>Icons 300</title><path class="cls-1" d="M18.603 46.584c5.909-1.945 7.33-3.856 7.41-9.085a9.767 9.767 0 0 1-1.577-1.566 12.165 12.165 0 0 1-2.237-5.967 1.123 1.123 0 0 1-.278.035c-1.084 0-1.905-2.661-1.905-4.533s.557-2.441 1.088-2.441a3.032 3.032 0 0 1 .42.03 18.548 18.548 0 0 1-.509-4.041c0-4.805 1.269-8.13 5.14-8.722 2.143-1.58 5.384-2.278 9.522-2.278 2.648 0 .442 1.925 2.93 2.487 1.54.348 4.408 1.508 4.408 8.513a18.561 18.561 0 0 1-.51 4.04 3.024 3.024 0 0 1 .42-.03c.533 0 1.09.57 1.09 2.442S43.194 30 42.109 30a1.124 1.124 0 0 1-.278-.035 12.162 12.162 0 0 1-2.237 5.967A9.758 9.758 0 0 1 38.02 37.5c.078 5.228 1.5 7.14 7.408 9.084 5.528 1.82 8.136 3.091 8.596 7.771a1.512 1.512 0 0 1-1.5 1.661H11.507a1.511 1.511 0 0 1-1.5-1.66c.46-4.681 3.068-5.952 8.595-7.772z"/></svg>