<svg id="Layer_1" data-name="Layer 1" xmlns="http://www.w3.org/2000/svg" width="64" height="64" viewBox="0 0 64 64"><defs><style>.cls-1{fill-rule:evenodd}</style></defs><title>Icons 300</title><path class="cls-1" d="M32.014 50.025a17.893 17.893 0 0 0 8.423-2.094 2 2 0 0 1 1.948 3.495A22.01 22.01 0 1 1 54.007 32.02c0 6.077-3.58 11.004-7.998 11.004a7.99 7.99 0 0 1-6.96-4.07 10.13 10.13 0 0 1-8.534 5.07c-5.798 0-10.497-5.375-10.497-12.005s4.699-12.003 10.496-12.003a9.868 9.868 0 0 1 7.498 3.61v-.502a2.075 2.075 0 0 1 1.663-2.08 2.001 2.001 0 0 1 2.336 1.973V35.02a4 4 0 0 0 3.998 4.001c2.209 0 4-3.135 4-7.002a17.997 17.997 0 1 0-17.995 18.006zm-1-26.01c-3.865 0-6.998 3.584-6.998 8.004s3.133 8.002 6.998 8.002 6.998-3.583 6.998-8.002-3.133-8.003-6.998-8.003z"/></svg>