<svg id="Layer_1" data-name="Layer 1" xmlns="http://www.w3.org/2000/svg" width="64" height="64" viewBox="0 0 64 64">
  <defs>
    <style>
      .cls-1 {
        fill-rule: evenodd;
      }
    </style>
  </defs>
  <title>Icons 300</title>
  <path class="cls-1" d="M18.6031,46.584c5.9084-1.9452,7.33-3.8562,7.409-9.0845a9.7671,9.7671,0,0,1-1.5757-1.567,12.1645,12.1645,0,0,1-2.2371-5.9669,1.1225,1.1225,0,0,1-.2782.0358c-1.0845,0-1.9053-2.6617-1.9053-4.5338s.5572-2.4411,1.0886-2.4411a3.0321,3.0321,0,0,1,.42.03,18.5479,18.5479,0,0,1-.5092-4.0409c0-4.8043,1.2683-8.13,5.14-8.7221,2.1429-1.58,5.3833-2.2779,9.5217-2.2779,2.6479,0,.4421,1.9254,2.93,2.4874,1.54.3478,4.4079,1.5083,4.4079,8.5126a18.5614,18.5614,0,0,1-.5089,4.0409,3.0239,3.0239,0,0,1,.42-.03c.5316,0,1.0889.5693,1.0889,2.4411s-.821,4.5338-1.9055,4.5338a1.1244,1.1244,0,0,1-.2782-.0358,12.1625,12.1625,0,0,1-2.2371,5.9669A9.7585,9.7585,0,0,1,38.02,37.5c.0784,5.2282,1.5,7.1392,7.4084,9.0844,5.5275,1.82,8.1354,3.091,8.5954,7.7709a1.5117,1.5117,0,0,1-1.5006,1.6608H11.5083a1.5113,1.5113,0,0,1-1.5-1.6608C10.4678,49.675,13.0756,48.4038,18.6031,46.584Z"/>
</svg>
