<svg id="Layer_1" data-name="Layer 1" xmlns="http://www.w3.org/2000/svg" width="64" height="64" viewBox="0 0 64 64"><defs><style>.cls-1{fill-rule:evenodd}</style></defs><title>Icons 300</title><path class="cls-1" d="M18.603 46.584c5.909-1.945 7.33-3.856 7.409-9.085a11.862 11.862 0 0 1-1.092-1.003c-.83.817-1.283 1.52-1.905 1.52-1.481 0-6-3.833-6-13 0-10.741 5.921-17 13-17 3.388 0 5.184.287 7 2 5.186 0 10 3.882 10 15 0 9.096-4.472 13-6 13-.637 0-1.092-.698-1.914-1.51a11.91 11.91 0 0 1-1.082.993c.079 5.229 1.5 7.14 7.409 9.085 5.527 1.82 8.135 3.091 8.595 7.77a1.511 1.511 0 0 1-1.5 1.662H11.508a1.512 1.512 0 0 1-1.5-1.661c.46-4.68 3.068-5.951 8.595-7.771z"/></svg>