<svg id="Layer_1" data-name="Layer 1" xmlns="http://www.w3.org/2000/svg" width="64" height="64" viewBox="0 0 64 64">
  <defs>
    <style>
      .cls-1 {
        fill-rule: evenodd;
      }
    </style>
  </defs>
  <title>Icons 300</title>
  <path class="cls-1" d="M18.6031,46.584c5.9084-1.9452,7.33-3.8562,7.4089-9.0845a9.7642,9.7642,0,0,1-1.5755-1.567,12.1653,12.1653,0,0,1-2.2372-5.9669,1.1227,1.1227,0,0,1-.2783.0358c-1.0844,0-1.9052-2.6617-1.9052-4.5338s.5571-2.4411,1.0886-2.4411a3.0284,3.0284,0,0,1,.42.03,18.5483,18.5483,0,0,1-.5091-4.0409c0-3.3517.6445-5.6864,2-6,1.323-3.6817,5.717-5,10-5,2.742,0,3.6031.5335,4,2a3.703,3.703,0,0,1,4,3c1.0318.3847,2,1.7272,2,6a18.5487,18.5487,0,0,1-.509,4.0409,3.0265,3.0265,0,0,1,.42-.03c.5316,0,1.0888.5693,1.0888,2.4411s-.8209,4.5338-1.9052,4.5338a1.1212,1.1212,0,0,1-.2782-.0358,12.1651,12.1651,0,0,1-2.2373,5.9669A9.7642,9.7642,0,0,1,38.0195,37.5c.0785,5.2283,1.5,7.1393,7.4087,9.0845,5.5274,1.82,8.1351,3.091,8.5951,7.7709a1.5115,1.5115,0,0,1-1.5,1.6608H11.5084a1.5115,1.5115,0,0,1-1.5-1.6608C10.4678,49.675,13.0757,48.4038,18.6031,46.584Z"/>
</svg>
