<svg id="Layer_1" data-name="Layer 1" xmlns="http://www.w3.org/2000/svg" width="64" height="64" viewBox="0 0 64 64"><defs><style>.cls-1{fill-rule:evenodd}</style></defs><title>Icons 300</title><path class="cls-1" d="M18.603 46.584c5.909-1.945 7.33-3.856 7.409-9.085a9.76 9.76 0 0 1-1.576-1.566 12.162 12.162 0 0 1-2.237-5.967 1.125 1.125 0 0 1-.278.035c-1.084 0-1.905-2.661-1.905-4.533s.557-2.441 1.089-2.441a3.03 3.03 0 0 1 .42.03 18.543 18.543 0 0 1-.51-4.041c0-7.002 2.667-11 11-11 3.97 0 4.237 1.043 5 2.5a2.306 2.306 0 0 1 1.5-.5c2.12 0 4.5 2.72 4.5 9a18.542 18.542 0 0 1-.509 4.04 3.032 3.032 0 0 1 .42-.03c.532 0 1.09.57 1.09 2.442S43.193 30 42.11 30a1.124 1.124 0 0 1-.278-.035 12.162 12.162 0 0 1-2.237 5.967A9.761 9.761 0 0 1 38.02 37.5c.078 5.228 1.5 7.14 7.408 9.085 5.528 1.82 8.135 3.09 8.595 7.77a1.512 1.512 0 0 1-1.5 1.661H11.508a1.512 1.512 0 0 1-1.5-1.66c.46-4.681 3.068-5.952 8.595-7.772z"/></svg>