<svg id="Layer_1" data-name="Layer 1" xmlns="http://www.w3.org/2000/svg" width="64" height="64" viewBox="0 0 64 64">
  <defs>
    <style>
      .cls-1 {
        fill-rule: evenodd;
      }
    </style>
  </defs>
  <title>Icons 300</title>
  <path class="cls-1" d="M18.6032,46.584c5.9084-1.9452,7.33-3.8562,7.4087-9.0845a9.76,9.76,0,0,1-1.5755-1.567,12.1616,12.1616,0,0,1-2.237-5.9669,1.125,1.125,0,0,1-.2782.0358c-1.0845,0-1.9055-2.6617-1.9055-4.5338s.5573-2.4411,1.0888-2.4411a3.0292,3.0292,0,0,1,.42.03,18.5426,18.5426,0,0,1-.509-4.0409c0-7.0016,2.6669-11,11-11,3.9695,0,4.2369,1.043,5,2.5a2.3063,2.3063,0,0,1,1.5-.5c2.1192,0,4.5,2.72,4.5,9a18.5422,18.5422,0,0,1-.5091,4.0409,3.0318,3.0318,0,0,1,.42-.03c.5315,0,1.0887.5693,1.0887,2.4411s-.8209,4.5338-1.9054,4.5338a1.1244,1.1244,0,0,1-.2782-.0358,12.1616,12.1616,0,0,1-2.237,5.9669A9.7615,9.7615,0,0,1,38.0195,37.5c.0785,5.2283,1.5,7.1393,7.4085,9.0845,5.5276,1.82,8.1353,3.091,8.5954,7.7709a1.5116,1.5116,0,0,1-1.5,1.6608H11.5083a1.5115,1.5115,0,0,1-1.5-1.6608C10.4679,49.675,13.0756,48.4038,18.6032,46.584Z"/>
</svg>
