<svg id="Layer_1" data-name="Layer 1" xmlns="http://www.w3.org/2000/svg" width="64" height="64" viewBox="0 0 64 64"><defs><style>.cls-1{fill-rule:evenodd}</style></defs><title>Icons 300</title><path class="cls-1" d="M18.603 46.584c5.909-1.945 7.33-3.856 7.409-9.085a9.764 9.764 0 0 1-1.575-1.566 12.165 12.165 0 0 1-2.238-5.967 1.123 1.123 0 0 1-.278.035c-1.084 0-1.905-2.661-1.905-4.533s.557-2.441 1.088-2.441a3.028 3.028 0 0 1 .42.03 18.548 18.548 0 0 1-.509-4.041c0-3.352.645-5.687 2-6 1.323-3.682 5.717-5 10-5 2.742 0 3.603.533 4 2a3.703 3.703 0 0 1 4 3c1.032.384 2 1.727 2 6a18.549 18.549 0 0 1-.509 4.04 3.026 3.026 0 0 1 .42-.03c.532 0 1.09.57 1.09 2.442S43.193 30 42.11 30a1.121 1.121 0 0 1-.278-.035 12.165 12.165 0 0 1-2.238 5.967A9.764 9.764 0 0 1 38.02 37.5c.079 5.228 1.5 7.14 7.41 9.085 5.527 1.82 8.134 3.09 8.594 7.77a1.512 1.512 0 0 1-1.5 1.661H11.508a1.512 1.512 0 0 1-1.5-1.66c.46-4.681 3.068-5.952 8.595-7.772z"/></svg>