<svg id="Layer_1" data-name="Layer 1" xmlns="http://www.w3.org/2000/svg" width="64" height="64" viewBox="0 0 64 64"><defs><style>.cls-1{fill-rule:evenodd}</style></defs><title>Icons 300</title><path class="cls-1" d="M18.603 46.584c5.872-1.933 7.312-3.833 7.407-8.989a10.522 10.522 0 0 1-2.994.42c-2.844 0-6-3.552-6-12 0-11.117 3.752-15 8-15a8.88 8.88 0 0 1 2.115.298c1.169-1.944 4.497-3.297 7.885-3.297 7.079 0 12 5.953 12 16 0 4.19-1 6.977-1 9a2.268 2.268 0 0 0 2 2.5c1.62 0 2-1.489 2 .5 0 2.22-2.574 3-6 3a15.75 15.75 0 0 1-5.995-1.437c.092 5.168 1.529 7.07 7.407 9.005 5.528 1.82 8.136 3.091 8.595 7.77a1.512 1.512 0 0 1-1.5 1.662H11.508a1.512 1.512 0 0 1-1.5-1.661c.46-4.68 3.068-5.951 8.595-7.771z"/></svg>