<svg id="Layer_1" data-name="Layer 1" xmlns="http://www.w3.org/2000/svg" width="64" height="64" viewBox="0 0 64 64">
  <defs>
    <style>
      .cls-1 {
        fill-rule: evenodd;
      }
    </style>
  </defs>
  <title>Icons 300</title>
  <path class="cls-1" d="M58.0157,17.0225a3.0029,3.0029,0,0,1-3,3.0019c-6.019,0-8.3391.1314-10.7282,2.5177-.7743.7733-1.5731.5266-2.4593-.3586s-1.1332-1.6829-.359-2.4562c2.3892-2.3863,2.5466-4.6981,2.5466-10.71A2.9935,2.9935,0,0,1,49.9733,8.59a3.9745,3.9745,0,0,1,5.4646,5.458A3.01,3.01,0,0,1,58.0157,17.0225ZM41.4566,36.6841C30.9527,47.1946,10.479,57.9149,8.3054,55.74s8.54-22.661,19.0444-33.1716c2.8354-2.8371,7.191-4.3985,12.8388,1.2529S44.2921,33.847,41.4566,36.6841Z"/>
</svg>
