<svg id="Layer_1" data-name="Layer 1" xmlns="http://www.w3.org/2000/svg" width="64" height="64" viewBox="0 0 64 64"><defs><style>.cls-1{fill-rule:evenodd}</style></defs><title>Icons 300</title><path class="cls-1" d="M58.016 17.023a3.003 3.003 0 0 1-3 3.001c-6.02 0-8.34.132-10.728 2.518-.775.773-1.574.527-2.46-.359s-1.133-1.682-.359-2.456c2.39-2.386 2.547-4.698 2.547-10.71a2.994 2.994 0 0 1 5.957-.427 3.974 3.974 0 0 1 5.465 5.458 3.01 3.01 0 0 1 2.578 2.975zm-16.56 19.661C30.954 47.194 10.48 57.914 8.307 55.74s8.54-22.661 19.044-33.172c2.835-2.837 7.19-4.398 12.839 1.253s4.103 10.026 1.268 12.863z"/></svg>