<svg id="Layer_1" data-name="Layer 1" xmlns="http://www.w3.org/2000/svg" width="64" height="64" viewBox="0 0 64 64"><defs><style>.cls-1{fill-rule:evenodd}</style></defs><title>Icons 300</title><path class="cls-1" d="M6.013 21.992a.966.966 0 0 1 1.649-.68L32.72 46.363a.956.956 0 0 1-.676 1.632h-20.03a6.001 6.001 0 0 1-6.001-6zm50.78-3.848a2 2 0 0 1 1.234 1.848v24.003a2 2 0 0 1-3.415 1.414L44.609 35.408a2 2 0 0 1-.586-1.414v-4a2 2 0 0 1 .586-1.415l10.003-10.001a2 2 0 0 1 2.18-.434zM36.02 15.992a6.001 6.001 0 0 1 6.002 6v20.049a.967.967 0 0 1-1.653.656L15.29 17.624a.956.956 0 0 1 .676-1.632zM5.42 10.578l40.018 40.013a2 2 0 0 1-2.83 2.829L2.59 13.407a2 2 0 0 1 2.83-2.829z"/></svg>