<svg id="Layer_1" data-name="Layer 1" xmlns="http://www.w3.org/2000/svg" width="64" height="64" viewBox="0 0 64 64">
  <defs>
    <style>
      .cls-1 {
        fill-rule: evenodd;
      }
    </style>
  </defs>
  <title>Icons 300</title>
  <path class="cls-1" d="M56.7813,45.8634a2,2,0,0,1-2.18-.4336l-10-10a2,2,0,0,1-.586-1.4141v-4a2,2,0,0,1,.586-1.4141l10-10a2,2,0,0,1,3.414,1.4141v24A2,2,0,0,1,56.7813,45.8634ZM12.0156,16.0157h24a6,6,0,0,1,6,6v20a6,6,0,0,1-6,6h-24a6,6,0,0,1-6-6v-20A6,6,0,0,1,12.0156,16.0157Z"/>
</svg>
