<svg id="Layer_1" data-name="Layer 1" xmlns="http://www.w3.org/2000/svg" width="64" height="64" viewBox="0 0 64 64">
  <defs>
    <style>
      .cls-1 {
        fill-rule: evenodd;
      }
    </style>
  </defs>
  <title>Icons 200</title>
  <path class="cls-1" d="M51,50c-8.5092,0-7.9358-10-19-10S21.5093,50,13,50a7,7,0,0,1-7-7c0-23.1154,7.6323-27,26-27s26,3.8845,26,27A7,7,0,0,1,51,50ZM27,29a1,1,0,0,0-1-1H22V24a1,1,0,0,0-1-1H19a1,1,0,0,0-1,1v4H14a1,1,0,0,0-1,1v2a1,1,0,0,0,1,1h4v4a1,1,0,0,0,1,1h2a1,1,0,0,0,1-1V32h4a1,1,0,0,0,1-1V29Zm13,0a3,3,0,1,0,3,3A3,3,0,0,0,40,29Zm8-4a3,3,0,1,0,3,3A3,3,0,0,0,48,25Z"/>
</svg>
