<svg id="Layer_1" data-name="Layer 1" xmlns="http://www.w3.org/2000/svg" width="64" height="64" viewBox="0 0 64 64">
  <defs>
    <style>
      .cls-1 {
        fill-rule: evenodd;
      }
    </style>
  </defs>
  <title>Icons 300</title>
  <path class="cls-1" d="M6.013,21.9924a.9657.9657,0,0,1,1.6485-.6808L32.72,46.363a.956.956,0,0,1-.676,1.6321h-20.03A6.0012,6.0012,0,0,1,6.013,41.9944Zm50.7792-3.8481a2,2,0,0,1,1.2347,1.8479V43.9947a2,2,0,0,1-3.4149,1.4142L44.6094,35.4079a2,2,0,0,1-.5862-1.4142v-4a2,2,0,0,1,.5862-1.4143L54.612,18.5779a2.0006,2.0006,0,0,1,2.18-.4336Zm-20.771-2.1525a6.0011,6.0011,0,0,1,6.0016,6.0006v20.002l0,.0468a.9669.9669,0,0,1-1.6526.6562L15.29,17.6237a.9558.9558,0,0,1,.676-1.6319ZM5.42,10.5782l40.018,40.0124a2.0007,2.0007,0,0,1-2.83,2.8291L2.59,13.4073a2.0007,2.0007,0,0,1,2.83-2.8291Z"/>
</svg>
