<svg id="Layer_1" data-name="Layer 1" xmlns="http://www.w3.org/2000/svg" width="64" height="64" viewBox="0 0 64 64">
  <defs>
    <style>
      .cls-1 {
        fill-rule: evenodd;
      }
    </style>
  </defs>
  <title>Icons 200</title>
  <path class="cls-1" d="M31.985,48C17.309,48,10.0195,36.3277,8.205,32.9222a1.9569,1.9569,0,0,1,0-1.8444C10.0195,27.6723,17.309,16,31.985,16S53.95,27.6723,55.765,31.0778a1.9557,1.9557,0,0,1,0,1.8444C53.95,36.3277,46.661,48,31.985,48ZM32,21A11,11,0,1,0,43.0006,32,11,11,0,0,0,32,21ZM32,39a7,7,0,1,1,7-7A7,7,0,0,1,32,39Z"/>
</svg>
