<svg id="Layer_1" data-name="Layer 1" xmlns="http://www.w3.org/2000/svg" width="64" height="64" viewBox="0 0 64 64">
  <defs>
    <style>
      .cls-1 {
        fill-rule: evenodd;
      }
    </style>
  </defs>
  <title>Icons 200</title>
  <path class="cls-1" d="M48.671,41.727a1.0033,1.0033,0,0,1-1.3633-.05l-4.7813-4.7831a0.9983,0.9983,0,0,1-.2272-1.0573A10.9882,10.9882,0,0,0,28.1637,21.696a0.9981,0.9981,0,0,1-1.0571-.2274l-3.1945-3.1959a0.6251,0.6251,0,0,1,.2442-1.036,25.03,25.03,0,0,1,7.8274-1.2327c14.67,0,21.9559,11.6687,23.77,15.073a1.9559,1.9559,0,0,1,0,1.8439A31.7783,31.7783,0,0,1,48.671,41.727ZM13.4125,10.595L53.4049,50.6071a2,2,0,0,1-2.8277,2.8293L10.5848,13.4243A2,2,0,0,1,13.4125,10.595Zm3.2441,11.7281,4.8039,4.806a0.9984,0.9984,0,0,1,.228,1.0548A10.99,10.99,0,0,0,35.81,42.3115a0.9979,0.9979,0,0,1,1.0546.2284L40.05,45.7267a0.6252,0.6252,0,0,1-.2443,1.0361,25.0345,25.0345,0,0,1-7.8222,1.2311c-14.67,0-21.9559-11.6686-23.77-15.073a1.9547,1.9547,0,0,1,0-1.8439,31.7671,31.7671,0,0,1,7.079-8.8033A1.0035,1.0035,0,0,1,16.6566,22.3231Z"/>
</svg>
