<svg id="Layer_1" data-name="Layer 1" xmlns="http://www.w3.org/2000/svg" width="64" height="64" viewBox="0 0 64 64"><defs><style>.cls-1{fill-rule:evenodd}</style></defs><title>Icons 200</title><path class="cls-1" d="M48.671 41.727a1.003 1.003 0 0 1-1.363-.05l-4.782-4.783a.998.998 0 0 1-.227-1.057 10.988 10.988 0 0 0-14.135-14.141.998.998 0 0 1-1.057-.227l-3.195-3.196a.625.625 0 0 1 .244-1.036 25.03 25.03 0 0 1 7.828-1.233c14.67 0 21.956 11.669 23.77 15.073a1.956 1.956 0 0 1 0 1.844 31.778 31.778 0 0 1-7.083 8.806zM13.413 10.595l39.992 40.012a2 2 0 0 1-2.828 2.83L10.585 13.423a2 2 0 0 1 2.827-2.829zm3.244 11.728l4.804 4.806a.998.998 0 0 1 .228 1.055A10.99 10.99 0 0 0 35.81 42.312a.998.998 0 0 1 1.055.228l3.185 3.187a.625.625 0 0 1-.244 1.036 25.035 25.035 0 0 1-7.823 1.23c-14.67 0-21.955-11.668-23.77-15.072a1.955 1.955 0 0 1 0-1.844 31.767 31.767 0 0 1 7.08-8.803 1.004 1.004 0 0 1 1.364.05z"/></svg>