<svg id="Layer_1" data-name="Layer 1" xmlns="http://www.w3.org/2000/svg" width="64" height="64" viewBox="0 0 64 64">
  <defs>
    <style>
      .cls-1 {
        fill-rule: evenodd;
      }
    </style>
  </defs>
  <title>Icons 100</title>
  <path class="cls-1" d="M16.51,41.009H11.0024a3.0009,3.0009,0,0,1-3.0018-3V26.0075a3.001,3.001,0,0,1,3.0018-3h5.5a4.0027,4.0027,0,0,0,2.8288-1.1707l8.2522-8.2427A2.0014,2.0014,0,0,1,31,15.0089v33.99a2.002,2.002,0,0,1-3.4169,1.4155L19.3386,42.18A4.0025,4.0025,0,0,0,16.51,41.009Zm21.4738-19.31a1.9719,1.9719,0,0,1-.7057-2.745,2.0445,2.0445,0,0,1,2.739-.7073,15.8378,15.8378,0,0,1,0,27.506,2.0445,2.0445,0,0,1-2.739-.7073,1.9719,1.9719,0,0,1,.7057-2.745A11.8258,11.8258,0,0,0,37.9834,21.6993Z"/>
</svg>
