<svg id="Layer_1" data-name="Layer 1" xmlns="http://www.w3.org/2000/svg" width="64" height="64" viewBox="0 0 64 64"><defs><style>.cls-1{fill-rule:evenodd}</style></defs><title>Icons 100</title><path class="cls-1" d="M38.997 14.993v16.073a.945.945 0 0 1-1.612.667l-8.958-8.95a1.462 1.462 0 0 1 0-2.07l7.153-7.135a2.002 2.002 0 0 1 3.417 1.415zm-20.16 9.517l18.988 18.97a3.995 3.995 0 0 1 1.172 2.828v2.66a2.003 2.003 0 0 1-3.419 1.415l-8.25-8.231a4.007 4.007 0 0 0-2.83-1.17h-5.511a3.002 3.002 0 0 1-3.004-3V25.987a2.949 2.949 0 0 1 .137-.89 1.64 1.64 0 0 1 2.717-.587zm-8.28-13.933a2.002 2.002 0 0 1 2.83 0L53.42 50.582a2 2 0 0 1-2.831 2.828L10.557 13.405a2 2 0 0 1 0-2.828z"/></svg>