<svg id="Layer_1" data-name="Layer 1" xmlns="http://www.w3.org/2000/svg" width="64" height="64" viewBox="0 0 64 64">
  <defs>
    <style>
      .cls-1 {
        fill-rule: evenodd;
      }
    </style>
  </defs>
  <title>Icons 100</title>
  <path class="cls-1" d="M44.5387,50.3327a1.988,1.988,0,0,1,.1581-2.8239,20.1,20.1,0,0,0,0-31.0176,1.9882,1.9882,0,0,1-.1581-2.824,2.0269,2.0269,0,0,1,2.8166-.1584,24.099,24.099,0,0,1,0,36.9825A2.0268,2.0268,0,0,1,44.5387,50.3327Zm-4.522-4.58a2.0446,2.0446,0,0,1-2.7391-.7073,1.972,1.972,0,0,1,.7059-2.745,11.8258,11.8258,0,0,0,0-20.6014,1.972,1.972,0,0,1-.7059-2.745,2.0446,2.0446,0,0,1,2.7391-.7073A15.8377,15.8377,0,0,1,40.0167,45.753ZM8.0007,26.0075a3.0009,3.0009,0,0,1,3.0016-3h5.5a4.0027,4.0027,0,0,0,2.8288-1.1707l8.2522-8.2427A2.0014,2.0014,0,0,1,31,15.0089v33.99a2.0021,2.0021,0,0,1-3.4171,1.4155L19.3387,42.18A4.0032,4.0032,0,0,0,16.51,41.009H11.0023a3.0008,3.0008,0,0,1-3.0016-3V26.0075Z"/>
</svg>
