<svg id="Layer_1" data-name="Layer 1" xmlns="http://www.w3.org/2000/svg" width="64" height="64" viewBox="0 0 64 64"><defs><style>.cls-1{fill-rule:evenodd}</style></defs><title>Icons 100</title><path class="cls-1" d="M16.51 41.009h-5.508a3 3 0 0 1-3.001-3V26.007a3.001 3.001 0 0 1 3.001-3h5.5a4.003 4.003 0 0 0 2.83-1.17l8.251-8.243A2.001 2.001 0 0 1 31 15.01v33.99a2.002 2.002 0 0 1-3.417 1.415L19.34 42.18a4.003 4.003 0 0 0-2.829-1.171zm21.474-19.31a1.972 1.972 0 0 1-.706-2.745 2.045 2.045 0 0 1 2.74-.707 15.838 15.838 0 0 1 0 27.506 2.045 2.045 0 0 1-2.74-.708 1.972 1.972 0 0 1 .706-2.745 11.826 11.826 0 0 0 0-20.6z"/></svg>