<svg id="Layer_1" data-name="Layer 1" xmlns="http://www.w3.org/2000/svg" width="64" height="64" viewBox="0 0 64 64"><defs><style>.cls-1{fill-rule:evenodd}</style></defs><title>Icons 400</title><path class="cls-1" d="M10.643 34.141L29.65 10.166a3 3 0 0 1 4.703 0L53.357 34.14a2.999 2.999 0 0 1-2.351 4.861h-7.993v13.01a3.002 3.002 0 0 1-3 3H24.019a3.002 3.002 0 0 1-3-3v-13.01h-8.022a3 3 0 0 1-2.353-4.86zm5.454.862h8.42a.5.5 0 0 1 .5.5v15.01a.5.5 0 0 0 .5.5h12.997a.5.5 0 0 0 .5-.5v-15.01a.5.5 0 0 1 .5-.5h8.39a.5.5 0 0 0 .392-.81L32.393 14.13a.5.5 0 0 0-.784 0L15.705 34.193a.5.5 0 0 0 .392.81z"/></svg>