<svg id="Layer_1" data-name="Layer 1" xmlns="http://www.w3.org/2000/svg" width="64" height="64" viewBox="0 0 64 64">
  <defs>
    <style>
      .cls-1 {
        fill-rule: evenodd;
      }
    </style>
  </defs>
  <title>Icons 400</title>
  <path class="cls-1" d="M10.6434,34.1414,29.649,10.1656a3.0009,3.0009,0,0,1,4.7029,0L53.3572,34.1414a2.9989,2.9989,0,0,1-2.3515,4.8606H43.0128V52.0129a3.0024,3.0024,0,0,1-2.9992,2.9989H24.0178a3.0023,3.0023,0,0,1-2.9992-2.9989V39.002H12.9962A2.9993,2.9993,0,0,1,10.6434,34.1414Zm5.4538.862h8.42a.5.5,0,0,1,.5.5v15.01a.5.5,0,0,0,.5.5H38.514a.5.5,0,0,0,.5-.5v-15.01a.5.5,0,0,1,.5-.5h8.39a.5.5,0,0,0,.3917-.81L32.3927,14.13a.5.5,0,0,0-.7834,0L15.7055,34.1931A.5.5,0,0,0,16.0972,35.0034Z"/>
</svg>
