<svg id="Layer_1" data-name="Layer 1" xmlns="http://www.w3.org/2000/svg" width="64" height="64" viewBox="0 0 64 64"><defs><style>.cls-1{fill-rule:evenodd}</style></defs><title>Icons 400</title><path class="cls-1" d="M53.357 29.89L34.35 53.865a3 3 0 0 1-4.703 0L10.643 29.89a2.999 2.999 0 0 1 2.351-4.86h7.993V12.018a3.002 3.002 0 0 1 3-2.999h15.995a3.002 3.002 0 0 1 3 3v13.01h8.022a3 3 0 0 1 2.353 4.861zm-5.454-.862h-8.42a.5.5 0 0 1-.5-.5v-15.01a.5.5 0 0 0-.5-.5H25.486a.5.5 0 0 0-.5.5v15.01a.5.5 0 0 1-.5.5h-8.39a.5.5 0 0 0-.392.81l15.903 20.063a.5.5 0 0 0 .784 0l15.904-20.063a.5.5 0 0 0-.392-.81z"/></svg>