<svg id="Layer_1" data-name="Layer 1" xmlns="http://www.w3.org/2000/svg" width="64" height="64" viewBox="0 0 64 64">
  <defs>
    <style>
      .cls-1 {
        fill-rule: evenodd;
      }
    </style>
  </defs>
  <title>Icons 400</title>
  <path class="cls-1" d="M53.3567,29.89,34.351,53.8655a3.0008,3.0008,0,0,1-4.7029,0L10.6428,29.89a2.9989,2.9989,0,0,1,2.3516-4.86h7.9929V12.0183a3.0023,3.0023,0,0,1,2.9992-2.9989H39.9823a3.0024,3.0024,0,0,1,2.9992,2.9989v13.011h8.0223A2.9992,2.9992,0,0,1,53.3567,29.89Zm-5.4538-.862h-8.42a.5.5,0,0,1-.5-.5v-15.01a.5.5,0,0,0-.5-.5H25.4861a.5.5,0,0,0-.5.5v15.01a.5.5,0,0,1-.5.5h-8.39a.5.5,0,0,0-.3916.81L31.6073,49.9009a.5.5,0,0,0,.7835,0L48.2946,29.8381A.5.5,0,0,0,47.9029,29.0278Z"/>
</svg>
