<svg id="Layer_1" data-name="Layer 1" xmlns="http://www.w3.org/2000/svg" width="64" height="64" viewBox="0 0 64 64"><defs><style>.cls-1{fill-rule:evenodd}</style></defs><title>Icons 400</title><path class="cls-1" d="M46.484 31.98H40.6a4.83 4.83 0 0 1-3.802-1.87 14.408 14.408 0 0 1-1.142-1.616.172.172 0 0 0-.295.039l-2.617 6.022a.18.18 0 0 0 .04.201l5.961 5.82a5.75 5.75 0 0 1 1.715 3.827l.597 9.33a2.237 2.237 0 0 1-4.447.398l-1.095-8.5a.716.716 0 0 0-.262-.468l-5.865-4.665a.172.172 0 0 0-.264.064l-2.272 4.906a11.408 11.408 0 0 1-2 2.978c-.816.877-4.712 5.436-5.106 5.859a2.214 2.214 0 0 1-1.697.662A2.075 2.075 0 0 1 16 52.87a2.164 2.164 0 0 1 .458-1.333c.296-.379 4.816-6.533 4.931-6.68a1.08 1.08 0 0 0 .218-.51l.852-5.886a23.15 23.15 0 0 1 1.974-6.562l3.258-6.902a.177.177 0 0 0-.175-.255c-.136.015-6.067.36-6.303.385a.52.52 0 0 0-.456.453l-.814 6.103a1.484 1.484 0 0 1-2.958-.205V24.97a4.25 4.25 0 0 1 3.19-4.149c1.872-.464 7.182-1.43 7.785-1.58a7.665 7.665 0 0 1 5.344.62l2.388 1.221a5.62 5.62 0 0 1 2.362 2.3c.545.991 2.032 3.852 2.133 4.037a.698.698 0 0 0 .482.351l6.086 1.131a1.555 1.555 0 0 1-.272 3.078zM35.998 18.017a5.006 5.006 0 1 1 5.012-5.006 5.009 5.009 0 0 1-5.012 5.006z"/></svg>