<svg id="Layer_1" data-name="Layer 1" xmlns="http://www.w3.org/2000/svg" width="64" height="64" viewBox="0 0 64 64">
  <defs>
    <style>
      .cls-1 {
        fill-rule: evenodd;
      }
    </style>
  </defs>
  <title>Icons 400</title>
  <path class="cls-1" d="M46.4836,31.98H40.6014A4.83,4.83,0,0,1,36.7988,30.11,14.408,14.408,0,0,1,35.657,28.494a.1721.1721,0,0,0-.2948.0388L32.7455,34.555a.1808.1808,0,0,0,.039.201l5.9617,5.8207a5.7494,5.7494,0,0,1,1.7151,3.8261l.5964,9.33a2.2375,2.2375,0,0,1-4.4466.3982l-1.0951-8.5a.7158.7158,0,0,0-.2625-.4675l-5.865-4.6659a.1721.1721,0,0,0-.264.0644l-2.2718,4.9059a11.4084,11.4084,0,0,1-1.9992,2.978c-.817.8775-4.713,5.4359-5.1066,5.859a2.2136,2.2136,0,0,1-1.6967.6624A2.0746,2.0746,0,0,1,16,52.87a2.1643,2.1643,0,0,1,.4576-1.3334c.2963-.3784,4.8162-6.533,4.9316-6.68a1.0794,1.0794,0,0,0,.2176-.51l.8523-5.8855a23.1507,23.1507,0,0,1,1.9735-6.5621l3.258-6.9025a.1773.1773,0,0,0-.1747-.2543c-.1355.0147-6.0674.36-6.3029.3849a.52.52,0,0,0-.4561.4525s-.7135,5.35-.8138,6.1033a1.4839,1.4839,0,0,1-2.9577-.2053V24.97a4.2509,4.2509,0,0,1,3.19-4.1489c1.872-.4641,7.1812-1.43,7.785-1.58a7.6648,7.6648,0,0,1,5.344.62l2.3873,1.2209a5.6208,5.6208,0,0,1,2.3618,2.3c.5451.9911,2.0322,3.8521,2.1339,4.0367a.6976.6976,0,0,0,.4819.3513l6.0853,1.1315a1.5547,1.5547,0,0,1-.2712,3.0779ZM35.9979,18.0169a5.006,5.006,0,1,1,5.0121-5.006A5.009,5.009,0,0,1,35.9979,18.0169Z"/>
</svg>
