<svg id="Layer_1" data-name="Layer 1" xmlns="http://www.w3.org/2000/svg" width="64" height="64" viewBox="0 0 64 64"><defs><style>.cls-1{fill-rule:evenodd}</style></defs><title>Icons 200</title><path class="cls-1" d="M9 17a2 2 0 0 1 2-2h18a2 2 0 0 1 2 2v6a2 2 0 0 1-2 2H11a2 2 0 0 1-2-2v-6zm0 12a2 2 0 0 1 2-2h6a2 2 0 0 1 2 2v6a2 2 0 0 1-2 2h-6a2 2 0 0 1-2-2v-6zm20 20H11a2 2 0 0 1-2-2v-6a2 2 0 0 1 2-2h18a2 2 0 0 1 2 2v6a2 2 0 0 1-2 2zm-8-14v-6a2 2 0 0 1 2-2h18a2 2 0 0 1 2 2v6a2 2 0 0 1-2 2H23a2 2 0 0 1-2-2zm34 12a2 2 0 0 1-2 2H35a2 2 0 0 1-2-2v-6a2 2 0 0 1 2-2h18a2 2 0 0 1 2 2v6zm0-12a2 2 0 0 1-2 2h-6a2 2 0 0 1-2-2v-6a2 2 0 0 1 2-2h6a2 2 0 0 1 2 2v6zm0-18v6a2 2 0 0 1-2 2H35a2 2 0 0 1-2-2v-6a2 2 0 0 1 2-2h18a2 2 0 0 1 2 2z"/></svg>