<svg id="Layer_1" data-name="Layer 1" xmlns="http://www.w3.org/2000/svg" width="64" height="64" viewBox="0 0 64 64">
  <defs>
    <style>
      .cls-1 {
        fill-rule: evenodd;
      }
    </style>
  </defs>
  <title>Icons 100</title>
  <path class="cls-1" d="M21.4365,16.2741a11.2449,11.2449,0,0,0,1.5227-4.7864,1.99,1.99,0,0,1,1.0065-1.5994A16.651,16.651,0,0,1,32,8a16.6514,16.6514,0,0,1,8.0343,1.8883,1.99,1.99,0,0,1,1.0064,1.5994,11.2407,11.2407,0,0,0,1.5227,4.7864A4.9837,4.9837,0,0,1,46,21V43a4.9835,4.9835,0,0,1-3.4366,4.7259,11.2411,11.2411,0,0,0-1.5227,4.7864,1.99,1.99,0,0,1-1.0064,1.5995A16.6528,16.6528,0,0,1,32,56a16.6524,16.6524,0,0,1-8.0345-1.8882,1.99,1.99,0,0,1-1.0065-1.5995,11.2453,11.2453,0,0,0-1.5227-4.7864A4.9836,4.9836,0,0,1,18,43V21A4.9837,4.9837,0,0,1,21.4365,16.2741ZM22,42a1,1,0,0,0,1,1H41a1,1,0,0,0,1-1V22a1,1,0,0,0-1-1H23a1,1,0,0,0-1,1V42Z"/>
</svg>
