<svg id="Layer_1" data-name="Layer 1" xmlns="http://www.w3.org/2000/svg" width="64" height="64" viewBox="0 0 64 64"><defs><style>.cls-1{fill-rule:evenodd}</style></defs><title>Icons 100</title><path class="cls-1" d="M21.436 16.274a11.245 11.245 0 0 0 1.523-4.786 1.99 1.99 0 0 1 1.007-1.6A16.651 16.651 0 0 1 32 8a16.651 16.651 0 0 1 8.034 1.888 1.99 1.99 0 0 1 1.007 1.6 11.24 11.24 0 0 0 1.522 4.786A4.984 4.984 0 0 1 46 21v22a4.984 4.984 0 0 1-3.437 4.726 11.241 11.241 0 0 0-1.522 4.786 1.99 1.99 0 0 1-1.007 1.6A16.653 16.653 0 0 1 32 56a16.652 16.652 0 0 1-8.034-1.888 1.99 1.99 0 0 1-1.007-1.6 11.245 11.245 0 0 0-1.523-4.786A4.984 4.984 0 0 1 18 43V21a4.984 4.984 0 0 1 3.436-4.726zM22 42a1 1 0 0 0 1 1h18a1 1 0 0 0 1-1V22a1 1 0 0 0-1-1H23a1 1 0 0 0-1 1v20z"/></svg>