<svg id="Layer_1" data-name="Layer 1" xmlns="http://www.w3.org/2000/svg" width="64" height="64" viewBox="0 0 64 64"><defs><style>.cls-1{fill-rule:evenodd}</style></defs><title>Icons 300</title><path class="cls-1" d="M32.016 56.013a18 18 0 0 1-18-17.999c0-11.733 12.985-27.352 16.897-31.529a1.512 1.512 0 0 1 2.205 0c3.912 4.177 16.898 19.796 16.898 31.529a18 18 0 0 1-18 17.998zm-3.022-40.301a64.605 64.605 0 0 0-4.978 21.304 1.026 1.026 0 0 1-1 1h-3a.964.964 0 0 1-1-1c.407-6.582 5.012-16.262 9.048-21.761.366-.499 1.18-.103.93.457z"/></svg>