<svg id="Layer_1" data-name="Layer 1" xmlns="http://www.w3.org/2000/svg" width="64" height="64" viewBox="0 0 64 64">
  <defs>
    <style>
      .cls-1 {
        fill-rule: evenodd;
      }
    </style>
  </defs>
  <title>Icons 300</title>
  <path class="cls-1" d="M32.0156,56.0125a17.9992,17.9992,0,0,1-18-17.9985c0-11.7329,12.9853-27.3521,16.8975-31.5285a1.5122,1.5122,0,0,1,2.2049,0C37.03,10.6619,50.0156,26.2811,50.0156,38.014A17.9993,17.9993,0,0,1,32.0156,56.0125ZM28.9943,15.7117a64.6045,64.6045,0,0,0-4.9787,21.304,1.0259,1.0259,0,0,1-1,1h-3a.9641.9641,0,0,1-1-1c.4071-6.5815,5.0123-16.2616,9.0487-21.7608C28.43,14.7562,29.2444,15.1518,28.9943,15.7117Z"/>
</svg>
