<svg id="Layer_1" data-name="Layer 1" xmlns="http://www.w3.org/2000/svg" width="64" height="64" viewBox="0 0 64 64">
  <defs>
    <style>
      .cls-1 {
        fill-rule: evenodd;
      }
    </style>
  </defs>
  <title>Icons 200</title>
  <path class="cls-1" d="M54.5739,27.4158a1.993,1.993,0,0,1-2.73.0819,30.002,30.002,0,0,0-39.6789,0,1.9928,1.9928,0,0,1-2.73-.0819L6.604,24.5863a2.0043,2.0043,0,0,1,.0784-2.9092,38.0008,38.0008,0,0,1,50.6441,0,2.0042,2.0042,0,0,1,.0784,2.9092ZM36.9428,41.3118a2.0849,2.0849,0,0,1,.4432,3.2957l-3.6928,3.6684a2.4218,2.4218,0,0,1-3.4087,0l-3.6928-3.6684a2.0849,2.0849,0,0,1,.4431-3.2957A10.094,10.094,0,0,1,36.9428,41.3118ZM22.092,37.52a2.1059,2.1059,0,0,1-2.8273-.13L16.88,34.9813c-1.1739-1.1856-1.14-2.6382-.1975-3.4266a23.8106,23.8106,0,0,1,30.5814,0,2.13,2.13,0,0,1,.11,3.1161L44.6855,37.386a2.1107,2.1107,0,0,1-2.8309.1338A15.63,15.63,0,0,0,22.092,37.52Z"/>
</svg>
