<svg id="Layer_1" data-name="Layer 1" xmlns="http://www.w3.org/2000/svg" width="64" height="64" viewBox="0 0 64 64"><defs><style>.cls-1{fill-rule:evenodd}</style></defs><title>Icons 200</title><path class="cls-1" d="M54.574 27.416a1.993 1.993 0 0 1-2.73.082 30.002 30.002 0 0 0-39.679 0 1.993 1.993 0 0 1-2.73-.082l-2.831-2.83a2.004 2.004 0 0 1 .078-2.909 38 38 0 0 1 50.645 0 2.004 2.004 0 0 1 .078 2.91zM36.943 41.312a2.085 2.085 0 0 1 .443 3.296l-3.693 3.668a2.422 2.422 0 0 1-3.409 0l-3.692-3.669a2.085 2.085 0 0 1 .443-3.295 10.094 10.094 0 0 1 9.908 0zM22.092 37.52a2.106 2.106 0 0 1-2.827-.13l-2.385-2.409c-1.174-1.185-1.14-2.638-.198-3.426a23.81 23.81 0 0 1 30.582 0 2.13 2.13 0 0 1 .11 3.116l-2.689 2.715a2.11 2.11 0 0 1-2.83.134 15.63 15.63 0 0 0-19.763 0z"/></svg>