<svg data-name="Layer 1" xmlns="http://www.w3.org/2000/svg" width="64" height="64" viewBox="0 0 64 64"><title>Icons 400</title><path d="M10.069 26.624l-.016-.048a1.947 1.947 0 0 1 1.274-2.454 58.047 58.047 0 0 1 5.963-1.46c6.481-1.372 10.719-2.507 10.677-5.699a2.977 2.977 0 0 0-3.127-2.943 2.675 2.675 0 0 0-2.288 1.25 1.957 1.957 0 0 1-2.612.46l-.014-.008a1.977 1.977 0 0 1-.578-2.84 6.62 6.62 0 0 1 5.728-2.863 7.043 7.043 0 0 1 6.892 6.991c.001 6.635-7.357 8.192-13.85 9.567a54.656 54.656 0 0 0-5.554 1.352 2 2 0 0 1-2.495-1.305zM47.217 38.995c-7.182-.318-12.908-4.984-21.236-4.984a32.596 32.596 0 0 0-15.08 3.823 1.993 1.993 0 0 1-2.635-.784l-.002-.003a2.01 2.01 0 0 1 .83-2.781 36.294 36.294 0 0 1 16.887-4.256c9.232 0 15.306 4.828 21.67 4.997a4.138 4.138 0 0 0 4.281-3.308 4.006 4.006 0 0 0-3.943-4.689 2.514 2.514 0 0 0-1.788.602 1.976 1.976 0 0 1-2.694-.215l-.011-.013a1.982 1.982 0 0 1 .185-2.875 6.456 6.456 0 0 1 4.308-1.5 8.01 8.01 0 0 1 7.978 8.64 8.255 8.255 0 0 1-8.75 7.346z"/><path d="M31.983 56.016a7.122 7.122 0 0 1-6.743-4.084 1.994 1.994 0 0 1 .995-2.773 1.978 1.978 0 0 1 2.522.91 3.274 3.274 0 0 0 3.217 1.946 4 4 0 0 0 4.01-4.064c-.044-3.665-3.868-5.938-10.004-5.938a18.147 18.147 0 0 0-10.81 3.67 2.001 2.001 0 0 1-2.728-.385 2.003 2.003 0 0 1 .416-2.878 22.196 22.196 0 0 1 13.122-4.409c10.338 0 14.005 5.388 14.005 10.002a8.012 8.012 0 0 1-8.002 8.003z"/></svg>