<svg id="Layer_1" data-name="Layer 1" xmlns="http://www.w3.org/2000/svg" width="64" height="64" viewBox="0 0 64 64">
  <title>Icons 400</title>
  <path d="M10.0686,26.6241l-.0151-.0477a1.9474,1.9474,0,0,1,1.274-2.454,58.047,58.047,0,0,1,5.9628-1.46c6.4809-1.3723,10.7184-2.5073,10.6763-5.6991A2.9766,2.9766,0,0,0,24.84,14.02,2.6749,2.6749,0,0,0,22.5521,15.27a1.9571,1.9571,0,0,1-2.612.4608l-.0137-.0084a1.9767,1.9767,0,0,1-.5782-2.84,6.62,6.62,0,0,1,5.7279-2.8638,7.0431,7.0431,0,0,1,6.8922,6.9914c.0007,6.6353-7.3573,8.1924-13.85,9.5668a54.6562,54.6562,0,0,0-5.5545,1.3517A1.9991,1.9991,0,0,1,10.0686,26.6241Z"/>
  <path d="M47.2168,38.9951c-7.1816-.3184-12.9077-4.9838-21.236-4.9838A32.5965,32.5965,0,0,0,10.9017,37.834,1.9928,1.9928,0,0,1,8.266,37.05l-.0018-.003a2.01,2.01,0,0,1,.83-2.7812A36.2937,36.2937,0,0,1,25.9808,30.01c9.2326,0,15.3064,4.8279,21.671,4.9966a4.1376,4.1376,0,0,0,4.2806-3.308A4.0065,4.0065,0,0,0,47.9889,27.01a2.5144,2.5144,0,0,0-1.7881.6023,1.9765,1.9765,0,0,1-2.6939-.2157l-.0113-.0122a1.982,1.982,0,0,1,.1854-2.8755,6.4558,6.4558,0,0,1,4.3079-1.5,8.0109,8.0109,0,0,1,7.9779,8.64A8.2548,8.2548,0,0,1,47.2168,38.9951Z"/>
  <path d="M31.983,56.016A7.1225,7.1225,0,0,1,25.24,51.9322a1.9935,1.9935,0,0,1,.9946-2.7736h0a1.978,1.978,0,0,1,2.522.91,3.2741,3.2741,0,0,0,3.217,1.9462,4,4,0,0,0,4.01-4.0642c-.0436-3.6648-3.8678-5.9379-10.0033-5.9379a18.1467,18.1467,0,0,0-10.8105,3.67,2.0013,2.0013,0,0,1-2.7277-.3845h0a2.0032,2.0032,0,0,1,.4161-2.8779,22.1961,22.1961,0,0,1,13.1221-4.409c10.3373,0,14.0052,5.3879,14.0052,10.0022A8.0116,8.0116,0,0,1,31.983,56.016Z"/>
</svg>
