<svg id="Layer_1" data-name="Layer 1" xmlns="http://www.w3.org/2000/svg" width="64" height="64" viewBox="0 0 64 64">
  <defs>
    <style>
      .cls-1 {
        fill-rule: evenodd;
      }
    </style>
  </defs>
  <title>Icons 300</title>
  <path class="cls-1" d="M51.0156,54.0157h-38a5,5,0,0,1-5-5v-34a5,5,0,0,1,5-5h38a5,5,0,0,1,5,5v34A5,5,0,0,1,51.0156,54.0157Zm-37-40a2,2,0,1,0,2,2A2,2,0,0,0,14.0157,14.0158Zm6,0a2,2,0,1,0,2,2A2,2,0,0,0,20.0157,14.0158Zm6,0a2,2,0,1,0,2,2A2,2,0,0,0,26.0157,14.0158Zm26,9a1,1,0,0,0-1-1h-38a1,1,0,0,0-1,1v26a1,1,0,0,0,1,1h38a1,1,0,0,0,1-1Z"/>
</svg>
