<svg id="Layer_1" data-name="Layer 1" xmlns="http://www.w3.org/2000/svg" width="64" height="64" viewBox="0 0 64 64"><defs><style>.cls-1{fill-rule:evenodd}</style></defs><title>Icons 300</title><path class="cls-1" d="M34.001 40.696a1.014 1.014 0 0 1 .828-.985 14.01 14.01 0 0 0 11.174-13.695c0-6.142-2.919-16.878-3.044-17.29a1 1 0 0 0-.957-.71H22a1 1 0 0 0-.958.71C20.918 9.138 18 19.874 18 26.016A14.01 14.01 0 0 0 29.174 39.71a1.014 1.014 0 0 1 .828.985l.012 9.799a.995.995 0 0 1-.817.983c-3.275.594-8.273 1.522-8.376 1.543a.986.986 0 0 0-.778.995v1a1 1 0 0 0 1 1H42.99a1 1 0 0 0 1-1v-1a.986.986 0 0 0-.778-.995c-.102-.02-5.101-.95-8.376-1.543a.995.995 0 0 1-.817-.983zm-11.11-18.68a.499.499 0 0 1-.5-.564 84.935 84.935 0 0 1 1.779-9.07.493.493 0 0 1 .483-.367h14.695a.492.492 0 0 1 .483.367 86.907 86.907 0 0 1 1.777 9.07.5.5 0 0 1-.5.563z"/></svg>