<svg id="Layer_1" data-name="Layer 1" xmlns="http://www.w3.org/2000/svg" width="64" height="64" viewBox="0 0 64 64">
  <defs>
    <style>
      .cls-1 {
        fill-rule: evenodd;
      }
    </style>
  </defs>
  <title>Icons 300</title>
  <path class="cls-1" d="M34.0012,40.6958a1.0137,1.0137,0,0,1,.8276-.9846A14.01,14.01,0,0,0,46.0029,26.0156c0-6.1416-2.9184-16.8774-3.0434-17.2891a.9992.9992,0,0,0-.9571-.7109H22a1.0007,1.0007,0,0,0-.9576.7109c-.1241.4117-3.0429,11.1475-3.0429,17.2891A14.01,14.01,0,0,0,29.173,39.7112a1.0136,1.0136,0,0,1,.8276.9846l.0124,9.7992a.9946.9946,0,0,1-.8168.9829c-3.2749.594-8.2736,1.5226-8.3762,1.5431a.9862.9862,0,0,0-.7779.9946v1a1,1,0,0,0,1,1H42.9892a1,1,0,0,0,1-1v-1a.9862.9862,0,0,0-.7781-.9946c-.1025-.02-5.1013-.9491-8.3762-1.5431a.9947.9947,0,0,1-.8168-.9829Zm-11.11-18.68a.4989.4989,0,0,1-.4994-.5635,84.9347,84.9347,0,0,1,1.7781-9.07.4934.4934,0,0,1,.4834-.3669H39.3478a.4922.4922,0,0,1,.4832.3665,86.907,86.907,0,0,1,1.7773,9.0694.4994.4994,0,0,1-.4995.5642Z"/>
</svg>
