<svg id="Layer_1" data-name="Layer 1" xmlns="http://www.w3.org/2000/svg" width="64" height="64" viewBox="0 0 64 64"><defs><style>.cls-1{fill-rule:evenodd}</style></defs><title>Icons 100</title><path class="cls-1" d="M51.866 43.162a6.172 6.172 0 1 1-8.71 8.701l-14.25-16.5a1.01 1.01 0 0 0-1.144-.265 12.908 12.908 0 0 1-7.004.714 13.073 13.073 0 0 1-10.423-9.957 12.79 12.79 0 0 1-.197-4.606 1.004 1.004 0 0 1 1.71-.56l6.758 6.906a1 1 0 0 0 .969.268l5.996-1.578a1 1 0 0 0 .712-.713l1.578-5.996a1 1 0 0 0-.268-.969l-6.907-6.756a1.004 1.004 0 0 1 .56-1.711 12.79 12.79 0 0 1 4.614.198 13.073 13.073 0 0 1 9.952 10.427 12.909 12.909 0 0 1-.715 6.999 1.004 1.004 0 0 0 .262 1.141l16.507 14.257zm-3.864 7.84a2.999 2.999 0 1 0-2.999-3 2.999 2.999 0 0 0 2.999 3z"/></svg>