<svg id="Layer_1" data-name="Layer 1" xmlns="http://www.w3.org/2000/svg" width="64" height="64" viewBox="0 0 64 64">
  <defs>
    <style>
      .cls-1 {
        fill-rule: evenodd;
      }
    </style>
  </defs>
  <title>Icons 100</title>
  <path class="cls-1" d="M51.8664,43.1617a6.172,6.172,0,1,1-8.71,8.7015L28.9061,35.3626a1.01,1.01,0,0,0-1.1439-.2646,12.9077,12.9077,0,0,1-7.004.7143A13.0735,13.0735,0,0,1,10.335,25.8546a12.7892,12.7892,0,0,1-.1968-4.6052,1.0038,1.0038,0,0,1,1.7106-.5606l6.7571,6.9061a0.9993,0.9993,0,0,0,.9688.2676l5.9964-1.5779a1,1,0,0,0,.7122-0.7123l1.578-5.9962a1,1,0,0,0-.2679-0.969l-6.9076-6.7565a1.0037,1.0037,0,0,1,.5606-1.7107,12.7909,12.7909,0,0,1,4.614.1981,13.0729,13.0729,0,0,1,9.9515,10.4272,12.9085,12.9085,0,0,1-.7151,6.9985,1.0045,1.0045,0,0,0,.262,1.1415C37.769,30.9867,47.5034,39.3939,51.8664,43.1617Zm-3.8644,7.84a2.999,2.999,0,1,0-2.9989-2.9989A2.9988,2.9988,0,0,0,48.002,51.0021Z"/>
</svg>
