<svg width="16" height="16" viewBox="0 0 16 16" version="2.0" xmlns="http://www.w3.org/2000/svg" xmlns:xlink="http://www.w3.org/1999/xlink" xmlns:figma="http://www.figma.com/figma/ns">
<title>slack-mark.svg</title>
<desc>Created using Figma 0.90</desc>
<g id="Canvas" transform="translate(916 883)" figma:type="canvas">
<mask id="mask0_alpha" mask-type="alpha">
<path d="M -916 -883L -900 -883L -900 -867L -916 -867L -916 -883Z" fill="#FFFFFF"/>
</mask>
<g id="slack-mark" style="mix-blend-mode:normal;" mask="url(#mask0_alpha)" figma:type="frame">
<g id="Vector" style="mix-blend-mode:normal;" figma:type="vector">
<use xlink:href="#path0_fill" transform="matrix(-0.3176 -0.9482 0.9482 -0.3176 -908.721 -873.604)" style="mix-blend-mode:normal;"/>
</g>
<g id="Vector" style="mix-blend-mode:normal;" figma:type="vector">
<use xlink:href="#path0_fill" transform="matrix(-0.3176 -0.9482 0.9482 -0.3176 -908.721 -873.604)" style="mix-blend-mode:normal;"/>
</g>
<g id="Vector" style="mix-blend-mode:normal;" figma:type="vector">
<use xlink:href="#path1_fill" transform="translate(-916 -883)" style="mix-blend-mode:normal;"/>
</g>
</g>
</g>
<defs>
<path id="path0_fill" d="M 2.1745 0L 0 0L 0 2.25125L 2.1745 2.25125L 2.1745 0Z"/>
<path id="path1_fill" d="M 15.3293 5.79992C 13.6793 0.299719 11.3001 -0.979398 5.79992 0.670662C 0.299719 2.32072 -0.979398 4.69988 0.670662 10.2001C 2.32072 15.7003 4.69988 16.9794 10.2001 15.3293C 15.7003 13.6793 16.9794 11.3001 15.3293 5.79992ZM 12.5537 9.36865L 11.5176 9.71402L 11.8757 10.7885C 12.0164 11.2234 11.7862 11.6966 11.3513 11.8373C 11.2617 11.8629 11.1594 11.8885 11.0699 11.8757C 10.7373 11.8629 10.4175 11.6455 10.3024 11.3129L 9.94426 10.2385L 7.80813 10.9675L 8.16629 12.042C 8.30699 12.4769 8.07675 12.9502 7.64185 13.0909C 7.55231 13.1165 7.44998 13.142 7.36044 13.1293C 7.02787 13.1165 6.70809 12.899 6.59297 12.5664L 6.23482 11.492L 5.19873 11.8373C 5.1092 11.8629 5.00687 11.8885 4.91733 11.8757C 4.58476 11.8629 4.26498 11.6455 4.14986 11.3129C 4.00916 10.878 4.2394 10.4047 4.6743 10.264L 5.71038 9.91867L 5.01966 7.8593L 3.98357 8.20466C 3.89404 8.23024 3.79171 8.25582 3.70217 8.24303C 3.3696 8.23024 3.04982 8.01279 2.9347 7.68022C 2.794 7.24532 3.02424 6.77205 3.45914 6.63135L 4.49522 6.28598L 4.13707 5.21153C 3.99637 4.77663 4.22661 4.30335 4.66151 4.16265C 5.09641 4.02195 5.56968 4.25219 5.71038 4.68709L 6.06853 5.76155L 8.20466 5.04524L 7.84651 3.97078C 7.7058 3.53588 7.93604 3.06261 8.37094 2.92191C 8.80584 2.7812 9.27912 3.01145 9.41982 3.44635L 9.77797 4.5208L 10.8141 4.17544C 11.249 4.03474 11.7222 4.26498 11.8629 4.69988C 12.0036 5.13478 11.7734 5.60805 11.3385 5.74876L 10.3024 6.09412L 10.9931 8.15349L 12.0292 7.80813C 12.4641 7.66743 12.9374 7.89767 13.0781 8.33257C 13.2188 8.75468 12.9886 9.22795 12.5537 9.36865Z"/>
</defs>
</svg>
